<svg width="143" height="668" viewBox="0 0 143 668" fill="none" xmlns="http://www.w3.org/2000/svg">
<path opacity="0.3" d="M-154.566 25.2619L-153.267 26.9333C-153.367 26.7462 -153.458 26.5607 -153.557 26.3731C-153.995 25.7535 -154.434 25.1331 -154.882 24.5108C-154.775 24.7613 -154.673 25.0112 -154.566 25.2619ZM-147.704 35.8237C-147.35 36.2552 -146.988 36.6902 -146.638 37.1201L-146.741 36.9442L-147.951 35.3179L-147.704 35.8237ZM-152.644 29.8101C-151.856 30.7596 -151.1 31.6975 -150.315 32.6455C-150.562 32.1551 -150.828 31.6605 -151.078 31.1688C-151.786 30.2413 -152.527 29.3026 -153.254 28.3688C-153.053 28.8487 -152.842 29.3309 -152.644 29.8101ZM-140.267 46.577C-139.962 46.9374 -139.681 47.2893 -139.378 47.6483L-139.384 47.6391C-139.705 47.2264 -140.041 46.808 -140.367 46.3938L-140.267 46.577ZM-145.372 40.6304C-144.64 41.4793 -143.898 42.3326 -143.175 43.1785C-143.39 42.7928 -143.597 42.4086 -143.814 42.0226C-144.58 41.0616 -145.306 40.1149 -146.084 39.1495C-145.85 39.6425 -145.603 40.1379 -145.372 40.6304ZM-150.852 34.3077C-149.799 35.5023 -148.787 36.6818 -147.753 37.8701C-148.048 37.2571 -148.347 36.644 -148.648 36.0297C-149.616 34.8431 -150.603 33.65 -151.58 32.4604C-151.335 33.0768 -151.094 33.6921 -150.852 34.3077ZM-236.973 511.516L-236.7 511.101C-236.669 510.784 -236.635 510.469 -236.602 510.153L-236.814 510.538C-236.869 510.864 -236.919 511.19 -236.973 511.516ZM-132.123 57.8239L-131.801 58.1973C-131.938 58.0279 -132.066 57.8611 -132.202 57.6918L-132.123 57.8239ZM-137.63 51.5108C-136.926 52.299 -136.244 53.078 -135.558 53.8596C-135.742 53.553 -135.92 53.2485 -136.105 52.9409C-136.79 52.1102 -137.492 51.2736 -138.177 50.4429C-137.989 50.8005 -137.815 51.1536 -137.63 51.5108ZM-143.263 45.2454C-142.237 46.3862 -141.204 47.5293 -140.187 48.6666C-140.522 48.0403 -140.873 47.4094 -141.212 46.7814C-142.158 45.6614 -143.132 44.5308 -144.106 43.3992C-143.824 44.0151 -143.541 44.6311 -143.263 45.2454ZM-149.12 38.8202C-147.855 40.1848 -146.608 41.542 -145.379 42.8917C-145.697 42.2045 -145.997 41.5209 -146.319 40.8321C-147.529 39.4355 -148.716 38.0462 -149.928 36.6478C-149.65 37.3733 -149.392 38.096 -149.12 38.8202ZM-237.553 515.128C-237.37 514.887 -237.179 514.647 -236.993 514.406L-236.872 513.011C-237.024 513.246 -237.18 513.479 -237.33 513.714C-237.405 514.186 -237.481 514.657 -237.553 515.128ZM-239.155 517.258L-238.802 516.784L-238.664 515.835L-238.925 516.249C-239.002 516.586 -239.082 516.921 -239.155 517.258ZM-240.617 519.23L-240.57 519.164L-240.506 518.865L-240.617 519.23ZM-129.287 62.7679C-128.627 63.5056 -127.955 64.2482 -127.288 64.9881L-127.995 63.8903C-128.606 63.1715 -129.252 62.4394 -129.88 61.7137C-129.68 62.066 -129.486 62.4161 -129.287 62.7679ZM-135.129 56.3853C-134.12 57.4633 -133.104 58.5437 -132.132 59.6063C-132.432 59.0856 -132.761 58.5569 -133.066 58.0355C-134.065 56.886 -135.047 55.7437 -136.047 54.5935C-135.745 55.19 -135.428 55.7903 -135.129 56.3853ZM-141.231 49.8443L-137.467 53.8781C-137.838 53.1578 -138.199 52.4402 -138.575 51.7181C-139.727 50.4185 -140.924 49.1016 -142.109 47.7888C-141.806 48.4766 -141.528 49.1583 -141.231 49.8443ZM-147.479 43.2877C-146.017 44.7962 -144.548 46.3079 -143.145 47.7931C-143.486 47.0162 -143.857 46.2332 -144.208 45.4542C-145.604 43.9142 -146.962 42.3892 -148.378 40.8414C-148.08 41.6564 -147.769 42.4741 -147.479 43.2877ZM-238.061 518.64C-237.794 518.337 -237.531 518.034 -237.261 517.732C-237.219 517.165 -237.18 516.597 -237.135 516.031C-237.365 516.334 -237.587 516.639 -237.817 516.943C-237.897 517.508 -237.983 518.073 -238.061 518.64ZM-239.879 520.708C-239.675 520.47 -239.465 520.235 -239.259 519.998C-239.197 519.537 -239.132 519.077 -239.067 518.616L-239.591 519.331C-239.687 519.79 -239.785 520.248 -239.879 520.708ZM-241.61 522.744L-241.211 522.275C-241.148 521.956 -241.087 521.637 -241.021 521.319C-241.123 521.461 -241.226 521.602 -241.328 521.745C-241.42 522.078 -241.517 522.41 -241.61 522.744ZM-243.203 524.657L-243.118 524.553L-243.019 524.175L-243.038 524.202L-243.203 524.657ZM-120.465 74.2104C-119.851 74.8708 -119.223 75.5366 -118.621 76.1923C-118.765 75.9782 -118.918 75.7615 -119.065 75.5474C-119.73 74.783 -120.377 74.0257 -121.046 73.2597L-120.465 74.2104ZM-126.487 67.7438C-125.505 68.792 -124.546 69.8318 -123.568 70.8788C-123.886 70.3638 -124.184 69.8553 -124.506 69.3391C-125.447 68.2797 -126.425 67.2054 -127.388 66.1371C-127.093 66.671 -126.778 67.211 -126.487 67.7438ZM-132.803 61.1321C-131.563 62.4122 -130.314 63.6963 -129.117 64.9579C-129.483 64.2987 -129.858 63.6378 -130.232 62.9766C-131.436 61.6495 -132.602 60.3378 -133.829 59.0019C-133.479 59.7144 -133.146 60.4219 -132.803 61.1321ZM-139.278 54.4142C-137.8 55.9364 -136.36 57.443 -134.897 58.9595C-135.285 58.1725 -135.677 57.3846 -136.074 56.5952C-137.451 55.1058 -138.86 53.6032 -140.265 52.1027C-139.941 52.8724 -139.595 53.6462 -139.278 54.4142ZM-145.992 47.6416C-144.352 49.2795 -142.695 50.925 -141.118 52.5368C-141.466 51.7098 -141.822 50.8809 -142.179 50.0519C-143.716 48.4207 -145.266 46.7849 -146.843 45.1375C-146.553 45.973 -146.273 46.807 -145.992 47.6416ZM-238.513 522.082C-238.177 521.753 -237.836 521.425 -237.497 521.097C-237.455 520.443 -237.407 519.79 -237.361 519.137C-237.665 519.482 -237.97 519.826 -238.271 520.172C-238.354 520.808 -238.433 521.446 -238.513 522.082ZM-240.546 524.109C-240.253 523.814 -239.961 523.52 -239.667 523.226C-239.597 522.663 -239.524 522.102 -239.452 521.539C-239.715 521.844 -239.972 522.15 -240.232 522.455C-240.339 523.006 -240.441 523.558 -240.546 524.109ZM-242.499 526.095C-242.264 525.852 -242.034 525.608 -241.797 525.365C-241.713 524.909 -241.623 524.454 -241.537 523.998C-241.743 524.245 -241.942 524.494 -242.147 524.742L-242.499 526.095ZM-244.351 528.022C-244.202 527.864 -244.047 527.708 -243.898 527.551C-243.816 527.224 -243.728 526.899 -243.644 526.573L-244.015 527.03C-244.126 527.36 -244.241 527.69 -244.351 528.022ZM-246.077 529.879L-245.94 529.731C-245.896 529.592 -245.854 529.452 -245.808 529.313L-245.868 529.389C-245.936 529.553 -246.009 529.715 -246.077 529.879ZM-111.263 85.7268C-110.641 86.3834 -110.076 87.016 -109.465 87.6677C-109.562 87.5302 -109.65 87.3959 -109.748 87.2581C-110.368 86.5602 -111.011 85.8536 -111.636 85.1541C-111.514 85.3444 -111.384 85.537 -111.263 85.7268ZM-117.429 79.2972C-116.499 80.2656 -115.558 81.2393 -114.643 82.2012C-114.959 81.7175 -115.267 81.2363 -115.587 80.7518C-116.506 79.7393 -117.399 78.7383 -118.339 77.7172C-118.024 78.2474 -117.74 78.7681 -117.429 79.2972ZM-123.968 72.4931C-122.678 73.8159 -121.457 75.1093 -120.187 76.4236C-120.583 75.7592 -121.007 75.0859 -121.41 74.4191C-122.587 73.1466 -123.788 71.8638 -124.979 70.5859C-124.637 71.2228 -124.301 71.8578 -123.968 72.4931ZM-130.541 65.868C-129.099 67.3165 -127.648 68.7685 -126.243 70.201C-126.647 69.4469 -127.025 68.7013 -127.439 67.9445C-128.824 66.4755 -130.231 64.9956 -131.659 63.5081C-131.287 64.2944 -130.904 65.0838 -130.541 65.868ZM-137.496 58.8786C-135.815 60.5486 -134.197 62.1924 -132.544 63.8495C-132.938 63.0142 -133.348 62.1737 -133.754 61.3356C-135.312 59.712 -136.885 58.0829 -138.462 56.4509C-138.135 57.2618 -137.815 58.0698 -137.496 58.8786ZM-144.571 51.9694C-142.762 53.7283 -140.944 55.4911 -139.187 57.2277C-139.536 56.3576 -139.868 55.4915 -140.227 54.6196C-141.906 52.8988 -143.648 51.1507 -145.392 49.4032C-145.11 50.26 -144.844 51.1141 -144.571 51.9694ZM-238.925 525.512C-238.51 525.157 -238.102 524.799 -237.683 524.445C-237.646 523.735 -237.612 523.026 -237.571 522.315C-237.944 522.682 -238.313 523.049 -238.683 523.417C-238.768 524.115 -238.847 524.814 -238.925 525.512ZM-241.154 527.441C-240.785 527.115 -240.409 526.792 -240.036 526.468C-239.967 525.835 -239.904 525.202 -239.832 524.57C-240.16 524.902 -240.496 525.231 -240.821 525.563C-240.938 526.188 -241.046 526.815 -241.154 527.441ZM-243.315 529.363C-242.995 529.075 -242.67 528.789 -242.347 528.502C-242.254 527.955 -242.164 527.406 -242.068 526.86C-242.356 527.159 -242.647 527.458 -242.932 527.758C-243.065 528.292 -243.186 528.828 -243.315 529.363ZM-245.397 531.268C-245.137 531.028 -244.879 530.787 -244.616 530.548L-244.297 529.205C-244.525 529.451 -244.752 529.698 -244.98 529.943C-245.121 530.384 -245.26 530.826 -245.397 531.268ZM-247.378 533.117C-247.199 532.948 -247.026 532.776 -246.846 532.607C-246.748 532.285 -246.643 531.965 -246.542 531.643C-246.693 531.81 -246.84 531.979 -246.989 532.146C-247.118 532.47 -247.251 532.793 -247.378 533.117ZM-249.205 534.87L-249.024 534.695C-248.967 534.546 -248.913 534.396 -248.856 534.246L-248.964 534.369L-249.205 534.87ZM-101.496 97.6835C-101.004 98.2013 -100.505 98.7227 -100.01 99.2421C-100.154 99.045 -100.293 98.85 -100.438 98.6528C-100.917 98.1254 -101.415 97.5896 -101.906 97.0568C-101.764 97.2676 -101.636 97.4731 -101.496 97.6835ZM-108.025 90.9013C-107.105 91.8353 -106.198 92.7639 -105.306 93.6855C-105.575 93.2946 -105.849 92.901 -106.118 92.5094C-107.026 91.5283 -107.945 90.5415 -108.851 89.562C-108.57 90.0099 -108.302 90.454 -108.025 90.9013ZM-114.573 84.2634C-113.347 85.5061 -112.11 86.7534 -110.895 87.991C-111.324 87.3118 -111.764 86.6279 -112.201 85.9459C-113.338 84.7396 -114.529 83.5092 -115.711 82.283C-115.333 82.9426 -114.944 83.606 -114.573 84.2634ZM-121.431 77.3755C-119.975 78.8174 -118.552 80.244 -117.13 81.6703C-117.545 80.9506 -117.949 80.2344 -118.371 79.5123L-122.557 75.1517C-122.173 75.8958 -121.807 76.6339 -121.431 77.3755ZM-128.478 70.4572C-126.818 72.0803 -125.16 73.7043 -123.53 75.3148C-123.977 74.4488 -124.457 73.5724 -124.915 72.7029C-126.423 71.155 -128.011 69.5729 -129.582 67.9992C-129.21 68.8193 -128.84 69.6395 -128.478 70.4572ZM-135.759 63.3751C-133.929 65.1356 -132.135 66.8794 -130.348 68.6211C-130.732 67.7717 -131.098 66.9269 -131.493 66.0748C-133.241 64.3132 -134.97 62.5602 -136.736 60.7903C-136.402 61.6538 -136.083 62.5135 -135.759 63.3751ZM-143.226 56.2624C-141.251 58.1357 -139.281 60.0077 -137.348 61.8625C-137.7 60.9406 -138.084 60.0109 -138.449 59.0861C-140.261 57.2849 -142.171 55.4419 -144.058 53.6083C-143.781 54.4931 -143.491 55.3796 -143.226 56.2624ZM-234.276 525.243C-209.485 507.489 -179.099 491.513 -148.127 475.236C-34.4957 415.517 86.8845 351.677 -33.2678 180.419M-239.293 528.911C-238.816 528.553 -238.328 528.198 -237.846 527.842C-237.814 527.077 -237.781 526.313 -237.742 525.549C-238.18 525.924 -238.617 526.299 -239.051 526.675C-239.134 527.42 -239.219 528.164 -239.293 528.911ZM-241.719 530.762C-241.274 530.42 -240.827 530.078 -240.377 529.738C-240.311 529.037 -240.238 528.339 -240.163 527.64C-240.569 527.997 -240.968 528.356 -241.37 528.715C-241.489 529.396 -241.61 530.078 -241.719 530.762ZM-244.075 532.598C-243.67 532.279 -243.271 531.957 -242.862 531.639C-242.765 531.017 -242.666 530.395 -242.563 529.775C-242.929 530.104 -243.288 530.436 -243.65 530.767C-243.794 531.377 -243.937 531.987 -244.075 532.598ZM-246.356 534.415C-246.006 534.133 -245.654 533.851 -245.302 533.569C-245.186 533.037 -245.078 532.503 -244.956 531.972C-245.268 532.261 -245.584 532.547 -245.891 532.836C-246.051 533.361 -246.201 533.889 -246.356 534.415ZM-248.56 536.224C-248.277 535.989 -247.987 535.755 -247.702 535.52L-247.319 534.205C-247.571 534.447 -247.826 534.688 -248.075 534.931L-248.56 536.224ZM-250.668 538.006L-250.072 537.497C-249.956 537.177 -249.833 536.859 -249.713 536.54L-250.221 537.046C-250.368 537.366 -250.523 537.685 -250.668 538.006ZM-252.58 539.653L-252.356 539.455L-252.164 539.015L-252.329 539.187C-252.415 539.342 -252.495 539.498 -252.58 539.653ZM-91.5588 109.534C-91.1254 109.978 -90.6808 110.427 -90.2533 110.868L-90.3407 110.754C-90.8481 110.205 -91.3419 109.662 -91.8501 109.112L-91.5588 109.534ZM-98.1436 102.803C-97.2087 103.76 -96.2755 104.717 -95.3325 105.676C-95.6539 105.225 -96.0021 104.762 -96.326 104.31C-97.1909 103.391 -98.0927 102.456 -98.9779 101.529C-98.6994 101.954 -98.4187 102.38 -98.1436 102.803ZM-104.801 96.1283C-103.653 97.2601 -102.491 98.3975 -101.381 99.5117C-101.738 98.9733 -102.072 98.4433 -102.434 97.9037C-103.644 96.6401 -104.816 95.3927 -106.038 94.124C-105.634 94.7891 -105.199 95.4654 -104.801 96.1283ZM-111.879 89.1296L-107.559 93.4022C-108.023 92.6422 -108.497 91.879 -108.969 91.116C-110.294 89.7565 -111.669 88.3749 -113.031 86.9982C-112.636 87.7128 -112.268 88.4173 -111.879 89.1296ZM-119.055 82.1524C-117.406 83.7343 -115.757 85.3153 -114.16 86.8734C-114.599 86.0806 -115.061 85.2808 -115.511 84.4847C-117.125 82.8552 -118.682 81.2505 -120.32 79.611C-119.898 80.4586 -119.468 81.3082 -119.055 82.1524ZM-126.492 75.0225C-124.676 76.7601 -122.87 78.4913 -121.07 80.2208C-121.506 79.3434 -121.933 78.4677 -122.38 77.5866C-124.068 75.9097 -125.818 74.2053 -127.557 72.5056C-127.19 73.3477 -126.849 74.183 -126.492 75.0225ZM-134.124 67.8168C-132.136 69.6741 -130.16 71.5253 -128.229 73.3571C-128.615 72.4648 -129.029 71.5652 -129.426 70.6696C-131.327 68.8114 -133.192 66.9692 -135.126 65.0957C-134.792 66.003 -134.447 66.9119 -134.124 67.8168ZM-142.013 60.4691C-139.891 62.4384 -137.787 64.3984 -135.694 66.3552C-136.028 65.4326 -136.367 64.5094 -136.714 63.5841C-138.689 61.679 -140.738 59.7422 -142.776 57.8095C-142.513 58.6975 -142.265 59.5832 -142.013 60.4691ZM-239.599 532.308C-239.055 531.95 -238.513 531.591 -237.964 531.235C-237.941 530.43 -237.911 529.627 -237.88 528.823C-238.385 529.202 -238.89 529.581 -239.39 529.961C-239.461 530.743 -239.532 531.526 -239.599 532.308ZM-242.209 534.046C-241.697 533.701 -241.186 533.355 -240.669 533.011C-240.607 532.269 -240.539 531.528 -240.471 530.786C-240.942 531.147 -241.419 531.506 -241.885 531.868C-241.994 532.594 -242.104 533.32 -242.209 534.046ZM-244.764 535.785C-244.292 535.458 -243.811 535.135 -243.335 534.811C-243.239 534.131 -243.134 533.453 -243.031 532.775C-243.466 533.119 -243.905 533.462 -244.335 533.807C-244.48 534.466 -244.628 535.124 -244.764 535.785ZM-247.253 537.536C-246.823 537.23 -246.389 536.927 -245.955 536.622C-245.832 536.013 -245.7 535.405 -245.568 534.798C-245.965 535.119 -246.356 535.443 -246.749 535.766C-246.92 536.355 -247.09 536.945 -247.253 537.536ZM-249.659 539.273C-249.278 538.994 -248.902 538.715 -248.517 538.437C-248.376 537.916 -248.241 537.391 -248.095 536.87C-248.444 537.163 -248.784 537.458 -249.13 537.752C-249.312 538.258 -249.481 538.766 -249.659 539.273ZM-251.98 540.988C-251.667 540.753 -251.357 540.518 -251.043 540.285C-250.897 539.857 -250.745 539.431 -250.598 539.004C-250.873 539.242 -251.151 539.479 -251.425 539.717C-251.61 540.141 -251.798 540.563 -251.98 540.988ZM-254.187 542.666C-253.97 542.499 -253.75 542.334 -253.532 542.167C-253.401 541.857 -253.27 541.547 -253.135 541.237C-253.324 541.406 -253.515 541.572 -253.7 541.74C-253.864 542.048 -254.026 542.357 -254.187 542.666ZM-256.214 544.258L-255.947 544.048L-255.72 543.595L-255.92 543.783L-256.214 544.258ZM-81.3703 121.391L-81.282 121.48L-81.3835 121.373L-81.3703 121.391ZM-87.8209 114.95C-86.9896 115.781 -86.1438 116.618 -85.3214 117.445C-85.5774 117.098 -85.8135 116.758 -86.0712 116.41C-86.9921 115.445 -87.8612 114.505 -88.7991 113.532C-88.4794 114.003 -88.1385 114.481 -87.8209 114.95ZM-94.8451 107.938C-93.652 109.117 -92.518 110.27 -91.3309 111.447C-91.721 110.88 -92.1074 110.316 -92.5031 109.747C-93.5964 108.622 -94.7181 107.484 -95.8237 106.354C-95.4837 106.887 -95.1801 107.407 -94.8451 107.938ZM-101.936 101.06C-100.501 102.442 -99.0569 103.828 -97.6604 105.193C-98.1211 104.476 -98.6111 103.748 -99.0777 103.029C-100.459 101.632 -101.817 100.244 -103.228 98.8329C-102.79 99.5778 -102.366 100.318 -101.936 101.06ZM-109.256 93.9808C-107.616 95.5587 -106.013 97.1206 -104.376 98.6974C-104.841 97.9105 -105.27 97.1362 -105.745 96.3454C-107.323 94.7736 -108.936 93.1861 -110.543 91.6014C-110.118 92.3926 -109.67 93.192 -109.256 93.9808ZM-116.828 86.834C-115.022 88.5222 -113.201 90.2177 -111.454 91.8779C-111.905 91.0359 -112.363 90.1923 -112.823 89.3465C-114.544 87.6595 -116.257 85.9748 -118.017 84.2697C-117.606 85.129 -117.229 85.9783 -116.828 86.834ZM-124.605 79.538C-122.619 81.394 -120.664 83.237 -118.687 85.09C-119.119 84.1843 -119.561 83.275 -120.005 82.3653C-121.88 80.5545 -123.794 78.7271 -125.708 76.8978C-125.342 77.7775 -124.96 78.6613 -124.605 79.538ZM-132.626 72.1657C-130.504 74.0959 -128.366 76.0325 -126.317 77.9299C-126.69 77.0319 -127.062 76.1335 -127.445 75.232C-129.461 73.3138 -131.482 71.3936 -133.544 69.4537C-133.227 70.36 -132.931 71.2614 -132.626 72.1657ZM-140.858 64.6536C-138.593 66.7132 -136.366 68.7542 -134.113 70.8076C-134.433 69.8809 -134.746 68.9557 -135.077 68.0261C-137.216 66.0207 -139.396 63.9959 -141.583 61.9691C-141.334 62.8646 -141.097 63.7591 -140.858 64.6536ZM-239.868 535.7C-239.262 535.349 -238.649 535.002 -238.037 534.653C-238.022 533.818 -238.014 532.982 -237.994 532.147C-238.559 532.517 -239.125 532.886 -239.684 533.256C-239.751 534.07 -239.809 534.885 -239.868 535.7ZM-242.659 537.329C-242.084 536.988 -241.498 536.651 -240.918 536.313C-240.862 535.531 -240.814 534.75 -240.754 533.97C-241.294 534.332 -241.826 534.697 -242.362 535.062C-242.467 535.816 -242.562 536.573 -242.659 537.329ZM-245.395 538.978C-244.85 538.646 -244.305 538.314 -243.754 537.984C-243.662 537.261 -243.571 536.539 -243.474 535.817C-243.984 536.168 -244.484 536.523 -244.989 536.876C-245.127 537.575 -245.263 538.276 -245.395 538.978ZM-248.078 540.632C-247.568 540.313 -247.062 539.991 -246.547 539.673C-246.423 539.016 -246.293 538.36 -246.165 537.704C-246.632 538.036 -247.101 538.366 -247.562 538.699C-247.737 539.343 -247.913 539.986 -248.078 540.632ZM-250.681 542.275C-250.224 541.981 -249.759 541.688 -249.296 541.396C-249.147 540.805 -248.991 540.216 -248.834 539.627C-249.257 539.937 -249.686 540.244 -250.106 540.556C-250.301 541.128 -250.493 541.701 -250.681 542.275ZM-253.203 543.919C-252.8 543.652 -252.389 543.389 -251.984 543.124C-251.821 542.618 -251.664 542.109 -251.497 541.603C-251.867 541.882 -252.234 542.162 -252.601 542.442C-252.805 542.933 -253.003 543.427 -253.203 543.919ZM-255.652 545.567C-255.314 545.336 -254.978 545.106 -254.636 544.877C-254.467 544.454 -254.291 544.033 -254.12 543.611C-254.425 543.85 -254.725 544.092 -255.028 544.332C-255.236 544.743 -255.449 545.153 -255.652 545.567ZM-257.947 547.147C-257.703 546.977 -257.465 546.803 -257.22 546.633C-257.077 546.333 -256.941 546.031 -256.794 545.731C-257.011 545.906 -257.218 546.083 -257.433 546.258C-257.608 546.553 -257.774 546.851 -257.947 547.147ZM-260.074 548.655L-259.774 548.443C-259.685 548.286 -259.593 548.13 -259.503 547.974C-259.578 548.037 -259.655 548.099 -259.731 548.163L-260.074 548.655ZM-70.4973 133.855L-69.3276 135.036L-69.3993 134.945C-69.8035 134.521 -70.2362 134.083 -70.6476 133.655L-70.4973 133.855ZM-77.3444 127.012C-76.598 127.739 -75.8385 128.473 -75.1171 129.189L-75.6279 128.513C-76.4138 127.701 -77.2065 126.886 -77.9834 126.079C-77.7626 126.393 -77.5635 126.698 -77.3444 127.012ZM-84.4077 120.11C-83.2592 121.235 -82.0967 122.365 -80.9508 123.488C-81.3936 122.867 -81.8581 122.238 -82.3056 121.614C-83.348 120.558 -84.4425 119.477 -85.5231 118.402C-85.1439 118.975 -84.783 119.54 -84.4077 120.11ZM-91.6952 113.034C-90.2389 114.428 -88.8361 115.798 -87.4069 117.18C-87.8528 116.513 -88.3036 115.844 -88.7562 115.175C-90.159 113.774 -91.5695 112.369 -92.9723 110.968C-92.546 111.657 -92.1138 112.348 -91.6952 113.034ZM-99.0675 106.051C-97.4686 107.562 -95.8619 109.076 -94.2919 110.574C-94.7907 109.769 -95.2735 108.971 -95.7829 108.162C-97.3 106.67 -98.8671 105.155 -100.437 103.639C-99.9791 104.443 -99.5163 105.249 -99.0675 106.051ZM-106.852 98.6937C-104.991 100.433 -103.214 102.135 -101.376 103.863C-101.864 103.007 -102.38 102.14 -102.879 101.279C-104.611 99.6007 -106.349 97.9205 -108.094 96.2367C-107.669 97.0593 -107.265 97.8743 -106.852 98.6937ZM-114.663 91.5059C-112.702 93.3022 -110.736 95.1021 -108.828 96.875C-109.286 95.9839 -109.727 95.0992 -110.197 94.2041C-112.068 92.4165 -113.991 90.6062 -115.921 88.7918C-115.506 89.6951 -115.065 90.606 -114.663 91.5059ZM-122.871 83.9513C-120.71 85.9238 -118.635 87.8561 -116.495 89.8196C-116.915 88.8986 -117.348 87.9731 -117.78 87.0477C-119.807 85.1412 -121.839 83.2316 -123.892 81.3136C-123.54 82.1962 -123.212 83.0721 -122.871 83.9513ZM-131.182 76.4998C-128.923 78.514 -126.652 80.5348 -124.464 82.5163C-124.826 81.5951 -125.18 80.6764 -125.556 79.7523C-127.698 77.7629 -129.889 75.7515 -132.094 73.7335C-131.786 74.6562 -131.477 75.5795 -131.182 76.4998ZM-139.775 68.8039C-137.368 70.9506 -135.021 73.0688 -132.62 75.2114C-132.928 74.2692 -133.262 73.3207 -133.581 72.3757C-135.87 70.2819 -138.165 68.1846 -140.488 66.0761C-140.25 66.9855 -140.002 67.8962 -139.775 68.8039ZM-240.101 539.102C-239.43 538.763 -238.756 538.426 -238.08 538.09C-238.075 537.22 -238.065 536.352 -238.051 535.484C-238.681 535.845 -239.304 536.21 -239.929 536.574C-239.99 537.417 -240.05 538.259 -240.101 539.102ZM-243.067 540.629C-242.423 540.294 -241.783 539.957 -241.132 539.624C-241.087 538.811 -241.034 537.999 -240.979 537.187C-241.58 537.541 -242.183 537.895 -242.777 538.25C-242.878 539.042 -242.976 539.835 -243.067 540.629ZM-245.978 542.162C-245.366 541.835 -244.754 541.509 -244.136 541.184C-244.052 540.426 -243.966 539.669 -243.873 538.912C-244.444 539.258 -245.02 539.6 -245.584 539.948C-245.721 540.684 -245.849 541.422 -245.978 542.162ZM-248.834 543.701C-248.26 543.386 -247.675 543.075 -247.096 542.763C-246.977 542.064 -246.862 541.363 -246.737 540.666C-247.275 541 -247.81 541.335 -248.343 541.672C-248.51 542.347 -248.672 543.024 -248.834 543.701ZM-251.643 545.271C-251.104 544.966 -250.558 544.663 -250.014 544.36C-249.864 543.717 -249.704 543.075 -249.548 542.432C-250.053 542.756 -250.546 543.083 -251.045 543.409C-251.247 544.029 -251.451 544.648 -251.643 545.271ZM-254.351 546.827C-253.861 546.541 -253.374 546.254 -252.878 545.97C-252.706 545.398 -252.527 544.826 -252.346 544.256C-252.805 544.56 -253.26 544.865 -253.714 545.17C-253.932 545.721 -254.14 546.275 -254.351 546.827ZM-256.988 548.382C-256.554 548.122 -256.122 547.861 -255.684 547.602C-255.499 547.11 -255.314 546.619 -255.126 546.129C-255.518 546.396 -255.915 546.66 -256.302 546.929C-256.531 547.413 -256.764 547.897 -256.988 548.382ZM-259.528 549.922C-259.177 549.705 -258.816 549.492 -258.464 549.276C-258.278 548.867 -258.084 548.461 -257.892 548.054C-258.218 548.285 -258.548 548.516 -258.872 548.748C-259.093 549.138 -259.311 549.53 -259.528 549.922ZM-261.938 551.443L-261.158 550.949C-260.999 550.655 -260.84 550.359 -260.679 550.065L-261.367 550.574L-261.938 551.443ZM-264.184 552.896L-263.825 552.657L-263.543 552.214L-263.835 552.441L-264.184 552.896ZM-66.6167 139.175C-65.8588 139.911 -65.1081 140.643 -64.3685 141.37L-64.9583 140.616C-65.6979 139.862 -66.4677 139.094 -67.22 138.334C-67.0145 138.616 -66.8209 138.894 -66.6167 139.175ZM-73.733 132.282C-72.5645 133.416 -71.3825 134.557 -70.2141 135.691C-70.6013 135.165 -71.0255 134.623 -71.4169 134.095C-72.5905 132.918 -73.7207 131.76 -74.8989 130.579C-74.5087 131.147 -74.1185 131.716 -73.733 132.282ZM-81.0098 125.315C-79.655 126.594 -78.2985 127.874 -76.9818 129.134C-77.4255 128.494 -77.8429 127.865 -78.2925 127.223C-79.6176 125.913 -80.9941 124.581 -82.3557 123.255C-81.9142 123.938 -81.4429 124.634 -81.0098 125.315ZM-88.6666 118.08C-87.0528 119.602 -85.4492 121.12 -83.8426 122.638C-84.3398 121.87 -84.8446 121.1 -85.3511 120.328C-86.911 118.811 -88.4314 117.311 -89.9964 115.791C-89.5345 116.561 -89.1188 117.314 -88.6666 118.08ZM-96.4538 110.848C-94.6332 112.522 -92.7995 114.202 -91.0341 115.85C-91.5478 114.993 -92.1078 114.117 -92.6339 113.255C-94.3203 111.638 -96.0751 109.99 -97.8163 108.348C-97.3565 109.183 -96.9034 110.017 -96.4538 110.848ZM-104.455 103.463C-102.469 105.281 -100.556 107.065 -98.5975 108.87C-99.0747 108 -99.5282 107.138 -100.017 106.264C-101.947 104.44 -103.846 102.63 -105.785 100.802C-105.344 101.688 -104.885 102.581 -104.455 103.463ZM-112.716 96.0062C-110.585 97.9227 -108.449 99.8416 -106.37 101.733C-106.833 100.796 -107.323 99.8499 -107.798 98.9085C-109.769 97.0709 -111.829 95.1924 -113.87 93.3228C-113.476 94.2206 -113.1 95.1122 -112.716 96.0062ZM-121.163 88.4232C-118.887 90.4501 -116.659 92.4548 -114.427 94.4619C-114.826 93.5465 -115.203 92.6385 -115.614 91.7191C-117.819 89.6923 -119.997 87.6774 -122.217 85.6438C-121.866 86.5699 -121.502 87.5 -121.163 88.4232ZM-129.871 80.7295C-127.464 82.848 -125.066 84.9616 -122.708 87.0574C-123.069 86.0956 -123.454 85.1274 -123.828 84.1621C-126.068 82.1276 -128.404 80.049 -130.724 77.9779C-130.435 78.8961 -130.147 79.8138 -129.871 80.7295ZM-138.793 72.9266C-136.264 75.1234 -133.751 77.3127 -131.283 79.4814C-131.568 78.5568 -131.847 77.6336 -132.143 76.7066C-134.581 74.5261 -136.986 72.3609 -139.441 70.1723C-139.215 71.0923 -139.007 72.0092 -138.793 72.9266ZM-240.271 542.508C-239.54 542.184 -238.811 541.859 -238.074 541.537C-238.081 540.648 -238.08 539.76 -238.079 538.872C-238.768 539.216 -239.459 539.56 -240.14 539.907C-240.186 540.773 -240.231 541.64 -240.271 542.508ZM-243.421 543.922C-242.718 543.601 -242.009 543.283 -241.299 542.966C-241.263 542.124 -241.218 541.283 -241.173 540.443C-241.837 540.785 -242.499 541.128 -243.157 541.473C-243.249 542.288 -243.34 543.104 -243.421 543.922ZM-246.514 545.347C-245.842 545.032 -245.161 544.723 -244.482 544.411C-244.406 543.617 -244.316 542.825 -244.227 542.032C-244.868 542.371 -245.498 542.714 -246.132 543.056C-246.262 543.818 -246.393 544.581 -246.514 545.347ZM-249.541 546.792C-248.899 546.482 -248.254 546.172 -247.604 545.865C-247.49 545.128 -247.372 544.392 -247.249 543.657C-247.86 543.989 -248.463 544.325 -249.066 544.66C-249.231 545.369 -249.385 546.08 -249.541 546.792ZM-252.52 548.25C-251.906 547.945 -251.299 547.638 -250.679 547.336C-250.532 546.662 -250.391 545.988 -250.24 545.316C-250.807 545.635 -251.378 545.952 -251.939 546.273C-252.136 546.932 -252.33 547.59 -252.52 548.25ZM-255.428 549.713C-254.863 549.423 -254.292 549.136 -253.723 548.849C-253.546 548.228 -253.361 547.611 -253.177 546.993C-253.707 547.3 -254.24 547.605 -254.763 547.914C-254.988 548.512 -255.212 549.111 -255.428 549.713ZM-258.245 551.173C-257.733 550.903 -257.21 550.637 -256.693 550.369C-256.498 549.817 -256.306 549.265 -256.104 548.715C-256.589 549.006 -257.07 549.297 -257.549 549.59C-257.785 550.116 -258.013 550.645 -258.245 551.173ZM-261.014 552.665C-260.552 552.413 -260.089 552.162 -259.623 551.912C-259.415 551.429 -259.199 550.948 -258.987 550.466C-259.417 550.733 -259.835 551.005 -260.26 551.273C-260.513 551.736 -260.769 552.199 -261.014 552.665ZM-263.634 554.117C-263.25 553.901 -262.875 553.683 -262.488 553.468C-262.289 553.081 -262.097 552.692 -261.894 552.307C-262.244 552.533 -262.589 552.76 -262.936 552.986C-263.174 553.362 -263.401 553.741 -263.634 554.117ZM-266.152 555.55C-265.875 555.388 -265.59 555.229 -265.311 555.068C-265.137 554.781 -264.956 554.496 -264.782 554.209C-265.027 554.374 -265.279 554.535 -265.522 554.701C-265.731 554.984 -265.947 555.265 -266.152 555.55ZM-268.449 556.914L-268.061 556.684L-267.762 556.254L-268.088 556.48C-268.209 556.624 -268.328 556.77 -268.449 556.914ZM-55.5305 151.543C-54.7854 152.259 -54.0237 152.983 -53.2973 153.69C-53.5338 153.394 -53.7872 153.09 -54.0237 152.793C-54.7455 152.066 -55.5025 151.322 -56.2426 150.586L-55.5305 151.543ZM-62.7037 144.644L-59.4137 147.807C-59.7797 147.323 -60.1194 146.85 -60.4892 146.364C-61.6279 145.232 -62.7543 144.107 -63.8994 142.973C-63.5066 143.528 -63.0914 144.092 -62.7037 144.644ZM-70.1475 137.59C-68.8194 138.834 -67.4773 140.083 -66.1849 141.311C-66.6544 140.654 -67.1206 139.999 -67.597 139.338C-68.8626 138.102 -70.1699 136.844 -71.4644 135.594C-71.0157 136.263 -70.5869 136.924 -70.1475 137.59ZM-77.9312 130.28C-76.2864 131.815 -74.6921 133.325 -73.0617 134.852C-73.5963 134.058 -74.1639 133.251 -74.7069 132.453C-76.2558 130.961 -77.7698 129.484 -79.3459 127.98C-78.8636 128.751 -78.4055 129.513 -77.9312 130.28ZM-85.7629 123.077C-83.975 124.714 -82.1804 126.354 -80.4315 127.972C-80.9508 127.145 -81.448 126.325 -81.977 125.494C-83.7156 123.842 -85.4857 122.176 -87.254 120.511C-86.7581 121.366 -86.2469 122.226 -85.7629 123.077ZM-93.9064 115.633C-91.9291 117.425 -90.0023 119.193 -88.0582 120.97C-88.5787 120.07 -89.0946 119.173 -89.6283 118.269C-91.4862 116.528 -93.3701 114.776 -95.2743 113.013C-94.809 113.89 -94.3598 114.761 -93.9064 115.633ZM-102.26 108.127C-100.118 110.046 -97.9831 111.961 -95.8776 113.863C-96.3701 112.928 -96.9094 111.977 -97.4163 111.038C-99.4539 109.154 -101.497 107.267 -103.557 105.373C-103.116 106.294 -102.687 107.211 -102.26 108.127ZM-110.797 100.533C-108.536 102.53 -106.294 104.517 -104.084 106.489C-104.532 105.544 -104.955 104.607 -105.416 103.658C-107.551 101.709 -109.767 99.7229 -111.969 97.7431C-111.576 98.674 -111.178 99.6066 -110.797 100.533ZM-119.62 92.7659C-117.204 94.8846 -114.821 96.9873 -112.435 99.0917C-112.834 98.1322 -113.266 97.1636 -113.68 96.2003C-115.993 94.1161 -118.269 92.0497 -120.621 89.9483C-120.28 90.8893 -119.948 91.8281 -119.62 92.7659ZM-128.632 84.9528C-126.109 87.1252 -123.579 89.301 -121.126 91.4405C-121.462 90.4991 -121.781 89.5621 -122.129 88.6171C-124.52 86.4889 -126.971 84.3316 -129.423 82.1741C-129.147 83.103 -128.897 84.0262 -128.632 84.9528ZM-137.873 76.985C-135.207 79.2694 -132.618 81.5173 -129.983 83.7856C-130.259 82.8347 -130.546 81.8807 -130.834 80.9266C-133.364 78.7029 -135.908 76.4728 -138.489 74.225C-138.278 75.1457 -138.073 76.0662 -137.873 76.985ZM-240.396 545.921C-239.61 545.616 -238.816 545.315 -238.022 545.014C-238.039 544.102 -238.063 543.19 -238.074 542.28C-238.823 542.609 -239.566 542.941 -240.309 543.273C-240.344 544.154 -240.369 545.038 -240.396 545.921ZM-243.716 547.225C-242.954 546.922 -242.185 546.621 -241.415 546.321C-241.389 545.457 -241.37 544.592 -241.336 543.729C-242.064 544.057 -242.781 544.389 -243.501 544.719C-243.579 545.553 -243.646 546.389 -243.716 547.225ZM-246.988 548.552C-246.248 548.248 -245.509 547.943 -244.762 547.642C-244.695 546.829 -244.624 546.016 -244.551 545.202C-245.249 545.526 -245.946 545.85 -246.636 546.176C-246.757 546.967 -246.877 547.758 -246.988 548.552ZM-250.197 549.887C-249.49 549.588 -248.783 549.288 -248.066 548.992C-247.962 548.225 -247.844 547.461 -247.727 546.698C-248.396 547.016 -249.068 547.333 -249.729 547.654C-249.889 548.397 -250.048 549.141 -250.197 549.887ZM-253.339 551.23C-252.668 550.937 -251.985 550.648 -251.306 550.358C-251.165 549.644 -251.021 548.931 -250.869 548.219C-251.514 548.535 -252.154 548.854 -252.79 549.174C-252.981 549.857 -253.158 550.544 -253.339 551.23ZM-256.432 552.599C-255.795 552.312 -255.146 552.028 -254.501 551.744C-254.329 551.084 -254.155 550.424 -253.975 549.766C-254.581 550.073 -255.171 550.386 -255.77 550.696C-255.993 551.33 -256.22 551.962 -256.432 552.599ZM-259.436 553.976C-258.842 553.7 -258.25 553.424 -257.652 553.151C-257.453 552.549 -257.243 551.95 -257.034 551.351C-257.599 551.648 -258.157 551.948 -258.716 552.247C-258.963 552.821 -259.198 553.399 -259.436 553.976ZM-262.379 555.365C-261.829 555.1 -261.284 554.835 -260.727 554.573C-260.513 554.043 -260.302 553.513 -260.082 552.986C-260.585 553.259 -261.092 553.531 -261.59 553.806C-261.853 554.326 -262.122 554.843 -262.379 555.365ZM-265.211 556.74C-264.74 556.505 -264.257 556.275 -263.78 556.042C-263.555 555.577 -263.32 555.115 -263.086 554.653C-263.537 554.907 -263.989 555.16 -264.434 555.416C-264.699 555.856 -264.954 556.298 -265.211 556.74ZM-267.957 558.13C-267.555 557.923 -267.147 557.72 -266.742 557.515C-266.525 557.137 -266.308 556.758 -266.089 556.381C-266.46 556.599 -266.828 556.818 -267.197 557.038C-267.449 557.402 -267.707 557.765 -267.957 558.13ZM-270.55 559.489C-270.256 559.332 -269.962 559.175 -269.666 559.019C-269.481 558.742 -269.297 558.465 -269.11 558.189C-269.387 558.359 -269.658 558.532 -269.934 558.703C-270.145 558.963 -270.343 559.228 -270.55 559.489ZM-272.942 560.774C-272.794 560.693 -272.652 560.61 -272.503 560.529C-272.393 560.386 -272.279 560.244 -272.169 560.101C-272.295 560.183 -272.417 560.266 -272.544 560.348C-272.676 560.49 -272.811 560.632 -272.942 560.774ZM-44.1026 164.095C-43.3995 164.769 -42.6807 165.451 -41.9865 166.12C-42.1916 165.867 -42.378 165.624 -42.5831 165.371C-43.3099 164.645 -44.0729 163.903 -44.8159 163.17C-44.5811 163.477 -44.3353 163.789 -44.1026 164.095ZM-51.421 157.091C-50.377 158.083 -49.3746 159.054 -48.3378 160.042C-48.7101 159.562 -49.0706 159.086 -49.4459 158.604C-50.4899 157.579 -51.5072 156.567 -52.5572 155.537C-52.1819 156.054 -51.7938 156.576 -51.421 157.091ZM-59.057 149.93C-57.7124 151.185 -56.3568 152.446 -55.0342 153.691C-55.5241 153.024 -56.0341 152.349 -56.5316 151.679C-57.7914 150.459 -59.0876 149.222 -60.3673 147.992C-59.9185 148.643 -59.499 149.281 -59.057 149.93ZM-66.8765 142.65C-65.2338 144.164 -63.6387 145.655 -62.024 147.156C-62.5632 146.378 -63.1322 145.588 -63.6816 144.806C-65.2351 143.323 -66.7805 141.843 -68.3663 140.345C-67.8649 141.115 -67.3664 141.884 -66.8765 142.65ZM-74.7588 135.439C-73.0116 137.035 -71.2611 138.632 -69.5335 140.218C-70.0706 139.394 -70.5814 138.58 -71.1299 137.751C-72.8588 136.123 -74.6059 134.485 -76.3518 132.85C-75.8295 133.709 -75.2687 134.584 -74.7588 135.439ZM-83.063 127.922C-81.0973 129.685 -79.1455 131.442 -77.226 133.182C-77.775 132.277 -78.3426 131.364 -78.9052 130.453C-80.7249 128.762 -82.5977 127.047 -84.4693 125.332C-83.9814 126.202 -83.5381 127.056 -83.063 127.922ZM-91.5041 120.361C-89.3667 122.268 -87.2566 124.163 -85.1405 126.061C-85.6585 125.132 -86.1939 124.195 -86.7276 123.261C-88.7944 121.366 -90.8214 119.489 -92.9166 117.581C-92.4411 118.509 -91.966 119.437 -91.5041 120.361ZM-100.137 112.751C-97.8906 114.716 -95.6331 116.688 -93.4474 118.625C-93.9225 117.689 -94.387 116.757 -94.8752 115.815C-97.0143 113.879 -99.2093 111.917 -101.399 109.956C-100.972 110.89 -100.552 111.821 -100.137 112.751ZM-109.049 104.941C-106.61 107.062 -104.241 109.15 -101.842 111.254C-102.281 110.282 -102.767 109.295 -103.222 108.318C-105.521 106.263 -107.819 104.209 -110.163 102.132C-109.785 103.07 -109.414 104.007 -109.049 104.941ZM-118.141 97.1054C-115.618 99.2721 -113.104 101.434 -110.634 103.576C-111.011 102.624 -111.374 101.677 -111.766 100.721C-114.183 98.5852 -116.621 96.4395 -119.082 94.2831C-118.757 95.2266 -118.452 96.165 -118.141 97.1054ZM-127.453 89.1416C-124.796 91.3994 -122.174 93.6406 -119.571 95.8723C-119.898 94.9045 -120.247 93.9303 -120.587 92.9587C-123.102 90.761 -125.67 88.5389 -128.25 86.311C-127.987 87.2542 -127.705 88.2015 -127.453 89.1416ZM-137.024 81.0406C-134.252 83.3755 -131.524 85.6906 -128.797 88.0043C-129.057 87.0533 -129.33 86.0987 -129.602 85.1447C-132.272 82.8389 -134.905 80.5523 -137.613 78.2294C-137.413 79.167 -137.212 80.1049 -137.024 81.0406ZM-240.483 549.355C-239.637 549.07 -238.789 548.787 -237.936 548.506C-237.965 547.574 -237.987 546.644 -238.008 545.715C-238.814 546.024 -239.619 546.334 -240.418 546.646C-240.445 547.548 -240.468 548.451 -240.483 549.355ZM-243.969 550.549C-243.144 550.264 -242.325 549.974 -241.493 549.692C-241.479 548.809 -241.46 547.927 -241.436 547.046C-242.219 547.354 -243.006 547.66 -243.78 547.971C-243.848 548.829 -243.911 549.689 -243.969 550.549ZM-247.403 551.758C-246.606 551.473 -245.807 551.188 -245.001 550.907C-244.945 550.07 -244.89 549.233 -244.826 548.398C-245.587 548.706 -246.348 549.014 -247.1 549.325C-247.208 550.134 -247.303 550.947 -247.403 551.758ZM-250.79 552.982C-250.022 552.699 -249.24 552.42 -248.463 552.14C-248.368 551.348 -248.271 550.557 -248.169 549.767C-248.902 550.073 -249.626 550.383 -250.352 550.693C-250.502 551.455 -250.651 552.217 -250.79 552.982ZM-254.106 554.229C-253.371 553.949 -252.629 553.671 -251.886 553.394C-251.753 552.648 -251.605 551.905 -251.46 551.163C-252.167 551.468 -252.867 551.777 -253.566 552.085C-253.752 552.798 -253.93 553.513 -254.106 554.229ZM-257.362 555.492C-256.652 555.213 -255.949 554.933 -255.231 554.656C-255.066 553.969 -254.903 553.282 -254.728 552.598C-255.397 552.896 -256.066 553.194 -256.727 553.494C-256.943 554.159 -257.154 554.825 -257.362 555.492ZM-260.554 556.77C-259.885 556.498 -259.218 556.225 -258.542 555.956C-258.346 555.32 -258.142 554.687 -257.937 554.053C-258.566 554.342 -259.199 554.63 -259.821 554.922C-260.07 555.537 -260.317 556.152 -260.554 556.77ZM-263.66 558.048C-263.043 557.789 -262.413 557.534 -261.789 557.276C-261.569 556.698 -261.35 556.12 -261.122 555.543C-261.713 555.826 -262.299 556.109 -262.884 556.394C-263.147 556.944 -263.403 557.496 -263.66 558.048ZM-266.705 559.359C-266.137 559.112 -265.563 558.867 -264.989 558.621C-264.752 558.1 -264.503 557.582 -264.259 557.063C-264.801 557.332 -265.33 557.606 -265.866 557.876C-266.149 558.37 -266.43 558.863 -266.705 559.359ZM-269.637 560.667C-269.129 560.437 -268.627 560.206 -268.113 559.978C-267.874 559.536 -267.642 559.091 -267.397 558.651C-267.868 558.894 -268.334 559.14 -268.802 559.385C-269.083 559.811 -269.361 560.238 -269.637 560.667ZM-272.468 561.968C-272.046 561.77 -271.627 561.571 -271.202 561.375C-270.971 561.009 -270.727 560.647 -270.49 560.283C-270.879 560.491 -271.276 560.697 -271.66 560.906C-271.932 561.259 -272.202 561.613 -272.468 561.968ZM-275.134 563.238C-274.828 563.088 -274.512 562.942 -274.203 562.793C-274.009 562.531 -273.82 562.267 -273.624 562.006C-273.905 562.163 -274.19 562.319 -274.468 562.478C-274.692 562.731 -274.915 562.983 -275.134 563.238ZM-277.636 564.483L-277.175 564.253C-277.065 564.122 -276.961 563.99 -276.85 563.86L-277.265 564.105C-277.392 564.23 -277.509 564.358 -277.636 564.483ZM-32.3745 176.791C-31.7962 177.346 -31.2044 177.906 -30.6252 178.46C-30.8184 178.225 -31.0044 177.995 -31.2001 177.76C-31.7996 177.167 -32.4229 176.562 -33.0301 175.967C-32.817 176.238 -32.5859 176.519 -32.3745 176.791ZM-40.0335 169.52C-39.0056 170.483 -38.0018 171.432 -36.9943 172.385C-37.3616 171.923 -37.7344 171.456 -38.105 170.992C-39.1181 170.004 -40.0823 169.041 -41.1102 168.046C-40.74 168.543 -40.399 169.026 -40.0335 169.52ZM-47.7001 162.373C-46.3274 163.655 -44.9416 164.942 -43.5706 166.222C-44.0707 165.558 -44.6184 164.873 -45.1258 164.206C-46.4259 162.957 -47.7506 161.697 -49.0583 160.445C-48.6002 161.09 -48.1518 161.731 -47.7001 162.373ZM-55.5085 155.174C-53.9596 156.586 -52.4061 158 -50.898 159.392C-51.4177 158.665 -51.8974 157.956 -52.4251 157.225C-53.9515 155.78 -55.5127 154.318 -57.0798 152.853C-56.5614 153.624 -56.0184 154.407 -55.5085 155.174ZM-63.6183 147.775C-61.847 149.384 -60.1104 150.976 -58.3539 152.578C-58.9127 151.749 -59.4715 150.919 -60.0421 150.085C-61.7493 148.489 -63.4366 146.904 -65.1612 145.301C-64.6377 146.129 -64.1303 146.952 -63.6183 147.775ZM-71.9451 140.308C-69.9802 142.06 -68.0067 143.815 -66.0885 145.544C-66.6583 144.641 -67.2739 143.719 -67.856 142.811C-69.688 141.122 -71.5732 139.408 -73.4498 137.698C-72.9352 138.573 -72.4461 139.438 -71.9451 140.308ZM-80.4493 132.732C-78.3243 134.611 -76.2524 136.464 -74.1626 138.326C-74.6951 137.417 -75.1876 136.524 -75.7327 135.61C-77.7975 133.732 -79.8524 131.857 -81.9562 129.959C-81.4569 130.883 -80.9359 131.814 -80.4493 132.732ZM-89.2058 125.054C-86.9505 127.026 -84.7007 128.995 -82.4848 130.947C-82.9926 130.001 -83.5093 129.052 -84.0324 128.1C-86.1769 126.171 -88.3461 124.231 -90.5258 122.286C-90.069 123.215 -89.6491 124.131 -89.2058 125.054ZM-98.1717 117.266C-95.7588 119.347 -93.3646 121.42 -91.0069 123.475C-91.4799 122.503 -91.9834 121.52 -92.4725 120.543C-94.7487 118.521 -97.0733 116.476 -99.408 114.426C-98.9902 115.374 -98.5746 116.322 -98.1717 117.266ZM-107.364 109.352C-104.835 111.52 -102.344 113.67 -99.8474 115.823C-100.265 114.861 -100.672 113.903 -101.104 112.936C-103.545 110.794 -105.952 108.666 -108.427 106.507C-108.061 107.459 -107.716 108.404 -107.364 109.352ZM-116.755 101.385C-114.11 103.616 -111.45 105.854 -108.876 108.051C-109.241 107.081 -109.637 106.103 -110.017 105.13C-112.527 102.95 -115.106 100.738 -117.681 98.5272C-117.371 99.4799 -117.051 100.435 -116.755 101.385ZM-126.413 93.2363C-123.632 95.5688 -120.917 97.8698 -118.176 100.182C-118.483 99.2211 -118.793 98.2589 -119.112 97.2943C-121.768 95.015 -124.417 92.7378 -127.121 90.4354C-126.876 91.3708 -126.647 92.3029 -126.413 93.2363ZM-136.26 85.0449C-133.382 87.4298 -130.519 89.8073 -127.706 92.1607C-127.947 91.2182 -128.171 90.279 -128.422 89.3339C-131.178 86.9919 -133.961 84.637 -136.772 82.2685C-136.589 83.1958 -136.432 84.119 -136.26 85.0449ZM-240.518 552.804C-239.613 552.54 -238.71 552.276 -237.798 552.015C-237.841 551.069 -237.877 550.125 -237.909 549.181C-238.774 549.467 -239.638 549.752 -240.491 550.041C-240.504 550.961 -240.516 551.881 -240.518 552.804ZM-244.178 553.885C-243.299 553.621 -242.413 553.359 -241.526 553.098C-241.525 552.193 -241.513 551.29 -241.499 550.388C-242.342 550.676 -243.178 550.967 -244.014 551.258C-244.073 552.133 -244.133 553.007 -244.178 553.885ZM-247.772 554.977C-246.923 554.713 -246.057 554.456 -245.199 554.195C-245.156 553.333 -245.102 552.475 -245.046 551.615C-245.871 551.905 -246.68 552.201 -247.495 552.494C-247.593 553.32 -247.685 554.149 -247.772 554.977ZM-251.318 556.101C-250.488 555.835 -249.654 555.57 -248.816 555.307C-248.734 554.496 -248.65 553.685 -248.555 552.876C-249.35 553.165 -250.141 553.456 -250.929 553.749C-251.064 554.531 -251.191 555.316 -251.318 556.101ZM-254.819 557.245C-254.01 556.977 -253.208 556.706 -252.39 556.441C-252.268 555.678 -252.14 554.917 -252.012 554.156C-252.773 554.442 -253.54 554.726 -254.293 555.016C-254.473 555.758 -254.654 556.499 -254.819 557.245ZM-258.232 558.394C-257.464 558.131 -256.693 557.869 -255.917 557.609C-255.759 556.89 -255.592 556.173 -255.422 555.458C-256.161 555.745 -256.896 556.033 -257.626 556.323C-257.835 557.011 -258.032 557.703 -258.232 558.394ZM-261.597 559.563C-260.865 559.302 -260.115 559.048 -259.375 558.791C-259.184 558.124 -258.998 557.455 -258.8 556.79C-259.501 557.073 -260.189 557.359 -260.881 557.644C-261.122 558.283 -261.367 558.921 -261.597 559.563ZM-264.878 560.758C-264.188 560.504 -263.494 560.251 -262.795 559.999C-262.576 559.381 -262.345 558.766 -262.114 558.151C-262.782 558.43 -263.443 558.714 -264.104 558.996C-264.37 559.581 -264.622 560.17 -264.878 560.758ZM-268.106 561.973C-267.449 561.722 -266.798 561.467 -266.133 561.218C-265.897 560.665 -265.662 560.111 -265.418 559.561C-266.026 559.825 -266.637 560.089 -267.239 560.356C-267.53 560.894 -267.825 561.431 -268.106 561.973ZM-271.215 563.183C-270.625 562.948 -270.034 562.715 -269.438 562.483C-269.184 561.986 -268.924 561.492 -268.66 560.998C-269.224 561.252 -269.794 561.505 -270.352 561.762C-270.647 562.233 -270.925 562.709 -271.215 563.183ZM-274.259 564.41C-273.733 564.193 -273.194 563.982 -272.663 563.767C-272.407 563.338 -272.145 562.91 -271.884 562.482C-272.378 562.715 -272.87 562.949 -273.359 563.184C-273.66 563.593 -273.967 563.998 -274.259 564.41ZM-277.155 565.638C-276.716 565.45 -276.276 565.262 -275.832 565.076C-275.59 564.727 -275.355 564.376 -275.107 564.029C-275.523 564.233 -275.93 564.441 -276.342 564.647C-276.617 564.976 -276.885 565.307 -277.155 565.638ZM-279.944 566.858C-279.61 566.709 -279.283 566.558 -278.946 566.41C-278.737 566.149 -278.52 565.892 -278.307 565.633C-278.623 565.795 -278.927 565.962 -279.238 566.125C-279.474 566.369 -279.712 566.612 -279.944 566.858ZM-282.434 567.978C-282.279 567.906 -282.118 567.837 -281.961 567.765L-281.61 567.38C-281.746 567.455 -281.889 567.527 -282.025 567.601L-282.434 567.978ZM-20.75 189.257L-18.9833 190.938L-19.492 190.335C-20.0694 189.769 -20.6613 189.196 -21.2392 188.63C-21.071 188.841 -20.9173 189.046 -20.75 189.257ZM-28.3431 182.124C-27.3182 183.076 -26.2797 184.036 -25.276 184.979C-25.6641 184.498 -26.0802 184.004 -26.4716 183.522C-27.4469 182.579 -28.4404 181.628 -29.4394 180.674C-29.0679 181.16 -28.71 181.641 -28.3431 182.124ZM-36.0887 174.915C-34.7314 176.169 -33.4275 177.396 -32.0841 178.642C-32.5384 178.052 -32.9515 177.481 -33.4117 176.888C-34.77 175.595 -36.1154 174.306 -37.483 173.007C-37.0202 173.642 -36.5451 174.283 -36.0887 174.915ZM-43.9005 167.787C-42.4026 169.151 -40.8928 170.519 -39.4174 171.871C-39.963 171.128 -40.4937 170.39 -41.0478 169.642C-42.507 168.272 -44.0118 166.879 -45.502 165.492C-44.9751 166.254 -44.4181 167.029 -43.9005 167.787ZM-52.2039 160.26C-50.4186 161.864 -48.6702 163.449 -46.9192 165.036C-47.4966 164.203 -48.1038 163.357 -48.694 162.519C-50.374 160.96 -52.0337 159.412 -53.7434 157.839C-53.2136 158.653 -52.7257 159.45 -52.2039 160.26ZM-60.5813 152.779C-58.6172 154.529 -56.6556 156.278 -54.7158 158.017C-55.2957 157.129 -55.8943 156.232 -56.4875 155.338C-58.3671 153.616 -60.2739 151.882 -62.1794 150.148C-61.641 151.027 -61.1074 151.905 -60.5813 152.779ZM-69.0996 145.257C-67.0289 147.071 -64.9591 148.884 -62.9411 150.672C-63.4973 149.76 -64.0305 148.857 -64.6007 147.939C-66.6018 146.129 -68.6504 144.296 -70.7049 142.46C-70.1784 143.389 -69.6133 144.333 -69.0996 145.257ZM-78.0263 137.437C-75.74 139.428 -73.5126 141.39 -71.2573 143.367C-71.7965 142.411 -72.3663 141.443 -72.9204 140.481C-75.0891 138.544 -77.2247 136.623 -79.4227 134.672C-78.9387 135.6 -78.4963 136.513 -78.0263 137.437ZM-87.0227 129.686C-84.6357 131.734 -82.2419 133.785 -79.9127 135.804C-80.4086 134.843 -80.9028 133.883 -81.4145 132.917C-83.6949 130.902 -86.0381 128.857 -88.3762 126.816C-87.924 127.773 -87.4596 128.735 -87.0227 129.686ZM-96.3073 121.734C-93.7734 123.891 -91.2863 126.024 -88.7991 128.157C-89.2534 127.186 -89.7073 126.214 -90.176 125.238C-92.5851 123.134 -95.0013 121.027 -97.4596 118.899C-97.0605 119.849 -96.6928 120.789 -96.3073 121.734ZM-105.774 113.728C-103.122 115.962 -100.489 118.189 -97.8846 120.4C-98.2888 119.423 -98.7164 118.439 -99.1354 117.457C-101.676 115.263 -104.238 113.059 -106.822 110.843C-106.471 111.805 -106.111 112.769 -105.774 113.728ZM-115.492 105.589C-112.73 107.891 -109.975 110.188 -107.275 112.459C-107.622 111.488 -107.972 110.517 -108.334 109.542C-110.953 107.305 -113.634 105.036 -116.318 102.766C-116.029 103.711 -115.771 104.648 -115.492 105.589ZM-125.411 97.3375C-122.523 99.7275 -119.699 102.087 -116.853 104.457C-117.14 103.498 -117.424 102.54 -117.726 101.577C-120.512 99.2209 -123.261 96.8821 -126.093 94.5045C-125.86 95.4499 -125.632 96.395 -125.411 97.3375ZM-135.542 89.0314C-132.558 91.4672 -129.565 93.908 -126.662 96.3041C-126.89 95.3489 -127.147 94.3875 -127.386 93.4293C-130.223 91.0535 -133.131 88.6431 -136.041 86.2307C-135.872 87.1649 -135.701 88.0994 -135.542 89.0314ZM-240.493 556.263C-239.538 556.024 -238.574 555.788 -237.609 555.552C-237.665 554.591 -237.725 553.629 -237.773 552.669C-238.697 552.934 -239.609 553.203 -240.524 553.471C-240.521 554.4 -240.504 555.332 -240.493 556.263ZM-244.318 557.233C-243.385 556.992 -242.439 556.755 -241.497 556.517C-241.508 555.599 -241.522 554.68 -241.526 553.763C-242.426 554.029 -243.317 554.298 -244.207 554.568C-244.247 555.455 -244.286 556.343 -244.318 557.233ZM-248.093 558.229C-247.179 557.984 -246.261 557.74 -245.337 557.499C-245.307 556.623 -245.268 555.75 -245.227 554.878C-246.102 555.144 -246.977 555.412 -247.842 555.682C-247.931 556.53 -248.018 557.378 -248.093 558.229ZM-251.795 559.237C-250.906 558.991 -250.022 558.745 -249.125 558.502C-249.053 557.67 -248.971 556.841 -248.888 556.013C-249.74 556.281 -250.595 556.549 -251.437 556.821C-251.564 557.625 -251.679 558.431 -251.795 559.237ZM-255.453 560.266C-254.59 560.018 -253.722 559.774 -252.849 559.53C-252.738 558.744 -252.632 557.956 -252.511 557.173C-253.337 557.443 -254.158 557.715 -254.976 557.989C-255.139 558.747 -255.3 559.505 -255.453 560.266ZM-259.04 561.31C-258.214 561.064 -257.375 560.824 -256.538 560.582C-256.391 559.836 -256.232 559.095 -256.072 558.352C-256.875 558.623 -257.662 558.901 -258.455 559.175C-258.656 559.885 -258.852 560.596 -259.04 561.31ZM-262.564 562.385C-261.765 562.138 -260.962 561.891 -260.153 561.647C-259.972 560.954 -259.792 560.262 -259.6 559.572C-260.365 559.841 -261.128 560.111 -261.886 560.384C-262.117 561.049 -262.342 561.717 -262.564 562.385ZM-266.026 563.477C-265.26 563.231 -264.501 562.983 -263.725 562.739C-263.514 562.097 -263.293 561.457 -263.072 560.816C-263.797 561.08 -264.53 561.342 -265.246 561.609C-265.512 562.23 -265.773 562.853 -266.026 563.477ZM-269.406 564.581C-268.686 564.34 -267.959 564.102 -267.232 563.865C-266.995 563.273 -266.759 562.682 -266.511 562.093C-267.199 562.354 -267.883 562.613 -268.561 562.877C-268.846 563.444 -269.129 564.011 -269.406 564.581ZM-272.705 565.7C-272.042 565.469 -271.364 565.245 -270.693 565.017C-270.433 564.474 -270.16 563.934 -269.889 563.395C-270.536 563.65 -271.172 563.91 -271.813 564.169C-272.116 564.677 -272.411 565.188 -272.705 565.7ZM-275.928 566.85C-275.309 566.626 -274.689 566.403 -274.063 566.182C-273.795 565.705 -273.535 565.225 -273.258 564.751C-273.843 564.992 -274.414 565.238 -274.991 565.481C-275.305 565.937 -275.621 566.391 -275.928 566.85ZM-279.035 567.999C-278.489 567.793 -277.95 567.583 -277.397 567.379C-277.128 566.967 -276.846 566.558 -276.566 566.149C-277.09 566.374 -277.614 566.6 -278.132 566.827C-278.441 567.215 -278.734 567.609 -279.035 567.999ZM-282.042 569.15C-281.58 568.969 -281.113 568.789 -280.646 568.61C-280.393 568.276 -280.138 567.945 -279.883 567.613C-280.307 567.804 -280.738 567.992 -281.158 568.184C-281.451 568.507 -281.754 568.826 -282.042 569.15ZM-284.851 570.279C-284.518 570.142 -284.178 570.009 -283.843 569.874C-283.638 569.637 -283.443 569.397 -283.234 569.162C-283.545 569.309 -283.856 569.456 -284.163 569.603C-284.396 569.827 -284.621 570.054 -284.851 570.279ZM-287.52 571.397L-286.987 571.171C-286.867 571.048 -286.739 570.929 -286.617 570.807L-287.102 571.051C-287.239 571.167 -287.383 571.281 -287.52 571.397ZM-8.91663 201.792C-8.25427 202.412 -7.63101 203.013 -6.97717 203.629L-7.31595 203.234L-9.33783 201.265L-8.91663 201.792ZM-16.4091 194.824C-15.3867 195.777 -14.3478 196.737 -13.3267 197.689C-13.6867 197.251 -14.0302 196.821 -14.3937 196.381C-15.4097 195.406 -16.4631 194.414 -17.4965 193.43C-17.1347 193.894 -16.7658 194.362 -16.4091 194.824ZM-24.1284 187.699C-22.8937 188.823 -21.6663 189.945 -20.4613 191.054C-20.9156 190.476 -21.3495 189.908 -21.8098 189.327C-23.0903 188.115 -24.3377 186.92 -25.6403 185.698C-25.1478 186.36 -24.6137 187.04 -24.1284 187.699ZM-32.2505 180.302C-30.7225 181.691 -29.2012 183.077 -27.6808 184.463C-28.237 183.722 -28.8059 182.974 -29.3723 182.229C-30.8027 180.893 -32.2573 179.546 -33.6949 178.207C-33.1939 178.915 -32.7448 179.599 -32.2505 180.302ZM-40.5247 172.873C-38.747 174.456 -36.9553 176.045 -35.2243 177.605C-35.8251 176.761 -36.4853 175.891 -37.0971 175.043C-38.7462 173.524 -40.4436 171.982 -42.1389 170.44C-41.5908 171.256 -41.0618 172.062 -40.5247 172.873ZM-48.9746 165.337C-47.0199 167.067 -45.1293 168.765 -43.2021 170.482C-43.7791 169.626 -44.3102 168.789 -44.8987 167.927C-46.825 166.174 -48.7156 164.439 -50.6683 162.674C-50.107 163.56 -49.5232 164.456 -48.9746 165.337ZM-57.6211 157.761C-55.5416 159.578 -53.4607 161.396 -51.421 163.193C-52.0048 162.27 -52.5907 161.346 -53.1877 160.417C-55.1628 158.642 -57.1864 156.843 -59.2044 155.047C-58.666 155.956 -58.1455 156.858 -57.6211 157.761ZM-66.5627 149.984C-64.2785 151.956 -62.0232 153.915 -59.7874 155.863C-60.355 154.9 -60.9791 153.913 -61.5612 152.943C-63.7087 151.036 -65.8681 149.123 -68.0611 147.193C-67.5477 148.129 -67.0612 149.054 -66.5627 149.984ZM-75.6292 142.182C-73.2537 144.22 -70.8964 146.25 -68.551 148.273C-69.069 147.32 -69.5483 146.383 -70.0803 145.424C-72.4028 143.385 -74.7393 141.339 -77.0935 139.284C-76.6095 140.247 -76.0979 141.223 -75.6292 142.182ZM-84.9949 134.222C-82.481 136.346 -79.9556 138.475 -77.5058 140.567C-77.9919 139.588 -78.4955 138.602 -78.9969 137.617C-81.3605 135.564 -83.7976 133.475 -86.2253 131.39C-85.7952 132.341 -85.411 133.275 -84.9949 134.222ZM-94.5386 126.159C-91.8743 128.396 -89.2802 130.599 -86.6597 132.814C-87.0966 131.836 -87.5403 130.854 -87.9933 129.869C-90.5552 127.668 -93.0929 125.478 -95.6994 123.254C-95.3117 124.223 -94.9113 125.195 -94.5386 126.159ZM-104.313 118.023C-101.556 120.311 -98.7979 122.598 -96.1031 124.856C-96.4886 123.88 -96.8775 122.902 -97.2775 121.92C-99.8963 119.693 -102.572 117.437 -105.25 115.181C-104.919 116.133 -104.629 117.074 -104.313 118.023ZM-114.269 109.788C-111.398 112.151 -108.554 114.5 -105.741 116.834C-106.069 115.863 -106.402 114.891 -106.745 113.916C-109.501 111.596 -112.291 109.259 -115.106 106.909C-114.83 107.868 -114.533 108.833 -114.269 109.788ZM-124.498 101.405C-121.51 103.845 -118.552 106.269 -115.617 108.684C-115.888 107.718 -116.182 106.746 -116.467 105.778C-119.338 103.384 -122.217 100.986 -125.134 98.5697C-124.919 99.5156 -124.702 100.462 -124.498 101.405ZM-134.915 92.9608C-131.835 95.4448 -128.748 97.9348 -125.745 100.381C-125.956 99.431 -126.164 98.4809 -126.387 97.5276C-129.319 95.1047 -132.345 92.6356 -135.359 90.1721C-135.207 91.1024 -135.058 92.0322 -134.915 92.9608ZM-125.475 101.591C-128.513 99.1122 -131.626 96.5974 -134.735 94.0831C-121.86 180.118 -153.208 258.788 -184.518 337.367C-203.531 385.084 -222.526 432.768 -231.59 482.045C-220.311 439.687 -200.941 398.793 -181.454 357.66C-143.442 277.422 -105.013 196.273 -125.475 101.591ZM-115.249 109.969C-118.206 107.535 -121.209 105.078 -124.225 102.614C-104.263 196.921 -142.593 277.817 -180.489 357.812C-201.036 401.183 -221.448 444.29 -232.374 489.122C-219.449 450.181 -198.625 412.824 -177.595 375.11C-132.724 294.647 -86.9399 212.558 -115.249 109.969ZM-33.2678 180.419C-35.1088 178.755 -36.9663 177.081 -38.8502 175.394C66.8343 337.192 -45.1539 404.18 -150.384 467.077C-180.725 485.213 -210.492 503.011 -234.294 522.653M-240.427 559.744C-239.418 559.53 -238.402 559.319 -237.383 559.108C-237.453 558.133 -237.514 557.158 -237.573 556.184C-238.548 556.424 -239.521 556.665 -240.486 556.908C-240.472 557.852 -240.452 558.798 -240.427 559.744ZM-244.408 560.608C-243.416 560.39 -242.427 560.17 -241.426 559.956C-241.452 559.024 -241.474 558.092 -241.489 557.162C-242.443 557.404 -243.401 557.645 -244.345 557.891C-244.374 558.795 -244.39 559.702 -244.408 560.608ZM-248.342 561.49C-247.371 561.269 -246.4 561.047 -245.419 560.829C-245.403 559.939 -245.391 559.048 -245.365 558.161C-246.295 558.405 -247.224 558.649 -248.144 558.897C-248.214 559.76 -248.282 560.624 -248.342 561.49ZM-252.217 562.388C-251.275 562.165 -250.323 561.945 -249.37 561.726C-249.312 560.874 -249.244 560.023 -249.176 559.174C-250.088 559.422 -250.988 559.675 -251.891 559.927C-252.005 560.746 -252.116 561.566 -252.217 562.388ZM-256.026 563.307C-255.112 563.082 -254.185 562.861 -253.258 562.64C-253.161 561.831 -253.056 561.024 -252.945 560.219C-253.837 560.471 -254.72 560.726 -255.603 560.981C-255.752 561.754 -255.887 562.531 -256.026 563.307ZM-259.794 564.258C-258.896 564.029 -258 563.799 -257.092 563.572C-256.958 562.812 -256.825 562.052 -256.681 561.294C-257.533 561.544 -258.387 561.793 -259.229 562.046C-259.422 562.782 -259.615 563.518 -259.794 564.258ZM-263.466 565.219C-262.606 564.99 -261.75 564.76 -260.881 564.534C-260.71 563.816 -260.527 563.102 -260.343 562.387C-261.171 562.639 -262.004 562.889 -262.823 563.144C-263.045 563.833 -263.255 564.527 -263.466 565.219ZM-267.105 566.206C-266.274 565.976 -265.435 565.749 -264.595 565.521C-264.392 564.851 -264.194 564.18 -263.981 563.512C-264.773 563.763 -265.558 564.016 -266.34 564.27C-266.599 564.915 -266.861 565.558 -267.105 566.206ZM-270.634 567.205C-269.854 566.979 -269.058 566.759 -268.27 566.536C-268.037 565.907 -267.792 565.282 -267.544 564.657C-268.313 564.911 -269.066 565.171 -269.825 565.429C-270.104 566.017 -270.365 566.612 -270.634 567.205ZM-274.124 568.243C-273.373 568.016 -272.622 567.79 -271.862 567.566C-271.607 566.995 -271.349 566.424 -271.086 565.855C-271.798 566.1 -272.505 566.347 -273.21 566.596C-273.518 567.143 -273.827 567.691 -274.124 568.243ZM-277.5 569.288C-276.801 569.067 -276.109 568.843 -275.402 568.626C-275.129 568.11 -274.853 567.595 -274.569 567.082C-275.23 567.319 -275.9 567.554 -276.553 567.795C-276.875 568.29 -277.187 568.789 -277.5 569.288ZM-280.801 570.347C-280.168 570.139 -279.527 569.933 -278.886 569.727C-278.602 569.265 -278.304 568.806 -278.011 568.346C-278.618 568.574 -279.227 568.802 -279.828 569.033C-280.158 569.469 -280.481 569.908 -280.801 570.347ZM-283.992 571.421C-283.43 571.228 -282.855 571.039 -282.288 570.848C-282.007 570.454 -281.735 570.057 -281.447 569.665C-281.981 569.875 -282.506 570.088 -283.035 570.301C-283.354 570.674 -283.678 571.046 -283.992 571.421ZM-287.056 572.506C-286.589 572.338 -286.121 572.169 -285.648 572.003C-285.379 571.673 -285.1 571.347 -284.822 571.02C-285.29 571.214 -285.742 571.413 -286.204 571.608C-286.496 571.905 -286.77 572.208 -287.056 572.506ZM-289.986 573.582C-289.62 573.444 -289.263 573.302 -288.894 573.166C-288.677 572.934 -288.455 572.704 -288.238 572.474C-288.569 572.618 -288.897 572.764 -289.227 572.91C-289.477 573.135 -289.738 573.356 -289.986 573.582ZM-292.618 574.586C-292.45 574.519 -292.275 574.456 -292.106 574.391C-291.986 574.279 -291.871 574.165 -291.752 574.053C-291.904 574.124 -292.063 574.192 -292.216 574.263L-292.618 574.586ZM-145.813 81.632C-145.723 82.55 -145.625 83.4681 -145.544 84.3849C-142.335 86.9565 -139.225 89.4798 -136.08 92.0201C-136.226 91.0866 -136.368 90.1529 -136.527 89.2169C-139.613 86.6927 -142.669 84.1843 -145.813 81.632ZM-146.206 77.8264C-146.105 78.7398 -146.01 79.6527 -145.918 80.5655C-142.809 83.0867 -139.776 85.5716 -136.719 88.0675C-136.882 87.1245 -137.067 86.1785 -137.24 85.2336C-140.212 82.7731 -143.182 80.3126 -146.206 77.8264ZM-146.663 73.9869C-146.548 74.9006 -146.443 75.8132 -146.339 76.726C-143.351 79.1799 -140.393 81.6199 -137.46 84.0476C-137.637 83.1083 -137.814 82.1696 -138.002 81.2281C-140.851 78.8329 -143.757 76.4095 -146.663 73.9869ZM-147.184 70.1106C-147.054 71.0309 -146.917 71.9521 -146.797 72.8713C-143.942 75.25 -141.058 77.6422 -138.26 79.9941C-138.452 79.0544 -138.646 78.1149 -138.85 77.1731C-141.575 74.8438 -144.399 72.4677 -147.184 70.1106ZM-147.75 66.2074C-147.609 67.124 -147.477 68.04 -147.345 68.9556C-144.586 71.2899 -141.808 73.6316 -139.11 75.9377C-139.317 74.9998 -139.549 74.0576 -139.767 73.1184C-142.4 70.8273 -145.055 68.527 -147.75 66.2074ZM-148.38 62.3087C-148.228 63.2067 -148.087 64.1046 -147.945 65.0023C-145.279 67.2941 -142.68 69.5545 -140.072 71.8195C-140.295 70.882 -140.51 69.9448 -140.743 69.0056C-143.23 66.8004 -145.832 64.5426 -148.38 62.3087ZM-149.087 58.3383C-148.918 59.2529 -148.741 60.1691 -148.582 61.083C-146.104 63.2535 -143.531 65.4666 -141.106 67.6114C-141.34 66.6932 -141.581 65.7745 -141.826 64.8547C-144.205 62.7008 -146.649 60.5187 -149.087 58.3383ZM-149.845 54.3496C-149.663 55.2563 -149.491 56.1628 -149.32 57.0693C-146.943 59.1912 -144.517 61.3358 -142.197 63.4322C-142.447 62.5133 -142.717 61.5908 -142.979 60.6696C-145.242 58.5737 -147.524 56.4703 -149.845 54.3496ZM-150.674 50.3243C-150.48 51.2252 -150.3 52.1259 -150.117 53.0262C-147.865 55.0814 -145.607 57.1389 -143.407 59.1698C-143.669 58.268 -143.916 57.3686 -144.187 56.4651C-146.342 54.422 -148.467 52.3909 -150.674 50.3243ZM-151.591 46.2524C-151.382 47.1538 -151.169 48.0547 -150.971 48.9553C-148.847 50.9396 -146.759 52.9086 -144.687 54.871C-144.963 53.97 -145.247 53.0687 -145.534 52.166C-147.558 50.1922 -149.517 48.2473 -151.591 46.2524ZM-152.55 42.2161C-152.335 43.0881 -152.121 43.9604 -151.915 44.832C-149.92 46.7476 -147.995 48.6322 -146.047 50.5271C-146.338 49.632 -146.652 48.7326 -146.952 47.8361C-148.818 45.9631 -150.643 44.106 -152.55 42.2161ZM-153.57 38.1677C-153.351 38.9995 -153.151 39.8304 -152.941 40.6616C-151.097 42.4863 -149.355 44.2678 -147.552 46.0745C-147.849 45.2117 -148.13 44.3513 -148.436 43.4869C-150.134 41.7193 -151.834 39.951 -153.57 38.1677ZM-154.696 34.0601C-154.468 34.877 -154.24 35.6938 -154.021 36.5103C-152.36 38.209 -150.773 39.8772 -149.143 41.5643C-149.45 40.7156 -149.761 39.8668 -150.079 39.0168C-151.593 37.374 -153.146 35.7169 -154.696 34.0601ZM-155.878 29.9539C-155.643 30.7425 -155.402 31.5319 -155.176 32.32C-153.705 33.8843 -152.271 35.4343 -150.827 36.9881C-151.142 36.1611 -151.485 35.3295 -151.808 34.501C-153.132 32.9971 -154.521 31.4697 -155.878 29.9539ZM-157.108 25.8671C-156.88 26.5973 -156.669 27.3259 -156.447 28.0551C-155.187 29.4554 -153.935 30.8526 -152.699 32.2435C-152.998 31.4977 -153.292 30.7525 -153.599 30.0054C-154.744 28.6347 -155.937 27.2466 -157.108 25.8671ZM-158.449 21.7332C-158.227 22.4058 -158.012 23.0788 -157.795 23.7513C-156.769 24.9514 -155.726 26.1575 -154.719 27.351C-154.987 26.7161 -155.251 26.082 -155.524 25.446C-156.494 24.2098 -157.458 22.9763 -158.449 21.7332ZM-159.805 17.7387C-159.611 18.2957 -159.411 18.8531 -159.222 19.4099C-158.462 20.3551 -157.67 21.3107 -156.923 22.2516C-157.133 21.7739 -157.353 21.295 -157.568 20.8169C-158.315 19.79 -159.043 18.7696 -159.805 17.7387ZM-161.082 14.0934C-160.973 14.3893 -160.874 14.6852 -160.768 14.9809C-160.312 15.5901 -159.836 16.2061 -159.386 16.8127C-159.491 16.5888 -159.604 16.364 -159.709 16.1396L-161.082 14.0934ZM-232.631 554.995C-232.527 556.023 -232.42 557.051 -232.304 558.081C-199.134 551.506 -161.367 546.669 -122.871 541.744C-47.9709 532.162 29.6638 522.229 81.1918 498.407C156.732 463.483 176.225 398.608 49.1222 261.077C164.774 393.002 139.81 455.788 63.1765 490.948C13.8279 513.589 -56.9078 524.748 -125.315 535.539C-163.15 541.508 -200.265 547.367 -232.631 554.995ZM-232.995 551.326C-232.901 552.341 -232.794 553.358 -232.692 554.375C-200.348 546.782 -163.322 540.936 -125.577 534.983C-57.2722 524.207 13.3618 513.064 62.5528 490.496C141.405 454.318 165.198 388.682 36.2588 247.956C153.886 383.482 124.014 447.119 43.6638 483.682C-2.91223 504.876 -66.4188 516.95 -127.989 528.655C-165.079 535.706 -201.463 542.624 -232.995 551.326ZM-233.294 547.677C-233.217 548.679 -233.137 549.681 -233.048 550.684C-201.552 542.03 -165.276 535.134 -128.303 528.105C-66.8137 516.415 -3.39246 504.358 43.0448 483.227C125.731 445.602 154.636 379.111 23.1895 234.48C143.528 374.455 107.686 439.042 22.9704 477.25C-20.291 496.761 -76.2635 509.374 -130.686 521.637C-167.008 529.822 -202.627 537.854 -233.294 547.677ZM-233.56 544.043C-233.494 545.034 -233.424 546.025 -233.348 547.018C-202.726 537.254 -167.234 529.252 -131.05 521.099C-76.6914 508.849 -20.7844 496.251 22.3551 476.795C109.082 437.68 144.354 370.773 12.0265 222.97L11.3459 222.308C133.604 366.686 90.1932 431.935 0.600708 471.952C-38.584 489.455 -86.5833 502.12 -133.405 514.473C-168.936 523.848 -203.78 533.045 -233.56 544.043ZM-233.791 540.434C-233.734 541.409 -233.667 542.386 -233.603 543.362C-203.88 532.438 -169.191 523.28 -133.822 513.948C-87.0524 501.608 -39.1075 488.958 -0.0103149 471.495C90.6093 431.018 133.737 364.58 4.77557 215.917C4.09836 215.263 3.45853 214.628 2.77411 213.97C123.716 361.347 70.4033 426.424 -24.35 468.304C-58.3463 483.33 -97.6566 495.362 -136.152 507.145C-170.874 517.772 -204.927 528.198 -233.791 540.434ZM-233.962 536.842C-233.92 537.8 -233.879 538.757 -233.827 539.716C-205.03 527.574 -171.153 517.203 -136.618 506.633C-98.1585 494.861 -58.8856 482.84 -24.9568 467.844C70.5404 425.636 123.789 359.762 -2.27032 209.169C-3.2821 208.206 -4.31042 207.234 -5.32217 206.269C146.967 398.782 -1.28787 451.095 -138.922 499.627C-172.811 511.577 -206.043 523.302 -233.962 536.842ZM-234.104 533.263C-234.072 534.204 -234.036 535.146 -233.997 536.089C-206.154 522.662 -173.122 511.009 -139.443 499.133C-1.08954 450.347 147.991 397.718 -10.004 201.829C-11.1189 200.781 -12.2814 199.71 -13.4265 198.648C126.845 383.376 -12.2839 439.583 -141.729 491.896C-174.762 505.245 -207.161 518.342 -234.104 533.263ZM-234.208 529.714C-234.184 530.631 -234.156 531.549 -234.128 532.467C-207.27 517.684 -175.099 504.678 -142.301 491.423C-12.2831 438.879 127.441 382.358 -17.4655 194.895C-18.9557 193.513 -20.4065 192.151 -21.915 190.76C106.775 367.904 -23.2215 427.926 -144.572 483.921C-176.733 498.762 -208.273 513.322 -234.208 529.714ZM-234.264 526.171C-234.255 527.064 -234.248 527.957 -234.23 528.852C-208.388 512.63 -177.093 498.187 -145.195 483.469C-23.4232 427.279 107.113 367.043 -25.1555 187.802C-26.8533 186.247 -28.5911 184.673 -30.3187 183.103C86.7181 352.529 -34.1981 416.143 -147.452 475.663C-178.713 492.092 -209.376 508.213 -234.264 526.171ZM-234.28 519.147C-234.285 519.973 -234.289 520.798 -234.291 521.625C-210.591 502.233 -181.125 484.62 -151.106 466.677C-45.5496 403.584 66.7931 336.358 -41.525 173.009C-43.5141 171.231 -45.5088 169.449 -47.5183 167.66C47.0838 321.884 -56.0923 392.008 -153.369 458.109C-182.764 478.082 -211.611 497.691 -234.28 519.147ZM-234.23 515.657C-234.247 516.446 -234.267 517.234 -234.275 518.024C-211.704 496.863 -183.187 477.477 -154.133 457.735C-56.561 391.435 46.9395 321.072 -49.9592 165.49C-52.0863 163.61 -54.2861 161.695 -56.4735 159.785C27.4246 306.535 -66.9992 379.577 -156.415 448.687C-184.839 470.655 -212.744 492.23 -234.23 515.657ZM-234.157 512.19C-234.178 512.917 -234.188 513.646 -234.204 514.374C-212.813 491.309 -185.266 470.017 -157.22 448.34C-67.555 379.038 27.1818 305.789 -58.61 157.916C-60.9158 155.901 -63.2086 153.892 -65.5577 151.856C7.98325 291.192 -77.8798 366.831 -159.533 438.723C-186.963 462.874 -213.911 486.603 -234.157 512.19ZM-234.033 508.727C-234.056 509.396 -234.084 510.064 -234.106 510.734C-213.944 485.584 -187.394 462.198 -160.371 438.406C-78.4955 366.317 7.61258 290.452 -67.5435 150.147C-69.9339 148.082 -72.3616 145.998 -74.7965 143.91C-11.3023 275.838 -88.7486 353.715 -162.735 428.105C-189.14 454.655 -215.096 480.762 -234.033 508.727ZM-233.885 505.283C-233.914 505.869 -233.947 506.455 -233.972 507.042C-215.103 479.605 -189.567 453.925 -163.601 427.817C-89.4122 353.224 -11.7299 275.123 -76.6018 142.357C-79.134 140.19 -81.7146 138 -84.3088 135.803C-30.4194 260.377 -99.58 340.116 -166.03 416.686C-191.386 445.904 -216.337 474.664 -233.885 505.283ZM-233.71 501.858C-233.737 502.327 -233.757 502.798 -233.783 503.267C-216.276 473.305 -191.795 445.087 -166.924 416.428C-100.293 339.65 -30.9335 259.683 -85.9723 134.397C-88.6208 132.154 -91.257 129.917 -93.9454 127.654C-49.2599 244.845 -110.384 325.928 -169.432 404.271C-193.715 436.49 -217.645 468.244 -233.71 501.858ZM-233.491 498.418L-233.555 499.389C-217.493 466.603 -194.092 435.543 -170.349 404.041C-111.136 325.478 -49.8577 244.15 -95.5087 126.341C-98.24 124.051 -101.06 121.718 -103.862 119.392C-67.932 229.131 -121.16 310.984 -172.964 390.596C-196.142 426.216 -219.028 461.39 -233.491 498.418ZM-233.255 495.028L-233.277 495.292C-218.753 459.333 -196.467 425.073 -173.901 390.392C-121.953 310.555 -68.5706 228.465 -105.291 118.203C-108.153 115.826 -111.025 113.444 -113.942 111.04C-86.2707 213.192 -131.9 295.051 -176.644 375.287C-198.703 414.847 -220.544 454.014 -233.255 495.028ZM-188.729 312.678C-206.403 365.965 -224.203 419.641 -231.199 474.808C-221.673 428.045 -203.592 382.656 -185.493 337.238C-154.086 258.411 -122.653 179.491 -135.9 93.1429C-139.073 90.5771 -142.216 88.0258 -145.458 85.4256C-138.92 162.492 -163.692 237.195 -188.729 312.678ZM-234.885 505.175L-234.838 504.26L-234.993 504.589C-235.031 504.916 -235.074 505.243 -235.11 505.571L-234.885 505.175ZM-235.034 508.605C-235.015 508.142 -235.003 507.678 -234.983 507.215C-235.108 507.436 -235.237 507.656 -235.36 507.877L-235.507 509.305L-235.034 508.605ZM-235.157 512.045C-235.14 511.461 -235.115 510.877 -235.094 510.293C-235.303 510.605 -235.503 510.918 -235.707 511.231C-235.763 511.8 -235.807 512.372 -235.859 512.942C-235.625 512.643 -235.394 512.343 -235.157 512.045ZM-235.231 515.496L-235.192 513.514L-236 514.555C-236.057 515.212 -236.119 515.869 -236.17 516.527C-235.857 516.184 -235.546 515.839 -235.231 515.496ZM-235.284 518.971C-235.278 518.241 -235.269 517.512 -235.257 516.784C-235.593 517.155 -235.934 517.524 -236.266 517.896C-236.317 518.614 -236.37 519.331 -236.417 520.049C-236.042 519.689 -235.662 519.33 -235.284 518.971ZM-235.298 522.459C-235.298 521.672 -235.292 520.887 -235.289 520.102C-235.698 520.494 -236.099 520.888 -236.504 521.281C-236.551 522.043 -236.589 522.806 -236.63 523.568C-236.186 523.199 -235.744 522.828 -235.298 522.459ZM-235.271 525.956C-235.28 525.134 -235.298 524.312 -235.303 523.491C-235.763 523.876 -236.232 524.259 -236.689 524.645C-236.733 525.455 -236.778 526.266 -236.812 527.078C-236.302 526.703 -235.788 526.329 -235.271 525.956ZM-235.221 529.482C-235.24 528.616 -235.25 527.752 -235.259 526.887C-235.794 527.277 -236.318 527.669 -236.847 528.06C-236.878 528.897 -236.909 529.734 -236.935 530.572C-236.366 530.208 -235.794 529.845 -235.221 529.482ZM-235.116 533.008C-235.144 532.119 -235.172 531.23 -235.195 530.341C-235.788 530.718 -236.381 531.094 -236.967 531.473C-236.99 532.341 -237.003 533.21 -237.021 534.079C-236.388 533.721 -235.756 533.363 -235.116 533.008ZM-234.98 536.566C-235.02 535.648 -235.059 534.73 -235.093 533.813C-235.745 534.177 -236.389 534.544 -237.035 534.91C-237.052 535.802 -237.068 536.693 -237.074 537.585C-236.381 537.244 -235.679 536.905 -234.98 536.566ZM-234.812 540.135C-234.864 539.195 -234.903 538.258 -234.944 537.319C-235.656 537.667 -236.367 538.017 -237.073 538.368C-237.074 539.28 -237.075 540.192 -237.069 541.105C-236.318 540.781 -235.568 540.457 -234.812 540.135ZM-234.586 543.722C-234.649 542.766 -234.712 541.809 -234.769 540.854C-235.538 541.183 -236.306 541.511 -237.069 541.841C-237.059 542.771 -237.04 543.704 -237.024 544.635C-236.214 544.329 -235.403 544.024 -234.586 543.722ZM-234.328 547.333C-234.404 546.356 -234.476 545.379 -234.541 544.403C-235.372 544.712 -236.19 545.024 -237.009 545.336C-236.991 546.282 -236.972 547.227 -236.943 548.174C-236.077 547.892 -235.2 547.613 -234.328 547.333ZM-234.031 550.958C-234.118 549.968 -234.197 548.98 -234.274 547.991C-235.158 548.276 -236.041 548.562 -236.917 548.85C-236.883 549.811 -236.847 550.773 -236.803 551.736C-235.882 551.475 -234.96 551.215 -234.031 550.958ZM-233.676 554.604C-233.777 553.603 -233.884 552.601 -233.978 551.602C-234.915 551.862 -235.849 552.123 -236.779 552.386C-236.732 553.36 -236.672 554.336 -236.616 555.311C-235.641 555.074 -234.662 554.838 -233.676 554.604ZM-233.288 558.277C-233.402 557.259 -233.51 556.241 -233.613 555.224C-234.611 555.461 -235.594 555.702 -236.58 555.943C-236.523 556.929 -236.462 557.914 -236.392 558.902C-235.363 558.691 -234.326 558.484 -233.288 558.277ZM-199.656 667.471C-218.841 630.311 -229.152 594.205 -233.215 558.886C-234.262 559.095 -235.306 559.307 -236.344 559.521C-233.801 594.176 -224.416 629.937 -205.123 667.306L-206.083 667.471C-225.37 630.114 -234.77 594.367 -237.334 559.727C-238.362 559.94 -239.39 560.152 -240.407 560.368C-239.396 594.334 -230.951 629.731 -211.552 667.306L-212.513 667.471C-231.903 629.914 -240.364 594.535 -241.405 560.587C-242.415 560.804 -243.42 561.024 -244.419 561.245C-244.967 594.506 -237.485 629.526 -217.979 667.306L-218.939 667.471C-238.434 629.711 -245.942 594.709 -245.432 561.465C-246.426 561.688 -247.408 561.916 -248.393 562.142C-250.531 594.684 -244.019 629.319 -224.405 667.306L-225.366 667.471C-244.964 629.511 -251.509 594.897 -249.421 562.378C-250.383 562.602 -251.339 562.827 -252.292 563.055C-256.056 594.864 -250.557 629.103 -230.834 667.306L-231.793 667.471C-251.5 629.303 -257.034 595.09 -253.335 563.306C-254.276 563.533 -255.218 563.759 -256.15 563.99C-261.569 595.051 -257.099 628.886 -237.263 667.306L-238.223 667.471C-258.036 629.096 -262.557 595.293 -257.217 564.26C-258.132 564.49 -259.047 564.72 -259.951 564.954C-267.057 595.25 -263.639 628.667 -243.69 667.306L-244.65 667.471C-264.572 628.886 -268.05 595.502 -261.039 565.235C-261.93 565.469 -262.807 565.706 -263.688 565.944C-272.518 595.458 -270.18 628.445 -250.116 667.306L-251.076 667.471C-271.106 628.677 -273.523 595.728 -264.816 566.245C-265.677 566.48 -266.525 566.719 -267.375 566.958C-277.962 595.674 -276.726 628.22 -256.546 667.306L-257.506 667.471C-277.643 628.469 -278.974 595.968 -268.539 567.287C-269.36 567.521 -270.182 567.755 -270.993 567.993C-283.374 595.895 -283.272 627.989 -262.972 667.306L-263.933 667.471C-284.175 628.264 -284.411 596.222 -272.224 568.361C-272.998 568.592 -273.778 568.82 -274.544 569.055C-288.76 596.124 -289.821 627.754 -269.4 667.306L-270.36 667.471C-290.712 628.053 -289.807 596.485 -275.833 569.458C-276.578 569.69 -277.319 569.926 -278.055 570.162C-294.13 596.377 -296.366 627.526 -275.828 667.306L-276.787 667.471C-297.243 627.85 -295.2 596.769 -279.418 570.596C-280.11 570.822 -280.785 571.056 -281.468 571.285C-299.455 596.63 -302.92 627.285 -282.256 667.306L-283.216 667.471C-303.773 627.656 -300.562 597.083 -282.954 571.784C-283.587 572.002 -284.214 572.222 -284.839 572.443C-304.767 596.898 -309.47 627.045 -288.683 667.306L-289.644 667.471C-310.295 627.472 -305.901 597.425 -286.456 573.02C-287.006 573.219 -287.565 573.414 -288.111 573.615C-310.039 597.163 -316.027 626.791 -295.11 667.306L-296.07 667.471C-316.804 627.313 -311.246 597.809 -289.965 574.321C-290.419 574.493 -290.877 574.664 -291.325 574.839C-315.281 597.456 -322.585 626.544 -301.539 667.306L-302.5 667.471C-323.301 627.181 -316.573 598.246 -293.476 575.693C-293.822 575.832 -294.167 575.973 -294.51 576.113C-320.51 597.776 -329.133 626.31 -307.967 667.306L-308.927 667.471C-329.772 627.096 -321.894 598.762 -297.033 577.164C-297.208 577.239 -297.381 577.316 -297.554 577.391C-325.684 598.083 -335.696 626.047 -314.393 667.306L-315.354 667.471C-336.041 627.402 -327.39 599.813 -301.346 579.242C-331.03 598.901 -342.065 626.158 -320.822 667.306L-321.781 667.471C-342.032 628.247 -333.168 601.577 -306.83 582.076C-336.822 600.657 -348.059 627.001 -327.25 667.306L-328.21 667.471C-348.009 629.121 -339.003 603.347 -312.513 584.858C-342.666 602.423 -354.036 627.874 -333.677 667.306L-334.637 667.471C-357.099 623.967 -341.271 597.373 -304.252 579.62C-302.477 578.602 -300.63 577.615 -298.742 576.643C-297.02 575.585 -295.256 574.543 -293.423 573.529C-291.773 572.441 -290.058 571.377 -288.306 570.329C-286.676 569.172 -285.003 568.03 -283.272 566.912C-281.733 565.733 -280.145 564.573 -278.514 563.429C-276.996 562.166 -275.427 560.922 -273.815 559.694C-272.394 558.411 -270.938 557.141 -269.433 555.888C-268.048 554.519 -266.608 553.169 -265.138 551.829C-263.815 550.396 -262.456 548.975 -261.054 547.57C-259.843 546.125 -258.599 544.691 -257.317 543.27C-256.155 541.728 -254.947 540.201 -253.715 538.683C-252.617 537.055 -251.485 535.44 -250.319 533.834C-249.313 532.153 -248.281 530.48 -247.212 528.818C-246.305 527.096 -245.377 525.38 -244.413 523.674C-243.593 521.875 -242.751 520.083 -241.875 518.299C-241.149 516.428 -240.399 514.562 -239.622 512.705C-238.991 510.755 -238.34 508.81 -237.66 506.871C-237.146 504.91 -236.605 502.954 -236.05 501.002C-235.621 498.89 -235.166 496.783 -234.694 494.68C-234.378 492.531 -234.04 490.386 -233.683 488.244C-228.092 428.296 -208.83 370.205 -189.714 312.569C-164.593 236.836 -139.735 161.89 -146.535 84.5671C-200.172 41.5964 -262.51 -5.64801 -334.548 -57.6399L-333.769 -58C-262.123 -6.29163 -200.085 40.7199 -146.639 83.5149C-146.722 82.5938 -146.815 81.6719 -146.909 80.7499C-198.538 38.8904 -258.597 -7.07733 -328.123 -57.6399L-327.34 -58C-258.212 -7.72736 -198.452 38.0037 -147.013 79.683C-147.111 78.7604 -147.219 77.8364 -147.324 76.9124C-196.935 36.1678 -254.703 -8.51794 -321.696 -57.6411L-320.909 -57.9986C-254.331 -9.18048 -196.868 35.2582 -147.455 75.812C-147.565 74.8936 -147.663 73.9755 -147.783 73.0568C-195.36 33.4312 -250.83 -9.96948 -315.269 -57.6425L-314.483 -57.9979C-250.476 -10.6446 -195.315 32.499 -147.94 71.9212C-148.063 70.9946 -148.197 70.0679 -148.329 69.1406C-193.85 30.6517 -247.005 -11.4504 -308.843 -57.6437L-308.052 -57.9968C-246.655 -12.1327 -193.806 29.7078 -148.491 67.985C-148.629 67.054 -148.779 66.1223 -148.926 65.1905C-192.37 27.8508 -243.219 -12.9534 -302.419 -57.6449L-301.624 -57.9955C-242.889 -13.6552 -192.348 26.8735 -149.12 63.9853C-149.267 63.0836 -149.404 62.1825 -149.56 61.2799C-190.943 25.0612 -239.391 -14.4203 -295.992 -57.646L-295.192 -57.9945C-239.066 -15.1317 -190.956 24.0522 -149.789 60.032C-149.953 59.1103 -150.123 58.1879 -150.297 57.2654C-189.573 22.206 -235.653 -15.9484 -289.568 -57.6467L-288.764 -57.9935C-235.327 -16.6644 -189.59 21.183 -150.529 55.9957C-150.708 55.0716 -150.902 54.1467 -151.09 53.2219C-188.247 19.3286 -231.942 -17.4911 -283.143 -57.6494L-282.335 -57.9913C-231.632 -18.2236 -188.298 18.2686 -151.363 51.8986C-151.555 50.9839 -151.741 50.0689 -151.942 49.1528C-186.963 16.4301 -228.257 -19.0472 -276.716 -57.6508L-275.904 -57.9902C-227.964 -19.7999 -187.051 15.3252 -152.259 47.7645C-152.464 46.8516 -152.67 45.9385 -152.886 45.0251C-185.749 13.4873 -224.614 -20.6288 -270.291 -57.6528L-269.475 -57.9875C-224.326 -21.3909 -185.85 12.3585 -153.218 43.5984C-153.439 42.6836 -153.68 41.7666 -153.91 40.8514C-184.597 10.509 -221.008 -22.2318 -263.864 -57.6555L-263.045 -57.9854C-220.739 -23.0167 -184.737 9.32922 -154.289 39.3493C-154.517 38.4676 -154.749 37.5858 -154.986 36.7032C-183.496 7.53949 -217.397 -23.8179 -257.442 -57.6569L-256.615 -57.9834C-217.19 -24.6682 -183.688 6.25513 -155.444 35.041C-155.677 34.1975 -155.901 33.3544 -156.143 32.51C-182.454 4.53455 -213.826 -25.428 -251.016 -57.6609L-250.182 -57.9801C-213.649 -26.3191 -182.702 3.16498 -156.668 30.7198C-156.911 29.8942 -157.161 29.0678 -157.412 28.2415C-181.498 1.47363 -210.308 -27.0721 -244.592 -57.6631L-243.753 -57.9776C-210.15 -27.9946 -181.785 0.0331421 -157.98 26.3435C-158.229 25.5428 -158.499 24.7411 -158.756 23.9402C-180.598 -1.61353 -206.829 -28.7358 -238.17 -57.6675L-237.32 -57.9728C-206.721 -29.7264 -180.981 -3.20081 -159.442 21.825C-159.686 21.0814 -159.93 20.3378 -160.183 19.5933C-179.757 -4.73615 -203.39 -30.4219 -231.745 -57.6722L-230.887 -57.9689C-203.352 -31.5071 -180.271 -6.52032 -161.023 17.1856C-161.259 16.5118 -161.488 15.838 -161.73 15.1633C-179.009 -7.92163 -200.013 -32.1462 -225.324 -57.6769L-224.454 -57.9642C-200.06 -33.358 -179.683 -9.97021 -162.759 12.3613C-162.972 11.7855 -163.187 11.2094 -163.405 10.6326C-178.361 -11.183 -196.695 -33.9132 -218.902 -57.683L-218.02 -57.9572C-196.878 -35.3273 -179.276 -13.6478 -164.719 7.20709C-164.851 6.87018 -164.989 6.53235 -165.124 6.19562C-177.754 -14.3901 -193.37 -35.6493 -212.481 -57.6916L-211.588 -57.9491C-194.053 -37.724 -179.463 -18.1595 -167.409 0.832764C-177.607 -18.2344 -190.343 -37.7208 -206.062 -57.7014L-205.148 -57.9391C-191.673 -40.809 -180.389 -24.0422 -171.006 -7.59113C-178.563 -24.1335 -188.01 -40.8309 -199.642 -57.7137L-198.714 -57.9265C-184.883 -37.8559 -174.126 -18.0474 -165.975 1.54761C-164.274 4.74683 -162.633 7.93671 -161.073 11.1132C-159.065 14.5037 -157.167 17.869 -155.313 21.2242C-153.08 24.7002 -150.917 28.1572 -148.853 31.5867C-146.344 35.2292 -143.909 38.8488 -141.595 42.431C-138.931 46.1079 -136.392 49.7419 -133.917 53.3551C-131.138 57.0315 -128.447 60.6774 -125.851 64.2884C-122.808 68.156 -119.854 71.9896 -117.021 75.7775C-113.76 79.793 -110.642 83.7524 -107.61 87.6775C-104.435 91.4902 -101.358 95.2628 -98.3856 98.9926C-95.1355 102.8 -91.9728 106.571 -88.9226 110.294C-84.9533 114.824 -81.1762 119.271 -77.5036 123.672C-74.006 127.614 -70.6119 131.508 -67.3337 135.352C-63.8148 139.247 -60.4017 143.095 -57.0896 146.897C-52.9355 151.417 -48.9045 155.883 -45.026 160.277C-41.1097 164.485 -37.3136 168.637 -33.6495 172.728C-29.6436 176.98 -25.7516 181.178 -22.0042 185.308C-17.8697 189.646 -13.8468 193.932 -9.98062 198.142C-5.92081 202.366 -1.96078 206.542 1.85318 210.647C5.88242 214.798 9.80508 218.897 13.597 222.933C17.6814 227.097 21.6308 231.195 25.4745 235.24C179.562 390.827 162.224 461.683 81.8142 498.857C30.102 522.764 -47.6448 532.711 -122.654 542.308C-161.221 547.242 -199.053 552.087 -232.232 558.69C-228.186 594.021 -217.885 630.138 -198.696 667.306L-199.656 667.471Z" fill="url(#paint0_linear_4502_328)"/>
<defs>
<linearGradient id="paint0_linear_4502_328" x1="551.094" y1="186.94" x2="-23.0588" y2="895.916" gradientUnits="userSpaceOnUse">
<stop stop-color="#0AFB6A"/>
<stop offset="1" stop-color="#E6FF81"/>
</linearGradient>
</defs>
</svg>

