<svg width="261" height="440" viewBox="0 0 261 440" fill="none" xmlns="http://www.w3.org/2000/svg">
<path d="M-36.5661 83.2619L-35.2669 84.9333C-35.3671 84.7462 -35.4584 84.5607 -35.5573 84.3731C-35.9946 83.7535 -36.4345 83.1331 -36.8824 82.5108C-36.7746 82.7613 -36.6731 83.0112 -36.5661 83.2619ZM-29.7037 93.8237C-29.35 94.2552 -28.9882 94.6902 -28.6384 95.1201L-28.7407 94.9442L-29.9507 93.3179L-29.7037 93.8237ZM-34.644 87.8101C-33.856 88.7596 -33.1002 89.6975 -32.3148 90.6455C-32.5623 90.1551 -32.8281 89.6605 -33.0777 89.1688C-33.7859 88.2413 -34.5272 87.3026 -35.2537 86.3688C-35.0529 86.8487 -34.8423 87.3309 -34.644 87.8101ZM-22.2668 104.577C-21.9624 104.937 -21.6808 105.289 -21.3781 105.648L-21.384 105.639C-21.7054 105.226 -22.0413 104.808 -22.3665 104.394L-22.2668 104.577ZM-27.3719 98.6304C-26.6403 99.4793 -25.8978 100.333 -25.1751 101.179C-25.3904 100.793 -25.5972 100.409 -25.8141 100.023C-26.5796 99.0616 -27.306 98.1149 -28.0843 97.1495C-27.8495 97.6425 -27.6028 98.1379 -27.3719 98.6304ZM-32.8519 92.3077C-31.7989 93.5023 -30.7867 94.6818 -29.7529 95.8701C-30.0484 95.2571 -30.3473 94.644 -30.6479 94.0297C-31.6155 92.8431 -32.6027 91.65 -33.5805 90.4604C-33.3346 91.0768 -33.0943 91.6921 -32.8519 92.3077ZM-118.973 569.516L-118.7 569.101C-118.669 568.784 -118.635 568.469 -118.602 568.153L-118.814 568.538C-118.869 568.864 -118.919 569.19 -118.973 569.516ZM-14.1234 115.824L-13.8011 116.197C-13.9378 116.028 -14.0656 115.861 -14.2023 115.692L-14.1234 115.824ZM-19.6297 109.511C-18.9258 110.299 -18.2443 111.078 -17.5578 111.86C-17.7425 111.553 -17.9195 111.248 -18.1055 110.941C-18.7899 110.11 -19.4922 109.274 -20.1774 108.443C-19.9893 108.8 -19.8152 109.154 -19.6297 109.511ZM-25.2626 103.245C-24.2372 104.386 -23.2038 105.529 -22.1869 106.667C-22.5219 106.04 -22.873 105.409 -23.2123 104.781C-24.1582 103.661 -25.1318 102.531 -26.1062 101.399C-25.8239 102.015 -25.5411 102.631 -25.2626 103.245ZM-31.1204 96.8202C-29.8548 98.1848 -28.6078 99.542 -27.3791 100.892C-27.6966 100.205 -27.9969 99.5209 -28.3191 98.8321C-29.5287 97.4355 -30.7159 96.0462 -31.928 94.6478C-31.6499 95.3733 -31.3917 96.096 -31.1204 96.8202ZM-119.553 573.128C-119.37 572.887 -119.179 572.647 -118.993 572.406L-118.872 571.011C-119.024 571.246 -119.18 571.479 -119.33 571.714C-119.405 572.186 -119.481 572.657 -119.553 573.128ZM-121.155 575.258L-120.802 574.784L-120.664 573.835L-120.925 574.249C-121.002 574.586 -121.082 574.921 -121.155 575.258ZM-122.617 577.23L-122.57 577.164L-122.506 576.865L-122.617 577.23ZM-11.2868 120.768C-10.6274 121.506 -9.9549 122.248 -9.28831 122.988L-9.99519 121.89C-10.6062 121.172 -11.2524 120.439 -11.8799 119.714C-11.6795 120.066 -11.4863 120.416 -11.2868 120.768ZM-17.1285 114.385C-16.1197 115.463 -15.1037 116.544 -14.1323 117.606C-14.4324 117.086 -14.7611 116.557 -15.0663 116.035C-16.0649 114.886 -17.0474 113.744 -18.0473 112.594C-17.7446 113.19 -17.4283 113.79 -17.1285 114.385ZM-23.231 107.844L-19.4671 111.878C-19.8382 111.158 -20.1987 110.44 -20.5753 109.718C-21.7267 108.418 -22.9236 107.102 -24.109 105.789C-23.8063 106.477 -23.5278 107.158 -23.231 107.844ZM-29.4794 101.288C-28.0168 102.796 -26.5478 104.308 -25.1445 105.793C-25.4863 105.016 -25.857 104.233 -26.2081 103.454C-27.6041 101.914 -28.9623 100.389 -30.3783 98.8414C-30.0803 99.6564 -29.7686 100.474 -29.4794 101.288ZM-120.061 576.64C-119.794 576.337 -119.531 576.034 -119.261 575.732C-119.219 575.165 -119.18 574.597 -119.135 574.031C-119.365 574.334 -119.587 574.639 -119.817 574.943C-119.897 575.508 -119.983 576.073 -120.061 576.64ZM-121.879 578.708C-121.675 578.47 -121.465 578.235 -121.259 577.998C-121.197 577.537 -121.132 577.077 -121.067 576.616L-121.591 577.331C-121.687 577.79 -121.785 578.248 -121.879 578.708ZM-123.61 580.744L-123.211 580.275C-123.148 579.956 -123.087 579.637 -123.021 579.319C-123.123 579.461 -123.226 579.602 -123.328 579.745C-123.42 580.078 -123.517 580.41 -123.61 580.744ZM-125.203 582.657L-125.118 582.553L-125.019 582.175L-125.038 582.202L-125.203 582.657ZM-2.46533 132.21C-1.85097 132.871 -1.22302 133.537 -0.620972 134.192C-0.76532 133.978 -0.91777 133.761 -1.06467 133.547C-1.72998 132.783 -2.37704 132.026 -3.04575 131.26L-2.46533 132.21ZM-8.48709 125.744C-7.50548 126.792 -6.54552 127.832 -5.56772 128.879C-5.88614 128.364 -6.18419 127.855 -6.5056 127.339C-7.44731 126.28 -8.42509 125.205 -9.3876 124.137C-9.09296 124.671 -8.77792 125.211 -8.48709 125.744ZM-14.8031 119.132C-13.5633 120.412 -12.3138 121.696 -11.1169 122.958C-11.4833 122.299 -11.8578 121.638 -12.2323 120.977C-13.436 119.65 -14.6023 118.338 -15.8289 117.002C-15.479 117.714 -15.1457 118.422 -14.8031 119.132ZM-21.2779 112.414C-19.8004 113.936 -18.3602 115.443 -16.8971 116.96C-17.2847 116.173 -17.6767 115.385 -18.0741 114.595C-19.4506 113.106 -20.8602 111.603 -22.2646 110.103C-21.9407 110.872 -21.5946 111.646 -21.2779 112.414ZM-27.9922 105.642C-26.3521 107.28 -24.6949 108.925 -23.1181 110.537C-23.4662 109.71 -23.8215 108.881 -24.179 108.052C-25.7156 106.421 -27.2661 104.785 -28.8426 103.137C-28.5535 103.973 -28.2733 104.807 -27.9922 105.642ZM-120.513 580.082C-120.177 579.753 -119.836 579.425 -119.497 579.097C-119.455 578.443 -119.407 577.79 -119.361 577.137C-119.665 577.482 -119.97 577.826 -120.271 578.172C-120.354 578.808 -120.433 579.446 -120.513 580.082ZM-122.546 582.109C-122.253 581.814 -121.961 581.52 -121.667 581.226C-121.597 580.663 -121.524 580.102 -121.452 579.539C-121.715 579.844 -121.972 580.15 -122.232 580.455C-122.339 581.006 -122.441 581.558 -122.546 582.109ZM-124.499 584.095C-124.264 583.852 -124.034 583.608 -123.797 583.365C-123.713 582.909 -123.623 582.454 -123.537 581.998C-123.743 582.245 -123.942 582.494 -124.147 582.742L-124.499 584.095ZM-126.351 586.022C-126.202 585.864 -126.047 585.708 -125.898 585.551C-125.816 585.224 -125.728 584.899 -125.644 584.573L-126.015 585.03C-126.126 585.36 -126.241 585.69 -126.351 586.022ZM-128.077 587.879L-127.94 587.731C-127.896 587.592 -127.854 587.452 -127.808 587.313L-127.868 587.389C-127.936 587.553 -128.009 587.715 -128.077 587.879ZM6.73653 143.727C7.35852 144.383 7.92366 145.016 8.53548 145.668C8.43825 145.53 8.34995 145.396 8.25229 145.258C7.63199 144.56 6.98918 143.854 6.36377 143.154C6.48563 143.344 6.61636 143.537 6.73653 143.727ZM0.571243 137.297C1.50064 138.266 2.44237 139.239 3.3569 140.201C3.04102 139.718 2.73277 139.236 2.41264 138.752C1.49428 137.739 0.600555 136.738 -0.338608 135.717C-0.0244141 136.247 0.260452 136.768 0.571243 137.297ZM-5.96767 130.493C-4.67781 131.816 -3.45714 133.109 -2.1868 134.424C-2.58336 133.759 -3.00708 133.086 -3.40959 132.419C-4.58652 131.147 -5.78806 129.864 -6.979 128.586C-6.63721 129.223 -6.30139 129.858 -5.96767 130.493ZM-12.5414 123.868C-11.0987 125.317 -9.64792 126.768 -8.24257 128.201C-8.64719 127.447 -9.02548 126.701 -9.43903 125.945C-10.824 124.475 -12.231 122.996 -13.6593 121.508C-13.2874 122.294 -12.9036 123.084 -12.5414 123.868ZM-19.4964 116.879C-17.8147 118.549 -16.1966 120.192 -14.5441 121.849C-14.9381 121.014 -15.3483 120.174 -15.7537 119.336C-17.3123 117.712 -18.8846 116.083 -20.4619 114.451C-20.1345 115.262 -19.8153 116.07 -19.4964 116.879ZM-26.5711 109.969C-24.7624 111.728 -22.944 113.491 -21.1866 115.228C-21.5365 114.358 -21.8681 113.492 -22.2273 112.62C-23.9065 110.899 -25.6485 109.151 -27.3922 107.403C-27.1103 108.26 -26.8441 109.114 -26.5711 109.969ZM-120.925 583.512C-120.51 583.157 -120.102 582.799 -119.683 582.445C-119.646 581.735 -119.612 581.026 -119.571 580.315C-119.944 580.682 -120.313 581.049 -120.683 581.417C-120.768 582.115 -120.847 582.814 -120.925 583.512ZM-123.154 585.441C-122.785 585.115 -122.409 584.792 -122.036 584.468C-121.967 583.835 -121.904 583.202 -121.832 582.57C-122.16 582.902 -122.496 583.231 -122.821 583.563C-122.938 584.188 -123.046 584.815 -123.154 585.441ZM-125.315 587.363C-124.995 587.075 -124.67 586.789 -124.347 586.502C-124.254 585.955 -124.164 585.406 -124.068 584.86C-124.356 585.159 -124.647 585.458 -124.932 585.758C-125.065 586.292 -125.186 586.828 -125.315 587.363ZM-127.397 589.268C-127.137 589.028 -126.879 588.787 -126.616 588.548L-126.297 587.205C-126.525 587.451 -126.752 587.698 -126.98 587.943C-127.121 588.384 -127.26 588.826 -127.397 589.268ZM-129.378 591.117C-129.199 590.948 -129.026 590.776 -128.846 590.607C-128.748 590.285 -128.643 589.965 -128.542 589.643C-128.693 589.81 -128.84 589.979 -128.989 590.146C-129.118 590.47 -129.251 590.793 -129.378 591.117ZM-131.205 592.87L-131.024 592.695C-130.967 592.546 -130.913 592.396 -130.856 592.246L-130.964 592.369L-131.205 592.87ZM16.5039 155.683C16.9956 156.201 17.4953 156.723 17.9899 157.242C17.8456 157.045 17.7067 156.85 17.5615 156.653C17.0826 156.125 16.5855 155.59 16.0938 155.057C16.236 155.268 16.3642 155.473 16.5039 155.683ZM9.97522 148.901C10.8953 149.835 11.8022 150.764 12.6938 151.686C12.4254 151.295 12.1507 150.901 11.8816 150.509C10.9738 149.528 10.0546 148.542 9.14938 147.562C9.42961 148.01 9.69839 148.454 9.97522 148.901ZM3.42738 142.263C4.65314 143.506 5.88951 144.753 7.10507 145.991C6.67583 145.312 6.23595 144.628 5.79863 143.946C4.66248 142.74 3.47069 141.509 2.28867 140.283C2.66655 140.943 3.05589 141.606 3.42738 142.263ZM-3.43083 135.375C-1.97453 136.817 -0.552185 138.244 0.86972 139.67C0.45491 138.951 0.0511322 138.234 -0.370895 137.512L-4.55722 133.152C-4.17297 133.896 -3.80701 134.634 -3.43083 135.375ZM-10.4784 128.457C-8.8183 130.08 -7.15988 131.704 -5.52994 133.315C-5.97701 132.449 -6.45718 131.572 -6.91489 130.703C-8.4234 129.155 -10.0113 127.573 -11.5823 125.999C-11.2103 126.819 -10.8397 127.639 -10.4784 128.457ZM-17.7594 121.375C-15.9286 123.136 -14.1352 124.879 -12.3482 126.621C-12.732 125.772 -13.098 124.927 -13.4933 124.075C-15.2413 122.313 -16.9697 120.56 -18.7364 118.79C-18.4023 119.654 -18.083 120.513 -17.7594 121.375ZM-25.2256 114.262C-23.2505 116.136 -21.2809 118.008 -19.3478 119.862C-19.6998 118.941 -20.0836 118.011 -20.4487 117.086C-22.2608 115.285 -24.1705 113.442 -26.0582 111.608C-25.7805 112.493 -25.491 113.38 -25.2256 114.262ZM-116.276 583.243C-91.4847 565.489 -61.0986 549.513 -30.1274 533.236C83.5043 473.517 204.885 409.677 84.7322 238.419M-121.293 586.911C-120.816 586.553 -120.328 586.198 -119.846 585.842C-119.814 585.077 -119.781 584.313 -119.742 583.549C-120.18 583.924 -120.617 584.299 -121.051 584.675C-121.134 585.42 -121.219 586.164 -121.293 586.911ZM-123.719 588.762C-123.274 588.42 -122.827 588.078 -122.377 587.738C-122.311 587.037 -122.238 586.339 -122.163 585.64C-122.569 585.997 -122.968 586.356 -123.37 586.715C-123.489 587.396 -123.61 588.078 -123.719 588.762ZM-126.075 590.598C-125.67 590.279 -125.271 589.957 -124.862 589.639C-124.765 589.017 -124.666 588.395 -124.563 587.775C-124.929 588.104 -125.288 588.436 -125.65 588.767C-125.794 589.377 -125.937 589.987 -126.075 590.598ZM-128.356 592.415C-128.006 592.133 -127.654 591.851 -127.302 591.569C-127.186 591.037 -127.078 590.503 -126.956 589.972C-127.268 590.261 -127.584 590.547 -127.891 590.836C-128.051 591.361 -128.201 591.889 -128.356 592.415ZM-130.56 594.224C-130.277 593.989 -129.987 593.755 -129.702 593.52L-129.319 592.205C-129.571 592.447 -129.826 592.688 -130.075 592.931L-130.56 594.224ZM-132.668 596.006L-132.072 595.497C-131.956 595.177 -131.833 594.859 -131.713 594.54L-132.221 595.046C-132.368 595.366 -132.523 595.685 -132.668 596.006ZM-134.58 597.653L-134.356 597.455L-134.164 597.015L-134.329 597.187C-134.415 597.342 -134.495 597.498 -134.58 597.653ZM26.4412 167.534C26.8746 167.978 27.3192 168.427 27.7467 168.868L27.6593 168.754C27.1519 168.205 26.6581 167.662 26.1499 167.112L26.4412 167.534ZM19.8564 160.803C20.7913 161.76 21.7245 162.717 22.6675 163.676C22.3461 163.225 21.9979 162.762 21.674 162.31C20.8091 161.391 19.9073 160.456 19.0221 159.529C19.3006 159.954 19.5813 160.38 19.8564 160.803ZM13.1986 154.128C14.347 155.26 15.5091 156.397 16.6186 157.512C16.2619 156.973 15.9278 156.443 15.566 155.904C14.3564 154.64 13.1837 153.393 11.9622 152.124C12.366 152.789 12.8007 153.465 13.1986 154.128ZM6.12132 147.13L10.4414 151.402C9.97693 150.642 9.50349 149.879 9.03137 149.116C7.70627 147.757 6.3315 146.375 4.96861 144.998C5.36432 145.713 5.73241 146.417 6.12132 147.13ZM-1.05528 140.152C0.594193 141.734 2.24321 143.315 3.84004 144.873C3.4006 144.081 2.93867 143.281 2.48904 142.485C0.875229 140.855 -0.682083 139.251 -2.3201 137.611C-1.89764 138.459 -1.46797 139.308 -1.05528 140.152ZM-8.49223 133.023C-6.67632 134.76 -4.86974 136.491 -3.06996 138.221C-3.50557 137.343 -3.93309 136.468 -4.38017 135.587C-6.06828 133.91 -7.81755 132.205 -9.55704 130.506C-9.18977 131.348 -8.84888 132.183 -8.49223 133.023ZM-16.1244 125.817C-14.1357 127.674 -12.1601 129.525 -10.2291 131.357C-10.6147 130.465 -11.0291 129.565 -11.4256 128.67C-13.3269 126.811 -15.192 124.969 -17.1264 123.096C-16.7918 124.003 -16.4467 124.912 -16.1244 125.817ZM-24.013 118.469C-21.8906 120.438 -19.7872 122.398 -17.6937 124.355C-18.0282 123.433 -18.3666 122.509 -18.7139 121.584C-20.689 119.679 -22.7376 117.742 -24.7765 115.81C-24.5132 116.698 -24.2652 117.583 -24.013 118.469ZM-121.599 590.308C-121.055 589.95 -120.513 589.591 -119.964 589.235C-119.941 588.43 -119.911 587.627 -119.88 586.823C-120.385 587.202 -120.89 587.581 -121.39 587.961C-121.461 588.743 -121.532 589.526 -121.599 590.308ZM-124.209 592.046C-123.697 591.701 -123.186 591.355 -122.669 591.011C-122.607 590.269 -122.539 589.528 -122.471 588.786C-122.942 589.147 -123.419 589.506 -123.885 589.868C-123.994 590.594 -124.104 591.32 -124.209 592.046ZM-126.764 593.785C-126.292 593.458 -125.811 593.135 -125.335 592.811C-125.239 592.131 -125.134 591.453 -125.031 590.775C-125.466 591.119 -125.905 591.462 -126.335 591.807C-126.48 592.466 -126.628 593.124 -126.764 593.785ZM-129.253 595.536C-128.823 595.23 -128.389 594.927 -127.955 594.622C-127.832 594.013 -127.7 593.405 -127.568 592.798C-127.965 593.119 -128.356 593.443 -128.749 593.766C-128.92 594.355 -129.09 594.945 -129.253 595.536ZM-131.659 597.273C-131.278 596.994 -130.902 596.715 -130.517 596.437C-130.376 595.916 -130.241 595.391 -130.095 594.87C-130.444 595.163 -130.784 595.458 -131.13 595.752C-131.312 596.258 -131.481 596.766 -131.659 597.273ZM-133.98 598.988C-133.667 598.753 -133.357 598.518 -133.043 598.285C-132.897 597.857 -132.745 597.431 -132.598 597.004C-132.873 597.242 -133.151 597.479 -133.425 597.717C-133.61 598.141 -133.798 598.563 -133.98 598.988ZM-136.187 600.666C-135.97 600.499 -135.75 600.334 -135.532 600.167C-135.401 599.857 -135.27 599.547 -135.135 599.237C-135.324 599.406 -135.515 599.572 -135.7 599.74C-135.864 600.048 -136.026 600.357 -136.187 600.666ZM-138.214 602.258L-137.947 602.048L-137.72 601.595L-137.92 601.783L-138.214 602.258ZM36.6297 179.391L36.718 179.48L36.6165 179.373L36.6297 179.391ZM30.1791 172.95C31.0104 173.781 31.8562 174.618 32.6786 175.445C32.4226 175.098 32.1865 174.758 31.9288 174.41C31.0079 173.445 30.1388 172.505 29.2009 171.532C29.5206 172.003 29.8615 172.481 30.1791 172.95ZM23.1549 165.938C24.348 167.117 25.482 168.27 26.6691 169.447C26.279 168.88 25.8926 168.316 25.4969 167.747C24.4036 166.622 23.2819 165.484 22.1763 164.354C22.5163 164.887 22.8199 165.407 23.1549 165.938ZM16.0645 159.06C17.4987 160.442 18.9431 161.828 20.3396 163.193C19.8789 162.476 19.3889 161.748 18.9223 161.029C17.5408 159.632 16.1825 158.244 14.7717 156.833C15.2103 157.578 15.6344 158.318 16.0645 159.06ZM8.74393 151.981C10.3837 153.559 11.9869 155.121 13.6236 156.697C13.1591 155.911 12.7299 155.136 12.2552 154.345C10.6766 152.774 9.06447 151.186 7.45746 149.601C7.88245 150.393 8.32954 151.192 8.74393 151.981ZM1.17203 144.834C2.97775 146.522 4.79918 148.218 6.54631 149.878C6.09541 149.036 5.6373 148.192 5.17747 147.346C3.45581 145.659 1.74307 143.975 -0.0167999 142.27C0.393768 143.129 0.770813 143.978 1.17203 144.834ZM-6.60454 137.538C-4.61922 139.394 -2.66447 141.237 -0.686783 143.09C-1.11858 142.184 -1.56099 141.275 -2.0051 140.365C-3.88002 138.555 -5.79359 136.727 -7.70801 134.898C-7.34203 135.778 -6.96033 136.661 -6.60454 137.538ZM-14.6256 130.166C-12.5036 132.096 -10.3658 134.032 -8.31726 135.93C-8.68961 135.032 -9.06239 134.133 -9.44493 133.232C-11.4608 131.314 -13.4818 129.394 -15.5444 127.454C-15.2269 128.36 -14.9309 129.261 -14.6256 130.166ZM-22.8582 122.654C-20.5927 124.713 -18.3662 126.754 -16.1134 128.808C-16.4335 127.881 -16.7464 126.956 -17.0772 126.026C-19.2162 124.021 -21.3964 121.996 -23.5834 119.969C-23.3341 120.865 -23.0968 121.759 -22.8582 122.654ZM-121.868 593.7C-121.262 593.349 -120.649 593.002 -120.037 592.653C-120.022 591.818 -120.014 590.982 -119.994 590.147C-120.559 590.517 -121.125 590.886 -121.684 591.256C-121.751 592.07 -121.809 592.885 -121.868 593.7ZM-124.659 595.329C-124.084 594.988 -123.498 594.651 -122.918 594.313C-122.862 593.531 -122.814 592.75 -122.754 591.97C-123.294 592.332 -123.826 592.697 -124.362 593.062C-124.467 593.816 -124.562 594.573 -124.659 595.329ZM-127.395 596.978C-126.85 596.646 -126.305 596.314 -125.754 595.984C-125.662 595.261 -125.571 594.539 -125.474 593.817C-125.984 594.168 -126.484 594.523 -126.989 594.876C-127.127 595.575 -127.263 596.276 -127.395 596.978ZM-130.078 598.632C-129.568 598.313 -129.062 597.991 -128.547 597.673C-128.423 597.016 -128.293 596.36 -128.165 595.704C-128.632 596.036 -129.101 596.366 -129.562 596.699C-129.737 597.343 -129.913 597.986 -130.078 598.632ZM-132.681 600.275C-132.224 599.981 -131.759 599.688 -131.296 599.396C-131.147 598.805 -130.991 598.216 -130.834 597.627C-131.257 597.937 -131.686 598.244 -132.106 598.556C-132.301 599.128 -132.493 599.701 -132.681 600.275ZM-135.203 601.919C-134.8 601.652 -134.389 601.389 -133.984 601.124C-133.821 600.618 -133.664 600.109 -133.497 599.603C-133.867 599.882 -134.234 600.162 -134.601 600.442C-134.805 600.933 -135.003 601.427 -135.203 601.919ZM-137.652 603.567C-137.314 603.336 -136.978 603.106 -136.636 602.877C-136.467 602.454 -136.291 602.033 -136.12 601.611C-136.425 601.85 -136.725 602.092 -137.028 602.332C-137.236 602.743 -137.449 603.153 -137.652 603.567ZM-139.947 605.147C-139.703 604.977 -139.465 604.803 -139.22 604.633C-139.077 604.333 -138.941 604.031 -138.794 603.731C-139.011 603.906 -139.218 604.083 -139.433 604.258C-139.608 604.553 -139.774 604.851 -139.947 605.147ZM-142.074 606.655L-141.774 606.443C-141.685 606.286 -141.593 606.13 -141.503 605.974C-141.578 606.037 -141.655 606.099 -141.731 606.163L-142.074 606.655ZM47.5027 191.855L48.6724 193.036L48.6007 192.945C48.1965 192.521 47.7638 192.083 47.3524 191.655L47.5027 191.855ZM40.6556 185.012C41.402 185.739 42.1615 186.473 42.8829 187.189L42.3721 186.513C41.5862 185.701 40.7935 184.886 40.0166 184.079C40.2374 184.393 40.4365 184.698 40.6556 185.012ZM33.5923 178.11C34.7408 179.235 35.9033 180.365 37.0492 181.488C36.6064 180.867 36.1419 180.238 35.6944 179.614C34.652 178.558 33.5575 177.477 32.4769 176.402C32.8561 176.975 33.217 177.54 33.5923 178.11ZM26.3048 171.034C27.7611 172.428 29.1639 173.798 30.5931 175.18C30.1472 174.513 29.6964 173.844 29.2438 173.175C27.841 171.774 26.4305 170.369 25.0277 168.968C25.454 169.657 25.8862 170.348 26.3048 171.034ZM18.9325 164.051C20.5314 165.562 22.1381 167.076 23.7081 168.574C23.2093 167.769 22.7265 166.971 22.2171 166.162C20.7 164.67 19.1329 163.155 17.5632 161.639C18.0209 162.443 18.4837 163.249 18.9325 164.051ZM11.1483 156.694C13.0088 158.433 14.7865 160.135 16.6236 161.863C16.1358 161.007 15.62 160.14 15.1211 159.279C13.3888 157.601 11.651 155.921 9.90598 154.237C10.331 155.059 10.7348 155.874 11.1483 156.694ZM3.33737 149.506C5.29764 151.302 7.2643 153.102 9.17235 154.875C8.71423 153.984 8.27348 153.099 7.80263 152.204C5.93152 150.417 4.00948 148.606 2.07892 146.792C2.49373 147.695 2.93486 148.606 3.33737 149.506ZM-4.8714 141.951C-2.7103 143.924 -0.635422 145.856 1.50529 147.82C1.08539 146.899 0.652328 145.973 0.220108 145.048C-1.80682 143.141 -3.83928 141.232 -5.89169 139.314C-5.53972 140.196 -5.21234 141.072 -4.8714 141.951ZM-13.1816 134.5C-10.9233 136.514 -8.6523 138.535 -6.46445 140.516C-6.82619 139.595 -7.18025 138.676 -7.556 137.752C-9.698 135.763 -11.8888 133.751 -14.0941 131.733C-13.7863 132.656 -13.4772 133.579 -13.1816 134.5ZM-21.7755 126.804C-19.3677 128.951 -17.0207 131.069 -14.6197 133.211C-14.9279 132.269 -15.2625 131.321 -15.5813 130.376C-17.8702 128.282 -20.1651 126.185 -22.4875 124.076C-22.2498 124.985 -22.0022 125.896 -21.7755 126.804ZM-122.101 597.102C-121.43 596.763 -120.756 596.426 -120.08 596.09C-120.075 595.22 -120.065 594.352 -120.051 593.484C-120.681 593.845 -121.304 594.21 -121.929 594.574C-121.99 595.417 -122.05 596.259 -122.101 597.102ZM-125.067 598.629C-124.423 598.294 -123.783 597.957 -123.132 597.624C-123.087 596.811 -123.034 595.999 -122.979 595.187C-123.58 595.541 -124.183 595.895 -124.777 596.25C-124.878 597.042 -124.976 597.835 -125.067 598.629ZM-127.978 600.162C-127.366 599.835 -126.754 599.509 -126.136 599.184C-126.052 598.426 -125.966 597.669 -125.873 596.912C-126.444 597.258 -127.02 597.6 -127.584 597.948C-127.721 598.684 -127.849 599.422 -127.978 600.162ZM-130.834 601.701C-130.26 601.386 -129.675 601.075 -129.096 600.763C-128.977 600.064 -128.862 599.363 -128.737 598.666C-129.275 599 -129.81 599.335 -130.343 599.672C-130.51 600.347 -130.672 601.024 -130.834 601.701ZM-133.643 603.271C-133.104 602.966 -132.558 602.663 -132.014 602.36C-131.864 601.717 -131.704 601.075 -131.548 600.432C-132.053 600.756 -132.546 601.083 -133.045 601.409C-133.247 602.029 -133.451 602.648 -133.643 603.271ZM-136.351 604.827C-135.861 604.541 -135.374 604.254 -134.878 603.97C-134.706 603.398 -134.527 602.826 -134.346 602.256C-134.805 602.56 -135.26 602.865 -135.714 603.17C-135.932 603.721 -136.14 604.275 -136.351 604.827ZM-138.988 606.382C-138.554 606.122 -138.122 605.861 -137.684 605.602C-137.499 605.11 -137.314 604.619 -137.126 604.129C-137.518 604.396 -137.915 604.66 -138.302 604.929C-138.531 605.413 -138.764 605.897 -138.988 606.382ZM-141.528 607.922C-141.177 607.705 -140.816 607.492 -140.464 607.276C-140.278 606.867 -140.084 606.461 -139.892 606.054C-140.218 606.285 -140.548 606.516 -140.872 606.748C-141.093 607.138 -141.311 607.53 -141.528 607.922ZM-143.938 609.443L-143.158 608.949C-142.999 608.655 -142.84 608.359 -142.679 608.065L-143.367 608.574L-143.938 609.443ZM-146.184 610.896L-145.825 610.657L-145.543 610.214L-145.835 610.441L-146.184 610.896ZM51.3833 197.175C52.1412 197.911 52.8919 198.643 53.6315 199.37L53.0417 198.616C52.3021 197.862 51.5323 197.094 50.78 196.334C50.9855 196.616 51.1791 196.894 51.3833 197.175ZM44.267 190.282C45.4355 191.416 46.6175 192.557 47.7859 193.691C47.3987 193.165 46.9745 192.623 46.5831 192.095C45.4095 190.918 44.2793 189.76 43.1011 188.579C43.4913 189.147 43.8815 189.716 44.267 190.282ZM36.9902 183.315C38.345 184.594 39.7015 185.874 41.0182 187.134C40.5745 186.494 40.1571 185.865 39.7075 185.223C38.3824 183.913 37.0059 182.581 35.6443 181.255C36.0858 181.938 36.5571 182.634 36.9902 183.315ZM29.3334 176.08C30.9472 177.602 32.5508 179.12 34.1574 180.638C33.6602 179.87 33.1554 179.1 32.6489 178.328C31.089 176.811 29.5686 175.311 28.0036 173.791C28.4655 174.561 28.8812 175.314 29.3334 176.08ZM21.5462 168.848C23.3668 170.522 25.2005 172.202 26.9659 173.85C26.4522 172.993 25.8922 172.117 25.3661 171.255C23.6797 169.638 21.9249 167.99 20.1837 166.348C20.6435 167.183 21.0966 168.017 21.5462 168.848ZM13.5446 161.463C15.5308 163.281 17.4439 165.065 19.4025 166.87C18.9253 166 18.4718 165.138 17.9832 164.264C16.0526 162.44 14.1539 160.63 12.2148 158.802C12.656 159.688 13.1145 160.581 13.5446 161.463ZM5.28445 154.006C7.41541 155.923 9.55147 157.842 11.6302 159.733C11.1674 158.796 10.677 157.85 10.2019 156.909C8.23103 155.071 6.17139 153.192 4.13002 151.323C4.52446 152.221 4.89978 153.112 5.28445 154.006ZM-3.16335 146.423C-0.886765 148.45 1.34056 150.455 3.57256 152.462C3.17389 151.547 2.79732 150.639 2.38589 149.719C0.180649 147.692 -1.99702 145.677 -4.21671 143.644C-3.86559 144.57 -3.50174 145.5 -3.16335 146.423ZM-11.8705 138.729C-9.46362 140.848 -7.06645 142.962 -4.70834 145.057C-5.06882 144.096 -5.45438 143.127 -5.82758 142.162C-8.06807 140.128 -10.4036 138.049 -12.7235 135.978C-12.4348 136.896 -12.1474 137.814 -11.8705 138.729ZM-20.793 130.927C-18.2643 133.123 -15.7512 135.313 -13.2827 137.481C-13.5685 136.557 -13.847 135.634 -14.1433 134.707C-16.5812 132.526 -18.986 130.361 -21.4409 128.172C-21.2151 129.092 -21.007 130.009 -20.793 130.927ZM-122.271 600.508C-121.54 600.184 -120.811 599.859 -120.074 599.537C-120.081 598.648 -120.08 597.76 -120.079 596.872C-120.768 597.216 -121.459 597.56 -122.14 597.907C-122.186 598.773 -122.231 599.64 -122.271 600.508ZM-125.421 601.922C-124.718 601.601 -124.009 601.283 -123.299 600.966C-123.263 600.124 -123.218 599.283 -123.173 598.443C-123.837 598.785 -124.499 599.128 -125.157 599.473C-125.249 600.288 -125.34 601.104 -125.421 601.922ZM-128.514 603.347C-127.842 603.032 -127.161 602.723 -126.482 602.411C-126.406 601.617 -126.316 600.825 -126.227 600.032C-126.868 600.371 -127.498 600.714 -128.132 601.056C-128.262 601.818 -128.393 602.581 -128.514 603.347ZM-131.541 604.792C-130.899 604.482 -130.254 604.172 -129.604 603.865C-129.49 603.128 -129.372 602.392 -129.249 601.657C-129.86 601.989 -130.463 602.325 -131.066 602.66C-131.231 603.369 -131.385 604.08 -131.541 604.792ZM-134.52 606.25C-133.906 605.945 -133.299 605.638 -132.679 605.336C-132.532 604.662 -132.391 603.988 -132.24 603.316C-132.807 603.635 -133.378 603.952 -133.939 604.273C-134.136 604.932 -134.33 605.59 -134.52 606.25ZM-137.428 607.713C-136.863 607.423 -136.292 607.136 -135.723 606.849C-135.546 606.228 -135.361 605.611 -135.177 604.993C-135.707 605.3 -136.24 605.605 -136.763 605.914C-136.988 606.512 -137.212 607.111 -137.428 607.713ZM-140.245 609.173C-139.733 608.903 -139.21 608.637 -138.693 608.369C-138.498 607.817 -138.306 607.265 -138.104 606.715C-138.589 607.006 -139.07 607.297 -139.549 607.59C-139.785 608.116 -140.013 608.645 -140.245 609.173ZM-143.014 610.665C-142.552 610.413 -142.089 610.162 -141.623 609.912C-141.415 609.429 -141.199 608.948 -140.987 608.466C-141.417 608.733 -141.835 609.005 -142.26 609.273C-142.513 609.736 -142.769 610.199 -143.014 610.665ZM-145.634 612.117C-145.25 611.901 -144.875 611.683 -144.488 611.468C-144.289 611.081 -144.097 610.692 -143.894 610.307C-144.244 610.533 -144.589 610.76 -144.936 610.986C-145.174 611.362 -145.401 611.741 -145.634 612.117ZM-148.152 613.55C-147.875 613.388 -147.59 613.229 -147.311 613.068C-147.137 612.781 -146.956 612.496 -146.782 612.209C-147.027 612.374 -147.279 612.535 -147.522 612.701C-147.731 612.984 -147.947 613.265 -148.152 613.55ZM-150.449 614.914L-150.061 614.684L-149.762 614.254L-150.088 614.48C-150.209 614.624 -150.328 614.77 -150.449 614.914ZM62.4695 209.543C63.2146 210.259 63.9763 210.983 64.7027 211.69C64.4662 211.394 64.2128 211.09 63.9763 210.793C63.2545 210.066 62.4975 209.322 61.7574 208.586L62.4695 209.543ZM55.2963 202.644L58.5863 205.807C58.2203 205.323 57.8806 204.85 57.5108 204.364C56.3721 203.232 55.2457 202.107 54.1006 200.973C54.4934 201.528 54.9086 202.092 55.2963 202.644ZM47.8525 195.59C49.1806 196.834 50.5227 198.083 51.8151 199.311C51.3456 198.654 50.8794 197.999 50.403 197.338C49.1374 196.102 47.8301 194.844 46.5356 193.594C46.9843 194.263 47.4131 194.924 47.8525 195.59ZM40.0688 188.28C41.7136 189.815 43.3079 191.325 44.9383 192.852C44.4037 192.058 43.8361 191.251 43.2931 190.453C41.7442 188.961 40.2302 187.484 38.6541 185.98C39.1364 186.751 39.5945 187.513 40.0688 188.28ZM32.2371 181.077C34.025 182.714 35.8196 184.354 37.5685 185.972C37.0492 185.145 36.552 184.325 36.023 183.494C34.2844 181.842 32.5143 180.176 30.746 178.511C31.2419 179.366 31.7531 180.226 32.2371 181.077ZM24.0936 173.633C26.0709 175.425 27.9977 177.193 29.9418 178.97C29.4213 178.07 28.9054 177.173 28.3717 176.269C26.5138 174.528 24.6299 172.776 22.7257 171.013C23.191 171.89 23.6402 172.761 24.0936 173.633ZM15.7397 166.127C17.8821 168.046 20.0169 169.961 22.1224 171.863C21.6299 170.928 21.0906 169.977 20.5837 169.038C18.5461 167.154 16.5031 165.267 14.4434 163.373C14.8837 164.294 15.3125 165.211 15.7397 166.127ZM7.20271 158.533C9.46402 160.53 11.7062 162.517 13.9161 164.489C13.4678 163.544 13.0453 162.607 12.5838 161.658C10.449 159.709 8.23273 157.723 6.0313 155.743C6.42445 156.674 6.82187 157.607 7.20271 158.533ZM-1.62042 150.766C0.796265 152.885 3.17856 154.987 5.56509 157.092C5.166 156.132 4.73419 155.164 4.32024 154.2C2.00714 152.116 -0.269012 150.05 -2.62117 147.948C-2.28024 148.889 -1.9482 149.828 -1.62042 150.766ZM-10.6321 142.953C-8.10922 145.125 -5.57877 147.301 -3.12556 149.44C-3.46184 148.499 -3.78149 147.562 -4.1288 146.617C-6.52002 144.489 -8.97113 142.332 -11.4231 140.174C-11.1467 141.103 -10.8966 142.026 -10.6321 142.953ZM-19.8734 134.985C-17.2066 137.269 -14.6176 139.517 -11.9835 141.786C-12.259 140.835 -12.5465 139.881 -12.8344 138.927C-15.3644 136.703 -17.9085 134.473 -20.4891 132.225C-20.278 133.146 -20.073 134.066 -19.8734 134.985ZM-122.396 603.921C-121.61 603.616 -120.816 603.315 -120.022 603.014C-120.039 602.102 -120.063 601.19 -120.074 600.28C-120.823 600.609 -121.566 600.941 -122.309 601.273C-122.344 602.154 -122.369 603.038 -122.396 603.921ZM-125.716 605.225C-124.954 604.922 -124.185 604.621 -123.415 604.321C-123.389 603.457 -123.37 602.592 -123.336 601.729C-124.064 602.057 -124.781 602.389 -125.501 602.719C-125.579 603.553 -125.646 604.389 -125.716 605.225ZM-128.988 606.552C-128.248 606.248 -127.509 605.943 -126.762 605.642C-126.695 604.829 -126.624 604.016 -126.551 603.202C-127.249 603.526 -127.946 603.85 -128.636 604.176C-128.757 604.967 -128.877 605.758 -128.988 606.552ZM-132.197 607.887C-131.49 607.588 -130.783 607.288 -130.066 606.992C-129.962 606.225 -129.844 605.461 -129.727 604.698C-130.396 605.016 -131.068 605.333 -131.729 605.654C-131.889 606.397 -132.048 607.141 -132.197 607.887ZM-135.339 609.23C-134.668 608.937 -133.985 608.648 -133.306 608.358C-133.165 607.644 -133.021 606.931 -132.869 606.219C-133.514 606.535 -134.154 606.854 -134.79 607.174C-134.981 607.857 -135.158 608.544 -135.339 609.23ZM-138.432 610.599C-137.795 610.312 -137.146 610.028 -136.501 609.744C-136.329 609.084 -136.155 608.424 -135.975 607.766C-136.581 608.073 -137.171 608.386 -137.77 608.696C-137.993 609.33 -138.22 609.962 -138.432 610.599ZM-141.436 611.976C-140.842 611.7 -140.25 611.424 -139.652 611.151C-139.453 610.549 -139.243 609.95 -139.034 609.351C-139.599 609.648 -140.157 609.948 -140.716 610.247C-140.963 610.821 -141.198 611.399 -141.436 611.976ZM-144.379 613.365C-143.829 613.1 -143.284 612.835 -142.727 612.573C-142.513 612.043 -142.302 611.513 -142.082 610.986C-142.585 611.259 -143.092 611.531 -143.59 611.806C-143.853 612.326 -144.122 612.843 -144.379 613.365ZM-147.211 614.74C-146.74 614.505 -146.257 614.275 -145.78 614.042C-145.555 613.577 -145.32 613.115 -145.086 612.653C-145.537 612.907 -145.989 613.16 -146.434 613.416C-146.699 613.856 -146.954 614.298 -147.211 614.74ZM-149.957 616.13C-149.555 615.923 -149.147 615.72 -148.742 615.515C-148.525 615.137 -148.308 614.758 -148.089 614.381C-148.46 614.599 -148.828 614.818 -149.197 615.038C-149.449 615.402 -149.707 615.765 -149.957 616.13ZM-152.55 617.489C-152.256 617.332 -151.962 617.175 -151.666 617.019C-151.481 616.742 -151.297 616.465 -151.11 616.189C-151.387 616.359 -151.658 616.532 -151.934 616.703C-152.145 616.963 -152.343 617.228 -152.55 617.489ZM-154.942 618.774C-154.794 618.693 -154.652 618.61 -154.503 618.529C-154.393 618.386 -154.279 618.244 -154.169 618.101C-154.295 618.183 -154.417 618.266 -154.544 618.348C-154.676 618.49 -154.811 618.632 -154.942 618.774ZM73.8974 222.095C74.6005 222.769 75.3193 223.451 76.0135 224.12C75.8084 223.867 75.622 223.624 75.4169 223.371C74.6901 222.645 73.9271 221.903 73.1841 221.17C73.4189 221.477 73.6647 221.789 73.8974 222.095ZM66.579 215.091C67.623 216.083 68.6254 217.054 69.6622 218.042C69.2899 217.562 68.9294 217.086 68.5541 216.604C67.5101 215.579 66.4928 214.567 65.4428 213.537C65.8181 214.054 66.2062 214.576 66.579 215.091ZM58.943 207.93C60.2876 209.185 61.6432 210.446 62.9658 211.691C62.4759 211.024 61.9659 210.349 61.4684 209.679C60.2086 208.459 58.9124 207.222 57.6327 205.992C58.0815 206.643 58.501 207.281 58.943 207.93ZM51.1235 200.65C52.7662 202.164 54.3613 203.655 55.976 205.156C55.4368 204.378 54.8678 203.588 54.3184 202.806C52.7649 201.323 51.2195 199.843 49.6337 198.345C50.1351 199.115 50.6336 199.884 51.1235 200.65ZM43.2412 193.439C44.9884 195.035 46.7389 196.632 48.4665 198.218C47.9294 197.394 47.4186 196.58 46.8701 195.751C45.1412 194.123 43.3941 192.485 41.6482 190.85C42.1705 191.709 42.7313 192.584 43.2412 193.439ZM34.937 185.922C36.9027 187.685 38.8545 189.442 40.774 191.182C40.225 190.277 39.6574 189.364 39.0948 188.453C37.2751 186.762 35.4023 185.047 33.5307 183.332C34.0186 184.202 34.4619 185.056 34.937 185.922ZM26.4959 178.361C28.6333 180.268 30.7434 182.163 32.8595 184.061C32.3415 183.132 31.8061 182.195 31.2724 181.261C29.2056 179.366 27.1786 177.489 25.0834 175.581C25.5589 176.509 26.034 177.437 26.4959 178.361ZM17.8634 170.751C20.1094 172.716 22.3669 174.688 24.5526 176.625C24.0775 175.689 23.613 174.757 23.1248 173.815C20.9857 171.879 18.7907 169.917 16.6007 167.956C17.0283 168.89 17.4482 169.821 17.8634 170.751ZM8.95067 162.941C11.3899 165.062 13.7586 167.15 16.1583 169.254C15.7189 168.282 15.2328 167.295 14.778 166.318C12.479 164.263 10.1807 162.209 7.83662 160.132C8.21451 161.07 8.58597 162.007 8.95067 162.941ZM-0.140778 155.105C2.38206 157.272 4.89642 159.434 7.36577 161.576C6.98917 160.624 6.62572 159.677 6.23425 158.721C3.81671 156.585 1.37881 154.44 -1.08162 152.283C-0.757233 153.227 -0.451996 154.165 -0.140778 155.105ZM-9.45343 147.142C-6.79643 149.399 -4.17427 151.641 -1.57118 153.872C-1.89769 152.904 -2.24709 151.93 -2.58717 150.959C-5.10237 148.761 -7.66982 146.539 -10.2504 144.311C-9.98674 145.254 -9.70479 146.202 -9.45343 147.142ZM-19.0242 139.041C-16.2522 141.376 -13.5239 143.691 -10.7968 146.004C-11.0567 145.053 -11.3297 144.099 -11.6022 143.145C-14.2724 140.839 -16.9048 138.552 -19.6127 136.229C-19.4131 137.167 -19.2123 138.105 -19.0242 139.041ZM-122.483 607.355C-121.637 607.07 -120.789 606.787 -119.936 606.506C-119.965 605.574 -119.987 604.644 -120.008 603.715C-120.814 604.024 -121.619 604.334 -122.418 604.646C-122.445 605.548 -122.468 606.451 -122.483 607.355ZM-125.969 608.549C-125.144 608.264 -124.325 607.974 -123.493 607.692C-123.479 606.809 -123.46 605.927 -123.436 605.046C-124.219 605.354 -125.006 605.66 -125.78 605.971C-125.848 606.829 -125.911 607.689 -125.969 608.549ZM-129.403 609.758C-128.606 609.473 -127.807 609.188 -127.001 608.907C-126.945 608.07 -126.89 607.233 -126.826 606.398C-127.587 606.706 -128.348 607.014 -129.1 607.325C-129.208 608.134 -129.303 608.947 -129.403 609.758ZM-132.79 610.982C-132.022 610.699 -131.24 610.42 -130.463 610.14C-130.368 609.348 -130.271 608.557 -130.169 607.767C-130.902 608.073 -131.626 608.383 -132.352 608.693C-132.502 609.455 -132.651 610.217 -132.79 610.982ZM-136.106 612.229C-135.371 611.949 -134.629 611.671 -133.886 611.394C-133.753 610.648 -133.605 609.905 -133.46 609.163C-134.167 609.468 -134.867 609.777 -135.566 610.085C-135.752 610.798 -135.93 611.513 -136.106 612.229ZM-139.362 613.492C-138.652 613.213 -137.949 612.933 -137.231 612.656C-137.066 611.969 -136.903 611.282 -136.728 610.598C-137.397 610.896 -138.066 611.194 -138.727 611.494C-138.943 612.159 -139.154 612.825 -139.362 613.492ZM-142.554 614.77C-141.885 614.498 -141.218 614.225 -140.542 613.956C-140.346 613.32 -140.142 612.687 -139.937 612.053C-140.566 612.342 -141.199 612.63 -141.821 612.922C-142.07 613.537 -142.317 614.152 -142.554 614.77ZM-145.66 616.048C-145.043 615.789 -144.413 615.534 -143.789 615.276C-143.569 614.698 -143.35 614.12 -143.122 613.543C-143.713 613.826 -144.299 614.109 -144.884 614.394C-145.147 614.944 -145.403 615.496 -145.66 616.048ZM-148.705 617.359C-148.137 617.112 -147.563 616.867 -146.989 616.621C-146.752 616.1 -146.503 615.582 -146.259 615.063C-146.801 615.332 -147.33 615.606 -147.866 615.876C-148.149 616.37 -148.43 616.863 -148.705 617.359ZM-151.637 618.667C-151.129 618.437 -150.627 618.206 -150.113 617.978C-149.874 617.536 -149.642 617.091 -149.397 616.651C-149.868 616.894 -150.334 617.14 -150.802 617.385C-151.083 617.811 -151.361 618.238 -151.637 618.667ZM-154.468 619.968C-154.046 619.77 -153.627 619.571 -153.202 619.375C-152.971 619.009 -152.727 618.647 -152.49 618.283C-152.879 618.491 -153.276 618.697 -153.66 618.906C-153.932 619.259 -154.202 619.613 -154.468 619.968ZM-157.134 621.238C-156.828 621.088 -156.512 620.942 -156.203 620.793C-156.009 620.531 -155.82 620.267 -155.624 620.006C-155.905 620.163 -156.19 620.319 -156.468 620.478C-156.692 620.731 -156.915 620.983 -157.134 621.238ZM-159.636 622.483L-159.175 622.253C-159.065 622.122 -158.961 621.99 -158.85 621.86L-159.265 622.105C-159.392 622.23 -159.509 622.358 -159.636 622.483ZM85.6255 234.791C86.2038 235.346 86.7956 235.906 87.3748 236.46C87.1816 236.225 86.9956 235.995 86.7999 235.76C86.2004 235.167 85.5771 234.562 84.9699 233.967C85.183 234.238 85.4141 234.519 85.6255 234.791ZM77.9665 227.52C78.9944 228.483 79.9982 229.432 81.0057 230.385C80.6384 229.923 80.2656 229.456 79.895 228.992C78.8819 228.004 77.9177 227.041 76.8898 226.046C77.26 226.543 77.601 227.026 77.9665 227.52ZM70.2999 220.373C71.6726 221.655 73.0584 222.942 74.4294 224.222C73.9293 223.558 73.3816 222.873 72.8742 222.206C71.5741 220.957 70.2494 219.697 68.9417 218.445C69.3998 219.09 69.8482 219.731 70.2999 220.373ZM62.4915 213.174C64.0404 214.586 65.5939 216 67.102 217.392C66.5823 216.665 66.1026 215.956 65.5749 215.225C64.0485 213.78 62.4873 212.318 60.9202 210.853C61.4386 211.624 61.9816 212.407 62.4915 213.174ZM54.3817 205.775C56.153 207.384 57.8896 208.976 59.6461 210.578C59.0873 209.749 58.5285 208.919 57.9579 208.085C56.2507 206.489 54.5634 204.904 52.8388 203.301C53.3623 204.129 53.8697 204.952 54.3817 205.775ZM46.0549 198.308C48.0198 200.06 49.9933 201.815 51.9115 203.544C51.3417 202.641 50.7261 201.719 50.144 200.811C48.312 199.122 46.4268 197.408 44.5502 195.698C45.0648 196.573 45.5539 197.438 46.0549 198.308ZM37.5507 190.732C39.6757 192.611 41.7476 194.464 43.8374 196.326C43.3049 195.417 42.8124 194.524 42.2673 193.61C40.2025 191.732 38.1476 189.857 36.0438 187.959C36.5431 188.883 37.0641 189.814 37.5507 190.732ZM28.7942 183.054C31.0495 185.026 33.2993 186.995 35.5152 188.947C35.0074 188.001 34.4907 187.052 33.9676 186.1C31.8231 184.171 29.6539 182.231 27.4742 180.286C27.931 181.215 28.3509 182.131 28.7942 183.054ZM19.8283 175.266C22.2412 177.347 24.6354 179.42 26.9931 181.475C26.5201 180.503 26.0166 179.52 25.5275 178.543C23.2513 176.521 20.9267 174.476 18.592 172.426C19.0098 173.374 19.4254 174.322 19.8283 175.266ZM10.6363 167.352C13.1646 169.52 15.6561 171.67 18.1526 173.823C17.7352 172.861 17.328 171.903 16.8958 170.936C14.4553 168.794 12.048 166.666 9.57272 164.507C9.93871 165.459 10.2843 166.404 10.6363 167.352ZM1.24464 159.385C3.89018 161.616 6.54973 163.854 9.12393 166.051C8.7588 165.081 8.3631 164.103 7.98268 163.13C5.47301 160.95 2.8941 158.738 0.319046 156.527C0.628983 157.48 0.948715 158.435 1.24464 159.385ZM-8.41324 151.236C-5.63184 153.569 -2.91708 155.87 -0.176437 158.182C-0.482986 157.221 -0.792908 156.259 -1.1122 155.294C-3.76793 153.015 -6.41728 150.738 -9.12141 148.435C-8.87643 149.371 -8.64676 150.303 -8.41324 151.236ZM-18.26 143.045C-15.3822 145.43 -12.5189 147.807 -9.70563 150.161C-9.94722 149.218 -10.171 148.279 -10.4223 147.334C-13.1778 144.992 -15.9605 142.637 -18.7716 140.268C-18.5895 141.196 -18.4316 142.119 -18.26 143.045ZM-122.518 610.804C-121.613 610.54 -120.71 610.276 -119.798 610.015C-119.841 609.069 -119.877 608.125 -119.909 607.181C-120.774 607.467 -121.638 607.752 -122.491 608.041C-122.504 608.961 -122.516 609.881 -122.518 610.804ZM-126.178 611.885C-125.299 611.621 -124.413 611.359 -123.526 611.098C-123.525 610.193 -123.513 609.29 -123.499 608.388C-124.342 608.676 -125.178 608.967 -126.014 609.258C-126.073 610.133 -126.133 611.007 -126.178 611.885ZM-129.772 612.977C-128.923 612.713 -128.057 612.456 -127.199 612.195C-127.156 611.333 -127.102 610.475 -127.046 609.615C-127.871 609.905 -128.68 610.201 -129.495 610.494C-129.593 611.32 -129.685 612.149 -129.772 612.977ZM-133.318 614.101C-132.488 613.835 -131.654 613.57 -130.816 613.307C-130.734 612.496 -130.65 611.685 -130.555 610.876C-131.35 611.165 -132.141 611.456 -132.929 611.749C-133.064 612.531 -133.191 613.316 -133.318 614.101ZM-136.819 615.245C-136.01 614.977 -135.208 614.706 -134.39 614.441C-134.268 613.678 -134.14 612.917 -134.012 612.156C-134.773 612.442 -135.54 612.726 -136.293 613.016C-136.473 613.758 -136.654 614.499 -136.819 615.245ZM-140.232 616.394C-139.464 616.131 -138.693 615.869 -137.917 615.609C-137.759 614.89 -137.592 614.173 -137.422 613.458C-138.161 613.745 -138.896 614.033 -139.626 614.323C-139.835 615.011 -140.032 615.703 -140.232 616.394ZM-143.597 617.563C-142.865 617.302 -142.115 617.048 -141.375 616.791C-141.184 616.124 -140.998 615.455 -140.8 614.79C-141.501 615.073 -142.189 615.359 -142.881 615.644C-143.122 616.283 -143.367 616.921 -143.597 617.563ZM-146.878 618.758C-146.188 618.504 -145.494 618.251 -144.795 617.999C-144.576 617.381 -144.345 616.766 -144.114 616.151C-144.782 616.43 -145.443 616.714 -146.104 616.996C-146.37 617.581 -146.622 618.17 -146.878 618.758ZM-150.106 619.973C-149.449 619.722 -148.798 619.467 -148.133 619.218C-147.897 618.665 -147.662 618.111 -147.418 617.561C-148.026 617.825 -148.637 618.089 -149.239 618.356C-149.53 618.894 -149.825 619.431 -150.106 619.973ZM-153.215 621.183C-152.625 620.948 -152.034 620.715 -151.438 620.483C-151.184 619.986 -150.924 619.492 -150.66 618.998C-151.224 619.252 -151.794 619.505 -152.352 619.762C-152.647 620.233 -152.925 620.709 -153.215 621.183ZM-156.259 622.41C-155.733 622.193 -155.194 621.982 -154.663 621.767C-154.407 621.338 -154.145 620.91 -153.884 620.482C-154.378 620.715 -154.87 620.949 -155.359 621.184C-155.66 621.593 -155.967 621.998 -156.259 622.41ZM-159.155 623.638C-158.716 623.45 -158.276 623.262 -157.832 623.076C-157.59 622.727 -157.355 622.376 -157.107 622.029C-157.523 622.233 -157.93 622.441 -158.342 622.647C-158.617 622.976 -158.885 623.307 -159.155 623.638ZM-161.944 624.858C-161.61 624.709 -161.283 624.558 -160.946 624.41C-160.737 624.149 -160.52 623.892 -160.307 623.633C-160.623 623.795 -160.927 623.962 -161.238 624.125C-161.474 624.369 -161.712 624.612 -161.944 624.858ZM-164.434 625.978C-164.279 625.906 -164.118 625.837 -163.961 625.765L-163.61 625.38C-163.746 625.455 -163.889 625.527 -164.025 625.601L-164.434 625.978ZM97.25 247.257L99.0167 248.938L98.508 248.335C97.9306 247.769 97.3387 247.196 96.7608 246.63C96.929 246.841 97.0827 247.046 97.25 247.257ZM89.6569 240.124C90.6818 241.076 91.7203 242.036 92.724 242.979C92.3359 242.498 91.9198 242.004 91.5284 241.522C90.5531 240.579 89.5596 239.628 88.5606 238.674C88.9321 239.16 89.29 239.641 89.6569 240.124ZM81.9113 232.915C83.2686 234.169 84.5725 235.396 85.9159 236.642C85.4616 236.052 85.0485 235.481 84.5883 234.888C83.23 233.595 81.8846 232.306 80.517 231.007C80.9798 231.642 81.4549 232.283 81.9113 232.915ZM74.0995 225.787C75.5974 227.151 77.1072 228.519 78.5826 229.871C78.037 229.128 77.5063 228.39 76.9522 227.642C75.493 226.272 73.9882 224.879 72.498 223.492C73.0249 224.254 73.5819 225.029 74.0995 225.787ZM65.7961 218.26C67.5814 219.864 69.3298 221.449 71.0808 223.036C70.5034 222.203 69.8962 221.357 69.306 220.519C67.626 218.96 65.9663 217.412 64.2566 215.839C64.7864 216.653 65.2743 217.45 65.7961 218.26ZM57.4187 210.779C59.3828 212.529 61.3444 214.278 63.2842 216.017C62.7043 215.129 62.1057 214.232 61.5125 213.338C59.6329 211.616 57.7261 209.882 55.8206 208.148C56.359 209.027 56.8926 209.905 57.4187 210.779ZM48.9004 203.257C50.9711 205.071 53.0409 206.884 55.0589 208.672C54.5027 207.76 53.9695 206.857 53.3993 205.939C51.3982 204.129 49.3496 202.296 47.2951 200.46C47.8216 201.389 48.3867 202.333 48.9004 203.257ZM39.9737 195.437C42.26 197.428 44.4874 199.39 46.7427 201.367C46.2035 200.411 45.6337 199.443 45.0796 198.481C42.9109 196.544 40.7753 194.623 38.5773 192.672C39.0613 193.6 39.5037 194.513 39.9737 195.437ZM30.9773 187.686C33.3643 189.734 35.7581 191.785 38.0873 193.804C37.5914 192.843 37.0972 191.883 36.5855 190.917C34.3051 188.902 31.9619 186.857 29.6238 184.816C30.076 185.773 30.5404 186.735 30.9773 187.686ZM21.6927 179.734C24.2266 181.891 26.7137 184.024 29.2009 186.157C28.7466 185.186 28.2927 184.214 27.824 183.238C25.4149 181.134 22.9987 179.027 20.5404 176.899C20.9395 177.849 21.3072 178.789 21.6927 179.734ZM12.2259 171.728C14.8778 173.962 17.511 176.189 20.1154 178.4C19.7112 177.423 19.2836 176.439 18.8646 175.457C16.3235 173.263 13.7625 171.059 11.178 168.843C11.5292 169.805 11.8887 170.769 12.2259 171.728ZM2.50775 163.589C5.27048 165.891 8.02513 168.188 10.725 170.459C10.3781 169.488 10.0278 168.517 9.66611 167.542C7.04732 165.305 4.36568 163.036 1.6815 160.766C1.97107 161.711 2.22923 162.648 2.50775 163.589ZM-7.41083 155.338C-4.52328 157.728 -1.69853 160.087 1.14742 162.457C0.859558 161.498 0.576355 160.54 0.274063 159.577C-2.5116 157.221 -5.26074 154.882 -8.09309 152.504C-7.86043 153.45 -7.63161 154.395 -7.41083 155.338ZM-17.5416 147.031C-14.5581 149.467 -11.5653 151.908 -8.66161 154.304C-8.8896 153.349 -9.14691 152.387 -9.38596 151.429C-12.2225 149.054 -15.1309 146.643 -18.0414 144.231C-17.8724 145.165 -17.7009 146.099 -17.5416 147.031ZM-122.493 614.263C-121.538 614.024 -120.574 613.788 -119.609 613.552C-119.665 612.591 -119.725 611.629 -119.773 610.669C-120.697 610.934 -121.609 611.203 -122.524 611.471C-122.521 612.4 -122.504 613.332 -122.493 614.263ZM-126.318 615.233C-125.385 614.992 -124.439 614.755 -123.497 614.517C-123.508 613.599 -123.522 612.68 -123.526 611.763C-124.426 612.029 -125.317 612.298 -126.207 612.568C-126.247 613.455 -126.286 614.343 -126.318 615.233ZM-130.093 616.229C-129.179 615.984 -128.261 615.74 -127.337 615.499C-127.307 614.623 -127.268 613.75 -127.227 612.878C-128.102 613.144 -128.977 613.412 -129.842 613.682C-129.931 614.53 -130.018 615.378 -130.093 616.229ZM-133.795 617.237C-132.906 616.991 -132.022 616.745 -131.125 616.502C-131.053 615.67 -130.971 614.841 -130.888 614.013C-131.74 614.281 -132.595 614.549 -133.437 614.821C-133.564 615.625 -133.679 616.431 -133.795 617.237ZM-137.453 618.266C-136.59 618.018 -135.722 617.774 -134.849 617.53C-134.738 616.744 -134.632 615.956 -134.511 615.173C-135.337 615.443 -136.158 615.715 -136.976 615.989C-137.139 616.747 -137.3 617.505 -137.453 618.266ZM-141.04 619.31C-140.214 619.064 -139.375 618.824 -138.538 618.582C-138.391 617.836 -138.232 617.095 -138.072 616.352C-138.875 616.623 -139.662 616.901 -140.455 617.175C-140.656 617.885 -140.852 618.596 -141.04 619.31ZM-144.564 620.385C-143.765 620.138 -142.962 619.891 -142.153 619.647C-141.972 618.954 -141.792 618.262 -141.6 617.572C-142.365 617.841 -143.128 618.111 -143.886 618.384C-144.117 619.049 -144.342 619.717 -144.564 620.385ZM-148.026 621.477C-147.26 621.231 -146.501 620.983 -145.725 620.739C-145.514 620.097 -145.293 619.457 -145.072 618.816C-145.797 619.08 -146.53 619.342 -147.246 619.609C-147.512 620.23 -147.773 620.853 -148.026 621.477ZM-151.406 622.581C-150.686 622.34 -149.959 622.102 -149.232 621.865C-148.995 621.273 -148.759 620.682 -148.511 620.093C-149.199 620.354 -149.883 620.613 -150.561 620.877C-150.846 621.444 -151.129 622.011 -151.406 622.581ZM-154.705 623.7C-154.042 623.469 -153.364 623.245 -152.693 623.017C-152.433 622.474 -152.16 621.934 -151.889 621.395C-152.536 621.65 -153.172 621.91 -153.813 622.169C-154.116 622.677 -154.411 623.188 -154.705 623.7ZM-157.928 624.85C-157.309 624.626 -156.689 624.403 -156.063 624.182C-155.795 623.705 -155.535 623.225 -155.258 622.751C-155.843 622.992 -156.414 623.238 -156.991 623.481C-157.305 623.937 -157.621 624.391 -157.928 624.85ZM-161.035 625.999C-160.489 625.793 -159.95 625.583 -159.397 625.379C-159.128 624.967 -158.846 624.558 -158.566 624.149C-159.09 624.374 -159.614 624.6 -160.132 624.827C-160.441 625.215 -160.734 625.609 -161.035 625.999ZM-164.042 627.15C-163.58 626.969 -163.113 626.789 -162.646 626.61C-162.393 626.276 -162.138 625.945 -161.883 625.613C-162.307 625.804 -162.738 625.992 -163.158 626.184C-163.451 626.507 -163.754 626.826 -164.042 627.15ZM-166.851 628.279C-166.518 628.142 -166.178 628.009 -165.843 627.874C-165.638 627.637 -165.443 627.397 -165.234 627.162C-165.545 627.309 -165.856 627.456 -166.163 627.603C-166.396 627.827 -166.621 628.054 -166.851 628.279ZM-169.52 629.397L-168.987 629.171C-168.867 629.048 -168.739 628.929 -168.617 628.807L-169.102 629.051C-169.239 629.167 -169.383 629.281 -169.52 629.397ZM109.083 259.792C109.746 260.412 110.369 261.013 111.023 261.629L110.684 261.234L108.662 259.265L109.083 259.792ZM101.591 252.824C102.613 253.777 103.652 254.737 104.673 255.689C104.313 255.251 103.97 254.821 103.606 254.381C102.59 253.406 101.537 252.414 100.504 251.43C100.865 251.894 101.234 252.362 101.591 252.824ZM93.8716 245.699C95.1063 246.823 96.3337 247.945 97.5387 249.054C97.0844 248.476 96.6505 247.908 96.1902 247.327C94.9097 246.115 93.6623 244.92 92.3597 243.698C92.8522 244.36 93.3863 245.04 93.8716 245.699ZM85.7495 238.302C87.2775 239.691 88.7988 241.077 90.3192 242.463C89.763 241.722 89.1941 240.974 88.6277 240.229C87.1973 238.893 85.7427 237.546 84.3051 236.207C84.8061 236.915 85.2552 237.599 85.7495 238.302ZM77.4753 230.873C79.253 232.456 81.0447 234.045 82.7757 235.605C82.1749 234.761 81.5147 233.891 80.9029 233.043C79.2538 231.524 77.5564 229.982 75.8611 228.44C76.4092 229.256 76.9382 230.062 77.4753 230.873ZM69.0254 223.337C70.9801 225.067 72.8707 226.765 74.7979 228.482C74.2209 227.626 73.6898 226.789 73.1013 225.927C71.175 224.174 69.2844 222.439 67.3317 220.674C67.893 221.56 68.4768 222.456 69.0254 223.337ZM60.3789 215.761C62.4584 217.578 64.5393 219.396 66.579 221.193C65.9952 220.27 65.4093 219.346 64.8123 218.417C62.8372 216.642 60.8136 214.843 58.7956 213.047C59.334 213.956 59.8545 214.858 60.3789 215.761ZM51.4373 207.984C53.7215 209.956 55.9768 211.915 58.2126 213.863C57.645 212.9 57.0209 211.913 56.4388 210.943C54.2913 209.036 52.1319 207.123 49.9389 205.193C50.4523 206.129 50.9388 207.054 51.4373 207.984ZM42.3708 200.182C44.7463 202.22 47.1036 204.25 49.449 206.273C48.931 205.32 48.4517 204.383 47.9197 203.424C45.5972 201.385 43.2607 199.339 40.9065 197.284C41.3905 198.247 41.9021 199.223 42.3708 200.182ZM33.0051 192.222C35.519 194.346 38.0444 196.475 40.4942 198.567C40.0081 197.588 39.5045 196.602 39.0031 195.617C36.6395 193.564 34.2024 191.475 31.7747 189.39C32.2048 190.341 32.589 191.275 33.0051 192.222ZM23.4614 184.159C26.1257 186.396 28.7198 188.599 31.3403 190.814C30.9034 189.836 30.4597 188.854 30.0067 187.869C27.4448 185.668 24.9071 183.478 22.3006 181.254C22.6883 182.223 23.0887 183.195 23.4614 184.159ZM13.6873 176.023C16.4445 178.311 19.2021 180.598 21.8969 182.856C21.5114 181.88 21.1225 180.902 20.7225 179.92C18.1037 177.693 15.4285 175.437 12.7503 173.181C13.0806 174.133 13.371 175.074 13.6873 176.023ZM3.73053 167.788C6.60194 170.151 9.4462 172.5 12.2594 174.834C11.9308 173.863 11.5983 172.891 11.2549 171.916C8.49934 169.596 5.70946 167.259 2.89366 164.909C3.17049 165.868 3.46687 166.833 3.73053 167.788ZM-6.49756 159.405C-3.51024 161.845 -0.5522 164.269 2.38289 166.684C2.11159 165.718 1.81824 164.746 1.5325 163.778C-1.33765 161.384 -4.21716 158.986 -7.13443 156.57C-6.91875 157.516 -6.70221 158.462 -6.49756 159.405ZM-16.9149 150.961C-13.8355 153.445 -10.7476 155.935 -7.74538 158.381C-7.95639 157.431 -8.16443 156.481 -8.38692 155.528C-11.3195 153.105 -14.345 150.636 -17.3591 148.172C-17.2066 149.102 -17.0576 150.032 -16.9149 150.961ZM-7.47536 159.591C-10.5128 157.112 -13.6262 154.597 -16.7349 152.083C-3.86049 238.118 -35.2083 316.788 -66.5183 395.367C-85.5313 443.084 -104.526 490.768 -113.59 540.045C-102.311 497.687 -82.9405 456.793 -63.4537 415.66C-25.4422 335.422 12.9867 254.273 -7.47536 159.591ZM2.75145 167.969C-0.206161 165.535 -3.20917 163.078 -6.22536 160.614C13.7366 254.921 -24.593 335.817 -62.4895 415.812C-83.036 459.183 -103.448 502.29 -114.374 547.122C-101.449 508.181 -80.6253 470.824 -59.5951 433.11C-14.7241 352.647 31.0601 270.558 2.75145 167.969ZM84.7322 238.419C82.8912 236.755 81.0337 235.081 79.1498 233.394C184.834 395.192 72.8461 462.18 -32.384 525.077C-62.7251 543.213 -92.4922 561.011 -116.294 580.653M-122.427 617.744C-121.418 617.53 -120.402 617.319 -119.383 617.108C-119.453 616.133 -119.514 615.158 -119.573 614.184C-120.548 614.424 -121.521 614.665 -122.486 614.908C-122.472 615.852 -122.452 616.798 -122.427 617.744ZM-126.408 618.608C-125.416 618.39 -124.427 618.17 -123.426 617.956C-123.452 617.024 -123.474 616.092 -123.489 615.162C-124.443 615.404 -125.401 615.645 -126.345 615.891C-126.374 616.795 -126.39 617.702 -126.408 618.608ZM-130.342 619.49C-129.371 619.269 -128.4 619.047 -127.419 618.829C-127.403 617.939 -127.391 617.048 -127.365 616.161C-128.295 616.405 -129.224 616.649 -130.144 616.897C-130.214 617.76 -130.282 618.624 -130.342 619.49ZM-134.217 620.388C-133.275 620.165 -132.323 619.945 -131.37 619.726C-131.312 618.874 -131.244 618.023 -131.176 617.174C-132.088 617.422 -132.988 617.675 -133.891 617.927C-134.005 618.746 -134.116 619.566 -134.217 620.388ZM-138.026 621.307C-137.112 621.082 -136.185 620.861 -135.258 620.64C-135.161 619.831 -135.056 619.024 -134.945 618.219C-135.837 618.471 -136.72 618.726 -137.603 618.981C-137.752 619.754 -137.887 620.531 -138.026 621.307ZM-141.794 622.258C-140.896 622.029 -140 621.799 -139.092 621.572C-138.958 620.812 -138.825 620.052 -138.681 619.294C-139.533 619.544 -140.387 619.793 -141.229 620.046C-141.422 620.782 -141.615 621.518 -141.794 622.258ZM-145.466 623.219C-144.606 622.99 -143.75 622.76 -142.881 622.534C-142.71 621.816 -142.527 621.102 -142.343 620.387C-143.171 620.639 -144.004 620.889 -144.823 621.144C-145.045 621.833 -145.255 622.527 -145.466 623.219ZM-149.105 624.206C-148.274 623.976 -147.435 623.749 -146.595 623.521C-146.392 622.851 -146.194 622.18 -145.981 621.512C-146.773 621.763 -147.558 622.016 -148.34 622.27C-148.599 622.915 -148.861 623.558 -149.105 624.206ZM-152.634 625.205C-151.854 624.979 -151.058 624.759 -150.27 624.536C-150.037 623.907 -149.792 623.282 -149.544 622.657C-150.313 622.911 -151.066 623.171 -151.825 623.429C-152.104 624.017 -152.365 624.612 -152.634 625.205ZM-156.124 626.243C-155.373 626.016 -154.622 625.79 -153.862 625.566C-153.607 624.995 -153.349 624.424 -153.086 623.855C-153.798 624.1 -154.505 624.347 -155.21 624.596C-155.518 625.143 -155.827 625.691 -156.124 626.243ZM-159.5 627.288C-158.801 627.067 -158.109 626.843 -157.402 626.626C-157.129 626.11 -156.853 625.595 -156.569 625.082C-157.23 625.319 -157.9 625.554 -158.553 625.795C-158.875 626.29 -159.187 626.789 -159.5 627.288ZM-162.801 628.347C-162.168 628.139 -161.527 627.933 -160.886 627.727C-160.602 627.265 -160.304 626.806 -160.011 626.346C-160.618 626.574 -161.227 626.802 -161.828 627.033C-162.158 627.469 -162.481 627.908 -162.801 628.347ZM-165.992 629.421C-165.43 629.228 -164.855 629.039 -164.288 628.848C-164.007 628.454 -163.735 628.057 -163.447 627.665C-163.981 627.875 -164.506 628.088 -165.035 628.301C-165.354 628.674 -165.678 629.046 -165.992 629.421ZM-169.056 630.506C-168.589 630.338 -168.121 630.169 -167.648 630.003C-167.379 629.673 -167.1 629.347 -166.822 629.02C-167.29 629.214 -167.742 629.413 -168.204 629.608C-168.496 629.905 -168.77 630.208 -169.056 630.506ZM-171.986 631.582C-171.62 631.444 -171.263 631.302 -170.894 631.166C-170.677 630.934 -170.455 630.704 -170.238 630.474C-170.569 630.618 -170.897 630.764 -171.227 630.91C-171.477 631.135 -171.738 631.356 -171.986 631.582ZM-174.618 632.586C-174.45 632.519 -174.275 632.456 -174.106 632.391C-173.986 632.279 -173.871 632.165 -173.752 632.053C-173.904 632.124 -174.063 632.192 -174.216 632.263L-174.618 632.586ZM-27.8134 139.632C-27.7234 140.55 -27.6253 141.468 -27.5442 142.385C-24.3353 144.956 -21.2253 147.48 -18.08 150.02C-18.2265 149.087 -18.3678 148.153 -18.5271 147.217C-21.6129 144.693 -24.6694 142.184 -27.8134 139.632ZM-28.2061 135.826C-28.1047 136.74 -28.0104 137.653 -27.9179 138.565C-24.8091 141.087 -21.7755 143.572 -18.7186 146.068C-18.8824 145.125 -19.0671 144.178 -19.2404 143.234C-22.2116 140.773 -25.1823 138.313 -28.2061 135.826ZM-28.663 131.987C-28.5475 132.901 -28.4431 133.813 -28.3386 134.726C-25.3513 137.18 -22.3928 139.62 -19.4599 142.048C-19.6369 141.108 -19.8135 140.17 -20.002 139.228C-22.8505 136.833 -25.7572 134.409 -28.663 131.987ZM-29.184 128.111C-29.0545 129.031 -28.9169 129.952 -28.7968 130.871C-25.9419 133.25 -23.0582 135.642 -20.2598 137.994C-20.4517 137.054 -20.6461 136.115 -20.8499 135.173C-23.5753 132.844 -26.3988 130.468 -29.184 128.111ZM-29.7504 124.207C-29.609 125.124 -29.4769 126.04 -29.3453 126.956C-26.586 129.29 -23.8084 131.632 -21.1098 133.938C-21.3165 133 -21.5492 132.058 -21.767 131.118C-24.4003 128.827 -27.0551 126.527 -29.7504 124.207ZM-30.3796 120.309C-30.228 121.207 -30.0875 122.105 -29.9448 123.002C-27.2789 125.294 -24.6796 127.555 -22.0723 129.82C-22.2948 128.882 -22.5096 127.945 -22.7431 127.006C-25.2303 124.8 -27.8321 122.543 -30.3796 120.309ZM-31.0873 116.338C-30.9183 117.253 -30.7413 118.169 -30.5821 119.083C-28.1039 121.253 -25.5309 123.467 -23.1061 125.611C-23.3405 124.693 -23.5808 123.774 -23.8258 122.855C-26.2052 120.701 -28.6494 118.519 -31.0873 116.338ZM-31.8448 112.35C-31.6635 113.256 -31.4911 114.163 -31.32 115.069C-28.9433 117.191 -26.5172 119.336 -24.1969 121.432C-24.4465 120.513 -24.7174 119.591 -24.9785 118.67C-27.2424 116.574 -29.524 114.47 -31.8448 112.35ZM-32.6744 108.324C-32.4799 109.225 -32.2999 110.126 -32.1165 111.026C-29.8646 113.081 -27.6067 115.139 -25.4074 117.17C-25.6689 116.268 -25.9164 115.369 -26.1873 114.465C-28.3416 112.422 -30.4666 110.391 -32.6744 108.324ZM-33.5906 104.252C-33.3822 105.154 -33.169 106.055 -32.9712 106.955C-30.847 108.94 -28.7586 110.909 -26.6871 112.871C-26.9626 111.97 -27.247 111.069 -27.5336 110.166C-29.5584 108.192 -31.517 106.247 -33.5906 104.252ZM-34.5498 100.216C-34.3345 101.088 -34.1209 101.96 -33.9154 102.832C-31.9199 104.748 -29.9949 106.632 -28.0469 108.527C-28.3382 107.632 -28.652 106.733 -28.9521 105.836C-30.8177 103.963 -32.6434 102.106 -34.5498 100.216ZM-35.5705 96.1677C-35.351 96.9995 -35.1514 97.8304 -34.9412 98.6616C-33.0973 100.486 -31.3548 102.268 -29.5521 104.074C-29.8488 103.212 -30.1304 102.351 -30.4361 101.487C-32.1339 99.7193 -33.8344 97.951 -35.5705 96.1677ZM-36.6956 92.0601C-36.4676 92.877 -36.24 93.6938 -36.0214 94.5103C-34.3604 96.209 -32.7734 97.8772 -31.143 99.5643C-31.4495 98.7156 -31.7612 97.8668 -32.0788 97.0168C-33.5928 95.374 -35.1459 93.7169 -36.6956 92.0601ZM-37.8776 87.9539C-37.6432 88.7425 -37.4021 89.5319 -37.1758 90.32C-35.7046 91.8843 -34.2712 93.4343 -32.8268 94.9881C-33.1423 94.1611 -33.4845 93.3295 -33.8085 92.501C-35.1319 90.9971 -36.5206 89.4697 -37.8776 87.9539ZM-39.108 83.8671C-38.88 84.5973 -38.6686 85.3259 -38.4465 86.0551C-37.1872 87.4554 -35.9348 88.8526 -34.6992 90.2435C-34.9981 89.4977 -35.2924 88.7525 -35.5989 88.0054C-36.7436 86.6347 -37.9366 85.2466 -39.108 83.8671ZM-40.4493 79.7332C-40.2268 80.4058 -40.0115 81.0788 -39.7946 81.7513C-38.7692 82.9514 -37.7265 84.1575 -36.7189 85.351C-36.9873 84.7161 -37.2513 84.082 -37.5243 83.446C-38.4945 82.2098 -39.4583 80.9763 -40.4493 79.7332ZM-41.8049 75.7387C-41.6113 76.2957 -41.4109 76.8531 -41.2216 77.4099C-40.4616 78.3551 -39.6698 79.3107 -38.9225 80.2516C-39.1331 79.7739 -39.353 79.295 -39.5678 78.8169C-40.3151 77.79 -41.0432 76.7696 -41.8049 75.7387ZM-43.0816 72.0934C-42.9729 72.3893 -42.8736 72.6852 -42.7679 72.9809C-42.3123 73.5901 -41.836 74.2061 -41.3863 74.8127C-41.4912 74.5888 -41.6041 74.364 -41.709 74.1396L-43.0816 72.0934ZM-114.631 612.995C-114.527 614.023 -114.42 615.051 -114.304 616.081C-81.1339 609.506 -43.3665 604.669 -4.8714 599.744C70.0291 590.162 147.664 580.229 199.192 556.407C274.732 521.483 294.225 456.608 167.122 319.077C282.774 451.002 257.81 513.788 181.177 548.948C131.828 571.589 61.0922 582.748 -7.31485 593.539C-45.1502 599.508 -82.2654 605.367 -114.631 612.995ZM-114.995 609.326C-114.901 610.341 -114.794 611.358 -114.692 612.375C-82.3482 604.782 -45.3217 598.936 -7.57726 592.983C60.7278 582.207 131.362 571.064 180.553 548.496C259.405 512.318 283.198 446.682 154.259 305.956C271.886 441.482 242.014 505.119 161.664 541.682C115.088 562.876 51.5812 574.95 -9.98929 586.655C-47.0795 593.706 -83.4632 600.624 -114.995 609.326ZM-115.294 605.677C-115.217 606.679 -115.137 607.681 -115.048 608.684C-83.5523 600.03 -47.2765 593.134 -10.3035 586.105C51.1863 574.415 114.608 562.358 161.045 541.227C243.731 503.602 272.636 437.111 141.189 292.48C261.528 432.455 225.686 497.042 140.97 535.25C97.709 554.761 41.7365 567.374 -12.6858 579.637C-49.0079 587.822 -84.6269 595.854 -115.294 605.677ZM-115.56 602.043C-115.494 603.034 -115.424 604.025 -115.348 605.018C-84.7263 595.254 -49.2342 587.252 -13.0496 579.099C41.3086 566.849 97.2156 554.251 140.355 534.795C227.082 495.68 262.354 428.773 130.026 280.97L129.346 280.308C251.604 424.686 208.193 489.935 118.601 529.952C79.416 547.455 31.4167 560.12 -15.4052 572.473C-50.9359 581.848 -85.7805 591.045 -115.56 602.043ZM-115.791 598.434C-115.734 599.409 -115.667 600.386 -115.603 601.362C-85.8803 590.438 -51.1906 581.28 -15.8217 571.948C30.9476 559.608 78.8925 546.958 117.99 529.495C208.609 489.018 251.737 422.58 122.776 273.917C122.098 273.263 121.459 272.628 120.774 271.97C241.716 419.347 188.403 484.424 93.65 526.304C59.6537 541.33 20.3434 553.362 -18.1518 565.145C-52.8737 575.772 -86.9269 586.198 -115.791 598.434ZM-115.962 594.842C-115.92 595.8 -115.879 596.757 -115.827 597.716C-87.03 585.574 -53.153 575.203 -18.6184 564.633C19.8415 552.861 59.1144 540.84 93.0432 525.844C188.54 483.636 241.789 417.762 115.73 267.169C114.718 266.206 113.69 265.234 112.678 264.269C264.967 456.782 116.712 509.095 -20.9221 557.627C-54.8106 569.577 -88.0427 581.302 -115.962 594.842ZM-116.104 591.263C-116.072 592.204 -116.036 593.146 -115.997 594.089C-88.1543 580.662 -55.1218 569.009 -21.4435 557.133C116.91 508.347 265.991 455.718 107.996 259.829C106.881 258.781 105.719 257.71 104.573 256.648C244.845 441.376 105.716 497.583 -23.7294 549.896C-56.7624 563.245 -89.161 576.342 -116.104 591.263ZM-116.208 587.714C-116.184 588.631 -116.156 589.549 -116.128 590.467C-89.2697 575.684 -57.099 562.678 -24.3009 549.423C105.717 496.879 245.441 440.358 100.535 252.895C99.0443 251.513 97.5935 250.151 96.085 248.76C224.775 425.904 94.7785 485.926 -26.5715 541.921C-58.7332 556.762 -90.2734 571.322 -116.208 587.714ZM-116.264 584.171C-116.255 585.064 -116.248 585.957 -116.23 586.852C-90.388 570.63 -59.0929 556.187 -27.1948 541.469C94.5768 485.279 225.113 425.043 92.8445 245.802C91.1467 244.247 89.4089 242.673 87.6813 241.103C204.718 410.529 83.8019 474.143 -29.4523 533.663C-60.7131 550.092 -91.3764 566.213 -116.264 584.171ZM-116.28 577.147C-116.285 577.973 -116.289 578.798 -116.291 579.625C-92.5907 560.233 -63.1251 542.62 -33.1058 524.677C72.4504 461.584 184.793 394.358 76.475 231.009C74.4859 229.231 72.4912 227.449 70.4817 225.66C165.084 379.884 61.9077 450.008 -35.3688 516.109C-64.7635 536.082 -93.6114 555.691 -116.28 577.147ZM-116.23 573.657C-116.247 574.446 -116.267 575.234 -116.275 576.024C-93.7044 554.863 -65.1873 535.477 -36.1326 515.735C61.439 449.435 164.939 379.072 68.0408 223.49C65.9137 221.61 63.7139 219.695 61.5265 217.785C145.425 364.535 51.0008 437.577 -38.4151 506.687C-66.8393 528.655 -94.7442 550.23 -116.23 573.657ZM-116.157 570.19C-116.178 570.917 -116.188 571.646 -116.204 572.374C-94.8125 549.309 -67.2655 528.017 -39.2197 506.34C50.445 437.038 145.182 363.789 59.39 215.916C57.0842 213.901 54.7914 211.892 52.4423 209.856C125.983 349.192 40.1202 424.831 -41.5332 496.723C-68.9634 520.874 -95.9113 544.603 -116.157 570.19ZM-116.033 566.727C-116.056 567.396 -116.084 568.064 -116.106 568.734C-95.944 543.584 -69.3944 520.198 -42.3713 496.406C39.5045 424.317 125.613 348.452 50.4565 208.147C48.0661 206.082 45.6384 203.998 43.2035 201.91C106.698 333.838 29.2514 411.715 -44.7354 486.105C-71.1402 512.655 -97.0959 538.762 -116.033 566.727ZM-115.885 563.283C-115.914 563.869 -115.947 564.455 -115.972 565.042C-97.1031 537.605 -71.5674 511.925 -45.6007 485.817C28.5878 411.224 106.27 333.123 41.3982 200.357C38.866 198.19 36.2854 196 33.6912 193.803C87.5806 318.377 18.42 398.116 -48.0297 474.686C-73.3858 503.904 -98.3365 532.664 -115.885 563.283ZM-115.71 559.858C-115.737 560.327 -115.757 560.798 -115.783 561.267C-98.2758 531.305 -73.7947 503.087 -48.9243 474.428C17.7072 397.65 87.0665 317.683 32.0277 192.397C29.3792 190.154 26.743 187.917 24.0546 185.654C68.7401 302.845 7.61584 383.928 -51.4318 462.271C-75.715 494.49 -99.6451 526.244 -115.71 559.858ZM-115.491 556.418L-115.555 557.389C-99.4935 524.603 -76.0916 493.543 -52.3489 462.041C6.86433 383.478 68.1423 302.15 22.4913 184.341C19.76 182.051 16.9404 179.718 14.1382 177.392C50.068 287.131 -3.16039 368.984 -54.9639 448.596C-78.142 484.216 -101.028 519.39 -115.491 556.418ZM-115.255 553.028L-115.277 553.292C-100.753 517.333 -78.4672 483.073 -55.9013 448.392C-3.95265 368.555 49.4294 286.465 12.7095 176.203C9.8474 173.826 6.97473 171.444 4.05788 169.04C31.7293 271.192 -13.8996 353.051 -58.6437 433.287C-80.7026 472.847 -102.544 512.014 -115.255 553.028ZM-70.7292 370.678C-88.4031 423.965 -106.203 477.641 -113.199 532.808C-103.673 486.045 -85.5916 440.656 -67.4931 395.238C-36.0859 316.411 -4.65318 237.491 -17.9 151.143C-21.0728 148.577 -24.216 146.026 -27.4585 143.426C-20.9196 220.492 -45.6919 295.195 -70.7292 370.678ZM-116.885 563.175L-116.838 562.26L-116.993 562.589C-117.031 562.916 -117.074 563.243 -117.11 563.571L-116.885 563.175ZM-117.034 566.605C-117.015 566.142 -117.003 565.678 -116.983 565.215C-117.108 565.436 -117.237 565.656 -117.36 565.877L-117.507 567.305L-117.034 566.605ZM-117.157 570.045C-117.14 569.461 -117.115 568.877 -117.094 568.293C-117.303 568.605 -117.503 568.918 -117.707 569.231C-117.763 569.8 -117.807 570.372 -117.859 570.942C-117.625 570.643 -117.394 570.343 -117.157 570.045ZM-117.231 573.496L-117.192 571.514L-118 572.555C-118.057 573.212 -118.119 573.869 -118.17 574.527C-117.857 574.184 -117.546 573.839 -117.231 573.496ZM-117.284 576.971C-117.278 576.241 -117.269 575.512 -117.257 574.784C-117.593 575.155 -117.934 575.524 -118.266 575.896C-118.317 576.614 -118.37 577.331 -118.417 578.049C-118.042 577.689 -117.662 577.33 -117.284 576.971ZM-117.298 580.459C-117.298 579.672 -117.292 578.887 -117.289 578.102C-117.698 578.494 -118.099 578.888 -118.504 579.281C-118.551 580.043 -118.589 580.806 -118.63 581.568C-118.186 581.199 -117.744 580.828 -117.298 580.459ZM-117.271 583.956C-117.28 583.134 -117.298 582.312 -117.303 581.491C-117.763 581.876 -118.232 582.259 -118.689 582.645C-118.733 583.455 -118.778 584.266 -118.812 585.078C-118.302 584.703 -117.788 584.329 -117.271 583.956ZM-117.221 587.482C-117.24 586.616 -117.25 585.752 -117.259 584.887C-117.794 585.277 -118.318 585.669 -118.847 586.06C-118.878 586.897 -118.909 587.734 -118.935 588.572C-118.366 588.208 -117.794 587.845 -117.221 587.482ZM-117.116 591.008C-117.144 590.119 -117.172 589.23 -117.195 588.341C-117.788 588.718 -118.381 589.094 -118.967 589.473C-118.99 590.341 -119.003 591.21 -119.021 592.079C-118.388 591.721 -117.756 591.363 -117.116 591.008ZM-116.98 594.566C-117.02 593.648 -117.059 592.73 -117.093 591.813C-117.745 592.177 -118.389 592.544 -119.035 592.91C-119.052 593.802 -119.068 594.693 -119.074 595.585C-118.381 595.244 -117.679 594.905 -116.98 594.566ZM-116.812 598.135C-116.864 597.195 -116.903 596.258 -116.944 595.319C-117.656 595.667 -118.367 596.017 -119.073 596.368C-119.074 597.28 -119.075 598.192 -119.069 599.105C-118.318 598.781 -117.568 598.457 -116.812 598.135ZM-116.586 601.722C-116.649 600.766 -116.712 599.809 -116.769 598.854C-117.538 599.183 -118.306 599.511 -119.069 599.841C-119.059 600.771 -119.04 601.704 -119.024 602.635C-118.214 602.329 -117.403 602.024 -116.586 601.722ZM-116.328 605.333C-116.404 604.356 -116.476 603.379 -116.541 602.403C-117.372 602.712 -118.19 603.024 -119.009 603.336C-118.991 604.282 -118.972 605.227 -118.943 606.174C-118.077 605.892 -117.2 605.613 -116.328 605.333ZM-116.031 608.958C-116.118 607.968 -116.197 606.98 -116.274 605.991C-117.158 606.276 -118.041 606.562 -118.917 606.85C-118.883 607.811 -118.847 608.773 -118.803 609.736C-117.882 609.475 -116.96 609.215 -116.031 608.958ZM-115.676 612.604C-115.777 611.603 -115.884 610.601 -115.978 609.602C-116.915 609.862 -117.849 610.123 -118.779 610.386C-118.732 611.36 -118.672 612.336 -118.616 613.311C-117.641 613.074 -116.662 612.838 -115.676 612.604ZM-115.288 616.277C-115.402 615.259 -115.51 614.241 -115.613 613.224C-116.611 613.461 -117.594 613.702 -118.58 613.943C-118.523 614.929 -118.462 615.914 -118.392 616.902C-117.363 616.691 -116.326 616.484 -115.288 616.277ZM-81.6561 725.471C-100.841 688.311 -111.152 652.205 -115.215 616.886C-116.262 617.095 -117.306 617.307 -118.344 617.521C-115.801 652.176 -106.416 687.937 -87.1226 725.306L-88.0825 725.471C-107.37 688.114 -116.77 652.367 -119.334 617.727C-120.362 617.94 -121.39 618.152 -122.407 618.368C-121.396 652.334 -112.951 687.731 -93.552 725.306L-94.5128 725.471C-113.903 687.914 -122.364 652.535 -123.405 618.587C-124.415 618.804 -125.42 619.024 -126.419 619.245C-126.967 652.506 -119.485 687.526 -99.9788 725.306L-100.939 725.471C-120.434 687.711 -127.942 652.709 -127.432 619.465C-128.426 619.688 -129.408 619.916 -130.393 620.142C-132.531 652.684 -126.019 687.319 -106.405 725.306L-107.366 725.471C-126.964 687.511 -133.509 652.897 -131.421 620.378C-132.383 620.602 -133.339 620.827 -134.292 621.055C-138.056 652.864 -132.557 687.103 -112.834 725.306L-113.793 725.471C-133.5 687.303 -139.034 653.09 -135.335 621.306C-136.276 621.533 -137.218 621.759 -138.15 621.99C-143.569 653.051 -139.099 686.886 -119.263 725.306L-120.223 725.471C-140.036 687.096 -144.557 653.293 -139.217 622.26C-140.132 622.49 -141.047 622.72 -141.951 622.954C-149.057 653.25 -145.639 686.667 -125.69 725.306L-126.65 725.471C-146.572 686.886 -150.05 653.502 -143.039 623.235C-143.93 623.469 -144.807 623.706 -145.688 623.944C-154.518 653.458 -152.18 686.445 -132.116 725.306L-133.076 725.471C-153.106 686.677 -155.523 653.728 -146.816 624.245C-147.677 624.48 -148.525 624.719 -149.375 624.958C-159.962 653.674 -158.726 686.22 -138.546 725.306L-139.506 725.471C-159.643 686.469 -160.974 653.968 -150.539 625.287C-151.36 625.521 -152.182 625.755 -152.993 625.993C-165.374 653.895 -165.272 685.989 -144.972 725.306L-145.933 725.471C-166.175 686.264 -166.411 654.222 -154.224 626.361C-154.998 626.592 -155.778 626.82 -156.544 627.055C-170.76 654.124 -171.821 685.754 -151.4 725.306L-152.36 725.471C-172.712 686.053 -171.807 654.485 -157.833 627.458C-158.578 627.69 -159.319 627.926 -160.055 628.162C-176.13 654.377 -178.366 685.526 -157.828 725.306L-158.787 725.471C-179.243 685.85 -177.2 654.769 -161.418 628.596C-162.11 628.822 -162.785 629.056 -163.468 629.285C-181.455 654.63 -184.92 685.285 -164.256 725.306L-165.216 725.471C-185.773 685.656 -182.562 655.083 -164.954 629.784C-165.587 630.002 -166.214 630.222 -166.839 630.443C-186.767 654.898 -191.47 685.045 -170.683 725.306L-171.644 725.471C-192.295 685.472 -187.901 655.425 -168.456 631.02C-169.006 631.219 -169.565 631.414 -170.111 631.615C-192.039 655.163 -198.027 684.791 -177.11 725.306L-178.07 725.471C-198.804 685.313 -193.246 655.809 -171.965 632.321C-172.419 632.493 -172.877 632.664 -173.325 632.839C-197.281 655.456 -204.585 684.544 -183.539 725.306L-184.5 725.471C-205.301 685.181 -198.573 656.246 -175.476 633.693C-175.822 633.832 -176.167 633.973 -176.51 634.113C-202.51 655.776 -211.133 684.31 -189.967 725.306L-190.927 725.471C-211.772 685.096 -203.894 656.762 -179.033 635.164C-179.208 635.239 -179.381 635.316 -179.554 635.391C-207.684 656.083 -217.696 684.047 -196.393 725.306L-197.354 725.471C-218.041 685.402 -209.39 657.813 -183.346 637.242C-213.03 656.901 -224.065 684.158 -202.822 725.306L-203.781 725.471C-224.032 686.247 -215.168 659.577 -188.83 640.076C-218.822 658.657 -230.059 685.001 -209.25 725.306L-210.21 725.471C-230.009 687.121 -221.003 661.347 -194.513 642.858C-224.666 660.423 -236.036 685.874 -215.677 725.306L-216.637 725.471C-239.099 681.967 -223.271 655.373 -186.252 637.62C-184.477 636.602 -182.63 635.615 -180.742 634.643C-179.02 633.585 -177.256 632.543 -175.423 631.529C-173.773 630.441 -172.058 629.377 -170.306 628.329C-168.676 627.172 -167.003 626.03 -165.272 624.912C-163.733 623.733 -162.145 622.573 -160.514 621.429C-158.996 620.166 -157.427 618.922 -155.815 617.694C-154.394 616.411 -152.938 615.141 -151.433 613.888C-150.048 612.519 -148.608 611.169 -147.138 609.829C-145.815 608.396 -144.456 606.975 -143.054 605.57C-141.843 604.125 -140.599 602.691 -139.317 601.27C-138.155 599.728 -136.947 598.201 -135.715 596.683C-134.617 595.055 -133.485 593.44 -132.319 591.834C-131.313 590.153 -130.281 588.48 -129.212 586.818C-128.305 585.096 -127.377 583.38 -126.413 581.674C-125.593 579.875 -124.751 578.083 -123.875 576.299C-123.149 574.428 -122.399 572.562 -121.622 570.705C-120.991 568.755 -120.34 566.81 -119.66 564.871C-119.146 562.91 -118.605 560.954 -118.05 559.002C-117.621 556.89 -117.166 554.783 -116.694 552.68C-116.378 550.531 -116.04 548.386 -115.683 546.244C-110.092 486.296 -90.8296 428.205 -71.7138 370.569C-46.5929 294.836 -21.7352 219.89 -28.5352 142.567C-82.1716 99.5964 -144.51 52.352 -216.548 0.360107L-215.769 0C-144.123 51.7084 -82.0845 98.7199 -28.6388 141.515C-28.722 140.594 -28.815 139.672 -28.9088 138.75C-80.5382 96.8904 -140.597 50.9227 -210.123 0.360107L-209.34 0C-140.212 50.2726 -80.452 96.0037 -29.0128 137.683C-29.1105 136.76 -29.2192 135.836 -29.3245 134.912C-78.9355 94.1678 -136.703 49.4821 -203.696 0.358948L-202.909 0.00140381C-136.331 48.8195 -78.8675 93.2582 -29.4548 133.812C-29.5648 132.894 -29.6633 131.975 -29.7826 131.057C-77.3603 91.4312 -132.83 48.0305 -197.269 0.357483L-196.483 0.00213623C-132.476 47.3554 -77.3149 90.499 -29.9402 129.921C-30.0633 128.995 -30.1966 128.068 -30.3295 127.141C-75.8501 88.6517 -129.005 46.5496 -190.843 0.356323L-190.052 0.00317383C-128.655 45.8673 -75.8064 87.7078 -30.4908 125.985C-30.6292 125.054 -30.7787 124.122 -30.9256 123.19C-74.3704 85.8508 -125.219 45.0466 -184.419 0.355103L-183.624 0.00445557C-124.889 44.3448 -74.3483 84.8735 -31.1204 121.985C-31.2669 121.084 -31.4045 120.182 -31.5599 119.28C-72.9426 83.0612 -121.391 43.5797 -177.992 0.354004L-177.192 0.00549316C-121.066 42.8683 -72.9562 82.0522 -31.7892 118.032C-31.9531 117.11 -32.1229 116.188 -32.2965 115.265C-71.5733 80.206 -117.653 42.0516 -171.568 0.353271L-170.764 0.00646973C-117.327 41.3356 -71.5903 79.183 -32.5288 113.996C-32.7075 113.072 -32.902 112.147 -33.0905 111.222C-70.2473 77.3286 -113.942 40.5089 -165.143 0.350647L-164.335 0.00866699C-113.632 39.7764 -70.2979 76.2686 -33.3626 109.899C-33.555 108.984 -33.7414 108.069 -33.9418 107.153C-68.9626 74.4301 -110.257 38.9528 -158.716 0.349182L-157.904 0.00982666C-109.964 38.2001 -69.0509 73.3252 -34.259 105.765C-34.464 104.852 -34.6703 103.939 -34.8856 103.025C-67.7491 71.4873 -106.614 37.3712 -152.291 0.347168L-151.475 0.0124512C-106.326 36.6091 -67.8502 70.3585 -35.218 101.598C-35.4388 100.684 -35.68 99.7666 -35.9101 98.8514C-66.5968 68.509 -103.008 35.7682 -145.864 0.344543L-145.045 0.0146484C-102.739 34.9833 -66.7374 67.3292 -36.2893 97.3493C-36.5173 96.4676 -36.7491 95.5858 -36.9864 94.7032C-65.4963 65.5395 -99.3967 34.1821 -139.442 0.343079L-138.615 0.0166016C-99.1903 33.3318 -65.6882 64.2551 -37.4441 93.041C-37.6768 92.1975 -37.901 91.3544 -38.1425 90.51C-64.4536 62.5345 -95.8256 32.572 -133.016 0.33905L-132.182 0.0198975C-95.6485 31.6809 -64.702 61.165 -38.6682 88.7198C-38.9106 87.8942 -39.1607 87.0678 -39.4116 86.2415C-63.4979 59.4736 -92.3075 30.9279 -126.592 0.336853L-125.753 0.0223999C-92.1496 30.0054 -63.7849 58.0331 -39.9801 84.3435C-40.2289 83.5428 -40.4985 82.7411 -40.7558 81.9402C-62.5978 56.3865 -88.8285 29.2642 -120.17 0.33252L-119.32 0.0272217C-88.7207 28.2736 -62.9807 54.7992 -41.4415 79.825C-41.6865 79.0814 -41.9302 78.3378 -42.1828 77.5933C-61.7571 53.2639 -85.3899 27.5781 -113.745 0.32782L-112.887 0.0311279C-85.3521 26.4929 -62.2713 51.4797 -43.0226 75.1856C-43.2591 74.5118 -43.4879 73.838 -43.7295 73.1633C-61.0085 50.0784 -82.0132 25.8538 -107.324 0.32312L-106.454 0.0358276C-82.0599 24.642 -61.6828 48.0298 -44.7587 70.3613C-44.9719 69.7855 -45.1871 69.2094 -45.4049 68.6326C-60.3615 46.817 -78.6947 24.0868 -100.902 0.317017L-100.02 0.0427856C-78.8782 22.6727 -61.2756 44.3522 -46.7186 65.2071C-46.8506 64.8702 -46.9894 64.5323 -47.1236 64.1956C-59.7539 43.6099 -75.3703 22.3507 -94.4814 0.308411L-93.5876 0.0509033C-76.0526 20.276 -61.4629 39.8405 -49.4091 58.8328C-59.607 39.7656 -72.3426 20.2792 -88.0618 0.298584L-87.1481 0.0609131C-73.6729 17.191 -62.3893 33.9578 -53.0061 50.4089C-60.5632 33.8665 -70.0096 17.1691 -81.6417 0.286255L-80.714 0.0734863C-66.8834 20.1441 -56.1263 39.9526 -47.9749 59.5476C-46.274 62.7468 -44.6335 65.9367 -43.0732 69.1132C-41.0654 72.5037 -39.1666 75.869 -37.3133 79.2242C-35.0801 82.7002 -32.9169 86.1572 -30.8534 89.5867C-28.3438 93.2292 -25.9088 96.8488 -23.5952 100.431C-20.931 104.108 -18.3925 107.742 -15.9172 111.355C-13.1383 115.031 -10.4469 118.677 -7.85065 122.288C-4.80769 126.156 -1.85439 129.99 0.978821 133.778C4.23999 137.793 7.35767 141.752 10.3904 145.677C13.5654 149.49 16.6419 153.263 19.6144 156.993C22.8645 160.8 26.0272 164.571 29.0774 168.294C33.0467 172.824 36.8238 177.271 40.4964 181.672C43.994 185.614 47.3881 189.508 50.6663 193.352C54.1852 197.247 57.5983 201.095 60.9104 204.897C65.0645 209.417 69.0955 213.883 72.974 218.277C76.8903 222.485 80.6864 226.637 84.3505 230.728C88.3564 234.98 92.2484 239.178 95.9958 243.308C100.13 247.646 104.153 251.932 108.019 256.142C112.079 260.366 116.039 264.542 119.853 268.647C123.882 272.798 127.805 276.897 131.597 280.933C135.681 285.097 139.631 289.195 143.475 293.24C297.562 448.827 280.224 519.683 199.814 556.857C148.102 580.764 70.3552 590.711 -4.65445 600.308C-43.2209 605.242 -81.0529 610.087 -114.232 616.69C-110.186 652.021 -99.8854 688.138 -80.6958 725.306L-81.6561 725.471Z" fill="url(#paint0_linear_4502_668)"/>
<defs>
<linearGradient id="paint0_linear_4502_668" x1="669.094" y1="244.94" x2="94.9412" y2="953.916" gradientUnits="userSpaceOnUse">
<stop stop-color="#0AFB6A"/>
<stop offset="1" stop-color="#E6FF81"/>
</linearGradient>
</defs>
</svg>

