<svg width="1440" height="805" viewBox="0 0 1440 805" fill="none" xmlns="http://www.w3.org/2000/svg">
<path opacity="0.2" d="M1369.72 229.257L1366.45 231.659C1366.83 231.433 1367.21 231.217 1367.59 230.992C1368.82 230.144 1370.04 229.293 1371.27 228.433C1370.76 228.71 1370.24 228.981 1369.72 229.257ZM1348.62 243.15C1347.78 243.787 1346.94 244.435 1346.1 245.067L1346.45 244.847L1349.66 242.562L1348.62 243.15ZM1360.32 234.255C1358.48 235.667 1356.65 237.04 1354.81 238.449C1355.81 237.872 1356.81 237.274 1357.82 236.694C1359.64 235.373 1361.47 234.013 1363.3 232.671C1362.31 233.196 1361.32 233.733 1360.32 234.255ZM1327.28 257.723C1326.58 258.264 1325.89 258.777 1325.19 259.315L1325.21 259.303C1326.02 258.71 1326.84 258.098 1327.65 257.5L1327.28 257.723ZM1338.78 248.718C1337.14 250.006 1335.49 251.308 1333.85 252.585C1334.63 252.112 1335.42 251.647 1336.2 251.172C1338.07 249.773 1339.93 248.422 1341.81 247.008C1340.8 247.575 1339.79 248.155 1338.78 248.718ZM1351 239.094C1348.69 240.929 1346.41 242.715 1344.12 244.527C1345.37 243.819 1346.63 243.107 1347.88 242.393C1350.2 240.645 1352.52 238.874 1354.83 237.113C1353.55 237.777 1352.27 238.434 1351 239.094ZM277.86 489.137L278.854 489.108C279.558 488.917 280.261 488.731 280.965 488.542L280.054 488.608C279.323 488.783 278.592 488.962 277.86 489.137ZM1305.06 273.313L1304.34 273.88C1304.67 273.632 1305 273.394 1305.33 273.146L1305.06 273.313ZM1317.25 263.67C1315.73 264.89 1314.23 266.082 1312.72 267.28C1313.34 266.891 1313.95 266.51 1314.57 266.118C1316.19 264.888 1317.81 263.636 1319.42 262.405C1318.7 262.833 1317.97 263.245 1317.25 263.67ZM1329.29 253.94C1327.1 255.712 1324.9 257.492 1322.72 259.253C1323.99 258.498 1325.27 257.724 1326.54 256.964C1328.71 255.283 1330.9 253.568 1333.09 251.851C1331.82 252.549 1330.56 253.247 1329.29 253.94ZM1341.62 243.885C1339.01 246.041 1336.41 248.174 1333.82 250.285C1335.23 249.504 1336.64 248.742 1338.05 247.955C1340.75 245.83 1343.44 243.732 1346.14 241.603C1344.63 242.373 1343.13 243.122 1341.62 243.885ZM269.76 491.098C270.345 491.105 270.929 491.12 271.515 491.129L274.611 490.274C274.05 490.293 273.491 490.306 272.93 490.327C271.873 490.584 270.816 490.839 269.76 491.098ZM264.602 491.053L265.748 491.06L267.874 490.531L266.885 490.571C266.123 490.732 265.363 490.889 264.602 491.053ZM259.832 491.033L259.992 491.032L260.667 490.884L259.832 491.033ZM1295.07 279.458C1293.65 280.6 1292.22 281.757 1290.8 282.908L1293 281.47C1294.39 280.387 1295.8 279.262 1297.2 278.159C1296.49 278.595 1295.78 279.023 1295.07 279.458ZM1307.31 269.447C1305.25 271.159 1303.18 272.879 1301.15 274.545C1302.2 273.896 1303.26 273.215 1304.31 272.561C1306.53 270.809 1308.74 269.078 1310.96 267.324C1309.74 268.028 1308.52 268.747 1307.31 269.447ZM1319.82 259.078L1312.1 265.473C1313.57 264.618 1315.04 263.775 1316.51 262.913C1319.01 260.911 1321.54 258.854 1324.06 256.81C1322.64 257.577 1321.23 258.317 1319.82 259.078ZM1332.31 248.558C1329.44 251.002 1326.57 253.455 1323.74 255.826C1325.34 254.96 1326.94 254.061 1328.55 253.184C1331.5 250.782 1334.44 248.426 1337.41 245.999C1335.71 246.85 1334.01 247.716 1332.31 248.558ZM261.901 493.058C262.645 493.102 263.391 493.141 264.135 493.189C265.392 492.834 266.649 492.476 267.905 492.126C267.171 492.117 266.433 492.117 265.698 492.11C264.433 492.427 263.167 492.739 261.901 493.058ZM256.814 492.765C257.396 492.794 257.977 492.83 258.559 492.862C259.589 492.6 260.618 492.341 261.649 492.083L259.921 492.082C258.885 492.309 257.85 492.534 256.814 492.765ZM251.822 492.532L252.973 492.586C253.692 492.423 254.411 492.26 255.128 492.101C254.785 492.103 254.444 492.103 254.101 492.105C253.341 492.25 252.582 492.388 251.822 492.532ZM247.144 492.344L247.397 492.354L248.256 492.185L248.191 492.185L247.144 492.344ZM1272.63 295.83C1271.37 296.875 1270.09 297.937 1268.84 298.967C1269.26 298.681 1269.69 298.385 1270.12 298.096C1271.6 296.929 1273.06 295.786 1274.54 294.615L1272.63 295.83ZM1285 285.589C1282.99 287.255 1281 288.893 1279 290.554C1280.04 289.892 1281.06 289.254 1282.1 288.589C1284.14 286.954 1286.2 285.274 1288.25 283.613C1287.17 284.265 1286.08 284.941 1285 285.589ZM1297.6 274.967C1295.16 277.04 1292.72 279.125 1290.32 281.144C1291.65 280.336 1292.99 279.519 1294.33 278.702C1296.87 276.631 1299.4 274.606 1301.96 272.507C1300.5 273.336 1299.05 274.146 1297.6 274.967ZM1310.38 264.12C1307.49 266.588 1304.61 269.009 1301.73 271.459C1303.34 270.542 1304.95 269.62 1306.56 268.692C1309.41 266.343 1312.28 263.954 1315.15 261.571C1313.56 262.415 1311.97 263.284 1310.38 264.12ZM1323.21 253.006C1320.11 255.71 1317 258.434 1313.94 261.059C1315.65 260.152 1317.36 259.236 1319.07 258.319C1322.19 255.719 1325.31 253.102 1328.45 250.453C1326.7 251.31 1324.96 252.157 1323.21 253.006ZM254.21 495.023C255.035 495.114 255.857 495.211 256.681 495.305C258.128 494.891 259.574 494.482 261.021 494.072C260.173 494.022 259.325 493.97 258.476 493.924C257.055 494.288 255.632 494.657 254.21 495.023ZM249.15 494.496C249.885 494.57 250.619 494.644 251.352 494.72C252.608 494.394 253.862 494.073 255.118 493.75C254.37 493.712 253.62 493.68 252.872 493.645C251.631 493.926 250.39 494.212 249.15 494.496ZM244.202 494.017C244.804 494.072 245.411 494.12 246.014 494.178C247.041 493.94 248.067 493.709 249.093 493.474C248.489 493.45 247.881 493.433 247.276 493.411L244.202 494.017ZM239.412 493.593C239.804 493.626 240.193 493.664 240.583 493.696C241.325 493.547 242.065 493.405 242.807 493.258L241.691 493.223C240.932 493.346 240.173 493.467 239.412 493.593ZM234.817 493.24L235.181 493.268C235.501 493.213 235.821 493.156 236.14 493.102L235.954 493.098C235.574 493.147 235.196 493.191 234.817 493.24ZM1250.14 312.617C1248.89 313.666 1247.67 314.645 1246.43 315.682C1246.7 315.494 1246.97 315.316 1247.24 315.127C1248.58 314.05 1249.94 312.946 1251.29 311.863C1250.91 312.111 1250.52 312.37 1250.14 312.617ZM1262.39 302.265C1260.54 303.825 1258.69 305.4 1256.86 306.941C1257.82 306.304 1258.78 305.675 1259.75 305.033C1261.69 303.452 1263.62 301.904 1265.58 300.298C1264.51 300.966 1263.45 301.6 1262.39 302.265ZM1275.34 291.296C1272.83 293.447 1270.36 295.51 1267.86 297.636C1269.2 296.795 1270.54 295.923 1271.89 295.075C1274.32 293.068 1276.77 291.03 1279.22 289.005C1277.92 289.774 1276.63 290.536 1275.34 291.296ZM1287.89 280.419C1285.15 282.803 1282.4 285.196 1279.68 287.533C1281.21 286.622 1282.73 285.743 1284.27 284.822C1287.07 282.479 1289.9 280.108 1292.73 277.711C1291.12 278.613 1289.5 279.528 1287.89 280.419ZM1301.12 268.925C1297.97 271.691 1294.85 274.377 1291.71 277.106C1293.42 276.149 1295.15 275.173 1296.86 274.203C1299.95 271.587 1303.05 268.955 1306.16 266.315C1304.48 267.192 1302.8 268.058 1301.12 268.925ZM1314.14 257.373C1310.83 260.321 1307.51 263.281 1304.23 266.165C1306.04 265.226 1307.84 264.307 1309.64 263.358C1312.91 260.56 1316.22 257.683 1319.52 254.804C1317.73 255.669 1315.94 256.517 1314.14 257.373ZM246.56 497.018C247.465 497.166 248.373 497.306 249.276 497.459C250.846 497 252.413 496.539 253.984 496.084C253.066 495.983 252.149 495.887 251.231 495.79C249.674 496.195 248.116 496.606 246.56 497.018ZM241.655 496.235C242.48 496.361 243.304 496.494 244.128 496.624C245.536 496.249 246.944 495.869 248.353 495.498C247.526 495.416 246.702 495.325 245.874 495.246C244.468 495.57 243.06 495.902 241.655 496.235ZM236.783 495.514C237.512 495.618 238.238 495.729 238.965 495.837C240.194 495.544 241.425 495.249 242.653 494.96C241.909 494.894 241.166 494.824 240.422 494.761C239.21 495.006 237.996 495.265 236.783 495.514ZM231.974 494.855C232.58 494.935 233.185 495.014 233.79 495.098L236.832 494.468C236.225 494.421 235.614 494.377 235.007 494.331C233.997 494.503 232.985 494.678 231.974 494.855ZM227.317 494.253C227.743 494.306 228.172 494.352 228.597 494.406C229.334 494.275 230.069 494.152 230.806 494.024C230.393 493.996 229.978 493.974 229.566 493.949C228.816 494.051 228.067 494.149 227.317 494.253ZM222.92 493.732L223.358 493.783C223.702 493.733 224.048 493.68 224.393 493.631L224.091 493.613L222.92 493.732ZM1226.86 330.249C1225.87 331.078 1224.88 331.917 1223.89 332.75C1224.28 332.475 1224.66 332.207 1225.05 331.931C1226.06 331.108 1227.09 330.261 1228.11 329.422C1227.69 329.704 1227.28 329.969 1226.86 330.249ZM1239.77 319.305C1238 320.832 1236.23 322.343 1234.48 323.834C1235.26 323.306 1236.04 322.771 1236.82 322.241C1238.69 320.693 1240.58 319.13 1242.46 317.586C1241.56 318.165 1240.67 318.73 1239.77 319.305ZM1252.35 308.444C1250 310.477 1247.63 312.524 1245.29 314.544C1246.65 313.662 1248.01 312.767 1249.38 311.875C1251.68 309.953 1254.02 307.96 1256.35 305.98C1255.02 306.799 1253.68 307.632 1252.35 308.444ZM1265.39 297.113C1262.67 299.504 1259.97 301.853 1257.27 304.201C1258.72 303.305 1260.17 302.421 1261.63 301.517L1269.93 294.491C1268.41 295.375 1266.91 296.238 1265.39 297.113ZM1278.44 285.58C1275.38 288.292 1272.32 291.003 1269.28 293.678C1271.04 292.649 1272.82 291.581 1274.59 290.54C1277.53 288.024 1280.52 285.41 1283.5 282.817C1281.81 283.742 1280.13 284.666 1278.44 285.58ZM1291.78 273.71C1288.47 276.681 1285.19 279.604 1281.91 282.52C1283.65 281.563 1285.4 280.626 1287.15 279.656C1290.48 276.764 1293.81 273.896 1297.16 270.98C1295.36 271.9 1293.57 272.802 1291.78 273.71ZM1305.13 261.643C1301.62 264.83 1298.1 268.01 1294.62 271.144C1296.54 270.167 1298.46 269.154 1300.38 268.162C1303.78 265.181 1307.25 262.078 1310.7 259.003C1308.84 259.883 1306.99 260.776 1305.13 261.643ZM248.556 501.262C295.008 512.537 339.251 530.381 384.33 548.574C549.723 615.323 726.501 686.59 1065.95 452.867M238.991 499.033C239.921 499.238 240.848 499.456 241.775 499.668C243.462 499.166 245.149 498.666 246.836 498.171C245.882 498.014 244.927 497.86 243.971 497.707C242.312 498.147 240.653 498.584 238.991 499.033ZM234.196 498.009C235.081 498.195 235.966 498.383 236.85 498.575C238.407 498.151 239.961 497.734 241.517 497.319C240.612 497.18 239.702 497.05 238.793 496.916C237.262 497.278 235.729 497.637 234.196 498.009ZM229.455 497.041C230.279 497.204 231.105 497.361 231.926 497.529C233.32 497.189 234.715 496.85 236.108 496.517C235.273 496.398 234.437 496.286 233.602 496.171C232.22 496.459 230.838 496.747 229.455 497.041ZM224.778 496.131C225.504 496.268 226.229 496.407 226.953 496.547C228.156 496.288 229.36 496.018 230.562 495.765C229.834 495.669 229.111 495.566 228.384 495.476C227.184 495.689 225.98 495.913 224.778 496.131ZM220.143 495.29C220.745 495.396 221.345 495.509 221.947 495.618L224.948 495.067C224.341 494.996 223.735 494.92 223.127 494.851L220.143 495.29ZM215.595 494.521L216.892 494.735C217.63 494.622 218.364 494.518 219.101 494.41L217.838 494.278C217.09 494.36 216.343 494.436 215.595 494.521ZM211.403 493.844L211.907 493.919L212.929 493.796L212.502 493.759C212.136 493.785 211.769 493.817 211.403 493.844ZM1203.86 347.969C1203.02 348.691 1202.17 349.427 1201.33 350.142L1201.55 349.979C1202.6 349.113 1203.65 348.264 1204.7 347.397L1203.86 347.969ZM1216.64 337.008C1214.82 338.565 1213.01 340.12 1211.19 341.687C1212.08 341.066 1212.99 340.412 1213.88 339.788C1215.64 338.325 1217.42 336.814 1219.18 335.325C1218.34 335.886 1217.49 336.45 1216.64 337.008ZM1229.27 326.016C1227.14 327.898 1224.99 329.797 1222.88 331.63C1223.96 330.916 1225.02 330.228 1226.09 329.508C1228.5 327.475 1230.88 325.489 1233.3 323.442C1231.96 324.29 1230.61 325.175 1229.27 326.016ZM1242.49 314.399L1234.42 321.49C1235.95 320.518 1237.48 319.536 1239.01 318.555C1241.59 316.346 1244.21 314.074 1246.82 311.816C1245.37 312.691 1243.93 313.532 1242.49 314.399ZM1255.63 302.702C1252.66 305.375 1249.69 308.047 1246.75 310.654C1248.36 309.683 1249.97 308.686 1251.58 307.703C1254.67 305.031 1257.72 302.43 1260.82 299.727C1259.09 300.72 1257.36 301.721 1255.63 302.702ZM1269.03 290.65C1265.76 293.591 1262.51 296.518 1259.26 299.437C1261.05 298.411 1262.84 297.394 1264.64 296.355C1267.81 293.578 1271.02 290.725 1274.23 287.884C1272.49 288.82 1270.76 289.726 1269.03 290.65ZM1282.53 278.36C1279.05 281.549 1275.59 284.72 1272.15 287.836C1274 286.847 1275.84 285.826 1277.69 284.825C1281.19 281.719 1284.67 278.659 1288.2 275.511C1286.31 276.462 1284.42 277.423 1282.53 278.36ZM1296.27 265.727C1292.59 269.121 1288.92 272.49 1285.26 275.847C1287.18 274.886 1289.11 273.921 1291.03 272.946C1294.62 269.738 1298.25 266.437 1301.87 263.148C1300 264.017 1298.13 264.87 1296.27 265.727ZM231.444 501.105C232.394 501.375 233.346 501.641 234.294 501.916C236.067 501.379 237.839 500.848 239.611 500.319C238.628 500.1 237.642 499.883 236.657 499.671C234.92 500.148 233.181 500.625 231.444 501.105ZM226.842 499.827C227.754 500.075 228.667 500.321 229.578 500.574C231.226 500.117 232.873 499.666 234.52 499.215C233.586 499.017 232.654 498.812 231.718 498.621C230.093 499.022 228.467 499.421 226.842 499.827ZM222.254 498.602C223.113 498.824 223.968 499.058 224.824 499.287C226.345 498.905 227.863 498.533 229.383 498.159C228.497 497.984 227.612 497.804 226.724 497.634C225.235 497.955 223.746 498.272 222.254 498.602ZM217.661 497.448C218.46 497.645 219.258 497.847 220.056 498.05C221.431 497.742 222.804 497.445 224.177 497.148C223.352 496.994 222.523 496.846 221.695 496.696C220.351 496.944 219.006 497.192 217.661 497.448ZM213.121 496.364C213.847 496.533 214.574 496.697 215.299 496.871C216.487 496.642 217.678 496.406 218.866 496.182C218.118 496.053 217.367 495.935 216.618 495.809C215.454 495.988 214.287 496.181 213.121 496.364ZM208.657 495.345C209.266 495.48 209.875 495.612 210.482 495.749C211.465 495.591 212.446 495.438 213.428 495.281C212.822 495.185 212.217 495.085 211.611 494.99C210.626 495.109 209.643 495.223 208.657 495.345ZM204.307 494.409C204.739 494.5 205.168 494.594 205.599 494.687C206.32 494.595 207.039 494.505 207.759 494.418C207.333 494.355 206.911 494.289 206.486 494.229C205.759 494.287 205.034 494.347 204.307 494.409ZM200.2 493.586L200.742 493.693L201.805 493.595L201.333 493.534L200.2 493.586ZM1180.93 365.933L1180.76 366.079L1180.96 365.908L1180.93 365.933ZM1193.11 355.301C1191.54 356.672 1189.96 358.061 1188.39 359.42C1189.07 358.934 1189.75 358.473 1190.43 357.985C1192.27 356.436 1194.07 354.953 1195.92 353.382C1194.99 354.014 1194.04 354.672 1193.11 355.301ZM1206.37 343.725C1204.14 345.683 1201.96 347.567 1199.73 349.517C1200.86 348.751 1201.98 347.99 1203.11 347.217C1205.25 345.392 1207.4 343.531 1209.55 341.69C1208.48 342.385 1207.43 343.037 1206.37 343.725ZM1219.32 332.18C1216.72 334.509 1214.11 336.851 1211.54 339.131C1212.98 338.193 1214.43 337.219 1215.86 336.274C1218.51 333.985 1221.14 331.724 1223.81 329.397C1222.31 330.334 1220.82 331.253 1219.32 332.18ZM1232.64 320.275C1229.67 322.936 1226.73 325.551 1223.76 328.209C1225.35 327.218 1226.92 326.27 1228.51 325.267C1231.48 322.669 1234.48 320.027 1237.47 317.392C1235.86 318.348 1234.24 319.331 1232.64 320.275ZM1246.03 308.083C1242.87 310.979 1239.7 313.896 1236.59 316.716C1238.3 315.701 1240.01 314.677 1241.73 313.65C1244.91 310.835 1248.09 308.029 1251.3 305.165C1249.54 306.155 1247.79 307.105 1246.03 308.083ZM1259.69 295.593C1256.22 298.777 1252.76 301.923 1249.29 305.098C1251.15 304.056 1253.01 303.001 1254.87 301.945C1258.28 298.897 1261.71 295.801 1265.15 292.703C1263.33 293.664 1261.5 294.643 1259.69 295.593ZM1273.44 282.816C1269.85 286.182 1266.24 289.567 1262.7 292.841C1264.56 291.861 1266.41 290.88 1268.28 289.888C1271.88 286.632 1275.48 283.369 1279.11 280.053C1277.22 280.986 1275.33 281.895 1273.44 282.816ZM1287.43 269.74C1283.6 273.333 1279.79 276.876 1275.97 280.453C1277.91 279.502 1279.84 278.56 1281.78 277.598C1285.53 274.163 1289.32 270.676 1293.1 267.181C1291.21 268.041 1289.32 268.89 1287.43 269.74ZM223.922 503.21C224.874 503.543 225.822 503.886 226.772 504.226C228.609 503.659 230.446 503.085 232.283 502.524C231.302 502.242 230.32 501.96 229.338 501.685C227.533 502.187 225.727 502.699 223.922 503.21ZM219.502 501.684C220.424 501.994 221.341 502.318 222.259 502.635C223.99 502.145 225.72 501.646 227.449 501.161C226.491 500.898 225.529 500.645 224.567 500.388C222.88 500.814 221.19 501.25 219.502 501.684ZM215.058 500.222C215.951 500.511 216.843 500.8 217.734 501.096C219.347 500.68 220.961 500.264 222.573 499.854C221.649 499.613 220.72 499.382 219.793 499.147C218.216 499.502 216.637 499.861 215.058 500.222ZM210.617 498.816C211.472 499.081 212.33 499.339 213.183 499.609C214.663 499.269 216.141 498.937 217.62 498.602C216.751 498.388 215.884 498.171 215.013 497.963C213.549 498.245 212.084 498.525 210.617 498.816ZM206.224 497.479C207.009 497.71 207.79 497.949 208.573 498.187C209.914 497.917 211.254 497.657 212.594 497.397C211.786 497.209 210.981 497.014 210.171 496.831C208.856 497.043 207.54 497.259 206.224 497.479ZM201.856 496.219C202.562 496.417 203.264 496.626 203.968 496.827C205.128 496.631 206.292 496.426 207.452 496.234C206.728 496.075 206.002 495.92 205.277 495.765C204.138 495.912 202.996 496.067 201.856 496.219ZM197.498 495.032C198.106 495.193 198.714 495.354 199.32 495.52C200.298 495.386 201.275 495.262 202.252 495.131C201.636 495.006 201.016 494.889 200.398 494.767C199.431 494.855 198.467 494.938 197.498 495.032ZM193.336 493.944C193.785 494.058 194.238 494.164 194.685 494.279C195.387 494.207 196.091 494.126 196.793 494.058C196.344 493.973 195.892 493.898 195.443 493.816C194.743 493.853 194.039 493.903 193.336 493.944ZM189.384 492.966L189.942 493.104C190.313 493.079 190.682 493.06 191.053 493.036C190.891 493.009 190.732 492.978 190.57 492.95L189.384 492.966ZM1156.87 384.971L1154.63 386.909L1154.8 386.777C1155.61 386.096 1156.44 385.379 1157.26 384.689L1156.87 384.971ZM1169.81 373.682C1168.44 374.9 1167.06 376.135 1165.71 377.32L1167.03 376.363C1168.58 375.049 1170.13 373.726 1171.66 372.424C1171.04 372.853 1170.43 373.255 1169.81 373.682ZM1182.82 362.146C1180.7 364.023 1178.57 365.919 1176.45 367.792C1177.68 366.938 1178.92 366.057 1180.15 365.197C1182.15 363.468 1184.2 361.672 1186.23 359.894C1185.09 360.654 1183.96 361.391 1182.82 362.146ZM1196.14 350.275C1193.52 352.633 1190.94 354.924 1188.34 357.248C1189.67 356.359 1191 355.464 1192.33 354.567C1194.98 352.254 1197.64 349.932 1200.29 347.62C1198.9 348.505 1197.52 349.398 1196.14 350.275ZM1209.23 338.387C1206.4 340.963 1203.57 343.548 1200.75 346.087C1202.37 345.052 1203.97 344.036 1205.59 342.987C1208.41 340.503 1211.26 337.955 1214.11 335.403C1212.49 336.399 1210.86 337.402 1209.23 338.387ZM1223.02 325.847C1219.77 328.831 1216.57 331.71 1213.34 334.664C1215.07 333.603 1216.81 332.508 1218.55 331.433C1221.71 328.614 1224.87 325.788 1228.04 322.953C1226.36 323.93 1224.7 324.882 1223.02 325.847ZM1236.43 313.399C1233.08 316.518 1229.73 319.645 1226.42 322.698C1228.23 321.641 1230.04 320.605 1231.86 319.533C1235.22 316.505 1238.61 313.413 1242.01 310.31C1240.15 311.334 1238.29 312.389 1236.43 313.399ZM1250.53 300.316C1246.85 303.749 1243.24 307.072 1239.58 310.479C1241.47 309.437 1243.37 308.381 1245.27 307.325C1248.84 304.066 1252.42 300.799 1256.01 297.508C1254.18 298.458 1252.35 299.379 1250.53 300.316ZM1264.37 287.209C1260.63 290.763 1256.88 294.334 1253.2 297.799C1255.11 296.813 1257.02 295.836 1258.93 294.835C1262.65 291.408 1266.4 287.92 1270.16 284.414C1268.23 285.349 1266.3 286.287 1264.37 287.209ZM1278.65 273.661C1274.67 277.45 1270.73 281.161 1266.76 284.941C1268.73 283.992 1270.71 283.013 1272.69 282.051C1276.59 278.412 1280.5 274.765 1284.42 271.084C1282.5 271.943 1280.58 272.813 1278.65 273.661ZM216.385 505.356C217.331 505.76 218.275 506.167 219.218 506.577C221.127 505.977 223.036 505.382 224.945 504.791C223.961 504.443 222.972 504.103 221.984 503.76C220.117 504.288 218.252 504.817 216.385 505.356ZM212.139 503.59C213.069 503.972 214.001 504.347 214.927 504.736C216.726 504.213 218.524 503.699 220.323 503.186C219.364 502.859 218.406 502.531 217.445 502.212C215.678 502.667 213.908 503.125 212.139 503.59ZM207.895 501.883C208.797 502.239 209.698 502.595 210.598 502.958C212.286 502.511 213.974 502.066 215.661 501.628C214.731 501.324 213.805 501.013 212.872 500.717C211.215 501.099 209.556 501.492 207.895 501.883ZM203.655 500.232C204.519 500.56 205.377 500.902 206.239 501.235C207.808 500.863 209.38 500.484 210.948 500.119C210.052 499.838 209.154 499.561 208.255 499.288C206.723 499.599 205.189 499.915 203.655 500.232ZM199.361 498.647C200.192 498.949 201.021 499.258 201.85 499.566C203.309 499.261 204.766 498.967 206.223 498.668C205.36 498.412 204.493 498.17 203.627 497.921C202.205 498.16 200.786 498.396 199.361 498.647ZM195.127 497.149C195.902 497.418 196.679 497.681 197.452 497.957C198.76 497.722 200.069 497.494 201.374 497.271C200.569 497.044 199.762 496.823 198.955 496.603C197.681 496.778 196.402 496.966 195.127 497.149ZM190.917 495.717C191.619 495.95 192.323 496.18 193.024 496.418C194.158 496.252 195.292 496.086 196.425 495.924C195.72 495.737 195.021 495.542 194.314 495.36C193.182 495.478 192.05 495.593 190.917 495.717ZM186.772 494.368C187.353 494.552 187.929 494.747 188.509 494.933C189.462 494.825 190.413 494.728 191.364 494.628C190.758 494.478 190.153 494.324 189.545 494.177C188.622 494.237 187.696 494.302 186.772 494.368ZM182.704 493.13L184.023 493.53C184.718 493.476 185.414 493.422 186.109 493.371L184.784 493.069L182.704 493.13ZM178.838 492L179.47 492.176L180.528 492.137L179.941 492.016L178.838 492ZM1146.36 392.374C1144.98 393.608 1143.6 394.833 1142.23 396.044L1143.7 394.957C1145.13 393.727 1146.59 392.459 1148.03 391.213C1147.47 391.605 1146.92 391.983 1146.36 392.374ZM1159.34 380.793C1157.2 382.696 1155.06 384.617 1152.92 386.519C1153.96 385.784 1155.02 385.003 1156.06 384.262C1158.29 382.324 1160.49 380.441 1162.72 378.496C1161.59 379.264 1160.46 380.031 1159.34 380.793ZM1172.42 369.007C1170.03 371.189 1167.63 373.373 1165.26 375.505C1166.53 374.637 1167.79 373.801 1169.06 372.925C1171.53 370.751 1174.04 368.512 1176.54 366.291C1175.17 367.187 1173.79 368.121 1172.42 369.007ZM1185.98 356.674C1183.13 359.271 1180.29 361.856 1177.44 364.444C1178.98 363.436 1180.51 362.418 1182.05 361.399C1184.91 358.856 1187.74 356.363 1190.61 353.813C1189.05 354.789 1187.53 355.709 1185.98 356.674ZM1199.5 344.217C1196.38 347.118 1193.24 350.035 1190.16 352.865C1191.89 351.778 1193.64 350.635 1195.37 349.534C1198.41 346.801 1201.49 343.981 1204.57 341.179C1202.88 342.198 1201.19 343.21 1199.5 344.217ZM1213.28 331.451C1209.9 334.609 1206.56 337.674 1203.19 340.797C1204.96 339.737 1206.71 338.705 1208.48 337.631C1211.9 334.521 1215.3 331.451 1218.72 328.33C1216.91 329.368 1215.09 330.427 1213.28 331.451ZM1227.15 318.387C1223.59 321.752 1220.02 325.124 1216.5 328.421C1218.42 327.328 1220.34 326.202 1222.27 325.094C1225.7 321.937 1229.2 318.666 1232.69 315.419C1230.84 316.42 1228.99 317.398 1227.15 318.387ZM1241.23 305.057C1237.47 308.637 1233.75 312.156 1230.02 315.68C1231.91 314.663 1233.79 313.672 1235.68 312.64C1239.46 309.128 1243.22 305.649 1247.01 302.118C1245.09 303.098 1243.16 304.092 1241.23 305.057ZM1255.48 291.402C1251.56 295.171 1247.65 298.927 1243.76 302.633C1245.76 301.621 1247.77 300.579 1249.78 299.552C1253.56 296 1257.42 292.327 1261.26 288.674C1259.33 289.588 1257.41 290.501 1255.48 291.402ZM1269.9 277.467C1265.85 281.406 1261.81 285.325 1257.79 289.188C1259.74 288.272 1261.68 287.364 1263.62 286.436C1267.67 282.595 1271.69 278.795 1275.75 274.932C1273.8 275.788 1271.85 276.624 1269.9 277.467ZM208.86 507.564C209.793 508.035 210.726 508.503 211.656 508.982C213.604 508.357 215.553 507.74 217.502 507.123C216.538 506.706 215.575 506.286 214.607 505.879C212.692 506.437 210.778 506.998 208.86 507.564ZM204.806 505.545C205.722 505.992 206.634 506.447 207.545 506.903C209.404 506.35 211.262 505.809 213.119 505.266C212.168 504.872 211.215 504.48 210.26 504.092C208.443 504.573 206.625 505.054 204.806 505.545ZM200.745 503.589C201.637 504.01 202.523 504.445 203.412 504.874C205.178 504.394 206.943 503.928 208.709 503.462C207.771 503.087 206.828 502.725 205.887 502.358C204.174 502.765 202.46 503.172 200.745 503.589ZM196.659 501.709C197.533 502.105 198.408 502.505 199.278 502.911C200.929 502.506 202.581 502.106 204.23 501.712C203.315 501.361 202.397 501.02 201.48 500.678C199.875 501.014 198.267 501.363 196.659 501.709ZM192.557 499.885C193.412 500.258 194.269 500.623 195.121 501.003C196.643 500.674 198.165 500.339 199.685 500.016C198.814 499.697 197.945 499.374 197.072 499.062C195.567 499.334 194.064 499.606 192.557 499.885ZM188.469 498.131C189.276 498.468 190.079 498.812 190.881 499.155C192.296 498.891 193.706 498.638 195.118 498.383C194.284 498.092 193.454 497.796 192.617 497.513C191.236 497.714 189.854 497.918 188.469 498.131ZM184.413 496.462C185.162 496.762 185.903 497.076 186.648 497.382C187.917 497.183 189.186 496.982 190.454 496.792C189.67 496.532 188.884 496.277 188.097 496.024C186.871 496.165 185.641 496.315 184.413 496.462ZM180.302 494.861C180.994 495.126 181.686 495.392 182.375 495.663C183.498 495.525 184.62 495.396 185.739 495.263C185.024 495.039 184.302 494.829 183.585 494.611C182.492 494.692 181.399 494.77 180.302 494.861ZM176.323 493.375C176.914 493.59 177.507 493.795 178.096 494.015C179.004 493.935 179.915 493.847 180.821 493.773C180.221 493.596 179.619 493.426 179.017 493.252C178.121 493.287 177.221 493.334 176.323 493.375ZM172.419 491.971C172.858 492.123 173.293 492.283 173.732 492.438C174.413 492.403 175.093 492.378 175.775 492.344C175.339 492.226 174.909 492.098 174.472 491.98C173.787 491.979 173.106 491.968 172.419 491.971ZM168.731 490.731L169.353 490.941L170.387 490.926L169.793 490.773C169.441 490.758 169.085 490.746 168.731 490.731ZM1122.58 411.549C1121.23 412.758 1119.87 413.987 1118.54 415.172C1119.12 414.74 1119.71 414.287 1120.29 413.855C1121.67 412.661 1123.07 411.421 1124.46 410.204L1122.58 411.549ZM1135.55 399.909L1129.6 405.247C1130.55 404.561 1131.49 403.908 1132.44 403.217C1134.58 401.345 1136.71 399.488 1138.85 397.607C1137.75 398.367 1136.64 399.156 1135.55 399.909ZM1148.77 387.905C1146.45 390.036 1144.11 392.185 1141.81 394.272C1143.11 393.367 1144.4 392.466 1145.71 391.553C1148.04 389.486 1150.4 387.364 1152.76 385.26C1151.42 386.153 1150.1 387.022 1148.77 387.905ZM1162.46 375.398C1159.59 378.034 1156.76 380.604 1153.9 383.221C1155.48 382.159 1157.08 381.056 1158.67 379.983C1161.47 377.469 1164.25 374.998 1167.08 372.448C1165.53 373.445 1164 374.412 1162.46 375.398ZM1175.9 362.919C1172.85 365.762 1169.79 368.615 1166.77 371.408C1168.43 370.337 1170.07 369.293 1171.74 368.21C1174.84 365.403 1177.96 362.556 1181.08 359.712C1179.35 360.78 1177.62 361.865 1175.9 362.919ZM1189.77 349.976C1186.43 353.108 1183.14 356.175 1179.83 359.265C1181.64 358.143 1183.46 357.026 1185.28 355.888C1188.54 352.906 1191.81 349.89 1195.1 346.849C1193.32 347.903 1191.55 348.937 1189.77 349.976ZM1203.71 336.789C1200.15 340.166 1196.59 343.535 1193.06 346.865C1194.96 345.745 1196.88 344.569 1198.79 343.432C1202.31 340.178 1205.83 336.918 1209.36 333.637C1207.48 334.697 1205.59 335.744 1203.71 336.789ZM1217.79 323.366C1214.1 326.911 1210.42 330.431 1206.76 333.911C1208.69 332.826 1210.62 331.771 1212.56 330.67C1216.2 327.279 1219.88 323.784 1223.56 320.308C1221.64 321.33 1219.71 322.358 1217.79 323.366ZM1232.17 309.55C1228.25 313.328 1224.36 317.062 1220.46 320.802C1222.45 319.754 1224.44 318.668 1226.43 317.603C1230.3 313.948 1234.15 310.34 1238.05 306.635C1236.09 307.615 1234.13 308.585 1232.17 309.55ZM1246.59 295.522C1242.58 299.439 1238.58 303.365 1234.62 307.193C1236.59 306.217 1238.55 305.26 1240.51 304.271C1244.46 300.511 1248.45 296.673 1252.45 292.834C1250.49 293.744 1248.54 294.625 1246.59 295.522ZM1261.28 281.168C1257.07 285.3 1252.92 289.332 1248.74 293.422C1250.74 292.497 1252.75 291.559 1254.76 290.621C1258.87 286.662 1263 282.684 1267.15 278.66C1265.19 279.502 1263.23 280.338 1261.28 281.168ZM201.334 509.821C202.241 510.358 203.141 510.904 204.043 511.452C206.038 510.801 208.032 510.144 210.026 509.5C209.077 509.014 208.124 508.538 207.171 508.06C205.227 508.64 203.281 509.231 201.334 509.821ZM197.468 507.563C198.364 508.079 199.256 508.602 200.148 509.127C202.052 508.551 203.956 507.967 205.859 507.399C204.919 506.933 203.975 506.48 203.033 506.024C201.179 506.53 199.324 507.048 197.468 507.563ZM193.569 505.368C194.459 505.861 195.351 506.354 196.237 506.857C198.043 506.354 199.848 505.856 201.655 505.359C200.734 504.919 199.812 504.481 198.888 504.049C197.117 504.485 195.343 504.921 193.569 505.368ZM189.668 503.238C190.538 503.704 191.411 504.169 192.276 504.646C193.99 504.212 195.702 503.793 197.413 503.373C196.512 502.958 195.614 502.537 194.709 502.131C193.031 502.495 191.351 502.861 189.668 503.238ZM185.772 501.178C186.618 501.614 187.458 502.063 188.301 502.509C189.91 502.147 191.518 501.787 193.126 501.436C192.236 501.043 191.344 500.654 190.45 500.27C188.893 500.563 187.331 500.874 185.772 501.178ZM181.832 499.182C182.656 499.59 183.474 500.011 184.293 500.428C185.793 500.133 187.294 499.839 188.793 499.553C187.935 499.189 187.07 498.844 186.208 498.489C184.75 498.718 183.294 498.942 181.832 499.182ZM177.904 497.278C178.688 497.652 179.472 498.024 180.252 498.404C181.634 498.175 183.011 497.958 184.389 497.74C183.566 497.408 182.74 497.085 181.916 496.76C180.58 496.925 179.242 497.103 177.904 497.278ZM173.965 495.439C174.712 495.779 175.46 496.114 176.204 496.462C177.429 496.298 178.656 496.13 179.88 495.973C179.128 495.684 178.379 495.389 177.624 495.106C176.405 495.217 175.188 495.321 173.965 495.439ZM170.093 493.696C170.75 493.983 171.402 494.282 172.056 494.575C173.145 494.465 174.229 494.368 175.314 494.269C174.619 494.017 173.928 493.762 173.231 493.516C172.187 493.569 171.139 493.634 170.093 493.696ZM166.212 492.047C166.787 492.286 167.357 492.534 167.93 492.776C168.825 492.72 169.721 492.663 170.615 492.61C170.024 492.408 169.431 492.21 168.839 492.011C167.963 492.024 167.089 492.031 166.212 492.047ZM162.446 490.521C162.878 490.692 163.313 490.862 163.744 491.037C164.408 491.02 165.072 491.002 165.734 490.988C165.277 490.843 164.815 490.705 164.356 490.561C163.722 490.541 163.081 490.536 162.446 490.521ZM158.903 489.135C159.126 489.22 159.351 489.297 159.574 489.383C159.921 489.388 160.266 489.398 160.614 489.404C160.396 489.34 160.177 489.282 159.959 489.218C159.607 489.191 159.255 489.161 158.903 489.135ZM1098.49 431.178C1097.23 432.317 1095.95 433.477 1094.69 434.604C1095.18 434.233 1095.66 433.886 1096.15 433.514C1097.52 432.317 1098.92 431.073 1100.3 429.855C1099.7 430.292 1099.09 430.743 1098.49 431.178ZM1111.65 419.328C1109.79 421.013 1107.96 422.644 1106.1 424.32C1107.05 423.631 1107.98 422.956 1108.92 422.263C1110.86 420.554 1112.77 418.88 1114.71 417.163C1113.69 417.88 1112.66 418.614 1111.65 419.328ZM1125.05 407.064C1122.7 409.22 1120.35 411.389 1118.02 413.517C1119.33 412.586 1120.66 411.63 1121.98 410.689C1124.27 408.639 1126.6 406.543 1128.91 404.467C1127.61 405.348 1126.34 406.192 1125.05 407.064ZM1138.66 394.544C1135.84 397.164 1133.05 399.722 1130.24 402.306C1131.78 401.25 1133.35 400.158 1134.9 399.09C1137.68 396.577 1140.46 394.074 1143.27 391.52C1141.73 392.534 1140.19 393.544 1138.66 394.544ZM1152.1 382.012C1149.13 384.788 1146.15 387.569 1143.19 390.319C1144.84 389.233 1146.47 388.18 1148.12 387.08C1151.17 384.299 1154.24 381.494 1157.3 378.692C1155.57 379.788 1153.82 380.931 1152.1 382.012ZM1166.08 368.864C1162.81 371.965 1159.54 375.049 1156.31 378.09C1158.13 376.936 1159.96 375.76 1161.79 374.589C1164.95 371.678 1168.14 368.699 1171.34 365.722C1169.58 366.793 1167.84 367.809 1166.08 368.864ZM1180.12 355.556C1176.58 358.921 1173.06 362.251 1169.54 365.589C1171.42 364.449 1173.31 363.287 1175.2 362.128C1178.74 358.839 1182.24 355.601 1185.79 352.275C1183.9 353.374 1182.01 354.473 1180.12 355.556ZM1194.21 342.031C1190.58 345.54 1186.93 349.064 1183.34 352.496C1185.25 351.391 1187.16 350.3 1189.08 349.179C1192.68 345.793 1196.32 342.335 1199.96 338.882C1198.04 339.94 1196.12 340.988 1194.21 342.031ZM1208.65 328.1C1204.73 331.902 1200.87 335.613 1196.98 339.364C1198.98 338.269 1201 337.119 1203 336.005C1206.82 332.384 1210.63 328.763 1214.48 325.083C1212.53 326.096 1210.59 327.102 1208.65 328.1ZM1223.1 313.981C1219.1 317.893 1215.12 321.795 1211.17 325.639C1213.14 324.618 1215.11 323.612 1217.09 322.574C1221.05 318.783 1225.02 314.966 1229 311.12C1227.03 312.085 1225.06 313.029 1223.1 313.981ZM1237.75 299.561C1233.6 303.665 1229.48 307.724 1225.37 311.759C1227.39 310.774 1229.43 309.763 1231.45 308.763C1235.52 304.836 1239.62 300.842 1243.72 296.831C1241.73 297.739 1239.74 298.667 1237.75 299.561ZM1252.64 284.8C1248.35 289.067 1244.1 293.279 1239.84 297.489C1241.85 296.579 1243.86 295.655 1245.87 294.731C1250.13 290.581 1254.35 286.48 1258.63 282.282C1256.63 283.125 1254.63 283.969 1252.64 284.8ZM193.773 512.127C194.653 512.735 195.531 513.347 196.406 513.964C198.442 513.288 200.476 512.619 202.509 511.953C201.586 511.4 200.663 510.848 199.736 510.304C197.749 510.906 195.762 511.512 193.773 512.127ZM190.098 509.636C190.975 510.223 191.857 510.802 192.729 511.399C194.671 510.798 196.611 510.202 198.551 509.612C197.639 509.08 196.73 508.543 195.813 508.022C193.909 508.554 192.004 509.092 190.098 509.636ZM186.408 507.204C187.275 507.765 188.141 508.329 189.003 508.901C190.856 508.371 192.709 507.842 194.561 507.322C193.654 506.811 192.748 506.3 191.838 505.8C190.03 506.259 188.218 506.735 186.408 507.204ZM182.697 504.827C183.552 505.362 184.4 505.913 185.25 506.459C187.016 505.998 188.782 505.54 190.546 505.088C189.651 504.602 188.752 504.128 187.853 503.652C186.136 504.038 184.418 504.427 182.697 504.827ZM178.959 502.534C179.795 503.04 180.63 503.553 181.463 504.069C183.14 503.677 184.814 503.301 186.487 502.923C185.604 502.46 184.715 502.009 183.828 501.557C182.206 501.875 180.584 502.203 178.959 502.534ZM175.203 500.31C176.03 500.792 176.858 501.268 177.682 501.76C179.238 501.438 180.796 501.116 182.349 500.807C181.494 500.376 180.639 499.945 179.779 499.524C178.256 499.781 176.729 500.044 175.203 500.31ZM171.435 498.156C172.234 498.604 173.034 499.051 173.829 499.508C175.283 499.252 176.735 499.006 178.188 498.76C177.363 498.361 176.54 497.959 175.711 497.569C174.287 497.76 172.862 497.953 171.435 498.156ZM167.69 496.086C168.447 496.493 169.197 496.916 169.95 497.332C171.286 497.139 172.621 496.945 173.954 496.761C173.156 496.394 172.357 496.033 171.554 495.674C170.269 495.806 168.98 495.947 167.69 496.086ZM163.893 494.096C164.608 494.465 165.32 494.841 166.031 495.217C167.246 495.081 168.458 494.958 169.671 494.829C168.918 494.499 168.157 494.185 167.401 493.864C166.232 493.937 165.065 494.012 163.893 494.096ZM160.137 492.21C160.795 492.535 161.455 492.853 162.11 493.184C163.152 493.104 164.199 493.015 165.239 492.943C164.562 492.663 163.882 492.39 163.203 492.115C162.182 492.143 161.161 492.176 160.137 492.21ZM156.426 490.418C156.988 490.683 157.552 490.944 158.111 491.212C158.984 491.177 159.852 491.158 160.722 491.131C160.147 490.905 159.577 490.67 159 490.449C158.143 490.436 157.286 490.424 156.426 490.418ZM152.835 488.76C153.256 488.947 153.672 489.148 154.091 489.339C154.725 489.34 155.361 489.338 155.994 489.342C155.563 489.184 155.135 489.021 154.704 488.866C154.08 488.829 153.459 488.793 152.835 488.76ZM149.345 487.243L149.991 487.521C150.31 487.535 150.632 487.543 150.95 487.558L150.288 487.333C149.975 487.299 149.659 487.276 149.345 487.243ZM1074.18 451.193C1073.14 452.131 1072.09 453.085 1071.05 454.022C1071.5 453.675 1071.95 453.337 1072.41 452.987C1073.53 452.003 1074.67 450.988 1075.79 449.995C1075.26 450.387 1074.71 450.803 1074.18 451.193ZM1087.82 438.833C1086.02 440.482 1084.24 442.1 1082.45 443.723C1083.35 443.051 1084.26 442.372 1085.17 441.695C1087.03 440.042 1088.85 438.453 1090.73 436.78C1089.75 437.479 1088.79 438.14 1087.82 438.833ZM1101.18 426.55C1098.79 428.751 1096.38 430.968 1093.98 433.166C1095.29 432.227 1096.63 431.227 1097.94 430.28C1100.29 428.171 1102.65 426.032 1105 423.914C1103.73 424.799 1102.46 425.673 1101.18 426.55ZM1114.62 414.097C1111.99 416.556 1109.35 419.021 1106.76 421.427C1108.19 420.426 1109.61 419.475 1111.05 418.464C1113.76 416.003 1116.49 413.497 1119.24 410.983C1117.7 412.015 1116.15 413.077 1114.62 414.097ZM1128.4 401.217C1125.41 404.025 1122.44 406.789 1119.45 409.578C1121.1 408.468 1122.76 407.358 1124.41 406.233C1127.4 403.496 1130.37 400.784 1133.36 398.025C1131.7 399.1 1130.05 400.156 1128.4 401.217ZM1142.27 388.083C1139.02 391.175 1135.76 394.278 1132.55 397.31C1134.36 396.138 1136.19 394.91 1138.01 393.723C1141.16 390.801 1144.35 387.811 1147.54 384.832C1145.77 385.932 1144.02 387 1142.27 388.083ZM1156.32 374.704C1152.84 378.037 1149.4 381.302 1145.95 384.59C1147.78 383.45 1149.59 382.359 1151.43 381.203C1154.93 377.927 1158.42 374.664 1161.95 371.337C1160.07 372.456 1158.19 373.601 1156.32 374.704ZM1170.52 361.014C1166.87 364.536 1163.23 368.05 1159.62 371.521C1161.54 370.379 1163.47 369.226 1165.4 368.065C1168.98 364.678 1172.58 361.26 1176.19 357.829C1174.29 358.911 1172.41 359.948 1170.52 361.014ZM1184.9 347.047C1181.06 350.795 1177.24 354.52 1173.44 358.198C1175.43 357.07 1177.43 355.906 1179.43 354.76C1183.18 351.183 1186.96 347.544 1190.75 343.892C1188.8 344.95 1186.85 346.006 1184.9 347.047ZM1199.48 332.777C1195.49 336.696 1191.52 340.567 1187.56 344.445C1189.54 343.378 1191.52 342.323 1193.51 341.238C1197.47 337.421 1201.41 333.645 1205.4 329.783C1203.43 330.794 1201.46 331.782 1199.48 332.777ZM1214.12 318.28C1210.03 322.354 1205.92 326.447 1201.88 330.43C1203.9 329.407 1205.92 328.349 1207.94 327.309C1211.97 323.4 1216.04 319.401 1220.11 315.408C1218.12 316.367 1216.12 317.337 1214.12 318.28ZM1229.08 303.402C1224.81 307.677 1220.58 311.866 1216.33 316.088C1218.35 315.127 1220.37 314.162 1222.39 313.186C1226.59 309.068 1230.78 304.958 1235.02 300.778C1233.04 301.663 1231.06 302.53 1229.08 303.402ZM1244.08 288.315C1239.72 292.718 1235.37 297.102 1231.05 301.422C1233.05 300.536 1235.04 299.669 1237.04 298.771C1241.34 294.515 1245.67 290.223 1250.02 285.895C1248.04 286.714 1246.06 287.507 1244.08 288.315ZM186.196 514.494C187.048 515.173 187.899 515.85 188.747 516.538C190.81 515.839 192.871 515.147 194.934 514.459C194.044 513.834 193.158 513.209 192.265 512.598C190.242 513.225 188.219 513.854 186.196 514.494ZM182.716 511.758C183.562 512.412 184.405 513.074 185.245 513.738C187.232 513.109 189.216 512.493 191.2 511.877C190.312 511.275 189.422 510.68 188.529 510.086C186.593 510.638 184.655 511.19 182.716 511.758ZM179.233 509.092C180.068 509.718 180.895 510.364 181.726 511.001C183.63 510.442 185.531 509.896 187.434 509.351C186.548 508.767 185.655 508.201 184.764 507.629C182.922 508.109 181.077 508.599 179.233 509.092ZM175.694 506.494C176.529 507.101 177.362 507.711 178.192 508.327C179.997 507.841 181.803 507.356 183.606 506.884C182.732 506.327 181.854 505.776 180.973 505.228C179.215 505.644 177.455 506.069 175.694 506.494ZM172.126 503.953C172.959 504.538 173.795 505.115 174.624 505.71C176.335 505.295 178.044 504.887 179.752 504.479C178.894 503.953 178.04 503.419 177.177 502.903C175.494 503.248 173.812 503.592 172.126 503.953ZM168.574 501.5C169.383 502.048 170.191 502.602 170.995 503.161C172.621 502.81 174.244 502.471 175.865 502.135C175.012 501.63 174.158 501.131 173.301 500.636C171.728 500.916 170.151 501.21 168.574 501.5ZM164.99 499.106C165.784 499.623 166.568 500.16 167.357 500.687C168.878 500.405 170.401 500.117 171.92 499.843C171.089 499.371 170.252 498.914 169.417 498.454C167.942 498.668 166.469 498.878 164.99 499.106ZM161.377 496.811C162.143 497.291 162.908 497.777 163.671 498.268C165.094 498.046 166.514 497.839 167.933 497.63C167.118 497.188 166.296 496.755 165.476 496.322C164.113 496.475 162.744 496.645 161.377 496.811ZM157.734 494.58C158.485 495.031 159.241 495.473 159.987 495.935C161.272 495.775 162.558 495.613 163.839 495.463C163.076 495.067 162.313 494.668 161.545 494.28C160.276 494.378 159.008 494.47 157.734 494.58ZM154.14 492.458C154.833 492.857 155.523 493.258 156.212 493.665C157.379 493.56 158.543 493.465 159.707 493.373C158.978 493.012 158.251 492.645 157.518 492.292C156.396 492.338 155.267 492.404 154.14 492.458ZM150.527 490.41C151.161 490.76 151.789 491.127 152.421 491.483C153.44 491.429 154.457 491.382 155.474 491.333C154.814 491.024 154.152 490.717 153.489 490.415C152.501 490.413 151.518 490.402 150.527 490.41ZM146.957 488.504C147.503 488.791 148.047 489.081 148.59 489.374C149.43 489.362 150.271 489.342 151.107 489.336C150.533 489.082 149.953 488.839 149.376 488.59C148.571 488.557 147.764 488.531 146.957 488.504ZM143.436 486.696C143.864 486.91 144.294 487.117 144.721 487.334C145.357 487.352 145.986 487.381 146.62 487.402C146.168 487.215 145.711 487.041 145.258 486.857C144.651 486.803 144.045 486.745 143.436 486.696ZM140.225 485.101C140.43 485.199 140.63 485.305 140.836 485.404L141.787 485.471C141.583 485.393 141.381 485.307 141.178 485.229L140.225 485.101ZM1050.34 470.95L1047.19 473.804L1048.36 472.9C1049.42 471.955 1050.5 470.992 1051.57 470.047C1051.16 470.354 1050.75 470.644 1050.34 470.95ZM1063.7 458.748C1061.92 460.388 1060.12 462.046 1058.36 463.658C1059.3 462.954 1060.26 462.213 1061.2 461.505C1062.97 459.919 1064.76 458.31 1066.55 456.694C1065.59 457.386 1064.65 458.062 1063.7 458.748ZM1077.17 446.348C1074.83 448.514 1072.53 450.611 1070.21 452.758C1071.36 451.915 1072.49 451.124 1073.65 450.273C1076.08 448.078 1078.5 445.898 1080.94 443.691C1079.68 444.574 1078.42 445.473 1077.17 446.348ZM1090.45 433.941C1087.91 436.317 1085.37 438.709 1082.85 441.056C1084.31 440.018 1085.77 438.999 1087.24 437.951C1089.81 435.606 1092.41 433.202 1095 430.816C1093.49 431.849 1091.96 432.92 1090.45 433.941ZM1104.46 420.787C1101.48 423.605 1098.53 426.375 1095.57 429.148C1097.23 428.018 1098.9 426.85 1100.56 425.704C1103.47 423.018 1106.37 420.358 1109.3 417.634C1107.68 418.706 1106.08 419.725 1104.46 420.787ZM1118.34 407.595C1115.09 410.685 1111.85 413.772 1108.62 416.831C1110.39 415.66 1112.18 414.466 1113.96 413.278C1117.17 410.288 1120.4 407.263 1123.63 404.24C1121.86 405.365 1120.1 406.485 1118.34 407.595ZM1132.27 394.24C1128.91 397.476 1125.56 400.711 1122.25 403.879C1124.08 402.714 1125.9 401.577 1127.74 400.395C1131.11 397.228 1134.51 393.999 1137.92 390.763C1136.04 391.912 1134.14 393.107 1132.27 394.24ZM1146.73 380.288C1143.05 383.853 1139.42 387.342 1135.76 390.868C1137.7 389.688 1139.65 388.472 1141.59 387.274C1145.19 383.859 1148.76 380.486 1152.37 377.032C1150.48 378.14 1148.61 379.197 1146.73 380.288ZM1161.01 366.319C1157.24 370.019 1153.47 373.728 1149.74 377.354C1151.7 376.212 1153.66 375.073 1155.62 373.913C1159.35 370.337 1163.13 366.68 1166.9 363.03C1164.94 364.128 1162.97 365.24 1161.01 366.319ZM1175.66 351.934C1171.69 355.85 1167.76 359.705 1163.83 363.561C1165.83 362.452 1167.82 361.343 1169.82 360.217C1173.71 356.456 1177.6 352.686 1181.53 348.862C1179.56 349.904 1177.61 350.908 1175.66 351.934ZM1190.36 337.337C1186.26 341.42 1182.17 345.48 1178.11 349.501C1180.13 348.436 1182.16 347.344 1184.19 346.261C1188.23 342.312 1192.29 338.337 1196.37 334.331C1194.37 335.335 1192.36 336.349 1190.36 337.337ZM1205.28 322.41C1201.07 326.645 1196.86 330.87 1192.69 335.024C1194.72 334.017 1196.74 333.008 1198.77 331.984C1202.89 327.931 1207.06 323.796 1211.23 319.657C1209.24 320.591 1207.26 321.489 1205.28 322.41ZM1220.39 307.212C1216.02 311.628 1211.69 315.963 1207.35 320.325C1209.37 319.384 1211.39 318.447 1213.41 317.488C1217.74 313.193 1222.04 308.945 1226.4 304.59C1224.39 305.47 1222.39 306.346 1220.39 307.212ZM1235.55 291.775C1231.11 296.314 1226.66 300.865 1222.28 305.301C1224.3 304.419 1226.34 303.504 1228.37 302.61C1232.72 298.252 1237.13 293.802 1241.54 289.349C1239.55 290.16 1237.55 290.974 1235.55 291.775ZM178.613 516.925C179.426 517.669 180.235 518.424 181.043 519.18C183.136 518.458 185.229 517.731 187.321 517.016C186.461 516.32 185.595 515.638 184.73 514.952C182.692 515.602 180.653 516.267 178.613 516.925ZM175.328 513.954C176.139 514.676 176.945 515.413 177.751 516.146C179.763 515.496 181.774 514.843 183.785 514.201C182.93 513.528 182.069 512.867 181.21 512.206C179.25 512.785 177.29 513.365 175.328 513.954ZM171.999 511.05C172.815 511.751 173.628 512.455 174.436 513.169C176.366 512.588 178.293 512.017 180.221 511.449C179.371 510.8 178.52 510.153 177.665 509.516C175.778 510.022 173.89 510.529 171.999 511.05ZM168.669 508.223C169.477 508.899 170.286 509.57 171.089 510.256C172.936 509.746 174.78 509.247 176.624 508.75C175.776 508.125 174.931 507.495 174.079 506.882C172.277 507.32 170.473 507.772 168.669 508.223ZM165.306 505.452C166.11 506.102 166.909 506.76 167.707 507.422C169.466 506.98 171.226 506.534 172.982 506.103C172.14 505.504 171.294 504.911 170.446 504.322C168.734 504.694 167.021 505.068 165.306 505.452ZM161.931 502.759C162.72 503.376 163.5 504.008 164.285 504.637C165.965 504.259 167.641 503.894 169.318 503.53C168.48 502.954 167.633 502.396 166.791 501.831C165.174 502.134 163.553 502.442 161.931 502.759ZM158.507 500.148C159.291 500.738 160.075 501.332 160.854 501.933C162.429 501.623 164.003 501.313 165.575 501.016C164.753 500.474 163.929 499.935 163.101 499.402C161.572 499.645 160.04 499.895 158.507 500.148ZM155.063 497.609C155.835 498.168 156.609 498.719 157.377 499.289C158.851 499.042 160.323 498.808 161.794 498.572C160.996 498.065 160.2 497.549 159.397 497.052C157.955 497.231 156.51 497.416 155.063 497.609ZM151.62 495.155C152.366 495.674 153.108 496.201 153.848 496.729C155.217 496.543 156.587 496.356 157.953 496.183C157.173 495.709 156.397 495.237 155.614 494.774C154.283 494.898 152.953 495.023 151.62 495.155ZM148.167 492.79C148.873 493.261 149.571 493.751 150.274 494.232C151.544 494.102 152.81 493.987 154.076 493.869C153.32 493.43 152.556 493.005 151.795 492.574C150.588 492.639 149.378 492.713 148.167 492.79ZM144.669 490.518C145.347 490.951 146.023 491.388 146.697 491.83C147.825 491.754 148.956 491.668 150.08 491.602C149.376 491.211 148.664 490.838 147.956 490.457C146.86 490.476 145.768 490.491 144.669 490.518ZM141.207 488.356C141.825 488.733 142.449 489.1 143.064 489.485C144.05 489.455 145.031 489.439 146.013 489.422C145.36 489.079 144.708 488.736 144.052 488.4C143.107 488.376 142.154 488.372 141.207 488.356ZM137.772 486.291C138.31 486.605 138.846 486.925 139.381 487.246C140.189 487.254 140.994 487.266 141.799 487.278C141.252 487.007 140.709 486.727 140.16 486.462C139.363 486.407 138.571 486.34 137.772 486.291ZM134.448 484.399C134.847 484.621 135.243 484.852 135.641 485.077C136.221 485.108 136.807 485.127 137.387 485.162C136.97 484.969 136.554 484.774 136.138 484.584C135.576 484.518 135.011 484.461 134.448 484.399ZM131.186 482.633L131.844 482.983C132.149 483.012 132.449 483.051 132.755 483.083L132.072 482.79C131.775 482.741 131.482 482.683 131.186 482.633ZM1026.42 490.954C1025.25 492.017 1024.12 493.029 1022.97 494.081L1023.73 493.484L1027.44 490.186L1026.42 490.954ZM1039.44 478.962C1037.66 480.6 1035.86 482.259 1034.08 483.895C1034.94 483.247 1035.78 482.62 1036.63 481.968C1038.46 480.321 1040.32 478.625 1042.17 476.956C1041.26 477.624 1040.35 478.301 1039.44 478.962ZM1052.74 466.645C1050.64 468.605 1048.56 470.555 1046.48 472.476C1047.62 471.641 1048.73 470.832 1049.87 469.989C1052.14 467.925 1054.38 465.904 1056.67 463.812C1055.37 464.742 1054.04 465.725 1052.74 466.645ZM1066.51 453.756C1063.93 456.179 1061.35 458.593 1058.76 461.007C1060.22 459.961 1061.69 458.898 1063.16 457.84C1065.65 455.547 1068.17 453.223 1070.67 450.921C1069.27 451.89 1067.91 452.795 1066.51 453.756ZM1080.31 440.698C1077.38 443.494 1074.43 446.308 1071.53 449.043C1073.2 447.884 1074.91 446.649 1076.59 445.475C1079.42 442.846 1082.29 440.155 1085.16 437.466C1083.54 438.556 1081.93 439.621 1080.31 440.698ZM1094.29 427.398C1091.09 430.466 1087.93 433.45 1084.75 436.482C1086.45 435.336 1088.13 434.247 1089.84 433.086C1093.11 430.03 1096.34 427.02 1099.62 423.93C1097.85 425.082 1096.06 426.262 1094.29 427.398ZM1108.3 413.884C1104.94 417.131 1101.58 420.38 1098.26 423.574C1100.11 422.375 1101.96 421.174 1103.81 419.958C1107.11 416.84 1110.45 413.659 1113.78 410.486C1111.95 411.631 1110.12 412.756 1108.3 413.884ZM1122.66 399.948C1119.03 403.498 1115.41 407.011 1111.81 410.498C1113.75 409.287 1115.73 408.005 1117.68 406.775C1121.22 403.401 1124.76 400.011 1128.33 396.577C1126.44 397.718 1124.55 398.825 1122.66 399.948ZM1137.04 385.875C1133.29 389.559 1129.55 393.218 1125.82 396.862C1127.75 395.705 1129.66 394.596 1131.6 393.421C1135.38 389.788 1139.16 386.137 1142.96 382.462C1140.99 383.595 1139 384.761 1137.04 385.875ZM1151.68 371.408C1147.78 375.282 1143.87 379.172 1140.02 382.963C1142.02 381.818 1144.03 380.652 1146.04 379.488C1149.83 375.806 1153.68 372.029 1157.52 368.264C1155.56 369.336 1153.63 370.353 1151.68 371.408ZM1166.48 356.699C1162.38 360.796 1158.33 364.801 1154.26 368.842C1156.28 367.744 1158.3 366.638 1160.32 365.521C1164.38 361.546 1168.41 357.603 1172.5 353.571C1170.5 354.615 1168.48 355.673 1166.48 356.699ZM1181.38 341.72C1177.19 345.94 1173.01 350.161 1168.87 354.301C1170.89 353.254 1172.92 352.203 1174.95 351.138C1179.05 347.092 1183.19 342.972 1187.33 338.849C1185.34 339.827 1183.36 340.758 1181.38 341.72ZM1196.44 326.498C1192.12 330.879 1187.83 335.225 1183.56 339.532C1185.59 338.543 1187.62 337.549 1189.65 336.543C1193.91 332.301 1198.2 328.016 1202.5 323.696C1200.48 324.627 1198.45 325.581 1196.44 326.498ZM1211.74 310.914C1207.29 315.459 1202.86 319.966 1198.45 324.445C1200.49 323.514 1202.53 322.558 1204.57 321.611C1208.96 317.21 1213.35 312.796 1217.77 308.333C1215.76 309.197 1213.75 310.062 1211.74 310.914ZM1227.12 295.107C1222.6 299.771 1218.07 304.447 1213.61 309.012C1215.63 308.149 1217.65 307.29 1219.68 306.414C1224.11 301.933 1228.61 297.33 1233.1 292.743C1231.11 293.535 1229.11 294.325 1227.12 295.107ZM1211.04 310.111C1215.56 305.491 1220.13 300.773 1224.71 296.06C1039.82 368.211 857.726 393.085 675.841 417.93C565.391 433.018 455.019 448.1 344.155 473.756C440.507 455.027 536.095 445.029 632.239 434.976C819.792 415.363 1009.47 395.514 1211.04 310.111ZM1195.74 325.69C1200.19 321.177 1204.67 316.605 1209.17 312.015C1008.28 396.679 819.182 416.447 632.198 436C530.821 446.601 430.064 457.147 328.389 477.935C417.741 463.152 506.007 457.001 595.117 450.799C785.237 437.568 979.201 424.076 1195.74 325.69ZM1065.95 452.867C1069.04 449.954 1072.16 447.018 1075.29 444.049C752.221 657.397 571.376 597.273 401.55 540.744C352.583 524.446 304.53 508.459 254.235 499.442M170.994 519.412C171.769 520.224 172.54 521.046 173.309 521.87C175.429 521.124 177.549 520.389 179.669 519.654C178.847 518.891 178.025 518.132 177.199 517.381C175.132 518.052 173.063 518.728 170.994 519.412ZM167.895 516.218C168.674 517.012 169.454 517.802 170.227 518.607C172.264 517.933 174.302 517.264 176.338 516.602C175.519 515.861 174.702 515.116 173.876 514.387C171.884 514.989 169.889 515.604 167.895 516.218ZM164.77 513.082C165.549 513.854 166.329 514.624 167.104 515.408C169.061 514.804 171.02 514.196 172.975 513.603C172.158 512.886 171.341 512.17 170.52 511.466C168.605 512 166.688 512.536 164.77 513.082ZM161.627 510.014C162.402 510.756 163.171 511.51 163.942 512.266C165.829 511.728 167.715 511.201 169.6 510.675C168.78 509.978 167.953 509.297 167.127 508.611C165.295 509.072 163.463 509.537 161.627 510.014ZM158.459 507.022C159.23 507.737 159.994 508.467 160.76 509.196C162.565 508.726 164.367 508.264 166.168 507.809C165.345 507.135 164.519 506.471 163.692 505.807C161.95 506.203 160.204 506.615 158.459 507.022ZM155.233 504.093C156.009 504.789 156.784 505.483 157.555 506.191C159.264 505.79 160.973 505.387 162.678 504.997C161.873 504.358 161.068 503.718 160.258 503.092C158.585 503.42 156.912 503.748 155.233 504.093ZM152.015 501.261C152.778 501.922 153.542 502.577 154.299 503.249C155.926 502.912 157.549 502.59 159.173 502.267C158.37 501.653 157.571 501.033 156.762 500.43C155.183 500.698 153.598 500.981 152.015 501.261ZM148.749 498.48C149.505 499.111 150.257 499.753 151.01 500.395C152.542 500.122 154.075 499.844 155.604 499.583C154.815 499.002 154.022 498.43 153.228 497.861C151.736 498.063 150.245 498.261 148.749 498.48ZM145.49 495.811C146.222 496.397 146.946 497.002 147.672 497.598C149.123 497.383 150.569 497.181 152.014 496.983C151.225 496.426 150.427 495.89 149.632 495.346C148.256 495.489 146.872 495.655 145.49 495.811ZM142.157 493.207C142.882 493.765 143.606 494.323 144.326 494.892C145.657 494.737 146.987 494.586 148.316 494.441C147.562 493.932 146.807 493.43 146.048 492.932C144.753 493.019 143.458 493.106 142.157 493.207ZM138.845 490.716C139.54 491.228 140.24 491.733 140.93 492.255C142.146 492.156 143.36 492.061 144.57 491.974C143.849 491.509 143.133 491.034 142.407 490.579C141.223 490.617 140.034 490.667 138.845 490.716ZM135.522 488.307C136.171 488.765 136.816 489.233 137.461 489.7C138.562 489.649 139.658 489.614 140.756 489.573C140.072 489.153 139.387 488.731 138.699 488.319C137.642 488.309 136.583 488.306 135.522 488.307ZM132.2 486.013C132.794 486.413 133.383 486.83 133.974 487.238C134.923 487.232 135.876 487.214 136.824 487.216C136.201 486.853 135.573 486.501 134.947 486.146C134.031 486.101 133.118 486.051 132.2 486.013ZM128.892 483.847C129.403 484.176 129.915 484.504 130.424 484.839C131.228 484.866 132.028 484.905 132.829 484.943C132.263 484.631 131.688 484.339 131.12 484.034C130.381 483.962 129.633 483.912 128.892 483.847ZM125.646 481.803C126.059 482.056 126.479 482.297 126.889 482.554C127.464 482.6 128.035 482.651 128.606 482.698C128.19 482.483 127.77 482.272 127.35 482.058C126.781 481.977 126.217 481.882 125.646 481.803ZM122.648 479.993C122.845 480.107 123.037 480.23 123.231 480.345C123.513 480.381 123.797 480.412 124.079 480.448C123.877 480.352 123.679 480.248 123.477 480.152L122.648 479.993ZM1248.68 276.834C1246.69 277.558 1244.71 278.291 1242.72 279.006C1238.05 283.855 1233.45 288.576 1228.83 293.342C1230.83 292.552 1232.84 291.768 1234.85 290.965C1239.45 286.266 1244.03 281.607 1248.68 276.834ZM1256.91 273.811C1254.94 274.543 1252.96 275.268 1250.99 275.992C1246.4 280.71 1241.86 285.331 1237.31 289.982C1239.33 289.169 1241.35 288.335 1243.37 287.512C1247.87 282.968 1252.37 278.423 1256.91 273.811ZM1265.2 270.703C1263.23 271.449 1261.26 272.184 1259.29 272.919C1254.81 277.474 1250.35 281.992 1245.91 286.478C1247.91 285.655 1249.92 284.833 1251.93 283.998C1256.32 279.616 1260.76 275.159 1265.2 270.703ZM1273.55 267.509C1271.57 268.272 1269.59 269.045 1267.61 269.799C1263.25 274.176 1258.87 278.59 1254.56 282.894C1256.56 282.057 1258.56 281.218 1260.57 280.368C1264.86 276.149 1269.22 271.804 1273.55 267.509ZM1281.94 264.252C1279.97 265.025 1278 265.788 1276.03 266.551C1271.74 270.806 1267.45 275.083 1263.2 279.26C1265.2 278.411 1267.19 277.533 1269.19 276.672C1273.42 272.567 1277.66 268.436 1281.94 264.252ZM1290.3 260.939C1288.38 261.708 1286.45 262.467 1284.53 263.228C1280.3 267.364 1276.13 271.415 1271.95 275.477C1273.94 274.612 1275.93 273.755 1277.92 272.879C1282.01 268.973 1286.17 264.922 1290.3 260.939ZM1298.8 257.501C1296.85 258.298 1294.89 259.105 1292.93 259.893C1288.92 263.766 1284.84 267.758 1280.87 271.562C1282.81 270.7 1284.76 269.832 1286.7 268.958C1290.71 265.191 1294.75 261.342 1298.8 257.501ZM1307.33 254.003C1305.39 254.807 1303.45 255.602 1301.52 256.396C1297.58 260.138 1293.61 263.943 1289.71 267.614C1291.65 266.737 1293.59 265.836 1295.53 264.946C1299.45 261.33 1303.37 257.691 1307.33 254.003ZM1315.91 250.41C1313.99 251.223 1312.07 252.021 1310.15 252.823C1306.32 256.4 1302.49 259.984 1298.69 263.494C1300.59 262.617 1302.49 261.755 1304.39 260.868C1308.23 257.392 1312.04 253.953 1315.91 250.41ZM1324.56 246.703C1322.65 247.529 1320.74 248.359 1318.82 249.175C1315.11 252.58 1311.42 255.942 1307.74 259.282C1309.63 258.392 1311.53 257.494 1313.42 256.592C1317.14 253.289 1320.81 250.068 1324.56 246.703ZM1333.13 242.979C1331.28 243.792 1329.43 244.602 1327.58 245.405C1323.98 248.64 1320.43 251.787 1316.86 254.962C1318.74 254.062 1320.62 253.137 1322.49 252.227C1326.04 249.145 1329.56 246.112 1333.13 242.979ZM1341.71 239.189C1339.95 239.977 1338.18 240.746 1336.42 241.524C1332.98 244.552 1329.6 247.453 1326.18 250.429C1327.98 249.545 1329.78 248.678 1331.59 247.785C1334.95 244.936 1338.32 242.085 1341.71 239.189ZM1350.38 235.258C1348.65 236.043 1346.93 236.829 1345.21 237.606C1341.98 240.371 1338.8 243.045 1335.59 245.773C1337.36 244.89 1339.13 244.002 1340.9 243.108C1344.04 240.522 1347.21 237.888 1350.38 235.258ZM1359.03 231.273C1357.37 232.045 1355.71 232.824 1354.05 233.589C1351.06 236.08 1348.1 238.525 1345.12 240.983C1346.84 240.107 1348.56 239.202 1350.28 238.316C1353.18 236.008 1356.11 233.621 1359.03 231.273ZM1367.63 227.256C1366.09 227.981 1364.56 228.69 1363.02 229.409C1360.33 231.584 1357.65 233.75 1354.97 235.896C1356.51 235.092 1358.06 234.293 1359.61 233.481C1362.27 231.436 1364.95 229.332 1367.63 227.256ZM1376.29 223.1C1374.88 223.78 1373.47 224.454 1372.06 225.129C1369.74 226.941 1367.41 228.775 1365.09 230.566C1366.4 229.868 1367.72 229.175 1369.03 228.472C1371.45 226.687 1373.86 224.91 1376.29 223.1ZM1384.65 219.028C1383.48 219.6 1382.32 220.179 1381.16 220.747C1379.31 222.129 1377.45 223.549 1375.62 224.916C1376.6 224.383 1377.58 223.84 1378.57 223.303C1380.6 221.876 1382.61 220.471 1384.65 219.028ZM1392.26 215.274C1391.64 215.583 1391.02 215.884 1390.41 216.19C1389.21 217.049 1388 217.931 1386.8 218.782C1387.26 218.526 1387.72 218.262 1388.18 218.006L1392.26 215.274ZM183.771 523.537C181.547 524.352 179.324 525.17 177.099 525.996C201.556 553.038 223.587 585.671 246.033 618.937C289.705 683.663 334.972 750.751 402.823 783.287C502.292 830.985 650.536 804.413 913.879 587.538C659.375 789.596 514.06 809.499 413.742 760.924C349.142 729.643 303.269 669.984 258.908 612.29C234.373 580.379 210.295 549.079 183.771 523.537ZM191.713 520.636C189.513 521.432 187.314 522.242 185.114 523.047C211.553 548.593 235.575 579.818 260.051 611.652C304.346 669.261 350.152 728.833 414.546 760.014C517.769 809.996 668.982 786.994 938.779 566.145C676.972 772.592 528.306 788.409 423.785 737.267C363.198 707.622 317.505 655.491 273.206 604.949C246.521 574.502 220.339 544.636 191.713 520.636ZM199.629 517.812C197.453 518.583 195.279 519.357 193.104 520.139C221.615 544.138 247.716 573.916 274.318 604.267C318.559 654.742 364.19 706.804 424.597 736.361C532.155 788.989 686.789 770.265 964.397 544.308C693.646 756.437 541.091 767.224 431.642 713.065C375.751 685.408 331.151 640.835 287.788 597.494C258.847 568.569 230.454 540.207 199.629 517.812ZM207.522 515.029C205.367 515.782 203.213 516.538 201.059 517.302C231.74 539.695 260.029 567.957 288.861 596.773C332.173 640.061 376.72 684.584 432.454 712.162C544.502 767.607 701.975 754.661 986.278 525.656L987.525 524.547C707.692 741.57 551.398 745.603 436.502 688.056C386.251 662.887 343.949 625.949 302.686 589.916C271.373 562.573 240.657 535.761 207.522 515.029ZM215.37 512.297C213.248 513.03 211.125 513.774 209.003 514.514C241.959 535.243 272.542 561.935 303.712 589.154C344.929 625.146 387.182 662.042 437.32 687.155C553.535 745.362 712.354 740.23 999.562 513.836C1000.79 512.736 1001.99 511.684 1003.23 510.573C716.418 728.428 557.505 722.904 436.964 661.734C393.715 639.787 355.428 610.691 317.935 582.198C284.118 556.497 250.946 531.294 215.37 512.297ZM223.201 509.635C221.112 510.341 219.024 511.046 216.935 511.763C252.285 530.761 285.282 555.835 318.918 581.396C356.375 609.863 394.626 638.932 437.789 660.835C559.276 722.487 719.917 727.395 1012.24 502.424C1014.05 500.789 1015.87 499.132 1017.68 497.496C641.307 776.646 481.698 671.739 333.593 574.325C297.127 550.339 261.352 526.823 223.201 509.635ZM231.011 507.008C228.955 507.693 226.899 508.383 224.843 509.076C262.722 526.271 298.279 549.647 334.519 573.484C483.398 671.408 643.951 776.882 1026 489.943C1027.97 488.151 1029.97 486.298 1031.95 484.467C669.027 746.743 503.633 653.245 349.709 566.268C310.429 544.072 271.897 522.305 231.011 507.008ZM238.767 504.439C236.762 505.099 234.756 505.765 232.751 506.431C273.307 521.744 311.573 543.356 350.573 565.394C505.178 652.756 671.441 746.602 1038.96 478.005C1041.55 475.623 1044.1 473.292 1046.69 470.885C696.908 716.844 525.902 634.707 366.347 558.009C324.06 537.681 282.575 517.751 238.767 504.439ZM246.524 501.919C244.567 502.549 242.609 503.178 240.652 503.818C284.059 517.16 325.212 536.938 367.151 557.099C527.263 634.064 698.9 716.567 1052.2 465.738C1055.1 463.037 1058.03 460.285 1060.95 457.546C724.579 687.025 548.439 616.043 383.596 549.515C338.096 531.152 293.453 513.143 246.524 501.919ZM261.931 497.015C260.117 497.586 258.305 498.156 256.492 498.73C306.206 507.824 353.762 523.652 402.21 539.778C572.563 596.482 754.039 656.777 1079.71 439.839C1083.01 436.705 1086.32 433.564 1089.64 430.404C779.839 627.917 594.776 578.376 420.326 531.657C367.612 517.54 315.865 503.689 261.931 497.015ZM269.605 494.634C267.869 495.166 266.133 495.696 264.398 496.238C317.652 503.025 368.812 516.715 420.915 530.669C595.893 577.53 781.578 627.214 1093.66 426.566C1097.14 423.231 1100.68 419.8 1104.21 416.387C807.574 598.495 618.755 559.327 440.078 522.196C383.281 510.392 327.504 498.809 269.605 494.634ZM277.233 492.29C275.631 492.777 274.03 493.275 272.427 493.766C329.504 498.103 384.552 509.542 440.595 521.188C619.769 558.423 809.138 597.744 1107.66 413.049C1111.39 409.448 1115.1 405.865 1118.86 402.209C835.361 569.285 643.432 540.085 460.998 512.289C399.712 502.952 339.498 493.78 277.233 492.29ZM284.87 489.999C283.394 490.442 281.92 490.881 280.445 491.326C341.725 493.04 401.066 502.07 461.441 511.27C644.373 539.14 836.872 568.417 1122.01 399.127C1125.82 395.411 1129.66 391.646 1133.5 387.872C863.221 540.215 668.925 520.596 483.328 501.847C417.089 495.156 351.956 488.586 284.87 489.999ZM292.471 487.743C291.176 488.123 289.881 488.5 288.586 488.884C354.493 487.774 418.56 494.242 483.698 500.822C669.802 519.622 864.661 539.31 1136.36 385.07C1140.35 381.148 1144.38 377.164 1148.41 373.162C891.365 511.232 695.489 500.807 507.388 490.759C435.61 486.926 364.961 483.16 292.471 487.743ZM300.039 485.526C299.001 485.826 297.964 486.135 296.926 486.437C367.963 482.271 437.281 485.967 507.684 489.727C696.297 499.803 892.732 510.259 1151 370.598C1155.12 366.512 1159.23 362.443 1163.38 358.305C919.749 482.464 723.356 480.633 533.6 478.876C455.564 478.153 378.652 477.444 300.039 485.526ZM307.654 483.34L305.503 483.955C382.299 476.446 457.528 477.135 533.829 477.841C724.115 479.604 921.094 481.41 1165.79 355.901C1169.99 351.704 1174.26 347.392 1178.51 343.103C948.583 453.729 752.888 459.96 562.539 465.991C477.373 468.689 393.274 471.355 307.654 483.34ZM315.164 481.205L314.577 481.369C397.87 470.185 479.782 467.584 562.703 464.955C753.588 458.907 949.852 452.656 1180.69 340.914C1185.04 336.531 1189.4 332.134 1193.79 327.681C978.012 425.155 784.6 438.635 595.017 451.829C501.544 458.336 409 464.777 315.164 481.205ZM728.74 396.733C606.474 416.974 483.315 437.365 360.151 469.093C465.641 445.626 570.7 431.271 675.829 416.911C858.288 391.986 1040.96 367.019 1226.42 294.295C1231.09 289.485 1235.74 284.713 1240.46 279.812C1073.34 339.683 901.937 368.063 728.74 396.733ZM292.407 486.714L294.428 486.122L293.66 486.203C292.93 486.395 292.2 486.582 291.469 486.775L292.407 486.714ZM284.834 488.96C285.856 488.656 286.879 488.344 287.901 488.04C287.378 488.076 286.856 488.105 286.334 488.142L283.156 488.995L284.834 488.96ZM277.249 491.237C278.537 490.846 279.825 490.464 281.112 490.077C280.365 490.095 279.617 490.122 278.869 490.145C277.603 490.489 276.335 490.844 275.068 491.192C275.796 491.206 276.523 491.219 277.249 491.237ZM269.654 493.568L274.016 492.225L271.487 492.181C270.028 492.583 268.568 492.981 267.108 493.39C267.956 493.45 268.806 493.507 269.654 493.568ZM262.014 495.936C263.617 495.434 265.22 494.935 266.822 494.439C265.906 494.377 264.993 494.309 264.076 494.252C262.486 494.703 260.895 495.152 259.306 495.606C260.209 495.713 261.112 495.825 262.014 495.936ZM254.357 498.35C256.082 497.803 257.807 497.262 259.531 496.718C258.548 496.601 257.562 496.493 256.577 496.38C254.891 496.866 253.204 497.361 251.519 497.852C252.464 498.018 253.412 498.181 254.357 498.35ZM246.691 500.809C248.491 500.229 250.29 499.64 252.09 499.064C251.107 498.893 250.125 498.712 249.14 498.546C247.348 499.067 245.556 499.589 243.763 500.122C244.74 500.347 245.715 500.577 246.691 500.809ZM238.969 503.312C240.863 502.691 242.756 502.08 244.651 501.469C243.635 501.231 242.617 501.004 241.598 500.772C239.751 501.325 237.906 501.878 236.059 502.437C237.031 502.725 238 503.018 238.969 503.312ZM231.265 505.865C233.207 505.22 235.149 504.575 237.092 503.934C236.085 503.632 235.082 503.327 234.073 503.033C232.162 503.615 230.25 504.208 228.338 504.796C229.315 505.149 230.292 505.502 231.265 505.865ZM223.499 508.472C225.501 507.794 227.502 507.118 229.504 506.448C228.508 506.08 227.509 505.721 226.51 505.361C224.55 505.965 222.589 506.57 220.629 507.186C221.588 507.608 222.543 508.042 223.499 508.472ZM215.717 511.116C217.764 510.413 219.81 509.722 221.858 509.03C220.878 508.593 219.896 508.159 218.912 507.731C216.91 508.365 214.908 508.998 212.907 509.64C213.844 510.13 214.782 510.619 215.717 511.116ZM207.917 513.828C209.995 513.102 212.075 512.376 214.153 511.657C213.2 511.153 212.248 510.649 211.292 510.152C209.255 510.809 207.214 511.476 205.175 512.14C206.091 512.698 207.005 513.259 207.917 513.828ZM200.071 516.586C202.192 515.834 204.314 515.086 206.435 514.345C205.507 513.768 204.574 513.205 203.641 512.642C201.572 513.316 199.504 513.993 197.434 514.68C198.316 515.309 199.193 515.95 200.071 516.586ZM192.207 519.393C194.352 518.621 196.497 517.858 198.643 517.096C197.749 516.452 196.857 515.809 195.959 515.175C193.86 515.876 191.762 516.58 189.661 517.292C190.512 517.989 191.361 518.686 192.207 519.393ZM184.313 522.269C186.479 521.476 188.645 520.677 190.81 519.892C189.955 519.18 189.1 518.471 188.242 517.768C186.118 518.491 183.996 519.226 181.874 519.958C182.689 520.723 183.503 521.492 184.313 522.269ZM176.372 525.195C178.571 524.377 180.772 523.567 182.972 522.76C182.151 521.974 181.325 521.205 180.497 520.433C178.352 521.173 176.208 521.917 174.062 522.671C174.835 523.506 175.603 524.35 176.372 525.195ZM-53.0554 633.251C22.6822 589.101 98.7888 554.143 175.057 525.689C174.281 524.836 173.501 523.989 172.718 523.148C97.4454 549.692 21.8162 583.527 -54.3455 627.926L-54.9984 627.126C21.139 582.741 96.7335 548.901 171.966 522.348C171.188 521.516 170.414 520.684 169.631 519.865C95.4071 544.469 20.2917 577.155 -56.2891 621.797L-56.9426 620.997C19.603 576.374 94.675 543.685 168.85 519.065C168.067 518.254 167.282 517.449 166.494 516.65C93.3454 539.278 18.7663 570.784 -58.2326 615.671L-58.8856 614.871C18.0743 570.007 92.6061 538.49 165.704 515.839C164.915 515.046 164.118 514.269 163.323 513.488C91.2732 534.099 17.2457 564.411 -60.1753 609.546L-60.8289 608.745C16.5393 563.643 90.5094 533.315 162.496 512.672C161.714 511.91 160.929 511.156 160.141 510.406C89.2076 528.958 15.7417 558.029 -62.1193 603.418L-62.772 602.619C15.0179 557.27 88.4154 528.182 159.277 509.587C158.494 508.848 157.713 508.106 156.924 507.38C87.1309 523.832 14.2415 551.642 -64.0629 597.29L-64.716 596.49C13.4961 550.895 86.3019 523.059 156.008 506.551C155.227 505.838 154.446 505.126 153.66 504.427C85.0345 518.739 12.7447 545.256 -66.0057 591.163L-66.6593 590.363C11.9821 544.518 84.1809 517.968 152.714 503.586C151.932 502.899 151.145 502.229 150.357 501.554C82.9271 513.679 11.2531 538.866 -67.9492 585.038L-68.6022 584.238C10.4638 538.145 82.0311 512.909 149.355 500.689C148.58 500.032 147.798 499.39 147.017 498.746C80.8069 508.641 9.76752 532.471 -69.8934 578.909L-70.5463 578.109C8.94391 531.77 79.8557 507.881 145.943 497.865C145.181 497.245 144.419 496.625 143.652 496.018C78.6857 503.636 8.29514 526.07 -71.8361 572.783L-72.4895 571.983C7.41963 525.4 77.6551 502.874 142.473 495.1C141.732 494.523 140.996 493.938 140.25 493.371C76.5543 498.661 6.83187 519.664 -73.7794 566.657L-74.4327 565.857C5.90644 519.022 75.4458 497.914 138.975 492.423C138.239 491.875 137.499 491.332 136.758 490.795C74.3762 493.718 5.35337 513.266 -75.723 560.529L-76.3757 559.731C4.37744 512.655 73.1938 492.971 135.393 489.798C134.688 489.296 133.972 488.815 133.261 488.323C72.2104 488.819 3.90098 506.851 -77.6669 554.402L-78.3197 553.602C2.82871 506.297 70.8838 488.079 131.717 487.255C131.049 486.803 130.376 486.359 129.703 485.916C70.0181 483.941 2.44662 500.44 -79.6099 548.277L-80.263 547.476C1.2608 499.952 68.5183 483.227 127.947 484.777C127.345 484.391 126.747 483.993 126.141 483.613C67.8427 479.101 1.0205 494.014 -81.5528 542.15L-82.2062 541.35C-0.359085 493.636 66.0591 478.4 124.031 482.337C123.516 482.024 123.002 481.707 122.484 481.401C65.6138 474.308 -0.420129 487.591 -83.4968 536.022L-84.1501 535.221C-2.03383 487.351 63.4895 473.627 119.959 479.946C119.549 479.713 119.136 479.482 118.724 479.252C63.33 469.547 -1.88532 481.186 -85.44 529.895L-86.0933 529.095C-3.80445 481.125 60.7497 468.913 115.655 477.579C115.438 477.464 115.218 477.353 115 477.24C61.0919 464.828 -3.29234 474.747 -87.3832 523.769L-88.0365 522.969C-6.37098 475.362 56.7803 464.407 109.792 474.914C57.6814 460.302 -5.46349 468.754 -89.3267 517.642L-89.9796 516.843C-10.0358 470.239 51.1635 460.127 101.917 471.659C52.0763 456.004 -9.12414 463.627 -91.2704 511.514L-91.9236 510.714C-13.7607 465.15 45.5146 455.797 94.0928 468.179C46.4357 451.662 -12.8476 458.538 -93.2135 505.388L-93.8668 504.588C-5.20149 452.899 57.9377 449.477 108.084 472.407C110.854 473.391 113.579 474.465 116.282 475.587C119.125 476.493 121.945 477.449 124.724 478.49C127.611 479.305 130.463 480.199 133.292 481.141C136.325 481.888 139.334 482.689 142.311 483.561C145.364 484.207 148.39 484.913 151.394 485.672C154.624 486.239 157.827 486.869 161.009 487.551C164.254 488.013 167.481 488.517 170.685 489.08C174.108 489.447 177.506 489.88 180.89 490.348C184.433 490.612 187.963 490.918 191.469 491.277C195.006 491.425 198.529 491.613 202.036 491.846C205.77 491.88 209.486 491.969 213.19 492.087C217.093 492 220.98 491.955 224.855 491.949C228.847 491.738 232.83 491.557 236.8 491.42C240.854 491.085 244.899 490.776 248.934 490.508C253.129 490.037 257.316 489.593 261.496 489.185C265.821 488.576 270.141 487.992 274.452 487.439C278.92 486.684 283.385 485.951 287.845 485.25C292.304 484.375 296.759 483.528 301.21 482.7C305.974 481.638 310.735 480.606 315.493 479.592C320.303 478.398 325.111 477.227 329.92 476.076C463.149 439.682 596.437 417.612 728.681 395.719C902.451 366.954 1074.42 338.487 1242.02 278.189C1320.09 197.155 1404.91 104.853 1497.21 -1.14364e-06L1498.23 0.491581C1406.44 104.773 1322.04 196.628 1244.3 277.357C1246.3 276.637 1248.29 275.907 1250.28 275.176C1326.52 196.829 1409.23 107.587 1499.15 6.12438L1500.18 6.62002C1410.77 107.502 1328.5 196.294 1252.59 274.334C1254.59 273.599 1256.58 272.852 1258.58 272.109C1332.98 196.462 1413.57 110.297 1501.1 12.2501L1502.12 12.7507C1415.13 110.19 1335 195.893 1260.95 271.218C1262.94 270.474 1264.92 269.742 1266.9 268.988C1339.46 196.058 1417.92 112.979 1503.04 18.3747L1504.06 18.8772C1419.51 112.846 1341.52 195.453 1269.35 268.048C1271.34 267.286 1273.33 266.514 1275.33 265.741C1346.02 195.563 1422.33 115.593 1504.99 24.4991L1506 25.0072C1423.93 115.452 1348.1 194.948 1277.82 264.783C1279.82 264.004 1281.82 263.213 1283.82 262.424C1352.61 195.024 1426.77 118.157 1506.93 30.6218L1507.94 31.1353C1428.41 117.983 1354.76 194.365 1286.4 261.4C1288.34 260.632 1290.27 259.874 1292.2 259.098C1359.16 194.444 1431.15 120.784 1508.88 36.747L1509.89 37.267C1432.81 120.599 1361.37 193.729 1294.87 258.011C1296.85 257.213 1298.82 256.409 1300.79 255.601C1365.84 193.762 1435.63 123.283 1510.82 42.8702L1511.83 43.3949C1437.3 123.096 1368.08 193.034 1303.51 254.496C1305.48 253.683 1307.45 252.854 1309.42 252.03C1372.56 193.023 1440.14 125.747 1512.77 48.9928L1513.77 49.5245C1441.84 125.533 1374.87 192.237 1312.24 250.85C1314.19 250.03 1316.14 249.216 1318.09 248.387C1379.31 192.23 1444.67 128.177 1514.72 55.1181L1515.71 55.6554C1446.41 127.932 1381.7 191.377 1321.04 247.118C1322.99 246.287 1324.93 245.455 1326.87 244.614C1386.13 191.339 1449.24 130.548 1516.67 61.2408L1517.65 61.7856C1451 130.293 1388.58 190.457 1329.9 243.305C1331.84 242.457 1333.78 241.589 1335.71 240.733C1393.01 190.364 1453.85 132.87 1518.61 67.365L1519.59 67.916C1455.65 132.58 1395.56 189.409 1338.9 239.326C1340.76 238.495 1342.63 237.66 1344.49 236.82C1399.86 189.347 1458.42 135.208 1520.56 73.4851L1521.53 74.0467C1460.35 134.813 1402.62 188.27 1348 235.227C1349.78 234.418 1351.56 233.617 1353.34 232.799C1406.77 188.249 1463.03 137.492 1522.51 79.6075L1523.46 80.181C1465.04 137.04 1409.7 187.059 1357.11 231.052C1358.85 230.247 1360.59 229.433 1362.32 228.619C1413.78 187.03 1467.7 139.701 1524.46 85.7296L1525.4 86.3105C1469.77 139.209 1416.85 185.754 1366.32 226.756C1368 225.962 1369.68 225.147 1371.36 224.344C1420.82 185.739 1472.4 141.859 1526.41 91.8478L1527.34 92.4459C1474.61 141.272 1424.19 184.269 1375.79 222.218C1377.35 221.467 1378.91 220.717 1380.46 219.958C1427.93 184.367 1477.14 143.963 1528.36 97.9689L1529.27 98.5807C1479.54 143.244 1431.69 182.635 1385.49 217.482C1386.9 216.788 1388.31 216.101 1389.72 215.401C1435.14 182.863 1481.95 145.982 1530.31 104.086L1531.21 104.716C1484.59 145.094 1439.44 180.795 1395.55 212.469C1396.75 211.866 1397.95 211.259 1399.15 210.65C1442.5 181.21 1486.83 147.915 1532.27 110.203L1533.14 110.853C1489.88 146.756 1447.63 178.624 1406.27 207.014C1406.97 206.654 1407.67 206.286 1408.37 205.924C1449.72 179.557 1491.64 149.876 1534.23 116.318L1535.06 116.99C1495.99 147.781 1457.47 175.305 1419.44 200.013C1458.2 177.022 1497.1 151.32 1536.19 122.43L1536.99 123.135C1503.48 147.902 1470.1 170.328 1436.84 190.721C1470.85 172.005 1504.63 151.379 1538.16 128.541L1538.91 129.277C1499.05 156.429 1458.84 180.47 1418.31 201.878C1411.8 205.726 1405.3 209.509 1398.8 213.207C1391.97 217.481 1385.16 221.633 1378.36 225.735C1371.4 230.283 1364.47 234.751 1357.57 239.105C1350.34 244.032 1343.13 248.872 1335.97 253.571C1328.71 258.67 1321.5 263.619 1314.32 268.493C1307.1 273.7 1299.91 278.803 1292.77 283.791C1285.21 289.384 1277.69 294.867 1270.23 300.204C1262.41 306.107 1254.66 311.834 1246.97 317.457C1239.56 323.137 1232.21 328.695 1224.93 334.125C1217.56 339.873 1210.24 345.512 1202.99 351.011C1194.25 357.947 1185.64 364.642 1177.09 371.206C1169.5 377.283 1161.98 383.229 1154.54 389.029C1147.05 395.094 1139.64 401.026 1132.3 406.829C1123.64 413.935 1115.06 420.885 1106.59 427.641C1098.54 434.302 1090.58 440.81 1082.71 447.15C1074.59 453.928 1066.56 460.56 1058.63 467.006C1050.36 473.967 1042.17 480.784 1034.1 487.4C1026.06 494.209 1018.09 500.89 1010.24 507.383C1002.35 514.113 994.542 520.705 986.834 527.128C978.932 533.919 971.134 540.536 963.42 547.015C668.618 802.178 507.903 834.967 402.022 784.194C333.93 751.541 288.597 684.356 244.862 619.536C222.374 586.209 200.305 553.52 175.786 526.489C99.4833 554.936 23.3494 589.892 -52.4024 634.052L-53.0554 633.251Z" fill="url(#paint0_linear_4502_709)"/>
<defs>
<linearGradient id="paint0_linear_4502_709" x1="1228.32" y1="1014.42" x2="312.383" y2="123.983" gradientUnits="userSpaceOnUse">
<stop stop-color="#0AFB6A"/>
<stop offset="1" stop-color="#E6FF81"/>
</linearGradient>
</defs>
</svg>

