<svg width="1440" height="460" viewBox="0 0 1440 460" fill="none" xmlns="http://www.w3.org/2000/svg">
<g opacity="0.1">
<path d="M507.922 17.7812C618.54 18.7031 726.944 37.3851 837.1 45.4355C947.718 53.4553 1056.49 38.1532 1166.31 25.9546C1251.21 80.7101 1319.73 184.229 1418.64 203.925C1478.31 215.817 1496.19 276.687 1528.92 322.593C1566.53 375.32 1622.36 414.835 1671 457.177H-231C-107.846 383.944 15.3075 310.712 138.461 237.479C199.454 201.006 257.805 168.159 309.334 118.443C334.069 94.5987 356.469 68.2964 387.258 51.9496C424.714 32.0693 467.67 30.3486 507.922 17.7812Z" stroke="#379436" stroke-width="3.85231" stroke-miterlimit="10"/>
<path d="M-154.459 411.67H1618.76" stroke="#379436" stroke-width="3.85231" stroke-miterlimit="10"/>
<path d="M-87.6278 371.909H1573.07" stroke="#379436" stroke-width="3.85231" stroke-miterlimit="10"/>
<path d="M-28.7857 336.911C113.05 336.911 250 342.534 390.914 357.99C516.403 371.756 628.895 358.635 752.048 335.221C871.33 312.514 992.241 316.785 1113.18 312.022C1253.29 306.167 1393.64 311.551 1532.88 328.123" stroke="#379436" stroke-width="3.85231" stroke-miterlimit="10"/>
<path d="M23.4503 305.877C89.8821 305.877 156.867 302.282 222.469 314.542C289.239 327.017 353.335 350.37 419.46 365.518C552.139 395.907 640.909 352.981 760.314 299.209C865.953 251.674 970.886 255.054 1084.12 244.73C1232.03 231.241 1352.95 231.087 1497.24 271.954" stroke="#379436" stroke-width="3.85231" stroke-miterlimit="10"/>
<path d="M70.1247 278.1C138.738 278.1 201.052 280.097 267.423 300.315C327.002 318.506 384.4 343.825 445.086 358.42C572.91 389.147 660.39 324.282 767.719 265.286C865.493 211.514 965.57 217.168 1073.48 204.939C1213.6 189.084 1329.47 179.527 1465.31 225.649" stroke="#379436" stroke-width="3.85231" stroke-miterlimit="10"/>
<path d="M112.067 253.18C235.927 253.826 346.974 300.008 467.977 317.246C582.159 333.47 671.543 281.664 774.356 241.166C869.364 203.771 963.511 206.69 1063.77 198.486C1191.47 187.978 1310.33 176.977 1436.68 206.168" stroke="#379436" stroke-width="3.85231" stroke-miterlimit="10"/>
<path d="M150.015 230.596C263.981 233.669 375.151 260.371 488.841 265.318C589.964 269.712 682.575 242.641 780.409 222.3C871.208 203.556 962.836 207.151 1055.05 203.096C1173.96 197.903 1292.11 190.19 1410.8 202.788" stroke="#379436" stroke-width="3.85231" stroke-miterlimit="10"/>
<path d="M184.398 209.794C386.52 212.436 583.849 219.012 785.817 206.721C984.56 194.86 1188.34 197.841 1387.27 201.774" stroke="#379436" stroke-width="3.85231" stroke-miterlimit="10"/>
<path d="M215.771 191.603C599.12 191.419 982.47 191.419 1365.82 191.603" stroke="#379436" stroke-width="3.85231" stroke-miterlimit="10"/>
<path d="M244.531 173.751C428.155 168.528 611.687 166.653 795.373 164.195C979.059 161.737 1162.38 174.489 1346.18 174.489" stroke="#379436" stroke-width="3.85231" stroke-miterlimit="10"/>
<path d="M270.956 153.686C446.991 139.583 623.056 135.25 799.46 129.473C977.676 123.635 1150.55 158.879 1327.96 158.695" stroke="#379436" stroke-width="3.85231" stroke-miterlimit="10"/>
<path d="M295.353 131.963C463.983 109.071 633.534 103.417 803.424 94.1378C978.383 84.5817 1138.35 141.427 1311.49 144.192" stroke="#379436" stroke-width="3.85231" stroke-miterlimit="10"/>
<path d="M317.907 109.962C479.009 80.4641 643.613 74.0422 806.988 62.4581C884.697 56.958 956.813 57.849 1033.2 76.193C1121.23 97.3639 1205.06 125.11 1296.07 130.795" stroke="#379436" stroke-width="3.85231" stroke-miterlimit="10"/>
<path d="M338.832 89.1292C492.713 56.0362 653.446 50.3825 810.307 37.2006C882.976 31.0552 949.101 30.9016 1019.87 49.8908C1107.99 73.5506 1190.31 107.535 1281.78 117.89" stroke="#379436" stroke-width="3.85231" stroke-miterlimit="10"/>
<path d="M358.313 70.9695C505.403 37.6 662.91 32.6837 813.41 19.6862C879.105 14.0017 942.464 12.4961 1006.99 29.4881C1095.67 52.9021 1177.06 91.8332 1268.57 105.568" stroke="#379436" stroke-width="3.85231" stroke-miterlimit="10"/>
<path d="M376.473 57.1423C519.107 27.7366 670.929 23.865 816.268 12.0659C976.048 -0.931659 1102.27 65.0391 1256.06 93.0314" stroke="#379436" stroke-width="3.85231" stroke-miterlimit="10"/>
<path d="M393.465 47.4325C532.412 23.3733 678.12 21.0688 818.972 12.035C970.794 2.4175 1097.51 54.6533 1244.45 81.4473" stroke="#379436" stroke-width="3.85231" stroke-miterlimit="10"/>
<path d="M409.381 40.8877C544.826 22.4515 684.848 22.4515 821.491 16.6134C965.416 10.468 1092.87 48.8767 1233.6 71.4918" stroke="#379436" stroke-width="3.85231" stroke-miterlimit="10"/>
<path d="M424.345 36.6168C556.471 23.312 691.178 26.0467 823.796 23.4963C960.377 20.8845 1088.36 46.1421 1223.25 63.1034" stroke="#379436" stroke-width="3.85231" stroke-miterlimit="10"/>
<path d="M438.387 33.8513C696.924 16.4291 956.444 34.4658 1213.78 56.1283" stroke="#379436" stroke-width="3.85231" stroke-miterlimit="10"/>
<path d="M451.661 31.9155C701.441 22.0521 955.092 40.1196 1204.72 50.3517" stroke="#379436" stroke-width="3.85231" stroke-miterlimit="10"/>
<path d="M464.167 30.2251C707.709 26.1076 952.204 45.3428 1196.18 45.097" stroke="#379436" stroke-width="3.85231" stroke-miterlimit="10"/>
<path d="M475.997 28.3207C595.218 28.1671 713.148 41.1339 832.031 47.7402C950.913 54.3465 1069.7 44.944 1188.1 40.3964" stroke="#379436" stroke-width="3.85231" stroke-miterlimit="10"/>
<path d="M487.182 25.7703C603.483 26.5692 718.003 41.8405 833.813 49.3993C949.623 56.9582 1065.16 43.807 1180.44 35.7565" stroke="#379436" stroke-width="3.85231" stroke-miterlimit="10"/>
<path d="M497.814 22.2979C611.288 23.404 722.551 40.5189 835.503 48.5694C948.455 56.6198 1060.73 41.5944 1173.19 30.9629" stroke="#379436" stroke-width="3.85231" stroke-miterlimit="10"/>
<path d="M1140.96 28.5354C1190.12 58.2484 1224.54 92.1095 1263.65 133.96C1278.4 149.753 1294.1 169.388 1311.74 182.017C1338.78 201.375 1337.49 193.293 1369.41 196.213C1427.12 201.436 1437.66 253.795 1462.79 301.606C1495.95 364.719 1547.17 408.444 1597.99 457.177" stroke="#379436" stroke-width="3.85231" stroke-miterlimit="10"/>
<path d="M1115.64 31.4543C1161.88 56.6197 1188.03 78.6509 1219.68 121.638C1233.57 140.474 1247.52 163.826 1265.53 179.159C1291.92 201.62 1291.95 187.609 1320.16 192.464C1347.63 197.165 1338.81 180.849 1363.79 205.584C1387.64 229.213 1395.35 274.074 1409.02 303.91C1437.51 365.979 1478.53 407.614 1524.68 457.207" stroke="#379436" stroke-width="3.85231" stroke-miterlimit="10"/>
<path d="M1090.26 34.4043C1141.57 58.4942 1157.25 71.7376 1187.36 123.052C1199.34 146.098 1213.6 167.881 1229.95 188.07C1242.63 204.314 1256.27 205.472 1270.87 191.542C1286.09 176.527 1299.74 178.34 1311.8 196.981C1328.4 235.134 1342.66 274.26 1354.51 314.143C1376.79 371.387 1413.17 410.41 1451.61 457.177" stroke="#379436" stroke-width="3.85231" stroke-miterlimit="10"/>
<path d="M1065 37.3232C1080.31 42.7503 1096.07 46.7717 1112.11 49.3375C1130.86 72.0763 1145.17 98.1337 1154.3 126.155C1163.83 151.48 1177 175.285 1193.38 196.827C1204.48 202.112 1213.93 200.668 1221.71 192.494C1229.41 184.628 1238.85 182.703 1250.01 186.718C1268.79 220.49 1281.99 257.076 1289.09 295.061C1309.34 360.172 1339.46 402.452 1378.39 457.023" stroke="#379436" stroke-width="3.85231" stroke-miterlimit="10"/>
<path d="M1039.68 40.1196C1053.75 42.519 1068.06 43.1281 1082.27 41.9325C1099.84 69.8823 1112.66 100.555 1120.19 132.7C1126.15 148.125 1132.09 163.55 1138.01 178.975C1144.4 202.696 1155.88 208.032 1172.45 194.984C1184.75 182.16 1193.34 183.543 1198.23 199.132C1215.61 221.005 1224.95 248.172 1224.72 276.103C1243.71 346.775 1267.95 395.508 1305.23 457.177" stroke="#379436" stroke-width="3.85231" stroke-miterlimit="10"/>
<path d="M1014.36 42.6699C1026.82 43.1228 1039.09 39.4742 1049.27 32.2842C1069.18 75.1483 1070.78 139.091 1094.96 177.684C1135.18 241.658 1112.6 165.67 1137.24 191.788C1172.36 228.998 1166.34 302.006 1181.24 347.205C1193.84 385.46 1214.27 421.257 1232.07 457.177" stroke="#379436" stroke-width="3.85231" stroke-miterlimit="10"/>
<path d="M989.045 44.8514C1000.3 40.5231 1010.32 33.5081 1018.24 24.418C1028.16 58.2176 1033.6 167.483 1056.25 191.419C1070.41 206.475 1075.94 191.419 1085.8 202.481C1107.74 227.062 1110.82 310.332 1116.53 334.33C1126.52 376.733 1143.33 416.648 1159 457.238" stroke="#379436" stroke-width="3.85231" stroke-miterlimit="10"/>
<path d="M963.726 46.6027C971.654 37.3846 979.09 28.1666 986.311 18.3032C994.238 65.4691 986.925 142.071 1010.89 179.589C1006.92 194.42 1009.99 202.081 1020.11 202.573C1024.65 203.581 1029.26 204.178 1033.91 204.355C1049.95 236.803 1047.7 284.245 1052.93 318.997C1060.12 366.809 1072.87 410.81 1085.74 457.269" stroke="#379436" stroke-width="3.85231" stroke-miterlimit="10"/>
<path d="M938.407 47.8013C943.79 36.1409 948.379 24.1301 952.142 11.8508C967.506 164.257 986.833 304.556 1012.61 457.177" stroke="#379436" stroke-width="3.85231" stroke-miterlimit="10"/>
<path d="M913.058 48.5083C915.106 35.2957 916.745 22.0318 917.974 8.7168C923.321 158.787 930.449 307.229 939.483 457.331" stroke="#379436" stroke-width="3.85231" stroke-miterlimit="10"/>
<path d="M887.739 48.0471C886.08 35.0394 884.758 22.0111 883.775 8.9624C879.412 158.572 873.604 307.598 866.322 457.177" stroke="#379436" stroke-width="3.85231" stroke-miterlimit="10"/>
<path d="M862.42 46.9717C857.261 35.218 852.978 23.099 849.606 10.7139C835.41 160.662 816.79 308.09 793.161 457.177" stroke="#379436" stroke-width="3.85231" stroke-miterlimit="10"/>
<path d="M837.101 45.4353C828.969 35.4014 821.711 24.6898 815.407 13.4177C791.201 162.869 759.357 310.983 720 457.177" stroke="#379436" stroke-width="3.85231" stroke-miterlimit="10"/>
<path d="M811.782 43.2229C799.516 36.8157 789.59 26.6957 783.421 14.3088C757.641 103.141 745.626 194 717.849 282.648C699.167 342.289 668.932 398.335 646.839 457.177" stroke="#379436" stroke-width="3.85231" stroke-miterlimit="10"/>
<path d="M786.462 40.7342C779.286 39.7234 772.45 37.0347 766.508 32.8865C760.566 28.7382 755.685 23.2473 752.263 16.8594C709.246 103.264 696.647 214.434 666.228 307.322C645.702 369.974 647.638 328.277 623.21 361.585C602.408 389.916 588.673 425.835 573.494 457.177" stroke="#379436" stroke-width="3.85231" stroke-miterlimit="10"/>
<path d="M761.144 37.9687C753.309 37.9605 745.56 36.3476 738.373 33.2297C731.186 30.1118 724.713 25.5549 719.355 19.8398C665.214 111.038 651.417 231.303 613.992 330.582C583.91 410.472 602.93 347.144 561.326 362.876C541.415 370.404 509.397 442.121 500.487 457.177" stroke="#379436" stroke-width="3.85231" stroke-miterlimit="10"/>
<path d="M735.825 35.0189C727.642 36.5742 719.213 36.2424 711.178 34.0486C703.143 31.8549 695.714 27.857 689.458 22.3594C665.306 42.5163 651.469 68.9415 647.945 101.635C627.051 161.921 601.855 219.473 581.606 280.036C573.658 309.226 564.358 337.997 553.706 366.348C541.763 385.378 528.95 386.167 515.266 368.714C494.782 357.693 480.934 365.17 473.723 391.145L427.387 457.177" stroke="#379436" stroke-width="3.85231" stroke-miterlimit="10"/>
<path d="M710.506 32.0074C702.097 34.6693 693.194 35.3914 684.467 34.1195C675.739 32.8476 667.413 29.6147 660.113 24.6636C634.467 37.3026 619.349 58.6783 614.76 88.7908C587.106 153.748 555.15 216.799 532.351 283.538C525.68 316.806 511.919 348.247 492.006 375.719C484.499 376.668 476.877 376.026 469.634 373.835C462.392 371.643 455.692 367.951 449.972 362.998C408.736 366.931 378.685 426.972 354.226 457.115" stroke="#379436" stroke-width="3.85231" stroke-miterlimit="10"/>
<path d="M685.156 29.0579C658.546 40.9492 642.537 21.8677 618.724 32.6529C592.944 44.3598 582.742 79.8495 570.974 103.817C541.384 163.642 509.52 220.057 483.187 281.357C472.002 307.291 463.122 360.325 429.2 366.778C415.373 369.39 398.166 355.317 383.908 357.898C346.083 364.811 305.554 430.629 281.126 457.177" stroke="#379436" stroke-width="3.85231" stroke-miterlimit="10"/>
<path d="M659.837 26.2002C633.811 39.2284 614.33 24.2029 589.41 32.3456C555.887 43.3458 541.661 86.3329 526.266 115.554C497.168 170.617 462.109 220.856 433.87 276.533C420.566 302.804 406.523 338.601 376.841 348.495C361.078 353.75 345.315 348.495 329.276 352.797C282.632 365.549 242.349 423.684 207.935 457.269" stroke="#379436" stroke-width="3.85231" stroke-miterlimit="10"/>
<path d="M634.518 23.6189C604.006 39.7506 576.536 20.1467 546.516 35.3259C522.487 47.6167 506.571 82.4303 493.819 104.062C460.296 160.938 421.365 213.512 384.646 268.298C343.595 329.567 320.119 319.673 262.537 349.509C215.371 373.876 174.289 422.424 134.774 457.054" stroke="#379436" stroke-width="3.85231" stroke-miterlimit="10"/>
<path d="M609.199 21.376C578.472 36.2171 546.67 20.8535 517.295 34.0661C484.355 48.8765 467.64 88.6373 448.896 116.66C414.82 167.483 374.752 213.327 335.422 260.247C298.119 304.74 256.453 312.022 208.765 340.414C156.529 371.51 109.025 419.137 61.6135 457.177" stroke="#379436" stroke-width="3.85231" stroke-miterlimit="10"/>
<path d="M583.88 19.5935C552.815 29.211 517.724 22.6662 488.411 34.4961C455.226 48.0467 437.404 82.9833 417.063 109.962C377.824 162.197 334.592 207.212 286.166 250.998C243.394 289.653 188.454 310.701 141.534 344.193C89.9741 381.066 39.4589 419.536 -11.5479 457.176" stroke="#379436" stroke-width="3.85231" stroke-miterlimit="10"/>
<path d="M558.683 18.334C526.359 28.6275 491.084 24.4794 459.958 36.4936C421.18 51.642 396.629 93.4308 371.648 123.82C333.578 170.217 286.166 209.548 237.064 244.085C132.316 317.83 21.453 384.753 -84.5551 457.177" stroke="#379436" stroke-width="3.85231" stroke-miterlimit="10"/>
<path d="M533.242 17.7812C500.026 28.3513 463.614 26.9993 431.505 39.5359C392.021 55.053 367.808 90.2969 340.215 120.317C295.507 168.927 243.271 203.802 187.686 238.862C72.4396 311.521 -42.7354 384.293 -157.839 457.177" stroke="#379436" stroke-width="3.85231" stroke-miterlimit="10"/>
</g>
</svg>

