<svg width="267" height="288" viewBox="0 0 267 288" fill="none" xmlns="http://www.w3.org/2000/svg">
<path opacity="0.1" d="M-30.5661 -354.209L-29.2669 -352.538C-29.3671 -352.725 -29.4584 -352.91 -29.5573 -353.098C-29.9946 -353.718 -30.4345 -354.338 -30.8824 -354.96C-30.7746 -354.71 -30.6731 -354.46 -30.5661 -354.209ZM-23.7037 -343.647C-23.35 -343.216 -22.9882 -342.781 -22.6384 -342.351L-22.7407 -342.527L-23.9507 -344.153L-23.7037 -343.647ZM-28.644 -349.661C-27.856 -348.712 -27.1002 -347.774 -26.3148 -346.826C-26.5623 -347.316 -26.8281 -347.811 -27.0777 -348.302C-27.7859 -349.23 -28.5272 -350.169 -29.2537 -351.102C-29.0529 -350.622 -28.8423 -350.14 -28.644 -349.661ZM-16.2668 -332.894C-15.9624 -332.534 -15.6808 -332.182 -15.3781 -331.823L-15.384 -331.832C-15.7054 -332.245 -16.0413 -332.663 -16.3665 -333.077L-16.2668 -332.894ZM-21.3719 -338.841C-20.6403 -337.992 -19.8978 -337.139 -19.1751 -336.293C-19.3904 -336.678 -19.5972 -337.063 -19.8141 -337.449C-20.5796 -338.41 -21.306 -339.356 -22.0843 -340.322C-21.8495 -339.829 -21.6028 -339.333 -21.3719 -338.841ZM-26.8519 -345.163C-25.7989 -343.969 -24.7867 -342.789 -23.7529 -341.601C-24.0484 -342.214 -24.3473 -342.827 -24.6479 -343.441C-25.6155 -344.628 -26.6027 -345.821 -27.5805 -347.011C-27.3346 -346.394 -27.0943 -345.779 -26.8519 -345.163ZM-112.973 132.045L-112.7 131.63C-112.669 131.313 -112.635 130.998 -112.602 130.681L-112.814 131.067C-112.869 131.393 -112.919 131.719 -112.973 132.045ZM-8.12337 -321.647L-7.8011 -321.274C-7.93781 -321.443 -8.06564 -321.61 -8.20235 -321.779L-8.12337 -321.647ZM-13.6297 -327.96C-12.9258 -327.172 -12.2443 -326.393 -11.5578 -325.612C-11.7425 -325.918 -11.9195 -326.223 -12.1055 -326.53C-12.7899 -327.361 -13.4922 -328.198 -14.1774 -329.028C-13.9893 -328.671 -13.8152 -328.318 -13.6297 -327.96ZM-19.2626 -334.226C-18.2372 -333.085 -17.2038 -331.942 -16.1869 -330.805C-16.5219 -331.431 -16.873 -332.062 -17.2123 -332.69C-18.1582 -333.81 -19.1318 -334.94 -20.1062 -336.072C-19.8239 -335.456 -19.5411 -334.84 -19.2626 -334.226ZM-25.1204 -340.651C-23.8548 -339.286 -22.6078 -337.929 -21.3791 -336.58C-21.6966 -337.267 -21.9969 -337.95 -22.3191 -338.639C-23.5287 -340.036 -24.7159 -341.425 -25.928 -342.823C-25.6499 -342.098 -25.3917 -341.375 -25.1204 -340.651ZM-113.553 135.657C-113.37 135.415 -113.179 135.176 -112.993 134.934L-112.872 133.54C-113.024 133.775 -113.18 134.008 -113.33 134.243C-113.405 134.714 -113.481 135.185 -113.553 135.657ZM-115.155 137.787L-114.802 137.313L-114.664 136.363L-114.925 136.778C-115.002 137.115 -115.082 137.45 -115.155 137.787ZM-116.617 139.759L-116.57 139.693L-116.506 139.394L-116.617 139.759ZM-5.28676 -316.703C-4.62738 -315.966 -3.9549 -315.223 -3.28831 -314.483L-3.99519 -315.581C-4.60616 -316.3 -5.2524 -317.032 -5.87993 -317.757C-5.67952 -317.405 -5.4863 -317.055 -5.28676 -316.703ZM-11.1285 -323.086C-10.1197 -322.008 -9.10371 -320.927 -8.13228 -319.865C-8.43245 -320.386 -8.76106 -320.914 -9.06633 -321.436C-10.0649 -322.585 -11.0474 -323.728 -12.0473 -324.878C-11.7446 -324.281 -11.4283 -323.681 -11.1285 -323.086ZM-17.231 -329.627L-13.4671 -325.593C-13.8382 -326.313 -14.1987 -327.031 -14.5753 -327.753C-15.7267 -329.053 -16.9236 -330.37 -18.109 -331.682C-17.8063 -330.995 -17.5278 -330.313 -17.231 -329.627ZM-23.4794 -336.184C-22.0168 -334.675 -20.5478 -333.163 -19.1445 -331.678C-19.4863 -332.455 -19.857 -333.238 -20.2081 -334.017C-21.6041 -335.557 -22.9623 -337.082 -24.3783 -338.63C-24.0803 -337.815 -23.7686 -336.997 -23.4794 -336.184ZM-114.061 139.169C-113.794 138.866 -113.531 138.563 -113.261 138.261C-113.219 137.694 -113.18 137.126 -113.135 136.56C-113.365 136.863 -113.587 137.168 -113.817 137.472C-113.897 138.037 -113.983 138.602 -114.061 139.169ZM-115.879 141.236C-115.675 140.999 -115.465 140.764 -115.259 140.527C-115.197 140.066 -115.132 139.606 -115.067 139.145L-115.591 139.86C-115.687 140.319 -115.785 140.777 -115.879 141.236ZM-117.61 143.273L-117.211 142.803C-117.148 142.485 -117.087 142.165 -117.021 141.847C-117.123 141.99 -117.226 142.131 -117.328 142.273C-117.42 142.607 -117.517 142.939 -117.61 143.273ZM-119.203 145.186L-119.118 145.082L-119.019 144.704L-119.038 144.731L-119.203 145.186ZM3.53467 -305.261C4.14903 -304.6 4.77698 -303.935 5.37903 -303.279C5.23468 -303.493 5.08223 -303.71 4.93533 -303.924C4.27002 -304.688 3.62296 -305.445 2.95425 -306.211L3.53467 -305.261ZM-2.48709 -311.727C-1.50548 -310.679 -0.545517 -309.639 0.432281 -308.592C0.113861 -309.107 -0.184189 -309.616 -0.5056 -310.132C-1.44731 -311.192 -2.42509 -312.266 -3.3876 -313.334C-3.09296 -312.8 -2.77792 -312.26 -2.48709 -311.727ZM-8.80309 -318.339C-7.56332 -317.059 -6.3138 -315.775 -5.11691 -314.513C-5.48332 -315.172 -5.85783 -315.833 -6.23232 -316.495C-7.43599 -317.822 -8.60228 -319.133 -9.82887 -320.469C-9.47902 -319.757 -9.14572 -319.049 -8.80309 -318.339ZM-15.2779 -325.057C-13.8004 -323.535 -12.3602 -322.028 -10.8971 -320.512C-11.2847 -321.299 -11.6767 -322.087 -12.0741 -322.876C-13.4506 -324.365 -14.8602 -325.868 -16.2646 -327.369C-15.9407 -326.599 -15.5946 -325.825 -15.2779 -325.057ZM-21.9922 -331.83C-20.3521 -330.192 -18.6949 -328.546 -17.1181 -326.934C-17.4662 -327.761 -17.8215 -328.59 -18.179 -329.419C-19.7156 -331.051 -21.2661 -332.686 -22.8426 -334.334C-22.5535 -333.498 -22.2733 -332.664 -21.9922 -331.83ZM-114.513 142.611C-114.177 142.282 -113.836 141.954 -113.497 141.625C-113.455 140.972 -113.407 140.319 -113.361 139.666C-113.665 140.01 -113.97 140.355 -114.271 140.7C-114.354 141.337 -114.433 141.975 -114.513 142.611ZM-116.546 144.637C-116.253 144.343 -115.961 144.049 -115.667 143.755C-115.597 143.192 -115.524 142.631 -115.452 142.068C-115.715 142.373 -115.972 142.679 -116.232 142.984C-116.339 143.535 -116.441 144.086 -116.546 144.637ZM-118.499 146.624C-118.264 146.381 -118.034 146.136 -117.797 145.894C-117.713 145.438 -117.623 144.982 -117.537 144.527C-117.743 144.774 -117.942 145.023 -118.147 145.271L-118.499 146.624ZM-120.351 148.551C-120.202 148.393 -120.047 148.237 -119.898 148.08C-119.816 147.753 -119.728 147.428 -119.644 147.101L-120.015 147.559C-120.126 147.889 -120.241 148.219 -120.351 148.551ZM-122.077 150.408L-121.94 150.26C-121.896 150.121 -121.854 149.981 -121.808 149.842L-121.868 149.918C-121.936 150.082 -122.009 150.244 -122.077 150.408ZM12.7365 -293.744C13.3585 -293.088 13.9237 -292.455 14.5355 -291.803C14.4382 -291.941 14.3499 -292.075 14.2523 -292.213C13.632 -292.911 12.9892 -293.618 12.3638 -294.317C12.4856 -294.127 12.6164 -293.934 12.7365 -293.744ZM6.57124 -300.174C7.50064 -299.206 8.44237 -298.232 9.3569 -297.27C9.04102 -297.754 8.73277 -298.235 8.41264 -298.719C7.49428 -299.732 6.60056 -300.733 5.66139 -301.754C5.97559 -301.224 6.26045 -300.703 6.57124 -300.174ZM0.0323334 -306.978C1.32219 -305.655 2.54286 -304.362 3.8132 -303.048C3.41664 -303.712 2.99292 -304.385 2.59041 -305.052C1.41348 -306.325 0.211945 -307.607 -0.979004 -308.885C-0.637207 -308.248 -0.301392 -307.613 0.0323334 -306.978ZM-6.54141 -313.603C-5.09869 -312.155 -3.64792 -310.703 -2.24257 -309.27C-2.64719 -310.024 -3.02548 -310.77 -3.43903 -311.527C-4.82399 -312.996 -6.23102 -314.476 -7.6593 -315.963C-7.28737 -315.177 -6.90358 -314.387 -6.54141 -313.603ZM-13.4964 -320.593C-11.8147 -318.923 -10.1966 -317.279 -8.54411 -315.622C-8.93811 -316.457 -9.34825 -317.297 -9.75372 -318.136C-11.3123 -319.759 -12.8846 -321.388 -14.4619 -323.02C-14.1345 -322.209 -13.8153 -321.401 -13.4964 -320.593ZM-20.5711 -327.502C-18.7624 -325.743 -16.944 -323.98 -15.1866 -322.243C-15.5365 -323.114 -15.8681 -323.98 -16.2273 -324.852C-17.9065 -326.572 -19.6485 -328.32 -21.3922 -330.068C-21.1103 -329.211 -20.8441 -328.357 -20.5711 -327.502ZM-114.925 146.041C-114.51 145.686 -114.102 145.328 -113.683 144.974C-113.646 144.264 -113.612 143.554 -113.571 142.844C-113.944 143.211 -114.313 143.578 -114.683 143.946C-114.768 144.644 -114.847 145.343 -114.925 146.041ZM-117.154 147.969C-116.785 147.644 -116.409 147.32 -116.036 146.996C-115.967 146.364 -115.904 145.731 -115.832 145.099C-116.16 145.431 -116.496 145.76 -116.821 146.092C-116.938 146.717 -117.046 147.344 -117.154 147.969ZM-119.315 149.892C-118.995 149.604 -118.67 149.318 -118.347 149.031C-118.254 148.484 -118.164 147.935 -118.068 147.388C-118.356 147.688 -118.647 147.987 -118.932 148.286C-119.065 148.82 -119.186 149.357 -119.315 149.892ZM-121.397 151.797C-121.137 151.556 -120.879 151.316 -120.616 151.077L-120.297 149.734C-120.525 149.98 -120.752 150.227 -120.98 150.472C-121.121 150.913 -121.26 151.355 -121.397 151.797ZM-123.378 153.646C-123.199 153.477 -123.026 153.305 -122.846 153.136C-122.748 152.814 -122.643 152.493 -122.542 152.171C-122.693 152.339 -122.84 152.508 -122.989 152.675C-123.118 152.999 -123.251 153.322 -123.378 153.646ZM-125.205 155.398L-125.024 155.224C-124.967 155.075 -124.913 154.924 -124.856 154.775L-124.964 154.898L-125.205 155.398ZM22.5039 -281.788C22.9956 -281.27 23.4953 -280.748 23.9899 -280.229C23.8456 -280.426 23.7067 -280.621 23.5615 -280.818C23.0826 -281.346 22.5855 -281.882 22.0938 -282.414C22.236 -282.204 22.3642 -281.998 22.5039 -281.788ZM15.9752 -288.57C16.8953 -287.636 17.8022 -286.707 18.6938 -285.786C18.4254 -286.177 18.1507 -286.57 17.8816 -286.962C16.9738 -287.943 16.0546 -288.93 15.1494 -289.909C15.4296 -289.461 15.6984 -289.017 15.9752 -288.57ZM9.42738 -295.208C10.6531 -293.965 11.8895 -292.718 13.1051 -291.48C12.6758 -292.159 12.2359 -292.843 11.7986 -293.525C10.6625 -294.732 9.47069 -295.962 8.28867 -297.188C8.66655 -296.529 9.05589 -295.865 9.42738 -295.208ZM2.56917 -302.096C4.02547 -300.654 5.44781 -299.227 6.86972 -297.801C6.45491 -298.521 6.05113 -299.237 5.6291 -299.959L1.44278 -304.319C1.82703 -303.575 2.19299 -302.837 2.56917 -302.096ZM-4.47839 -309.014C-2.8183 -307.391 -1.15988 -305.767 0.470062 -304.156C0.022995 -305.022 -0.457184 -305.899 -0.914886 -306.768C-2.4234 -308.316 -4.01134 -309.898 -5.58228 -311.472C-5.21034 -310.652 -4.83971 -309.832 -4.47839 -309.014ZM-11.7594 -316.096C-9.92865 -314.336 -8.13524 -312.592 -6.34819 -310.85C-6.73201 -311.699 -7.09801 -312.544 -7.49329 -313.396C-9.24127 -315.158 -10.9697 -316.911 -12.7364 -318.681C-12.4023 -317.817 -12.083 -316.958 -11.7594 -316.096ZM-19.2256 -323.209C-17.2505 -321.336 -15.2809 -319.464 -13.3478 -317.609C-13.6998 -318.531 -14.0836 -319.46 -14.4487 -320.385C-16.2608 -322.186 -18.1705 -324.029 -20.0582 -325.863C-19.7805 -324.978 -19.491 -324.092 -19.2256 -323.209ZM-110.276 145.772C-85.4847 128.018 -55.0986 112.042 -24.1274 95.7644C89.5043 36.0456 210.885 -27.7945 90.7322 -199.052M-115.293 149.44C-114.816 149.082 -114.328 148.727 -113.846 148.37C-113.814 147.606 -113.781 146.842 -113.742 146.078C-114.18 146.453 -114.617 146.828 -115.051 147.203C-115.134 147.948 -115.219 148.693 -115.293 149.44ZM-117.719 151.291C-117.274 150.949 -116.827 150.607 -116.377 150.266C-116.311 149.566 -116.238 148.868 -116.163 148.169C-116.569 148.525 -116.968 148.885 -117.37 149.244C-117.489 149.925 -117.61 150.607 -117.719 151.291ZM-120.075 153.127C-119.67 152.807 -119.271 152.486 -118.862 152.168C-118.765 151.546 -118.666 150.924 -118.563 150.303C-118.929 150.633 -119.288 150.965 -119.65 151.296C-119.794 151.906 -119.937 152.516 -120.075 153.127ZM-122.356 154.944C-122.006 154.661 -121.654 154.38 -121.302 154.098C-121.186 153.566 -121.078 153.032 -120.956 152.501C-121.268 152.79 -121.584 153.076 -121.891 153.365C-122.051 153.89 -122.201 154.418 -122.356 154.944ZM-124.56 156.753C-124.277 156.518 -123.987 156.284 -123.702 156.049L-123.319 154.734C-123.571 154.976 -123.826 155.217 -124.075 155.46L-124.56 156.753ZM-126.668 158.535L-126.072 158.026C-125.956 157.706 -125.833 157.388 -125.713 157.069L-126.221 157.574C-126.368 157.895 -126.523 158.214 -126.668 158.535ZM-128.58 160.182L-128.356 159.983L-128.164 159.544L-128.329 159.716C-128.415 159.871 -128.495 160.027 -128.58 160.182ZM32.4412 -269.937C32.8746 -269.493 33.3192 -269.044 33.7467 -268.603L33.6593 -268.717C33.1519 -269.266 32.6581 -269.81 32.1499 -270.359L32.4412 -269.937ZM25.8564 -276.668C26.7913 -275.711 27.7245 -274.754 28.6675 -273.795C28.3461 -274.246 27.9979 -274.709 27.674 -275.162C26.8091 -276.08 25.9073 -277.015 25.0221 -277.943C25.3006 -277.517 25.5813 -277.092 25.8564 -276.668ZM19.1986 -283.343C20.347 -282.211 21.5091 -281.074 22.6186 -279.96C22.2619 -280.498 21.9278 -281.028 21.566 -281.568C20.3564 -282.831 19.1837 -284.078 17.9622 -285.347C18.366 -284.682 18.8007 -284.006 19.1986 -283.343ZM12.1213 -290.342L16.4414 -286.069C15.9769 -286.829 15.5035 -287.592 15.0314 -288.355C13.7063 -289.715 12.3315 -291.096 10.9686 -292.473C11.3643 -291.758 11.7324 -291.054 12.1213 -290.342ZM4.94472 -297.319C6.59419 -295.737 8.24321 -294.156 9.84004 -292.598C9.4006 -293.391 8.93867 -294.19 8.48904 -294.987C6.87523 -296.616 5.31792 -298.221 3.6799 -299.86C4.10236 -299.013 4.53203 -298.163 4.94472 -297.319ZM-2.49223 -304.449C-0.676315 -302.711 1.13026 -300.98 2.93004 -299.25C2.49443 -300.128 2.06691 -301.003 1.61983 -301.885C-0.0682831 -303.561 -1.81755 -305.266 -3.55704 -306.966C-3.18977 -306.124 -2.84888 -305.288 -2.49223 -304.449ZM-10.1244 -311.654C-8.13568 -309.797 -6.16013 -307.946 -4.22914 -306.114C-4.61465 -307.006 -5.02905 -307.906 -5.4256 -308.802C-7.32686 -310.66 -9.19203 -312.502 -11.1264 -314.375C-10.7918 -313.468 -10.4467 -312.559 -10.1244 -311.654ZM-18.013 -319.002C-15.8906 -317.033 -13.7872 -315.073 -11.6937 -313.116C-12.0282 -314.039 -12.3666 -314.962 -12.7139 -315.887C-14.689 -317.792 -16.7376 -319.729 -18.7765 -321.662C-18.5132 -320.774 -18.2652 -319.888 -18.013 -319.002ZM-115.599 152.837C-115.055 152.479 -114.513 152.12 -113.964 151.763C-113.941 150.959 -113.911 150.155 -113.88 149.352C-114.385 149.731 -114.89 150.11 -115.39 150.49C-115.461 151.272 -115.532 152.055 -115.599 152.837ZM-118.209 154.575C-117.697 154.23 -117.186 153.884 -116.669 153.54C-116.607 152.798 -116.539 152.057 -116.471 151.315C-116.942 151.676 -117.419 152.035 -117.885 152.397C-117.994 153.123 -118.104 153.849 -118.209 154.575ZM-120.764 156.314C-120.292 155.987 -119.811 155.664 -119.335 155.339C-119.239 154.66 -119.134 153.982 -119.031 153.304C-119.466 153.648 -119.905 153.99 -120.335 154.336C-120.48 154.994 -120.628 155.653 -120.764 156.314ZM-123.253 158.064C-122.823 157.759 -122.389 157.455 -121.955 157.151C-121.832 156.542 -121.7 155.934 -121.568 155.327C-121.965 155.648 -122.356 155.972 -122.749 156.295C-122.92 156.884 -123.09 157.474 -123.253 158.064ZM-125.659 159.802C-125.278 159.523 -124.902 159.244 -124.517 158.966C-124.376 158.444 -124.241 157.92 -124.095 157.399C-124.444 157.691 -124.784 157.987 -125.13 158.281C-125.312 158.786 -125.481 159.295 -125.659 159.802ZM-127.98 161.516C-127.667 161.282 -127.357 161.047 -127.043 160.814C-126.897 160.386 -126.745 159.96 -126.598 159.532C-126.873 159.771 -127.151 160.008 -127.425 160.246C-127.61 160.67 -127.798 161.092 -127.98 161.516ZM-130.187 163.195C-129.97 163.028 -129.75 162.862 -129.532 162.696C-129.401 162.385 -129.27 162.076 -129.135 161.766C-129.324 161.935 -129.515 162.101 -129.7 162.269C-129.864 162.577 -130.026 162.886 -130.187 163.195ZM-132.214 164.787L-131.947 164.577L-131.72 164.124L-131.92 164.311L-132.214 164.787ZM42.6297 -258.081L42.718 -257.991L42.6165 -258.098L42.6297 -258.081ZM36.1791 -264.521C37.0104 -263.69 37.8562 -262.853 38.6786 -262.026C38.4226 -262.374 38.1865 -262.713 37.9288 -263.061C37.0079 -264.026 36.1388 -264.967 35.2009 -265.939C35.5206 -265.468 35.8615 -264.99 36.1791 -264.521ZM29.1549 -271.533C30.348 -270.354 31.482 -269.201 32.6691 -268.025C32.279 -268.591 31.8926 -269.156 31.4969 -269.724C30.4036 -270.849 29.2819 -271.987 28.1763 -273.117C28.5163 -272.584 28.8199 -272.064 29.1549 -271.533ZM22.0645 -278.412C23.4987 -277.03 24.9431 -275.643 26.3396 -274.279C25.8789 -274.995 25.3889 -275.724 24.9223 -276.442C23.5408 -277.84 22.1825 -279.227 20.7717 -280.638C21.2103 -279.893 21.6344 -279.153 22.0645 -278.412ZM14.7439 -285.49C16.3837 -283.913 17.9869 -282.351 19.6236 -280.774C19.1591 -281.561 18.7299 -282.335 18.2552 -283.126C16.6766 -284.698 15.0645 -286.285 13.4575 -287.87C13.8824 -287.079 14.3295 -286.279 14.7439 -285.49ZM7.17203 -292.637C8.97775 -290.949 10.7992 -289.254 12.5463 -287.593C12.0954 -288.435 11.6373 -289.279 11.1775 -290.125C9.45581 -291.812 7.74307 -293.496 5.9832 -295.202C6.39377 -294.342 6.77081 -293.493 7.17203 -292.637ZM-0.604538 -299.933C1.38078 -298.077 3.33553 -296.234 5.31322 -294.381C4.88142 -295.287 4.43901 -296.196 3.9949 -297.106C2.11998 -298.917 0.206406 -300.744 -1.70801 -302.573C-1.34203 -301.694 -0.960327 -300.81 -0.604538 -299.933ZM-8.62563 -307.305C-6.5036 -305.375 -4.36584 -303.439 -2.31726 -301.541C-2.68961 -302.439 -3.06239 -303.338 -3.44493 -304.239C-5.46083 -306.157 -7.48184 -308.078 -9.54445 -310.017C-9.22687 -309.111 -8.93091 -308.21 -8.62563 -307.305ZM-16.8582 -314.818C-14.5927 -312.758 -12.3662 -310.717 -10.1134 -308.664C-10.4335 -309.59 -10.7464 -310.516 -11.0772 -311.445C-13.2162 -313.451 -15.3964 -315.475 -17.5834 -317.502C-17.3341 -316.607 -17.0968 -315.712 -16.8582 -314.818ZM-115.868 156.228C-115.262 155.878 -114.649 155.53 -114.037 155.182C-114.022 154.347 -114.014 153.511 -113.994 152.676C-114.559 153.045 -115.125 153.415 -115.684 153.785C-115.751 154.599 -115.809 155.414 -115.868 156.228ZM-118.659 157.858C-118.084 157.517 -117.498 157.18 -116.918 156.841C-116.862 156.06 -116.814 155.278 -116.754 154.499C-117.294 154.861 -117.826 155.226 -118.362 155.59C-118.467 156.345 -118.562 157.102 -118.659 157.858ZM-121.395 159.506C-120.85 159.175 -120.305 158.843 -119.754 158.513C-119.662 157.79 -119.571 157.068 -119.474 156.346C-119.984 156.697 -120.484 157.051 -120.989 157.404C-121.127 158.104 -121.263 158.805 -121.395 159.506ZM-124.078 161.161C-123.568 160.841 -123.062 160.52 -122.547 160.202C-122.423 159.545 -122.293 158.889 -122.165 158.233C-122.632 158.564 -123.101 158.895 -123.562 159.228C-123.737 159.872 -123.913 160.515 -124.078 161.161ZM-126.681 162.804C-126.224 162.509 -125.759 162.217 -125.296 161.924C-125.147 161.333 -124.991 160.745 -124.834 160.156C-125.257 160.466 -125.686 160.773 -126.106 161.085C-126.301 161.657 -126.493 162.23 -126.681 162.804ZM-129.203 164.447C-128.8 164.181 -128.389 163.918 -127.984 163.653C-127.821 163.146 -127.664 162.638 -127.497 162.132C-127.867 162.411 -128.234 162.691 -128.601 162.971C-128.805 163.462 -129.003 163.955 -129.203 164.447ZM-131.652 166.096C-131.314 165.865 -130.978 165.635 -130.636 165.405C-130.467 164.983 -130.291 164.562 -130.12 164.14C-130.425 164.379 -130.725 164.621 -131.028 164.86C-131.236 165.272 -131.449 165.682 -131.652 166.096ZM-133.947 167.676C-133.703 167.506 -133.465 167.332 -133.22 167.162C-133.077 166.862 -132.941 166.56 -132.794 166.26C-133.011 166.435 -133.218 166.612 -133.433 166.787C-133.608 167.082 -133.774 167.38 -133.947 167.676ZM-136.074 169.184L-135.774 168.971C-135.685 168.815 -135.593 168.659 -135.503 168.502C-135.578 168.566 -135.655 168.628 -135.731 168.691L-136.074 169.184ZM53.5027 -245.617L54.6724 -244.435L54.6007 -244.526C54.1965 -244.951 53.7638 -245.388 53.3524 -245.816L53.5027 -245.617ZM46.6556 -252.459C47.402 -251.732 48.1615 -250.998 48.8829 -250.283L48.3721 -250.958C47.5862 -251.77 46.7935 -252.585 46.0166 -253.392C46.2374 -253.078 46.4365 -252.773 46.6556 -252.459ZM39.5923 -259.361C40.7408 -258.237 41.9033 -257.106 43.0492 -255.983C42.6064 -256.604 42.1419 -257.233 41.6944 -257.857C40.652 -258.913 39.5575 -259.994 38.4769 -261.069C38.8561 -260.496 39.217 -259.932 39.5923 -259.361ZM32.3048 -266.437C33.7611 -265.043 35.1639 -263.673 36.5931 -262.292C36.1472 -262.958 35.6964 -263.627 35.2438 -264.296C33.841 -265.697 32.4305 -267.102 31.0277 -268.503C31.454 -267.814 31.8862 -267.123 32.3048 -266.437ZM24.9325 -273.421C26.5314 -271.91 28.1381 -270.395 29.7081 -268.897C29.2093 -269.702 28.7265 -270.5 28.2171 -271.309C26.7 -272.802 25.1329 -274.316 23.5632 -275.832C24.0209 -275.028 24.4837 -274.222 24.9325 -273.421ZM17.1483 -280.777C19.0088 -279.038 20.7865 -277.337 22.6236 -275.608C22.1358 -276.465 21.62 -277.331 21.1211 -278.192C19.3888 -279.87 17.651 -281.551 15.906 -283.234C16.331 -282.412 16.7348 -281.597 17.1483 -280.777ZM9.33737 -287.965C11.2976 -286.169 13.2643 -284.369 15.1723 -282.596C14.7142 -283.487 14.2735 -284.372 13.8026 -285.267C11.9315 -287.055 10.0095 -288.865 8.07892 -290.679C8.49373 -289.776 8.93486 -288.865 9.33737 -287.965ZM1.1286 -295.52C3.2897 -293.547 5.36458 -291.615 7.50529 -289.652C7.08539 -290.573 6.65233 -291.498 6.22011 -292.423C4.19318 -294.33 2.16072 -296.24 0.108307 -298.158C0.460281 -297.275 0.787659 -296.399 1.1286 -295.52ZM-7.18164 -302.971C-4.92332 -300.957 -2.6523 -298.936 -0.464447 -296.955C-0.826187 -297.876 -1.18025 -298.795 -1.556 -299.719C-3.698 -301.708 -5.88882 -303.72 -8.09409 -305.738C-7.78627 -304.815 -7.47716 -303.892 -7.18164 -302.971ZM-15.7755 -310.667C-13.3677 -308.521 -11.0207 -306.402 -8.61967 -304.26C-8.92792 -305.202 -9.26248 -306.151 -9.58134 -307.096C-11.8702 -309.189 -14.1651 -311.287 -16.4875 -313.395C-16.2498 -312.486 -16.0022 -311.575 -15.7755 -310.667ZM-116.101 159.631C-115.43 159.292 -114.756 158.955 -114.08 158.618C-114.075 157.749 -114.065 156.881 -114.051 156.012C-114.681 156.374 -115.304 156.739 -115.929 157.103C-115.99 157.945 -116.05 158.788 -116.101 159.631ZM-119.067 161.158C-118.423 160.822 -117.783 160.486 -117.132 160.153C-117.087 159.34 -117.034 158.528 -116.979 157.716C-117.58 158.069 -118.183 158.423 -118.777 158.779C-118.878 159.571 -118.976 160.364 -119.067 161.158ZM-121.978 162.691C-121.366 162.364 -120.754 162.037 -120.136 161.712C-120.052 160.955 -119.966 160.198 -119.873 159.441C-120.444 159.786 -121.02 160.129 -121.584 160.476C-121.721 161.213 -121.849 161.951 -121.978 162.691ZM-124.834 164.229C-124.26 163.915 -123.675 163.604 -123.096 163.291C-122.977 162.592 -122.862 161.892 -122.737 161.194C-123.275 161.529 -123.81 161.864 -124.343 162.2C-124.51 162.876 -124.672 163.553 -124.834 164.229ZM-127.643 165.799C-127.104 165.495 -126.558 165.192 -126.014 164.889C-125.864 164.245 -125.704 163.603 -125.548 162.961C-126.053 163.284 -126.546 163.612 -127.045 163.937C-127.247 164.558 -127.451 165.176 -127.643 165.799ZM-130.351 167.356C-129.861 167.07 -129.374 166.783 -128.878 166.499C-128.706 165.927 -128.527 165.355 -128.346 164.785C-128.805 165.089 -129.26 165.394 -129.714 165.699C-129.932 166.25 -130.14 166.804 -130.351 167.356ZM-132.988 168.911C-132.554 168.651 -132.122 168.39 -131.684 168.131C-131.499 167.639 -131.314 167.148 -131.126 166.658C-131.518 166.925 -131.915 167.189 -132.302 167.457C-132.531 167.942 -132.764 168.425 -132.988 168.911ZM-135.528 170.45C-135.177 170.234 -134.816 170.021 -134.464 169.805C-134.278 169.396 -134.084 168.99 -133.892 168.583C-134.218 168.814 -134.548 169.045 -134.872 169.277C-135.093 169.667 -135.311 170.059 -135.528 170.45ZM-137.938 171.972L-137.158 171.478C-136.999 171.183 -136.84 170.888 -136.679 170.594L-137.367 171.103L-137.938 171.972ZM-140.184 173.424L-139.825 173.186L-139.543 172.743L-139.835 172.97L-140.184 173.424ZM57.3833 -240.296C58.1412 -239.56 58.8919 -238.828 59.6315 -238.101L59.0417 -238.855C58.3021 -239.609 57.5323 -240.378 56.78 -241.138C56.9855 -240.855 57.1791 -240.577 57.3833 -240.296ZM50.267 -247.189C51.4355 -246.055 52.6175 -244.914 53.7859 -243.78C53.3987 -244.306 52.9745 -244.848 52.5831 -245.376C51.4095 -246.553 50.2793 -247.711 49.1011 -248.892C49.4913 -248.324 49.8815 -247.755 50.267 -247.189ZM42.9902 -254.157C44.345 -252.877 45.7015 -251.598 47.0182 -250.337C46.5745 -250.977 46.1571 -251.606 45.7075 -252.248C44.3824 -253.558 43.0059 -254.89 41.6443 -256.216C42.0858 -255.533 42.5571 -254.837 42.9902 -254.157ZM35.3334 -261.391C36.9472 -259.869 38.5508 -258.351 40.1574 -256.833C39.6602 -257.601 39.1554 -258.371 38.6489 -259.143C37.089 -260.66 35.5686 -262.16 34.0036 -263.68C34.4655 -262.91 34.8812 -262.157 35.3334 -261.391ZM27.5462 -268.624C29.3668 -266.949 31.2005 -265.269 32.9659 -263.621C32.4522 -264.478 31.8922 -265.354 31.3661 -266.216C29.6797 -267.833 27.9249 -269.481 26.1837 -271.123C26.6435 -270.288 27.0966 -269.455 27.5462 -268.624ZM19.5446 -276.008C21.5308 -274.19 23.4439 -272.407 25.4025 -270.601C24.9253 -271.472 24.4718 -272.333 23.9832 -273.207C22.0526 -275.032 20.1539 -276.841 18.2148 -278.67C18.656 -277.783 19.1145 -276.89 19.5446 -276.008ZM11.2845 -283.465C13.4154 -281.549 15.5515 -279.63 17.6302 -277.738C17.1674 -278.675 16.677 -279.621 16.2019 -280.563C14.231 -282.4 12.1714 -284.279 10.13 -286.148C10.5245 -285.251 10.8998 -284.359 11.2845 -283.465ZM2.83665 -291.048C5.11324 -289.021 7.34056 -287.016 9.57256 -285.009C9.17389 -285.925 8.79732 -286.833 8.38589 -287.752C6.18065 -289.779 4.00298 -291.794 1.78329 -293.827C2.13441 -292.901 2.49826 -291.971 2.83665 -291.048ZM-5.87054 -298.742C-3.46362 -296.623 -1.06645 -294.51 1.29166 -292.414C0.931183 -293.376 0.545624 -294.344 0.172424 -295.309C-2.06807 -297.344 -4.40364 -299.422 -6.72354 -301.493C-6.43483 -300.575 -6.14737 -299.657 -5.87054 -298.742ZM-14.793 -306.545C-12.2643 -304.348 -9.75121 -302.159 -7.28271 -299.99C-7.56845 -300.914 -7.84697 -301.838 -8.14333 -302.765C-10.5812 -304.945 -12.986 -307.11 -15.4409 -309.299C-15.2151 -308.379 -15.007 -307.462 -14.793 -306.545ZM-116.271 163.037C-115.54 162.713 -114.811 162.388 -114.074 162.066C-114.081 161.177 -114.08 160.289 -114.079 159.401C-114.768 159.745 -115.459 160.089 -116.14 160.436C-116.186 161.302 -116.231 162.169 -116.271 163.037ZM-119.421 164.451C-118.718 164.13 -118.009 163.812 -117.299 163.495C-117.263 162.653 -117.218 161.812 -117.173 160.972C-117.837 161.314 -118.499 161.657 -119.157 162.001C-119.249 162.817 -119.34 163.633 -119.421 164.451ZM-122.514 165.875C-121.842 165.561 -121.161 165.252 -120.482 164.94C-120.406 164.145 -120.316 163.353 -120.227 162.561C-120.868 162.9 -121.498 163.243 -122.132 163.585C-122.262 164.347 -122.393 165.11 -122.514 165.875ZM-125.541 167.32C-124.899 167.01 -124.254 166.701 -123.604 166.393C-123.49 165.657 -123.372 164.92 -123.249 164.186C-123.86 164.518 -124.463 164.854 -125.066 165.188C-125.231 165.898 -125.385 166.609 -125.541 167.32ZM-128.52 168.779C-127.906 168.474 -127.299 168.167 -126.679 167.864C-126.532 167.191 -126.391 166.517 -126.24 165.845C-126.807 166.164 -127.378 166.481 -127.939 166.802C-128.136 167.461 -128.33 168.119 -128.52 168.779ZM-131.428 170.242C-130.863 169.952 -130.292 169.665 -129.723 169.377C-129.546 168.757 -129.361 168.14 -129.177 167.522C-129.707 167.829 -130.24 168.134 -130.763 168.443C-130.988 169.041 -131.212 169.64 -131.428 170.242ZM-134.245 171.702C-133.733 171.431 -133.21 171.166 -132.693 170.897C-132.498 170.346 -132.306 169.794 -132.104 169.244C-132.589 169.534 -133.07 169.826 -133.549 170.119C-133.785 170.645 -134.013 171.174 -134.245 171.702ZM-137.014 173.194C-136.552 172.942 -136.089 172.691 -135.623 172.441C-135.415 171.958 -135.199 171.476 -134.987 170.995C-135.417 171.262 -135.835 171.533 -136.26 171.802C-136.513 172.265 -136.769 172.728 -137.014 173.194ZM-139.634 174.646C-139.25 174.43 -138.875 174.211 -138.488 173.996C-138.289 173.61 -138.097 173.221 -137.894 172.836C-138.244 173.061 -138.589 173.288 -138.936 173.515C-139.174 173.891 -139.401 174.269 -139.634 174.646ZM-142.152 176.079C-141.875 175.917 -141.59 175.758 -141.311 175.596C-141.137 175.31 -140.956 175.025 -140.782 174.738C-141.027 174.903 -141.279 175.064 -141.522 175.23C-141.731 175.513 -141.947 175.794 -142.152 176.079ZM-144.449 177.443L-144.061 177.213L-143.762 176.783L-144.088 177.009C-144.209 177.153 -144.328 177.298 -144.449 177.443ZM68.4695 -227.928C69.2146 -227.212 69.9763 -226.489 70.7027 -225.781C70.4662 -226.077 70.2128 -226.381 69.9763 -226.678C69.2545 -227.405 68.4975 -228.149 67.7574 -228.886L68.4695 -227.928ZM61.2963 -234.827L64.5863 -231.664C64.2203 -232.149 63.8806 -232.621 63.5108 -233.108C62.3721 -234.239 61.2457 -235.364 60.1006 -236.498C60.4934 -235.943 60.9086 -235.38 61.2963 -234.827ZM53.8525 -241.881C55.1806 -240.637 56.5227 -239.388 57.8151 -238.16C57.3456 -238.817 56.8794 -239.473 56.403 -240.133C55.1374 -241.37 53.8301 -242.627 52.5356 -243.877C52.9843 -243.208 53.4131 -242.547 53.8525 -241.881ZM46.0688 -249.191C47.7136 -247.656 49.3079 -246.146 50.9383 -244.619C50.4037 -245.413 49.8361 -246.221 49.2931 -247.018C47.7442 -248.51 46.2302 -249.987 44.6541 -251.491C45.1364 -250.72 45.5945 -249.958 46.0688 -249.191ZM38.2371 -256.394C40.025 -254.758 41.8196 -253.117 43.5685 -251.5C43.0492 -252.326 42.552 -253.146 42.023 -253.977C40.2844 -255.629 38.5143 -257.295 36.746 -258.96C37.2419 -258.105 37.7531 -257.245 38.2371 -256.394ZM30.0936 -263.838C32.0709 -262.046 33.9977 -260.278 35.9418 -258.501C35.4213 -259.401 34.9054 -260.298 34.3717 -261.203C32.5138 -262.943 30.6299 -264.695 28.7257 -266.458C29.191 -265.581 29.6402 -264.71 30.0936 -263.838ZM21.7397 -271.344C23.8821 -269.425 26.0169 -267.51 28.1224 -265.608C27.6299 -266.543 27.0906 -267.494 26.5837 -268.433C24.5461 -270.318 22.5031 -272.204 20.4434 -274.098C20.8837 -273.178 21.3125 -272.261 21.7397 -271.344ZM13.2027 -278.938C15.464 -276.941 17.7062 -274.955 19.9161 -272.982C19.4678 -273.927 19.0453 -274.864 18.5838 -275.813C16.449 -277.762 14.2327 -279.748 12.0313 -281.728C12.4245 -280.797 12.8219 -279.865 13.2027 -278.938ZM4.37958 -286.705C6.79626 -284.587 9.17856 -282.484 11.5651 -280.379C11.166 -281.339 10.7342 -282.308 10.3202 -283.271C8.00714 -285.355 5.73099 -287.421 3.37883 -289.523C3.71976 -288.582 4.0518 -287.643 4.37958 -286.705ZM-4.63206 -294.518C-2.10922 -292.346 0.421234 -290.17 2.87444 -288.031C2.53816 -288.972 2.21851 -289.909 1.8712 -290.854C-0.52002 -292.982 -2.97113 -295.14 -5.42307 -297.297C-5.14667 -296.368 -4.89658 -295.445 -4.63206 -294.518ZM-13.8734 -302.486C-11.2066 -300.202 -8.61755 -297.954 -5.98347 -295.686C-6.25903 -296.637 -6.54648 -297.591 -6.83435 -298.545C-9.3644 -300.768 -11.9085 -302.998 -14.4891 -305.246C-14.278 -304.326 -14.073 -303.405 -13.8734 -302.486ZM-116.396 166.45C-115.61 166.145 -114.816 165.844 -114.022 165.543C-114.039 164.631 -114.063 163.719 -114.074 162.809C-114.823 163.138 -115.566 163.47 -116.309 163.802C-116.344 164.683 -116.369 165.566 -116.396 166.45ZM-119.716 167.754C-118.954 167.451 -118.185 167.15 -117.415 166.85C-117.389 165.986 -117.37 165.121 -117.336 164.258C-118.064 164.586 -118.781 164.917 -119.501 165.248C-119.579 166.082 -119.646 166.918 -119.716 167.754ZM-122.988 169.08C-122.248 168.777 -121.509 168.472 -120.762 168.171C-120.695 167.357 -120.624 166.544 -120.551 165.731C-121.249 166.055 -121.946 166.379 -122.636 166.705C-122.757 167.495 -122.877 168.287 -122.988 169.08ZM-126.197 170.416C-125.49 170.117 -124.783 169.817 -124.066 169.521C-123.962 168.754 -123.844 167.99 -123.727 167.226C-124.396 167.545 -125.068 167.862 -125.729 168.183C-125.889 168.926 -126.048 169.67 -126.197 170.416ZM-129.339 171.759C-128.668 171.466 -127.985 171.177 -127.306 170.886C-127.165 170.173 -127.021 169.459 -126.869 168.748C-127.514 169.064 -128.154 169.383 -128.79 169.702C-128.981 170.386 -129.158 171.073 -129.339 171.759ZM-132.432 173.128C-131.795 172.84 -131.146 172.557 -130.501 172.273C-130.329 171.613 -130.155 170.953 -129.975 170.294C-130.581 170.602 -131.171 170.915 -131.77 171.225C-131.993 171.859 -132.22 172.491 -132.432 173.128ZM-135.436 174.505C-134.842 174.229 -134.25 173.953 -133.652 173.68C-133.453 173.078 -133.243 172.479 -133.034 171.88C-133.599 172.177 -134.157 172.476 -134.716 172.775C-134.963 173.35 -135.198 173.928 -135.436 174.505ZM-138.379 175.894C-137.829 175.629 -137.284 175.364 -136.727 175.101C-136.513 174.572 -136.302 174.042 -136.082 173.515C-136.585 173.788 -137.092 174.06 -137.59 174.335C-137.853 174.855 -138.122 175.372 -138.379 175.894ZM-141.211 177.268C-140.74 177.034 -140.257 176.803 -139.78 176.571C-139.555 176.106 -139.32 175.644 -139.086 175.182C-139.537 175.436 -139.989 175.689 -140.434 175.945C-140.699 176.385 -140.954 176.827 -141.211 177.268ZM-143.957 178.659C-143.555 178.452 -143.147 178.249 -142.742 178.043C-142.525 177.665 -142.308 177.287 -142.089 176.909C-142.46 177.128 -142.828 177.347 -143.197 177.566C-143.449 177.931 -143.707 178.293 -143.957 178.659ZM-146.55 180.018C-146.256 179.861 -145.962 179.704 -145.666 179.548C-145.481 179.271 -145.297 178.994 -145.11 178.718C-145.387 178.888 -145.658 179.061 -145.934 179.232C-146.145 179.492 -146.343 179.757 -146.55 180.018ZM-148.942 181.303C-148.794 181.222 -148.652 181.139 -148.503 181.058C-148.393 180.915 -148.279 180.773 -148.169 180.63C-148.295 180.712 -148.417 180.795 -148.544 180.876C-148.676 181.019 -148.811 181.16 -148.942 181.303ZM79.8974 -215.376C80.6005 -214.702 81.3193 -214.021 82.0135 -213.351C81.8084 -213.604 81.622 -213.848 81.4169 -214.101C80.6901 -214.826 79.9271 -215.568 79.1841 -216.301C79.4189 -215.994 79.6647 -215.682 79.8974 -215.376ZM72.579 -222.38C73.623 -221.388 74.6254 -220.417 75.6622 -219.43C75.2899 -219.909 74.9294 -220.385 74.5541 -220.867C73.5101 -221.892 72.4928 -222.905 71.4428 -223.934C71.8181 -223.417 72.2062 -222.895 72.579 -222.38ZM64.943 -229.542C66.2876 -228.287 67.6432 -227.026 68.9658 -225.781C68.4759 -226.447 67.9659 -227.122 67.4684 -227.792C66.2086 -229.012 64.9124 -230.249 63.6327 -231.479C64.0815 -230.828 64.501 -230.19 64.943 -229.542ZM57.1235 -236.822C58.7662 -235.308 60.3613 -233.816 61.976 -232.316C61.4368 -233.093 60.8678 -233.883 60.3184 -234.665C58.7649 -236.149 57.2195 -237.628 55.6337 -239.126C56.1351 -238.356 56.6336 -237.587 57.1235 -236.822ZM49.2412 -244.032C50.9884 -242.436 52.7389 -240.839 54.4665 -239.253C53.9294 -240.078 53.4186 -240.891 52.8701 -241.72C51.1412 -243.348 49.3941 -244.986 47.6482 -246.622C48.1705 -245.762 48.7313 -244.887 49.2412 -244.032ZM40.937 -251.55C42.9027 -249.786 44.8545 -248.03 46.774 -246.289C46.225 -247.194 45.6574 -248.107 45.0948 -249.018C43.2751 -250.709 41.4023 -252.424 39.5307 -254.139C40.0186 -253.269 40.4619 -252.415 40.937 -251.55ZM32.4959 -259.111C34.6333 -257.203 36.7434 -255.308 38.8595 -253.411C38.3415 -254.34 37.8061 -255.276 37.2724 -256.21C35.2056 -258.105 33.1786 -259.982 31.0834 -261.89C31.5589 -260.962 32.034 -260.034 32.4959 -259.111ZM23.8634 -266.721C26.1094 -264.755 28.3669 -262.783 30.5526 -260.846C30.0775 -261.782 29.613 -262.714 29.1248 -263.656C26.9857 -265.592 24.7907 -267.554 22.6007 -269.516C23.0283 -268.582 23.4482 -267.65 23.8634 -266.721ZM14.9507 -274.53C17.3899 -272.409 19.7586 -270.321 22.1583 -268.218C21.7189 -269.189 21.2328 -270.176 20.778 -271.153C18.479 -273.208 16.1807 -275.262 13.8366 -277.339C14.2145 -276.401 14.586 -275.464 14.9507 -274.53ZM5.85922 -282.366C8.38206 -280.199 10.8964 -278.037 13.3658 -275.895C12.9892 -276.847 12.6257 -277.794 12.2343 -278.75C9.81671 -280.886 7.37881 -283.032 4.91838 -285.188C5.24277 -284.245 5.548 -283.306 5.85922 -282.366ZM-3.45343 -290.33C-0.796432 -288.072 1.82573 -285.831 4.42882 -283.599C4.10231 -284.567 3.75291 -285.541 3.41283 -286.512C0.897629 -288.71 -1.66982 -290.932 -4.2504 -293.16C-3.98674 -292.217 -3.70479 -291.27 -3.45343 -290.33ZM-13.0242 -298.431C-10.2522 -296.096 -7.52388 -293.781 -4.79681 -291.467C-5.05666 -292.418 -5.32965 -293.372 -5.60223 -294.326C-8.2724 -296.632 -10.9048 -298.919 -13.6127 -301.242C-13.4131 -300.304 -13.2123 -299.366 -13.0242 -298.431ZM-116.483 169.884C-115.637 169.599 -114.789 169.316 -113.936 169.035C-113.965 168.103 -113.987 167.173 -114.008 166.243C-114.814 166.553 -115.619 166.863 -116.418 167.175C-116.445 168.077 -116.468 168.979 -116.483 169.884ZM-119.969 171.078C-119.144 170.792 -118.325 170.503 -117.493 170.22C-117.479 169.337 -117.46 168.456 -117.436 167.575C-118.219 167.882 -119.006 168.189 -119.78 168.5C-119.848 169.358 -119.911 170.218 -119.969 171.078ZM-123.403 172.287C-122.606 172.002 -121.807 171.717 -121.001 171.435C-120.945 170.598 -120.89 169.761 -120.826 168.926C-121.587 169.235 -122.348 169.543 -123.1 169.854C-123.208 170.663 -123.303 171.476 -123.403 172.287ZM-126.79 173.511C-126.022 173.228 -125.24 172.949 -124.463 172.669C-124.368 171.877 -124.271 171.085 -124.169 170.296C-124.902 170.602 -125.626 170.912 -126.352 171.222C-126.502 171.984 -126.651 172.746 -126.79 173.511ZM-130.106 174.758C-129.371 174.478 -128.629 174.2 -127.886 173.923C-127.753 173.177 -127.605 172.434 -127.46 171.692C-128.167 171.997 -128.867 172.305 -129.566 172.614C-129.752 173.327 -129.93 174.042 -130.106 174.758ZM-133.362 176.021C-132.652 175.742 -131.949 175.462 -131.231 175.185C-131.066 174.498 -130.903 173.811 -130.728 173.127C-131.397 173.425 -132.066 173.722 -132.727 174.023C-132.943 174.688 -133.154 175.354 -133.362 176.021ZM-136.554 177.298C-135.885 177.027 -135.218 176.754 -134.542 176.485C-134.346 175.849 -134.142 175.215 -133.937 174.582C-134.566 174.871 -135.199 175.159 -135.821 175.451C-136.07 176.065 -136.317 176.681 -136.554 177.298ZM-139.66 178.577C-139.043 178.317 -138.413 178.062 -137.789 177.805C-137.569 177.227 -137.35 176.648 -137.122 176.072C-137.713 176.354 -138.299 176.638 -138.884 176.923C-139.147 177.473 -139.403 178.025 -139.66 178.577ZM-142.705 179.888C-142.137 179.64 -141.563 179.395 -140.989 179.15C-140.752 178.629 -140.503 178.111 -140.259 177.592C-140.801 177.86 -141.33 178.134 -141.866 178.405C-142.149 178.899 -142.43 179.392 -142.705 179.888ZM-145.637 181.196C-145.129 180.966 -144.627 180.735 -144.113 180.507C-143.874 180.065 -143.642 179.619 -143.397 179.179C-143.868 179.423 -144.334 179.669 -144.802 179.914C-145.083 180.34 -145.361 180.767 -145.637 181.196ZM-148.468 182.497C-148.046 182.299 -147.627 182.1 -147.202 181.903C-146.971 181.537 -146.727 181.175 -146.49 180.812C-146.879 181.02 -147.276 181.225 -147.66 181.435C-147.932 181.788 -148.202 182.142 -148.468 182.497ZM-151.134 183.766C-150.828 183.617 -150.512 183.471 -150.203 183.322C-150.009 183.06 -149.82 182.796 -149.624 182.535C-149.905 182.692 -150.19 182.848 -150.468 183.006C-150.692 183.26 -150.915 183.512 -151.134 183.766ZM-153.636 185.012L-153.175 184.781C-153.065 184.651 -152.961 184.519 -152.85 184.389L-153.265 184.634C-153.392 184.758 -153.509 184.886 -153.636 185.012ZM91.6255 -202.68C92.2038 -202.126 92.7956 -201.566 93.3748 -201.011C93.1816 -201.246 92.9956 -201.477 92.7999 -201.711C92.2004 -202.304 91.5771 -202.909 90.9699 -203.505C91.183 -203.233 91.4141 -202.952 91.6255 -202.68ZM83.9665 -209.951C84.9944 -208.988 85.9982 -208.039 87.0057 -207.086C86.6384 -207.549 86.2656 -208.015 85.895 -208.479C84.8819 -209.467 83.9177 -210.43 82.8898 -211.425C83.26 -210.929 83.601 -210.445 83.9665 -209.951ZM76.2999 -217.099C77.6726 -215.817 79.0584 -214.529 80.4294 -213.249C79.9293 -213.913 79.3816 -214.599 78.8742 -215.266C77.5741 -216.514 76.2494 -217.774 74.9417 -219.026C75.3998 -218.382 75.8482 -217.741 76.2999 -217.099ZM68.4915 -224.297C70.0404 -222.885 71.5939 -221.471 73.102 -220.079C72.5823 -220.806 72.1026 -221.515 71.5749 -222.246C70.0485 -223.691 68.4873 -225.153 66.9202 -226.619C67.4386 -225.847 67.9816 -225.065 68.4915 -224.297ZM60.3817 -231.696C62.153 -230.087 63.8896 -228.495 65.6461 -226.893C65.0873 -227.723 64.5285 -228.552 63.9579 -229.386C62.2507 -230.982 60.5634 -232.567 58.8388 -234.17C59.3623 -233.342 59.8697 -232.52 60.3817 -231.696ZM52.0549 -239.163C54.0198 -237.411 55.9933 -235.656 57.9115 -233.927C57.3417 -234.83 56.7261 -235.752 56.144 -236.66C54.312 -238.349 52.4268 -240.063 50.5502 -241.773C51.0648 -240.898 51.5539 -240.033 52.0549 -239.163ZM43.5507 -246.74C45.6757 -244.86 47.7476 -243.007 49.8374 -241.145C49.3049 -242.054 48.8124 -242.947 48.2673 -243.861C46.2025 -245.74 44.1476 -247.614 42.0438 -249.512C42.5431 -248.589 43.0641 -247.658 43.5507 -246.74ZM34.7942 -254.417C37.0495 -252.445 39.2993 -250.477 41.5152 -248.524C41.0074 -249.47 40.4907 -250.419 39.9676 -251.371C37.8231 -253.3 35.6539 -255.24 33.4742 -257.185C33.931 -256.256 34.3509 -255.341 34.7942 -254.417ZM25.8283 -262.205C28.2412 -260.124 30.6354 -258.051 32.9931 -255.996C32.5201 -256.968 32.0166 -257.951 31.5275 -258.928C29.2513 -260.95 26.9267 -262.995 24.592 -265.045C25.0098 -264.097 25.4254 -263.149 25.8283 -262.205ZM16.6363 -270.119C19.1646 -267.951 21.6561 -265.801 24.1526 -263.648C23.7352 -264.61 23.328 -265.568 22.8958 -266.535C20.4553 -268.677 18.048 -270.805 15.5727 -272.964C15.9387 -272.012 16.2843 -271.067 16.6363 -270.119ZM7.24464 -278.086C9.89018 -275.856 12.5497 -273.617 15.1239 -271.42C14.7588 -272.39 14.3631 -273.368 13.9827 -274.342C11.473 -276.521 8.8941 -278.734 6.31905 -280.944C6.62898 -279.991 6.94872 -279.036 7.24464 -278.086ZM-2.41324 -286.235C0.368164 -283.902 3.08292 -281.601 5.82356 -279.289C5.51701 -280.25 5.20709 -281.212 4.8878 -282.177C2.23207 -284.456 -0.417282 -286.733 -3.12141 -289.036C-2.87643 -288.1 -2.64676 -287.168 -2.41324 -286.235ZM-12.26 -294.426C-9.38225 -292.041 -6.51888 -289.664 -3.70563 -287.31C-3.94722 -288.253 -4.17096 -289.192 -4.4223 -290.137C-7.17781 -292.479 -9.96051 -294.834 -12.7716 -297.203C-12.5895 -296.275 -12.4316 -295.352 -12.26 -294.426ZM-116.518 173.332C-115.613 173.069 -114.71 172.805 -113.798 172.544C-113.841 171.598 -113.877 170.654 -113.909 169.709C-114.774 169.996 -115.638 170.281 -116.491 170.57C-116.504 171.49 -116.516 172.41 -116.518 173.332ZM-120.178 174.414C-119.299 174.149 -118.413 173.887 -117.526 173.627C-117.525 172.721 -117.513 171.819 -117.499 170.916C-118.342 171.205 -119.178 171.495 -120.014 171.787C-120.073 172.661 -120.133 173.536 -120.178 174.414ZM-123.772 175.506C-122.923 175.242 -122.057 174.985 -121.199 174.724C-121.156 173.862 -121.102 173.003 -121.046 172.144C-121.871 172.434 -122.68 172.729 -123.495 173.023C-123.593 173.849 -123.685 174.677 -123.772 175.506ZM-127.318 176.63C-126.488 176.364 -125.654 176.099 -124.816 175.836C-124.734 175.025 -124.65 174.213 -124.555 173.405C-125.35 173.694 -126.141 173.985 -126.929 174.278C-127.064 175.06 -127.191 175.845 -127.318 176.63ZM-130.819 177.774C-130.01 177.506 -129.208 177.235 -128.39 176.97C-128.268 176.207 -128.14 175.446 -128.012 174.685C-128.773 174.971 -129.54 175.255 -130.293 175.544C-130.473 176.287 -130.654 177.028 -130.819 177.774ZM-134.232 178.923C-133.464 178.659 -132.693 178.398 -131.917 178.138C-131.759 177.419 -131.592 176.702 -131.422 175.987C-132.161 176.274 -132.896 176.562 -133.626 176.852C-133.835 177.54 -134.032 178.231 -134.232 178.923ZM-137.597 180.092C-136.865 179.831 -136.115 179.577 -135.375 179.319C-135.184 178.653 -134.998 177.984 -134.8 177.319C-135.501 177.601 -136.189 177.888 -136.881 178.173C-137.122 178.812 -137.367 179.45 -137.597 180.092ZM-140.878 181.287C-140.188 181.032 -139.494 180.78 -138.795 180.528C-138.576 179.91 -138.345 179.294 -138.114 178.679C-138.782 178.959 -139.443 179.242 -140.104 179.525C-140.37 180.11 -140.622 180.699 -140.878 181.287ZM-144.106 182.502C-143.449 182.25 -142.798 181.996 -142.133 181.747C-141.897 181.194 -141.662 180.64 -141.418 180.09C-142.026 180.354 -142.637 180.618 -143.239 180.885C-143.53 181.423 -143.825 181.96 -144.106 182.502ZM-147.215 183.712C-146.625 183.477 -146.034 183.244 -145.438 183.012C-145.184 182.515 -144.924 182.021 -144.66 181.527C-145.224 181.781 -145.794 182.034 -146.352 182.291C-146.647 182.762 -146.925 183.238 -147.215 183.712ZM-150.259 184.939C-149.733 184.722 -149.194 184.511 -148.663 184.296C-148.407 183.866 -148.145 183.439 -147.884 183.011C-148.378 183.244 -148.87 183.478 -149.359 183.713C-149.66 184.122 -149.967 184.527 -150.259 184.939ZM-153.155 186.167C-152.716 185.978 -152.276 185.791 -151.832 185.605C-151.59 185.255 -151.355 184.904 -151.107 184.557C-151.523 184.762 -151.93 184.97 -152.342 185.176C-152.617 185.505 -152.885 185.836 -153.155 186.167ZM-155.944 187.387C-155.61 187.238 -155.283 187.087 -154.946 186.939C-154.737 186.678 -154.52 186.421 -154.307 186.162C-154.623 186.324 -154.927 186.49 -155.238 186.654C-155.474 186.898 -155.712 187.141 -155.944 187.387ZM-158.434 188.507C-158.279 188.435 -158.118 188.366 -157.961 188.294L-157.61 187.909C-157.746 187.983 -157.889 188.056 -158.025 188.13L-158.434 188.507ZM103.25 -190.215L105.017 -188.533L104.508 -189.136C103.931 -189.702 103.339 -190.275 102.761 -190.842C102.929 -190.63 103.083 -190.425 103.25 -190.215ZM95.6569 -197.347C96.6818 -196.395 97.7203 -195.435 98.724 -194.493C98.3359 -194.973 97.9198 -195.467 97.5284 -195.95C96.5531 -196.892 95.5596 -197.843 94.5606 -198.797C94.9321 -198.311 95.29 -197.831 95.6569 -197.347ZM87.9113 -204.556C89.2686 -203.303 90.5725 -202.076 91.9159 -200.83C91.4616 -201.42 91.0485 -201.99 90.5883 -202.583C89.23 -203.876 87.8846 -205.166 86.517 -206.464C86.9798 -205.829 87.4549 -205.188 87.9113 -204.556ZM80.0995 -211.684C81.5974 -210.321 83.1072 -208.952 84.5826 -207.6C84.037 -208.344 83.5063 -209.081 82.9522 -209.829C81.493 -211.2 79.9882 -212.593 78.498 -213.979C79.0249 -213.217 79.5819 -212.442 80.0995 -211.684ZM71.7961 -219.211C73.5814 -217.607 75.3298 -216.022 77.0808 -214.435C76.5034 -215.268 75.8962 -216.114 75.306 -216.953C73.626 -218.511 71.9663 -220.06 70.2566 -221.632C70.7864 -220.818 71.2743 -220.022 71.7961 -219.211ZM63.4187 -226.692C65.3828 -224.942 67.3444 -223.193 69.2842 -221.454C68.7043 -222.342 68.1057 -223.239 67.5125 -224.133C65.6329 -225.855 63.7261 -227.59 61.8206 -229.324C62.359 -228.444 62.8926 -227.566 63.4187 -226.692ZM54.9004 -234.214C56.9711 -232.4 59.0409 -230.587 61.0589 -228.799C60.5027 -229.712 59.9695 -230.614 59.3993 -231.532C57.3982 -233.342 55.3496 -235.175 53.2951 -237.011C53.8216 -236.082 54.3867 -235.138 54.9004 -234.214ZM45.9737 -242.035C48.26 -240.044 50.4874 -238.081 52.7427 -236.104C52.2035 -237.06 51.6337 -238.028 51.0796 -238.99C48.9109 -240.927 46.7753 -242.849 44.5773 -244.8C45.0613 -243.871 45.5037 -242.958 45.9737 -242.035ZM36.9773 -249.785C39.3643 -247.737 41.7581 -245.686 44.0873 -243.667C43.5914 -244.628 43.0972 -245.588 42.5855 -246.554C40.3051 -248.569 37.9619 -250.614 35.6238 -252.655C36.076 -251.698 36.5404 -250.737 36.9773 -249.785ZM27.6927 -257.737C30.2266 -255.58 32.7137 -253.447 35.2009 -251.314C34.7466 -252.285 34.2927 -253.257 33.824 -254.233C31.4149 -256.337 28.9987 -258.444 26.5404 -260.572C26.9395 -259.622 27.3072 -258.682 27.6927 -257.737ZM18.2259 -265.744C20.8778 -263.509 23.511 -261.283 26.1154 -259.072C25.7112 -260.048 25.2836 -261.032 24.8646 -262.014C22.3235 -264.208 19.7625 -266.412 17.178 -268.628C17.5292 -267.666 17.8887 -266.702 18.2259 -265.744ZM8.50775 -273.882C11.2705 -271.581 14.0251 -269.283 16.725 -267.013C16.3781 -267.983 16.0278 -268.954 15.6661 -269.93C13.0473 -272.167 10.3657 -274.435 7.6815 -276.705C7.97107 -275.76 8.22923 -274.823 8.50775 -273.882ZM-1.41083 -282.134C1.47672 -279.744 4.30147 -277.384 7.14742 -275.014C6.85956 -275.973 6.57635 -276.931 6.27406 -277.894C3.4884 -280.25 0.739258 -282.589 -2.09309 -284.967C-1.86043 -284.021 -1.63161 -283.076 -1.41083 -282.134ZM-11.5416 -290.44C-8.55814 -288.004 -5.56528 -285.563 -2.66161 -283.167C-2.8896 -284.122 -3.14691 -285.084 -3.38596 -286.042C-6.22255 -288.418 -9.13091 -290.828 -12.0414 -293.24C-11.8724 -292.306 -11.7009 -291.372 -11.5416 -290.44ZM-116.493 176.791C-115.538 176.552 -114.574 176.317 -113.609 176.081C-113.665 175.12 -113.725 174.157 -113.773 173.198C-114.697 173.462 -115.609 173.731 -116.524 173.999C-116.521 174.929 -116.504 175.86 -116.493 176.791ZM-120.318 177.761C-119.385 177.52 -118.439 177.284 -117.497 177.046C-117.508 176.128 -117.522 175.209 -117.526 174.292C-118.426 174.558 -119.317 174.827 -120.207 175.096C-120.247 175.984 -120.286 176.872 -120.318 177.761ZM-124.093 178.758C-123.179 178.513 -122.261 178.269 -121.337 178.028C-121.307 177.152 -121.268 176.279 -121.227 175.406C-122.102 175.673 -122.977 175.941 -123.842 176.211C-123.931 177.059 -124.018 177.907 -124.093 178.758ZM-127.795 179.766C-126.906 179.52 -126.022 179.274 -125.125 179.031C-125.053 178.199 -124.971 177.37 -124.888 176.541C-125.74 176.81 -126.595 177.078 -127.437 177.35C-127.564 178.153 -127.679 178.96 -127.795 179.766ZM-131.453 180.795C-130.59 180.547 -129.722 180.303 -128.849 180.059C-128.738 179.273 -128.632 178.485 -128.511 177.702C-129.337 177.972 -130.158 178.244 -130.976 178.518C-131.139 179.276 -131.3 180.034 -131.453 180.795ZM-135.04 181.839C-134.214 181.593 -133.375 181.353 -132.538 181.111C-132.391 180.365 -132.232 179.623 -132.072 178.881C-132.875 179.152 -133.662 179.429 -134.455 179.704C-134.656 180.414 -134.852 181.125 -135.04 181.839ZM-138.564 182.913C-137.765 182.666 -136.962 182.42 -136.153 182.176C-135.972 181.483 -135.792 180.79 -135.6 180.101C-136.365 180.37 -137.128 180.64 -137.886 180.913C-138.117 181.578 -138.342 182.245 -138.564 182.913ZM-142.026 184.006C-141.26 183.76 -140.501 183.511 -139.725 183.268C-139.514 182.626 -139.293 181.985 -139.072 181.345C-139.797 181.609 -140.53 181.871 -141.246 182.138C-141.512 182.759 -141.773 183.382 -142.026 184.006ZM-145.406 185.109C-144.686 184.869 -143.959 184.631 -143.232 184.393C-142.995 183.802 -142.759 183.21 -142.511 182.622C-143.199 182.883 -143.883 183.142 -144.561 183.406C-144.846 183.973 -145.129 184.54 -145.406 185.109ZM-148.705 186.229C-148.042 185.998 -147.364 185.774 -146.693 185.545C-146.433 185.002 -146.16 184.463 -145.889 183.924C-146.536 184.179 -147.172 184.439 -147.813 184.698C-148.116 185.206 -148.411 185.717 -148.705 186.229ZM-151.928 187.379C-151.309 187.155 -150.689 186.932 -150.063 186.711C-149.795 186.234 -149.535 185.754 -149.258 185.28C-149.843 185.52 -150.414 185.766 -150.991 186.009C-151.305 186.466 -151.621 186.92 -151.928 187.379ZM-155.035 188.528C-154.489 188.322 -153.95 188.112 -153.397 187.908C-153.128 187.495 -152.846 187.087 -152.566 186.678C-153.09 186.903 -153.614 187.128 -154.132 187.356C-154.441 187.744 -154.734 188.138 -155.035 188.528ZM-158.042 189.679C-157.58 189.498 -157.113 189.318 -156.646 189.138C-156.393 188.805 -156.138 188.473 -155.883 188.141C-156.307 188.332 -156.738 188.52 -157.158 188.713C-157.451 189.036 -157.754 189.355 -158.042 189.679ZM-160.851 190.807C-160.518 190.671 -160.178 190.538 -159.843 190.402C-159.638 190.166 -159.443 189.926 -159.234 189.691C-159.545 189.838 -159.856 189.984 -160.163 190.132C-160.396 190.356 -160.621 190.582 -160.851 190.807ZM-163.52 191.926L-162.987 191.699C-162.867 191.577 -162.739 191.458 -162.617 191.335L-163.102 191.58C-163.239 191.696 -163.383 191.81 -163.52 191.926ZM115.083 -177.68C115.746 -177.059 116.369 -176.458 117.023 -175.842L116.684 -176.237L114.662 -178.206L115.083 -177.68ZM107.591 -184.647C108.613 -183.695 109.652 -182.734 110.673 -181.782C110.313 -182.22 109.97 -182.651 109.606 -183.09C108.59 -184.065 107.537 -185.058 106.504 -186.041C106.865 -185.577 107.234 -185.11 107.591 -184.647ZM99.8716 -191.772C101.106 -190.648 102.334 -189.527 103.539 -188.417C103.084 -188.995 102.65 -189.563 102.19 -190.145C100.91 -191.356 99.6623 -192.551 98.3597 -193.773C98.8522 -193.111 99.3863 -192.431 99.8716 -191.772ZM91.7495 -199.169C93.2775 -197.78 94.7988 -196.394 96.3192 -195.008C95.763 -195.749 95.1941 -196.497 94.6277 -197.242C93.1973 -198.578 91.7427 -199.925 90.3051 -201.264C90.8061 -200.557 91.2552 -199.873 91.7495 -199.169ZM83.4753 -206.599C85.253 -205.016 87.0447 -203.426 88.7757 -201.866C88.1749 -202.71 87.5147 -203.58 86.9029 -204.428C85.2538 -205.947 83.5564 -207.489 81.8611 -209.031C82.4092 -208.215 82.9382 -207.409 83.4753 -206.599ZM75.0254 -214.134C76.9801 -212.404 78.8707 -210.706 80.7979 -208.989C80.2209 -209.845 79.6898 -210.683 79.1013 -211.544C77.175 -213.297 75.2844 -215.032 73.3317 -216.797C73.893 -215.911 74.4768 -215.015 75.0254 -214.134ZM66.3789 -221.71C68.4584 -219.893 70.5393 -218.075 72.579 -216.278C71.9952 -217.201 71.4093 -218.125 70.8123 -219.054C68.8372 -220.829 66.8136 -222.628 64.7956 -224.424C65.334 -223.515 65.8545 -222.613 66.3789 -221.71ZM57.4373 -229.488C59.7215 -227.515 61.9768 -225.557 64.2126 -223.608C63.645 -224.571 63.0209 -225.558 62.4388 -226.528C60.2913 -228.435 58.1319 -230.348 55.9389 -232.278C56.4523 -231.343 56.9388 -230.417 57.4373 -229.488ZM48.3708 -237.289C50.7463 -235.251 53.1036 -233.222 55.449 -231.198C54.931 -232.151 54.4517 -233.088 53.9197 -234.047C51.5972 -236.086 49.2607 -238.133 46.9065 -240.188C47.3905 -239.224 47.9021 -238.248 48.3708 -237.289ZM39.0051 -245.249C41.519 -243.126 44.0444 -240.996 46.4942 -238.905C46.0081 -239.884 45.5045 -240.869 45.0031 -241.854C42.6395 -243.908 40.2024 -245.997 37.7747 -248.082C38.2048 -247.13 38.589 -246.196 39.0051 -245.249ZM29.4614 -253.312C32.1257 -251.075 34.7198 -248.873 37.3403 -246.657C36.9034 -247.635 36.4597 -248.617 36.0067 -249.602C33.4448 -251.804 30.9071 -253.993 28.3006 -256.217C28.6883 -255.249 29.0887 -254.276 29.4614 -253.312ZM19.6873 -261.448C22.4445 -259.161 25.2021 -256.873 27.8969 -254.615C27.5114 -255.592 27.1225 -256.57 26.7225 -257.551C24.1037 -259.778 21.4285 -262.034 18.7503 -264.29C19.0806 -263.338 19.371 -262.397 19.6873 -261.448ZM9.73053 -269.683C12.6019 -267.32 15.4462 -264.971 18.2594 -262.637C17.9308 -263.608 17.5983 -264.58 17.2549 -265.555C14.4993 -267.876 11.7095 -270.212 8.89366 -272.562C9.17049 -271.604 9.46687 -270.639 9.73053 -269.683ZM-0.497559 -278.066C2.48976 -275.627 5.4478 -273.202 8.38289 -270.788C8.11159 -271.753 7.81824 -272.725 7.5325 -273.694C4.66235 -276.087 1.78284 -278.485 -1.13443 -280.901C-0.918747 -279.956 -0.702209 -279.01 -0.497559 -278.066ZM-10.9149 -286.51C-7.83548 -284.026 -4.74756 -281.536 -1.74538 -279.09C-1.95639 -280.04 -2.16443 -280.99 -2.38692 -281.944C-5.31946 -284.367 -8.34499 -286.836 -11.3591 -289.299C-11.2066 -288.369 -11.0576 -287.439 -10.9149 -286.51ZM-1.47536 -277.88C-4.51279 -280.359 -7.62619 -282.874 -10.7349 -285.388C2.13951 -199.353 -29.2083 -120.683 -60.5183 -42.1042C-79.5313 5.61298 -98.5264 53.2968 -107.59 102.574C-96.311 60.216 -76.9405 19.3214 -57.4537 -21.8108C-19.4422 -102.049 18.9867 -183.198 -1.47536 -277.88ZM8.75145 -269.502C5.79384 -271.936 2.79083 -274.393 -0.225357 -276.857C19.7366 -182.551 -18.593 -101.654 -56.4895 -21.6591C-77.036 21.7119 -97.448 64.8184 -108.374 109.651C-95.4491 70.7101 -74.6253 33.3527 -53.5951 -4.36093C-8.72414 -84.8238 37.0601 -166.913 8.75145 -269.502ZM90.7322 -199.052C88.8912 -200.717 87.0337 -202.39 85.1498 -204.077C190.834 -42.2793 78.8461 24.7084 -26.384 87.6059C-56.7251 105.741 -86.4922 123.539 -110.294 143.182M-116.427 180.273C-115.418 180.059 -114.402 179.847 -113.383 179.637C-113.453 178.661 -113.514 177.687 -113.573 176.713C-114.548 176.953 -115.521 177.193 -116.486 177.437C-116.472 178.381 -116.452 179.326 -116.427 180.273ZM-120.408 181.137C-119.416 180.918 -118.427 180.699 -117.426 180.485C-117.452 179.553 -117.474 178.621 -117.489 177.691C-118.443 177.933 -119.401 178.173 -120.345 178.419C-120.374 179.324 -120.39 180.231 -120.408 181.137ZM-124.342 182.019C-123.371 181.797 -122.4 181.576 -121.419 181.358C-121.403 180.468 -121.391 179.577 -121.365 178.69C-122.295 178.934 -123.224 179.178 -124.144 179.426C-124.214 180.289 -124.282 181.153 -124.342 182.019ZM-128.217 182.917C-127.275 182.694 -126.323 182.474 -125.37 182.255C-125.312 181.403 -125.244 180.552 -125.176 179.703C-126.088 179.951 -126.988 180.204 -127.891 180.455C-128.005 181.275 -128.116 182.094 -128.217 182.917ZM-132.026 183.836C-131.112 183.611 -130.185 183.39 -129.258 183.169C-129.161 182.36 -129.056 181.553 -128.945 180.748C-129.837 180.999 -130.72 181.254 -131.603 181.51C-131.752 182.283 -131.887 183.06 -132.026 183.836ZM-135.794 184.787C-134.896 184.557 -134 184.327 -133.092 184.101C-132.958 183.341 -132.825 182.58 -132.681 181.823C-133.533 182.072 -134.387 182.322 -135.229 182.575C-135.422 183.311 -135.615 184.047 -135.794 184.787ZM-139.466 185.748C-138.606 185.519 -137.75 185.289 -136.881 185.063C-136.71 184.345 -136.527 183.631 -136.343 182.916C-137.171 183.168 -138.004 183.417 -138.823 183.673C-139.045 184.362 -139.255 185.055 -139.466 185.748ZM-143.105 186.735C-142.274 186.505 -141.435 186.277 -140.595 186.05C-140.392 185.38 -140.194 184.708 -139.981 184.041C-140.773 184.292 -141.558 184.545 -142.34 184.799C-142.599 185.443 -142.861 186.086 -143.105 186.735ZM-146.634 187.734C-145.854 187.508 -145.058 187.287 -144.27 187.065C-144.037 186.436 -143.792 185.811 -143.544 185.186C-144.313 185.44 -145.066 185.7 -145.825 185.958C-146.104 186.546 -146.365 187.141 -146.634 187.734ZM-150.124 188.772C-149.373 188.545 -148.622 188.319 -147.862 188.095C-147.607 187.524 -147.349 186.953 -147.086 186.384C-147.798 186.629 -148.505 186.876 -149.21 187.124C-149.518 187.672 -149.827 188.22 -150.124 188.772ZM-153.5 189.816C-152.801 189.596 -152.109 189.372 -151.402 189.155C-151.129 188.638 -150.853 188.123 -150.569 187.611C-151.23 187.848 -151.9 188.082 -152.553 188.323C-152.875 188.819 -153.187 189.318 -153.5 189.816ZM-156.801 190.876C-156.168 190.667 -155.527 190.462 -154.886 190.256C-154.602 189.793 -154.304 189.335 -154.011 188.875C-154.618 189.103 -155.227 189.331 -155.828 189.562C-156.158 189.998 -156.481 190.436 -156.801 190.876ZM-159.992 191.95C-159.43 191.757 -158.855 191.567 -158.288 191.376C-158.007 190.983 -157.735 190.586 -157.447 190.194C-157.981 190.404 -158.506 190.617 -159.035 190.83C-159.354 191.203 -159.678 191.575 -159.992 191.95ZM-163.056 193.035C-162.589 192.867 -162.121 192.698 -161.648 192.531C-161.379 192.202 -161.1 191.876 -160.822 191.549C-161.29 191.742 -161.742 191.942 -162.204 192.137C-162.496 192.434 -162.77 192.737 -163.056 193.035ZM-165.986 194.111C-165.62 193.973 -165.263 193.831 -164.894 193.695C-164.677 193.463 -164.455 193.233 -164.238 193.003C-164.569 193.147 -164.897 193.293 -165.227 193.439C-165.477 193.664 -165.738 193.885 -165.986 194.111ZM-168.618 195.114C-168.45 195.048 -168.275 194.985 -168.106 194.919C-167.986 194.808 -167.871 194.694 -167.752 194.582C-167.904 194.653 -168.063 194.721 -168.216 194.792L-168.618 195.114ZM-21.8134 -297.839C-21.7234 -296.921 -21.6253 -296.003 -21.5442 -295.086C-18.3353 -292.515 -15.2253 -289.991 -12.08 -287.451C-12.2265 -288.385 -12.3678 -289.318 -12.5271 -290.254C-15.6129 -292.779 -18.6694 -295.287 -21.8134 -297.839ZM-22.2061 -301.645C-22.1047 -300.731 -22.0104 -299.818 -21.9179 -298.906C-18.8091 -296.385 -15.7755 -293.9 -12.7186 -291.404C-12.8824 -292.347 -13.0671 -293.293 -13.2404 -294.238C-16.2116 -296.698 -19.1823 -299.159 -22.2061 -301.645ZM-22.663 -305.484C-22.5475 -304.571 -22.4431 -303.658 -22.3386 -302.745C-19.3513 -300.291 -16.3928 -297.851 -13.4599 -295.424C-13.6369 -296.363 -13.8135 -297.302 -14.002 -298.243C-16.8505 -300.638 -19.7572 -303.062 -22.663 -305.484ZM-23.184 -309.361C-23.0545 -308.44 -22.9169 -307.519 -22.7968 -306.6C-19.9419 -304.221 -17.0582 -301.829 -14.2598 -299.477C-14.4517 -300.417 -14.6461 -301.356 -14.8499 -302.298C-17.5753 -304.627 -20.3988 -307.004 -23.184 -309.361ZM-23.7504 -313.264C-23.609 -312.347 -23.4769 -311.431 -23.3453 -310.516C-20.586 -308.181 -17.8084 -305.84 -15.1098 -303.533C-15.3165 -304.471 -15.5492 -305.414 -15.767 -306.353C-18.4003 -308.644 -21.0551 -310.944 -23.7504 -313.264ZM-24.3796 -317.162C-24.228 -316.264 -24.0875 -315.367 -23.9448 -314.469C-21.2789 -312.177 -18.6796 -309.917 -16.0723 -307.652C-16.2948 -308.589 -16.5096 -309.526 -16.7431 -310.466C-19.2303 -312.671 -21.8321 -314.929 -24.3796 -317.162ZM-25.0873 -321.133C-24.9183 -320.218 -24.7413 -319.302 -24.5821 -318.388C-22.1039 -316.218 -19.5309 -314.005 -17.1061 -311.86C-17.3405 -312.778 -17.5808 -313.697 -17.8258 -314.616C-20.2052 -316.77 -22.6494 -318.952 -25.0873 -321.133ZM-25.8448 -325.122C-25.6635 -324.215 -25.4911 -323.308 -25.32 -322.402C-22.9433 -320.28 -20.5172 -318.135 -18.1969 -316.039C-18.4465 -316.958 -18.7174 -317.88 -18.9785 -318.802C-21.2424 -320.897 -23.524 -323.001 -25.8448 -325.122ZM-26.6744 -329.147C-26.4799 -328.246 -26.2999 -327.345 -26.1165 -326.445C-23.8646 -324.39 -21.6067 -322.332 -19.4074 -320.301C-19.6689 -321.203 -19.9164 -322.103 -20.1873 -323.006C-22.3416 -325.049 -24.4666 -327.08 -26.6744 -329.147ZM-27.5906 -333.219C-27.3822 -332.317 -27.169 -331.417 -26.9712 -330.516C-24.847 -328.532 -22.7586 -326.563 -20.6871 -324.6C-20.9626 -325.501 -21.247 -326.402 -21.5336 -327.305C-23.5584 -329.279 -25.517 -331.224 -27.5906 -333.219ZM-28.5498 -337.255C-28.3345 -336.383 -28.1209 -335.511 -27.9154 -334.639C-25.9199 -332.724 -23.9949 -330.839 -22.0469 -328.944C-22.3382 -329.839 -22.652 -330.739 -22.9521 -331.635C-24.8177 -333.508 -26.6434 -335.365 -28.5498 -337.255ZM-29.5705 -341.304C-29.351 -340.472 -29.1514 -339.641 -28.9412 -338.81C-27.0973 -336.985 -25.3548 -335.203 -23.5521 -333.397C-23.8488 -334.259 -24.1304 -335.12 -24.4361 -335.984C-26.1339 -337.752 -27.8344 -339.52 -29.5705 -341.304ZM-30.6956 -345.411C-30.4676 -344.594 -30.24 -343.777 -30.0214 -342.961C-28.3604 -341.262 -26.7734 -339.594 -25.143 -337.907C-25.4495 -338.756 -25.7612 -339.604 -26.0788 -340.454C-27.5928 -342.097 -29.1459 -343.754 -30.6956 -345.411ZM-31.8776 -349.517C-31.6432 -348.729 -31.4021 -347.939 -31.1758 -347.151C-29.7046 -345.587 -28.2712 -344.037 -26.8268 -342.483C-27.1423 -343.31 -27.4845 -344.142 -27.8085 -344.97C-29.1319 -346.474 -30.5206 -348.001 -31.8776 -349.517ZM-33.108 -353.604C-32.88 -352.874 -32.6686 -352.145 -32.4465 -351.416C-31.1872 -350.016 -29.9348 -348.619 -28.6992 -347.228C-28.9981 -347.974 -29.2924 -348.719 -29.5989 -349.466C-30.7436 -350.836 -31.9366 -352.225 -33.108 -353.604ZM-34.4493 -357.738C-34.2268 -357.065 -34.0115 -356.392 -33.7946 -355.72C-32.7692 -354.52 -31.7265 -353.314 -30.7189 -352.12C-30.9873 -352.755 -31.2513 -353.389 -31.5243 -354.025C-32.4945 -355.261 -33.4583 -356.495 -34.4493 -357.738ZM-35.8049 -361.732C-35.6113 -361.175 -35.4109 -360.618 -35.2216 -360.061C-34.4616 -359.116 -33.6698 -358.161 -32.9225 -357.22C-33.1331 -357.697 -33.353 -358.176 -33.5678 -358.654C-34.3151 -359.681 -35.0432 -360.702 -35.8049 -361.732ZM-37.0816 -365.378C-36.9729 -365.082 -36.8736 -364.786 -36.7679 -364.49C-36.3123 -363.881 -35.836 -363.265 -35.3863 -362.659C-35.4912 -362.882 -35.6041 -363.107 -35.709 -363.332L-37.0816 -365.378ZM-108.631 175.524C-108.527 176.552 -108.42 177.58 -108.304 178.61C-75.1339 172.034 -37.3665 167.198 1.1286 162.273C76.0291 152.691 153.664 142.758 205.192 118.936C280.732 84.0119 300.225 19.1368 173.122 -118.394C288.774 13.5304 263.81 76.3171 187.177 111.477C137.828 134.118 67.0922 145.277 -1.31485 156.068C-39.1502 162.037 -76.2654 167.896 -108.631 175.524ZM-108.995 171.855C-108.901 172.87 -108.794 173.887 -108.692 174.904C-76.3482 167.311 -39.3217 161.465 -1.57726 155.511C66.7278 144.736 137.362 133.593 186.553 111.024C265.405 74.8464 289.198 9.21033 160.259 -131.515C277.886 4.01044 248.014 67.6476 167.664 104.211C121.088 125.405 57.5812 137.479 -3.98929 149.183C-41.0795 156.234 -77.4632 163.153 -108.995 171.855ZM-109.294 168.206C-109.217 169.208 -109.137 170.21 -109.048 171.213C-77.5523 162.559 -41.2765 155.662 -4.30347 148.634C57.1863 136.944 120.608 124.887 167.045 103.756C249.731 66.1304 278.636 -0.360107 147.189 -144.991C267.528 -5.01575 231.686 59.5711 146.97 97.7784C103.709 117.29 47.7365 129.903 -6.68576 142.166C-43.0079 150.351 -78.6269 158.383 -109.294 168.206ZM-109.56 164.572C-109.494 165.563 -109.424 166.554 -109.348 167.546C-78.7263 157.783 -43.2342 149.781 -7.04959 141.627C47.3086 129.378 103.216 116.78 146.355 97.3237C233.082 58.2089 268.354 -8.69797 136.026 -156.502L135.346 -157.163C257.604 -12.7847 214.193 52.4635 124.601 92.4812C85.416 109.984 37.4167 122.648 -9.40518 135.002C-44.9359 144.377 -79.7805 153.574 -109.56 164.572ZM-109.791 160.963C-109.734 161.938 -109.667 162.915 -109.603 163.891C-79.8803 152.967 -45.1906 143.809 -9.82167 134.477C36.9476 122.137 84.8925 109.487 123.99 92.0241C214.609 51.5471 257.737 -14.8914 128.776 -163.555C128.098 -164.208 127.459 -164.843 126.774 -165.501C247.716 -18.1243 194.403 46.9532 99.65 88.8328C65.6537 103.859 26.3434 115.891 -12.1518 127.674C-46.8737 138.301 -80.9269 148.727 -109.791 160.963ZM-109.962 157.371C-109.92 158.329 -109.879 159.286 -109.827 160.245C-81.03 148.102 -47.153 137.732 -12.6184 127.162C25.8415 115.39 65.1144 103.369 99.0432 88.3731C194.54 46.1652 247.789 -19.7087 121.73 -170.302C120.718 -171.266 119.69 -172.237 118.678 -173.202C270.967 19.3112 122.712 71.6233 -14.9221 120.156C-48.8106 132.106 -82.0427 143.831 -109.962 157.371ZM-110.104 153.792C-110.072 154.733 -110.036 155.675 -109.997 156.617C-82.1543 143.191 -49.1218 131.538 -15.4435 119.662C122.91 70.8761 271.991 18.2472 113.996 -177.642C112.881 -178.69 111.719 -179.761 110.573 -180.823C250.845 3.90521 111.716 60.1115 -17.7294 112.425C-50.7624 125.774 -83.161 138.871 -110.104 153.792ZM-110.208 150.243C-110.184 151.16 -110.156 152.078 -110.128 152.995C-83.2697 138.213 -51.099 125.206 -18.3009 111.952C111.717 59.4074 251.441 2.88696 106.535 -184.576C105.044 -185.958 103.593 -187.32 102.085 -188.712C230.775 -11.567 100.779 48.4553 -20.5715 104.45C-52.7332 119.291 -84.2734 133.851 -110.208 150.243ZM-110.264 146.7C-110.255 147.593 -110.248 148.486 -110.23 149.38C-84.388 133.159 -53.0929 118.716 -21.1948 103.998C100.577 47.8074 231.113 -12.4282 98.8445 -191.669C97.1467 -193.225 95.4089 -194.799 93.6813 -196.369C210.718 -26.9418 89.8019 36.6717 -23.4523 96.192C-54.7131 112.621 -85.3764 128.742 -110.264 146.7ZM-110.28 139.676C-110.285 140.502 -110.289 141.327 -110.291 142.153C-86.5907 122.762 -57.1251 105.149 -27.1058 87.2054C78.4504 24.1131 190.793 -43.1136 82.475 -206.462C80.4859 -208.241 78.4912 -210.022 76.4817 -211.811C171.084 -57.5874 67.9077 12.537 -29.3688 78.6373C-58.7635 98.6113 -87.6114 118.219 -110.28 139.676ZM-110.23 136.185C-110.247 136.974 -110.267 137.763 -110.275 138.552C-87.7044 117.392 -59.1873 98.0057 -30.1326 78.2639C67.439 11.9633 170.939 -58.3997 74.0408 -213.981C71.9137 -215.861 69.7139 -217.777 67.5265 -219.686C151.425 -72.9365 57.0008 0.105652 -32.4151 69.2156C-60.8393 91.1842 -88.7442 112.759 -110.23 136.185ZM-110.157 132.719C-110.178 133.446 -110.188 134.175 -110.204 134.903C-88.8125 111.838 -61.2655 90.5458 -33.2197 68.8691C56.445 -0.4328 151.182 -73.6826 65.39 -221.556C63.0842 -223.571 60.7914 -225.579 58.4423 -227.615C131.983 -88.2791 46.1202 -12.6397 -35.5332 59.2519C-62.9634 83.4028 -89.9113 107.132 -110.157 132.719ZM-110.033 129.256C-110.056 129.925 -110.084 130.593 -110.106 131.262C-89.944 106.113 -63.3944 82.7265 -36.3713 58.9347C45.5045 -13.1538 131.613 -89.0189 56.4565 -229.324C54.0661 -231.389 51.6384 -233.473 49.2035 -235.561C112.698 -103.633 35.2514 -25.7558 -38.7354 48.634C-65.1402 75.1836 -91.0959 101.291 -110.033 129.256ZM-109.885 125.812C-109.914 126.398 -109.947 126.984 -109.972 127.571C-91.1031 100.134 -65.5674 74.4542 -39.6007 48.3461C34.5878 -26.2469 112.27 -104.349 47.3982 -237.114C44.866 -239.281 42.2854 -241.471 39.6912 -243.668C93.5806 -119.094 24.42 -39.3549 -42.0297 37.2148C-67.3858 66.4332 -92.3365 95.1933 -109.885 125.812ZM-109.71 122.387C-109.737 122.856 -109.757 123.326 -109.783 123.796C-92.2758 93.8333 -67.7947 65.6156 -42.9243 36.9567C23.7072 -39.8211 93.0665 -119.788 38.0277 -245.075C35.3792 -247.318 32.743 -249.554 30.0546 -251.817C74.7401 -134.626 13.6158 -53.5436 -45.4318 24.8003C-69.715 57.0186 -93.6451 88.7732 -109.71 122.387ZM-109.491 118.947L-109.555 119.918C-93.4935 87.1319 -70.0916 56.0714 -46.3489 24.5694C12.8643 -53.9932 74.1423 -135.322 28.4913 -253.13C25.76 -255.421 22.9404 -257.754 20.1382 -260.079C56.068 -150.34 2.83961 -68.4876 -48.9639 11.1247C-72.142 46.7449 -95.0284 81.9188 -109.491 118.947ZM-109.255 115.556L-109.277 115.821C-94.7532 79.862 -72.4672 45.6021 -49.9013 10.9208C2.04735 -68.9158 55.4294 -151.006 18.7095 -261.268C15.8474 -263.645 12.9747 -266.027 10.0579 -268.431C37.7293 -166.279 -7.89963 -84.42 -52.6437 -4.18393C-74.7026 35.3762 -96.5436 74.543 -109.255 115.556ZM-64.7292 -66.7928C-82.4031 -13.5064 -100.203 40.1698 -107.199 95.3371C-97.6726 48.5733 -79.5916 3.18484 -61.4931 -42.2333C-30.0859 -121.06 1.34682 -199.98 -11.9 -286.328C-15.0728 -288.894 -18.216 -291.445 -21.4585 -294.046C-14.9196 -216.979 -39.6919 -142.276 -64.7292 -66.7928ZM-110.885 125.703L-110.838 124.789L-110.993 125.117C-111.031 125.445 -111.074 125.772 -111.11 126.1L-110.885 125.703ZM-111.034 129.134C-111.015 128.671 -111.003 128.206 -110.983 127.743C-111.108 127.964 -111.237 128.184 -111.36 128.406L-111.507 129.834L-111.034 129.134ZM-111.157 132.574C-111.14 131.989 -111.115 131.406 -111.094 130.822C-111.303 131.134 -111.503 131.447 -111.707 131.76C-111.763 132.329 -111.807 132.901 -111.859 133.471C-111.625 133.172 -111.394 132.872 -111.157 132.574ZM-111.231 136.025L-111.192 134.043L-112 135.084C-112.057 135.741 -112.119 136.398 -112.17 137.056C-111.857 136.713 -111.546 136.368 -111.231 136.025ZM-111.284 139.5C-111.278 138.77 -111.269 138.041 -111.257 137.312C-111.593 137.683 -111.934 138.053 -112.266 138.425C-112.317 139.142 -112.37 139.86 -112.417 140.578C-112.042 140.218 -111.662 139.859 -111.284 139.5ZM-111.298 142.987C-111.298 142.201 -111.292 141.416 -111.289 140.631C-111.698 141.022 -112.099 141.416 -112.504 141.809C-112.551 142.571 -112.589 143.335 -112.63 144.097C-112.186 143.728 -111.744 143.357 -111.298 142.987ZM-111.271 146.485C-111.28 145.663 -111.298 144.841 -111.303 144.02C-111.763 144.404 -112.232 144.788 -112.689 145.174C-112.733 145.984 -112.778 146.795 -112.812 147.607C-112.302 147.232 -111.788 146.858 -111.271 146.485ZM-111.221 150.011C-111.24 149.145 -111.25 148.281 -111.259 147.416C-111.794 147.806 -112.318 148.197 -112.847 148.589C-112.878 149.426 -112.909 150.263 -112.935 151.101C-112.366 150.737 -111.794 150.374 -111.221 150.011ZM-111.116 153.537C-111.144 152.648 -111.172 151.759 -111.195 150.87C-111.788 151.247 -112.381 151.623 -112.967 152.002C-112.99 152.87 -113.003 153.739 -113.021 154.608C-112.388 154.25 -111.756 153.892 -111.116 153.537ZM-110.98 157.095C-111.02 156.177 -111.059 155.259 -111.093 154.342C-111.745 154.706 -112.389 155.073 -113.035 155.439C-113.052 156.33 -113.068 157.222 -113.074 158.114C-112.381 157.773 -111.679 157.434 -110.98 157.095ZM-110.812 160.664C-110.864 159.724 -110.903 158.786 -110.944 157.848C-111.656 158.196 -112.367 158.546 -113.073 158.897C-113.074 159.809 -113.075 160.721 -113.069 161.634C-112.318 161.31 -111.568 160.986 -110.812 160.664ZM-110.586 164.25C-110.649 163.294 -110.712 162.338 -110.769 161.383C-111.538 161.711 -112.306 162.039 -113.069 162.37C-113.059 163.3 -113.04 164.233 -113.024 165.164C-112.214 164.858 -111.403 164.553 -110.586 164.25ZM-110.328 167.861C-110.404 166.884 -110.476 165.908 -110.541 164.932C-111.372 165.241 -112.19 165.553 -113.009 165.865C-112.991 166.81 -112.972 167.756 -112.943 168.703C-112.077 168.42 -111.2 168.142 -110.328 167.861ZM-110.031 171.487C-110.118 170.497 -110.197 169.508 -110.274 168.52C-111.158 168.805 -112.041 169.09 -112.917 169.379C-112.883 170.34 -112.847 171.301 -112.803 172.265C-111.882 172.004 -110.96 171.744 -110.031 171.487ZM-109.676 175.133C-109.777 174.132 -109.884 173.13 -109.978 172.13C-110.915 172.391 -111.849 172.652 -112.779 172.915C-112.732 173.889 -112.672 174.865 -112.616 175.84C-111.641 175.602 -110.662 175.366 -109.676 175.133ZM-109.288 178.806C-109.402 177.787 -109.51 176.77 -109.613 175.753C-110.611 175.99 -111.594 176.231 -112.58 176.472C-112.523 177.457 -112.462 178.443 -112.392 179.431C-111.363 179.22 -110.326 179.013 -109.288 178.806ZM-75.6561 288C-94.8411 250.839 -105.152 214.734 -109.215 179.415C-110.262 179.624 -111.306 179.836 -112.344 180.05C-109.801 214.705 -100.416 250.466 -81.1226 287.835L-82.0825 288C-101.37 250.643 -110.77 214.896 -113.334 180.256C-114.362 180.469 -115.39 180.68 -116.407 180.897C-115.396 214.863 -106.951 250.26 -87.552 287.835L-88.5128 288C-107.903 250.443 -116.364 215.063 -117.405 181.115C-118.415 181.333 -119.42 181.552 -120.419 181.774C-120.967 215.035 -113.485 250.055 -93.9788 287.835L-94.9392 288C-114.434 250.24 -121.942 215.238 -121.432 181.994C-122.426 182.217 -123.408 182.445 -124.393 182.671C-126.531 215.213 -120.019 249.848 -100.405 287.835L-101.366 288C-120.964 250.039 -127.509 215.426 -125.421 182.907C-126.383 183.13 -127.339 183.356 -128.292 183.584C-132.056 215.393 -126.557 249.632 -106.834 287.835L-107.793 288C-127.5 249.832 -133.034 215.619 -129.335 183.834C-130.276 184.061 -131.218 184.287 -132.15 184.519C-137.569 215.58 -133.099 249.415 -113.263 287.835L-114.223 288C-134.036 249.625 -138.557 215.821 -133.217 184.789C-134.132 185.019 -135.047 185.249 -135.951 185.482C-143.057 215.779 -139.639 249.196 -119.69 287.834L-120.65 288C-140.572 249.415 -144.05 216.031 -137.039 185.764C-137.93 185.997 -138.807 186.235 -139.688 186.473C-148.518 215.987 -146.18 248.974 -126.116 287.835L-127.076 288C-147.106 249.206 -149.523 216.257 -140.816 186.774C-141.677 187.009 -142.525 187.248 -143.375 187.487C-153.962 216.203 -152.726 248.749 -132.546 287.835L-133.506 288C-153.643 248.998 -154.974 216.497 -144.539 187.816C-145.36 188.05 -146.182 188.284 -146.993 188.522C-159.374 216.424 -159.272 248.518 -138.972 287.835L-139.933 288C-160.175 248.793 -160.411 216.751 -148.224 188.89C-148.998 189.121 -149.778 189.349 -150.544 189.583C-164.76 216.653 -165.821 248.283 -145.4 287.835L-146.36 288C-166.712 248.582 -165.807 217.014 -151.833 189.987C-152.578 190.219 -153.319 190.454 -154.055 190.691C-170.13 216.906 -172.366 248.055 -151.828 287.835L-152.787 288C-173.243 248.378 -171.2 217.297 -155.418 191.125C-156.11 191.351 -156.785 191.584 -157.468 191.814C-175.455 217.159 -178.92 247.813 -158.256 287.835L-159.216 288C-179.773 248.185 -176.562 217.611 -158.954 192.313C-159.587 192.53 -160.214 192.751 -160.839 192.971C-180.767 217.426 -185.47 247.574 -164.683 287.835L-165.644 288C-186.295 248 -181.901 217.954 -162.456 193.549C-163.006 193.747 -163.565 193.943 -164.111 194.144C-186.039 217.691 -192.027 247.32 -171.11 287.835L-172.07 288C-192.804 247.842 -187.246 218.338 -165.965 194.85C-166.419 195.022 -166.877 195.193 -167.325 195.368C-191.281 217.985 -198.585 247.073 -177.539 287.835L-178.5 288C-199.301 247.71 -192.573 218.775 -169.476 196.222C-169.822 196.361 -170.167 196.502 -170.51 196.642C-196.51 218.305 -205.133 246.838 -183.967 287.835L-184.927 288C-205.772 247.625 -197.894 219.29 -173.033 197.693C-173.208 197.768 -173.381 197.845 -173.554 197.92C-201.684 218.612 -211.696 246.575 -190.393 287.835L-191.354 288C-212.041 247.931 -203.39 220.342 -177.346 199.771C-207.03 219.43 -218.065 246.687 -196.822 287.835L-197.781 288C-218.032 248.776 -209.168 222.106 -182.83 202.605C-212.822 221.186 -224.059 247.53 -203.25 287.835L-204.21 288C-224.009 249.65 -215.003 223.876 -188.513 205.387C-218.666 222.952 -230.036 248.403 -209.677 287.835L-210.637 288C-233.099 244.496 -217.271 217.902 -180.252 200.149C-178.477 199.131 -176.63 198.144 -174.742 197.172C-173.02 196.114 -171.256 195.072 -169.423 194.057C-167.773 192.969 -166.058 191.906 -164.306 190.858C-162.676 189.7 -161.003 188.559 -159.272 187.441C-157.733 186.262 -156.145 185.102 -154.514 183.957C-152.996 182.694 -151.427 181.451 -149.815 180.223C-148.394 178.94 -146.938 177.67 -145.433 176.417C-144.048 175.048 -142.608 173.698 -141.138 172.358C-139.815 170.925 -138.456 169.504 -137.054 168.099C-135.843 166.654 -134.599 165.22 -133.317 163.798C-132.155 162.257 -130.947 160.73 -129.715 159.211C-128.617 157.584 -127.485 155.968 -126.319 154.363C-125.313 152.682 -124.281 151.009 -123.212 149.347C-122.305 147.625 -121.377 145.909 -120.413 144.203C-119.593 142.404 -118.751 140.612 -117.875 138.827C-117.149 136.957 -116.399 135.091 -115.622 133.233C-114.991 131.284 -114.34 129.339 -113.66 127.4C-113.146 125.439 -112.605 123.483 -112.05 121.531C-111.621 119.419 -111.166 117.312 -110.694 115.208C-110.378 113.06 -110.04 110.915 -109.683 108.773C-104.092 48.8247 -84.8296 -9.26627 -65.7138 -66.9018C-40.5929 -142.635 -15.7352 -217.581 -22.5352 -294.904C-76.1716 -337.875 -138.51 -385.119 -210.548 -437.111L-209.769 -437.471C-138.123 -385.763 -76.0845 -338.751 -22.6388 -295.956C-22.722 -296.877 -22.815 -297.799 -22.9088 -298.721C-74.5382 -340.581 -134.597 -386.549 -204.123 -437.111L-203.34 -437.471C-134.212 -387.199 -74.452 -341.467 -23.0128 -299.788C-23.1105 -300.711 -23.2192 -301.635 -23.3245 -302.559C-72.9355 -343.303 -130.703 -387.989 -197.696 -437.112L-196.909 -437.47C-130.331 -388.652 -72.8675 -344.213 -23.4548 -303.659C-23.5648 -304.578 -23.6633 -305.496 -23.7826 -306.414C-71.3603 -346.04 -126.83 -389.441 -191.269 -437.114L-190.483 -437.469C-126.476 -390.116 -71.3149 -346.972 -23.9402 -307.55C-24.0633 -308.477 -24.1966 -309.403 -24.3295 -310.331C-69.8501 -348.82 -123.005 -390.922 -184.843 -437.115L-184.052 -437.468C-122.655 -391.604 -69.8064 -349.763 -24.4908 -311.486C-24.6292 -312.417 -24.7787 -313.349 -24.9256 -314.281C-68.3704 -351.62 -119.219 -392.425 -178.419 -437.116L-177.624 -437.467C-118.889 -393.126 -68.3483 -352.598 -25.1204 -315.486C-25.2669 -316.388 -25.4045 -317.289 -25.5599 -318.191C-66.9426 -354.41 -115.391 -393.891 -171.992 -437.117L-171.192 -437.466C-115.066 -394.603 -66.9562 -355.419 -25.7892 -319.439C-25.9531 -320.361 -26.1229 -321.283 -26.2965 -322.206C-65.5733 -357.265 -111.653 -395.42 -165.568 -437.118L-164.764 -437.465C-111.327 -396.136 -65.5903 -358.288 -26.5288 -323.475C-26.7075 -324.4 -26.902 -325.324 -27.0905 -326.249C-64.2473 -360.143 -107.942 -396.962 -159.143 -437.121L-158.335 -437.463C-107.632 -397.695 -64.2979 -361.203 -27.3626 -327.573C-27.555 -328.487 -27.7414 -329.402 -27.9418 -330.318C-62.9626 -363.041 -104.257 -398.518 -152.716 -437.122L-151.904 -437.461C-103.964 -399.271 -63.0509 -364.146 -28.259 -331.707C-28.464 -332.62 -28.6703 -333.533 -28.8856 -334.446C-61.7491 -365.984 -100.614 -400.1 -146.291 -437.124L-145.475 -437.459C-100.326 -400.862 -61.8502 -367.113 -29.218 -335.873C-29.4388 -336.788 -29.68 -337.705 -29.9101 -338.62C-60.5968 -368.962 -97.0081 -401.703 -139.864 -437.127L-139.045 -437.457C-96.7394 -402.488 -60.7374 -370.142 -30.2893 -340.122C-30.5173 -341.004 -30.7491 -341.885 -30.9864 -342.768C-59.4963 -371.932 -93.3967 -403.289 -133.442 -437.128L-132.615 -437.455C-93.1903 -404.139 -59.6882 -373.216 -31.4441 -344.43C-31.6768 -345.274 -31.901 -346.117 -32.1425 -346.961C-58.4536 -374.937 -89.8256 -404.899 -127.016 -437.132L-126.182 -437.451C-89.6485 -405.79 -58.702 -376.306 -32.6682 -348.751C-32.9106 -349.577 -33.1607 -350.403 -33.4116 -351.23C-57.4979 -377.998 -86.3075 -406.543 -120.592 -437.134L-119.753 -437.449C-86.1496 -407.466 -57.7849 -379.438 -33.9801 -353.128C-34.2289 -353.928 -34.4985 -354.73 -34.7558 -355.531C-56.5978 -381.085 -82.8285 -408.207 -114.17 -437.139L-113.32 -437.444C-82.7207 -409.198 -56.9807 -382.672 -35.4415 -357.646C-35.6865 -358.39 -35.9302 -359.133 -36.1828 -359.878C-55.7571 -384.207 -79.3899 -409.893 -107.745 -437.143L-106.887 -437.44C-79.3521 -410.978 -56.2713 -385.992 -37.0226 -362.286C-37.2591 -362.959 -37.4879 -363.633 -37.7295 -364.308C-55.0085 -387.393 -76.0132 -411.617 -101.324 -437.148L-100.454 -437.435C-76.0599 -412.829 -55.6828 -389.441 -38.7587 -367.11C-38.9719 -367.686 -39.1871 -368.262 -39.4049 -368.839C-54.3615 -390.654 -72.6947 -413.384 -94.9023 -437.154L-94.0204 -437.428C-72.8782 -414.799 -55.2756 -393.119 -40.7186 -372.264C-40.8506 -372.601 -40.9894 -372.939 -41.1236 -373.276C-53.7539 -393.861 -69.3703 -415.12 -88.4814 -437.163L-87.5876 -437.42C-70.0526 -417.195 -55.4629 -397.631 -43.4091 -378.638C-53.607 -397.706 -66.3426 -417.192 -82.0618 -437.173L-81.1481 -437.41C-67.6729 -420.28 -56.3893 -403.513 -47.0061 -387.062C-54.5632 -403.605 -64.0096 -420.302 -75.6417 -437.185L-74.714 -437.398C-60.8834 -417.327 -50.1263 -397.519 -41.9749 -377.924C-40.274 -374.724 -38.6335 -371.534 -37.0732 -368.358C-35.0654 -364.967 -33.1666 -361.602 -31.3133 -358.247C-29.0801 -354.771 -26.9169 -351.314 -24.8534 -347.885C-22.3438 -344.242 -19.9088 -340.622 -17.5952 -337.04C-14.931 -333.363 -12.3925 -329.729 -9.91719 -326.116C-7.13834 -322.44 -4.44693 -318.794 -1.85065 -315.183C1.19231 -311.315 4.14561 -307.482 6.97882 -303.694C10.24 -299.678 13.3577 -295.719 16.3904 -291.794C19.5654 -287.981 22.6419 -284.208 25.6144 -280.479C28.8645 -276.671 32.0272 -272.9 35.0774 -269.177C39.0467 -264.647 42.8238 -260.2 46.4964 -255.799C49.994 -251.858 53.3881 -247.964 56.6663 -244.119C60.1852 -240.224 63.5983 -236.376 66.9104 -232.574C71.0645 -228.054 75.0955 -223.588 78.974 -219.194C82.8903 -214.986 86.6864 -210.834 90.3505 -206.743C94.3564 -202.492 98.2484 -198.293 101.996 -194.163C106.13 -189.825 110.153 -185.54 114.019 -181.329C118.079 -177.105 122.039 -172.929 125.853 -168.824C129.882 -164.673 133.805 -160.574 137.597 -156.538C141.681 -152.374 145.631 -148.276 149.475 -144.231C303.562 11.3555 286.224 82.2114 205.814 119.386C154.102 143.293 76.3552 153.24 1.34555 162.836C-37.2209 167.771 -75.0529 172.616 -108.232 179.218C-104.186 214.55 -93.8854 250.667 -74.6958 287.835L-75.6561 288Z" fill="url(#paint0_linear_4502_905)"/>
<defs>
<linearGradient id="paint0_linear_4502_905" x1="675.094" y1="-192.531" x2="100.941" y2="516.445" gradientUnits="userSpaceOnUse">
<stop stop-color="#0AFB6A"/>
<stop offset="1" stop-color="#E6FF81"/>
</linearGradient>
</defs>
</svg>

