<svg width="699" height="952" viewBox="0 0 699 952" fill="none" xmlns="http://www.w3.org/2000/svg">
<g opacity="0.15">
<path d="M0.614645 0.485901C380.948 0.195052 761.3 1.0676 1141.63 0.485901C1141.17 441.608 1141.17 882.73 1141.63 1323.85C761.3 1324.58 380.948 1322.74 0.614645 1323.85C1.40565 882.73 -0.0774809 441.608 0.614645 0.485901Z" stroke="#C6FE7D" stroke-width="0.849443" stroke-miterlimit="10"/>
<path d="M0.610352 1083.32C55.9804 1092.53 16.9445 1226.32 24.0042 1265.61C42.9091 1370.63 129.642 1229.76 149.852 1196.92C186.555 1137.27 219.065 1073.6 257.152 1015.14C277.342 984.161 303.524 933.238 336.39 922.598C394.114 903.935 490.26 1020.4 529.592 1057.09C577.705 1101.95 657.023 1204.67 723.19 1192.58C753.663 1187 791.394 1151.01 814.946 1130.7C853.586 1097.33 890.269 1060.65 928.059 1025.9C956.911 999.236 1050.31 896.906 1089.74 953.912C1113.77 988.645 1084.22 1082.64 1141.75 1083.12" stroke="#C6FE7D" stroke-width="0.849443" stroke-miterlimit="10"/>
<path d="M0.610352 963.023C50.8191 978.607 51.887 1021.92 86.4537 1060.92C131.936 1112.23 178.487 1056.92 213.35 1015.86C255.075 966.755 306.075 864.643 368.208 848.889C420.79 835.558 502.145 894.406 548.477 917.893C601.771 944.869 669.659 994.943 729.063 987.624C789.159 980.207 848.425 933.817 902.609 904.683C942.159 883.403 1009.99 836.818 1052.9 871.09C1092.73 902.938 1087.92 950.516 1141.89 962.877" stroke="#C6FE7D" stroke-width="0.849443" stroke-miterlimit="10"/>
<path d="M0.718262 842.47C74.3802 827.394 142.505 793.05 214.19 768.57C265.783 750.925 298.115 744.842 345.951 774.532C374.506 792.25 405.276 821.941 438.34 825.989C486.393 831.878 546.608 784.591 588.294 760.547C630.573 736.189 689.838 686.793 738.386 695.106C779.913 702.256 816.497 751.24 848.216 780.495C891.544 820.438 921.878 826.667 974.777 829.697C1030.76 832.921 1085.32 843.73 1141.58 842.591" stroke="#C6FE7D" stroke-width="0.849443" stroke-miterlimit="10"/>
<path d="M0.610352 722.3C113.981 703.225 242.142 542.045 350.055 642.97C385.353 675.982 421.383 735.339 469.1 741.811C518.202 748.452 564.95 695.154 600.13 661.027C636.773 625.471 681.504 573.481 732.069 581.528C770.116 587.588 797.959 624.235 827.681 649.854C868.734 685.192 901.224 684.901 949.614 691.251C1014.4 699.759 1076.17 722.081 1141.65 722.372" stroke="#C6FE7D" stroke-width="0.849443" stroke-miterlimit="10"/>
<path d="M0.610352 602.027C55.3279 593.811 86.6515 551.758 134.863 524.297C194.959 490.074 249.202 526.333 304.829 559.418C375.209 601.227 458.442 680.605 539.262 689.912C580.118 694.638 599.299 667.008 622.139 630.651C647.629 590.054 663.944 580.65 703.019 568.313C739.999 556.654 760.07 524.855 787.656 495.261C826.851 453.257 860.824 447.634 909.787 472.09C989.322 511.815 1056.12 580.892 1141.59 602.003" stroke="#C6FE7D" stroke-width="0.849443" stroke-miterlimit="10"/>
<path d="M0.610352 481.645C48.9603 473.016 83.9621 442.38 128.733 421.487C190.352 392.766 244.773 426.505 302.535 457.238C378.531 497.666 465.679 567.639 550.02 579.564C585.951 584.654 599.655 567.445 616.919 534.579C636.457 497.448 647.135 499.096 680.397 486.807C726.987 469.599 753.109 410.968 782.871 368.044C822.065 311.474 854.773 291.89 912.397 326.064C992.269 373.449 1052.48 459.152 1141.65 481.693" stroke="#C6FE7D" stroke-width="0.849443" stroke-miterlimit="10"/>
<path d="M0.610352 361.447C124.62 366.755 254.937 360.283 377.839 380.837C429.392 389.489 484.209 389.926 534.061 402.408C633.688 427.324 731.218 339.633 817.833 287.74C868.951 257.104 947.359 197.722 1004.81 238.853C1057.86 276.785 1076.67 346.831 1141.63 361.398" stroke="#C6FE7D" stroke-width="0.849443" stroke-miterlimit="10"/>
<path d="M0.610352 241.109C98.3583 249.034 194.406 273.757 291.402 289.584C319.858 294.237 393.718 321.698 415.411 283.621C429.57 258.754 414.047 246.368 448.218 241.545C481.42 236.867 482.231 250.319 494.65 275.477C508.71 303.932 508.71 311.834 544.246 308.392C584.231 304.417 631.513 279.816 668.413 264.11C724.732 240.163 780.399 214.011 836.501 189.119C884.455 167.815 997.885 94.5932 1050.55 138.948C1091.9 173.825 1084.7 227.245 1141.67 241.06" stroke="#C6FE7D" stroke-width="0.849443" stroke-miterlimit="10"/>
<path d="M0.610352 120.769C116.65 124.72 241.035 168.032 356.185 140.014C419.465 124.599 473.273 114.056 536.968 136.16C636.714 170.771 732.622 126.611 830.212 97.0651C885.582 80.2686 944.907 59.182 1002.25 74.5001C1051.24 87.7337 1090.21 116.819 1141.63 120.794" stroke="#C6FE7D" stroke-width="0.849443" stroke-miterlimit="10"/>
<path d="M726.597 0.480957C707.02 89.796 656.613 154.971 619.812 233.67C588.824 300.08 586.53 344.798 634.386 395.164C666.58 429.096 706.189 453.334 719.201 506.414C726.775 537.292 724.698 551.592 744.276 574.521C768.401 602.782 767.788 621.542 767.274 663.86C765.989 766.506 766.503 869.127 766.74 971.676C766.918 1041.75 777.834 1135.98 758.652 1204.74C746.49 1248.37 728.159 1275.03 726.597 1323.77" stroke="#C6FE7D" stroke-width="0.849443" stroke-miterlimit="10"/>
<path d="M622.922 0.480957C605.539 90.4747 555.528 157.758 520.349 237.523C488.135 310.72 491.793 353.5 541.923 407.67C578.566 447.299 630.298 480.674 643.527 542.334C647.482 560.851 648.431 582.374 652.07 600.77C674.455 713.741 646.652 843.411 635.439 957.328C623.337 1080.31 627.786 1200.87 623.06 1323.87" stroke="#C6FE7D" stroke-width="0.849443" stroke-miterlimit="10"/>
<path d="M519.32 0.480957C518.885 69.9698 503.381 134.369 494.72 202.428C485.109 278.485 497.666 334.279 528.614 400.593C568.817 486.806 663.084 614.925 570.32 690.74C535.812 718.928 537.018 731.459 524.956 779.206C514.416 820.895 485.208 842.927 462.526 874.169C423.371 928.097 433.121 975.045 449.593 1040.97C473.323 1135.5 507.04 1225.3 519.241 1323.73" stroke="#C6FE7D" stroke-width="0.849443" stroke-miterlimit="10"/>
<path d="M415.487 0.480957C414.399 66.6008 423.397 130.515 427.669 196.15C432.434 268.232 437.912 327.517 457.43 396.788C476.374 464.071 511.198 541.267 513.354 613.277C514.599 655.062 492.946 679.3 468.464 702.955C434.847 735.434 435.658 753.297 420.372 799.202C406.292 841.521 364.626 848.017 335.339 869.297C280.918 908.828 296.975 963.387 318.51 1027.88C351.653 1127.09 402.871 1215.92 415.586 1323.58" stroke="#C6FE7D" stroke-width="0.849443" stroke-miterlimit="10"/>
<path d="M311.859 0.480957C325.524 84.9243 368.534 149.347 398.434 225.38C424.003 290.385 423.806 333.552 380.3 382.439C351.686 414.602 306.342 443.299 299.223 494.925C293.785 534.287 316.882 574.4 333.335 605.375C355.799 647.621 372.746 683.977 362.78 735.482C343.677 834.25 266.139 926.352 220.123 1006.89C189.768 1060.09 115.177 1165.82 182.254 1218.68C227.637 1254.48 291.333 1254.67 311.74 1323.97" stroke="#C6FE7D" stroke-width="0.849443" stroke-miterlimit="10"/>
<path d="M208.137 0.480957C228.347 94.4981 288.403 159.236 329.971 239.244C341.974 262.318 366.772 305.631 356.291 336.655C347.135 363.801 308.831 372.017 289.906 376.549C250.752 385.905 156.425 378.246 141.297 437.143C129.214 484.309 190.359 534.941 213.871 558.961C255.102 601.085 293.446 633.467 280.513 703.61C271.298 753.515 243.277 801.99 222.948 846.441C187.61 923.928 149.128 999.065 112.702 1075.61C97.5151 1107.55 -18.762 1301.43 65.8751 1313.01C97.9502 1317.4 198.763 1260.25 208.038 1323.92" stroke="#C6FE7D" stroke-width="0.849443" stroke-miterlimit="10"/>
<path d="M104.327 0.480957C113.997 116.045 218.904 265.033 141.603 369.521C114.768 405.877 79.2524 430.938 74.19 483.873C69.8197 530.239 90.8406 576.121 106.937 616.113C126.712 665.072 143.64 708.7 137.431 764.494C127.879 850.513 87.4788 934.326 60.9012 1013.53C42.2138 1069.28 5.25425 1156.54 39.9396 1214.54C66.4184 1258.79 97.2872 1262.04 104.347 1323.87" stroke="#C6FE7D" stroke-width="0.849443" stroke-miterlimit="10"/>
</g>
</svg>

